<svg xmlns="http://www.w3.org/2000/svg" viewBox="0 0 660 512.33"><defs><style>.cls-1{opacity:0.3;}.cls-2{fill:#b7b7b7;}.cls-3{fill:#d8d8d8;}</style></defs><title>about overlay layer</title><g id="Layer_2" data-name="Layer 2"><g id="bg_About_us" data-name="bg About us"><g id="light_design" data-name="light design" class="cls-1"><path class="cls-2" d="M485.74,371.07s-36.56,75.38-156.57,27.57c-18.57-7.83-44.42-4.91-61.83,4.81-26.15,14.59-42.17,39.64-47.66,46.66-3.19,4.07-12.1,21.38-28.67,36-25,23.67-72.22,27.75-109.39,24.67l-5.51-56.22,217-91Z"/><g id="_Grey_" data-name="&lt;Grey&gt;"><path class="cls-2" d="M321.24,0s3.5,71.87,86.5,73.87,110,9,140,50c43,48.5,106.26,12.5,108.26-29.5s0-34.51,0-34.51L660,0Z"/><path class="cls-3" d="M328.26,0s.22,63.87,83.22,65.87,110,9,140,50c43,48.5,106.25,12.5,108.25-29.5C659.73,44.14,660,0,660,0Z"/><path class="cls-2" d="M0,176s6.74,77,48.74,77,57,19.61,60,42.3,75,81.7,142,41.7,51-77.17,114-110.09,130.94,13.57,137,61.83-16,82.35-16,82.35H0Z"/><path class="cls-3" d="M0,180.87s-.26,77,41.74,77,57,19.61,60,42.31,75,81.69,142,41.69,51-77.17,114-110.09,130.94,13.57,137,61.83-16.26,77.46-16.26,77.46H0Z"/></g><path class="cls-3" d="M478.45,371.07s-37.77,70.63-157.21,21.66c-49.06-15.28-82.49,11-116.78,63.07C148.26,541.06,27,522.7,0,448.46V371.07Z"/></g></g></g></svg>