<svg xmlns="http://www.w3.org/2000/svg" xmlns:xlink="http://www.w3.org/1999/xlink" viewBox="0 0 403.74 497.34"><defs><style>.cls-1{fill:url(#linear-gradient);}.cls-2{fill:none;}.cls-3{fill:url(#linear-gradient-2);}.cls-4{clip-path:url(#clip-path);}.cls-5{fill:url(#New_Gradient_Swatch_10);}.cls-6{clip-path:url(#clip-path-4);}.cls-7{clip-path:url(#clip-path-5);}.cls-8{clip-path:url(#clip-path-7);}.cls-9{clip-path:url(#clip-path-9);}.cls-10{clip-path:url(#clip-path-10);}.cls-11{clip-path:url(#clip-path-12);}.cls-12{clip-path:url(#clip-path-14);}.cls-13{clip-path:url(#clip-path-15);}.cls-14{clip-path:url(#clip-path-17);}.cls-15{clip-path:url(#clip-path-19);}.cls-16{clip-path:url(#clip-path-20);}.cls-17{clip-path:url(#clip-path-21);}.cls-18{clip-path:url(#clip-path-23);}.cls-19{clip-path:url(#clip-path-24);}.cls-20{fill:#edf4ff;}.cls-21{fill:#b5f7c0;}.cls-22{fill:url(#linear-gradient-3);}.cls-23{mask:url(#mask);}.cls-24{fill:url(#linear-gradient-4);}.cls-25{fill:#164359;}.cls-26{fill:url(#linear-gradient-5);}.cls-27{fill:#004068;}.cls-28{fill:url(#linear-gradient-6);}.cls-29{fill:url(#linear-gradient-7);}.cls-30{fill:url(#linear-gradient-8);}.cls-31,.cls-68{fill:#fff;}.cls-32{fill:#afcdfb;}.cls-33{fill:#dfebfd;}.cls-34{fill:url(#linear-gradient-9);}.cls-35{fill:url(#linear-gradient-10);}.cls-36{fill:#f8fcff;}.cls-37{fill:#56499e;}.cls-38{fill:#8c75eb;}.cls-39{fill:#cce1ff;}.cls-40{fill:#98baf4;}.cls-41{fill:url(#linear-gradient-11);}.cls-42{fill:#bdd7fd;}.cls-43{opacity:0.5;}.cls-44{fill:url(#linear-gradient-12);}.cls-45{fill:#233862;}.cls-46{opacity:0.3;}.cls-47{fill:#172944;}.cls-48{fill:#2b478b;}.cls-49{fill:#a8302d;}.cls-50{fill:#a2c2dd;}.cls-51{fill:#e51a1a;}.cls-52{fill:#163560;}.cls-53{fill:#ffb27d;}.cls-54{fill:#e8945b;}.cls-55{fill:#ebf3fa;}.cls-56{fill:#ed7d2b;}.cls-57{fill:#f99746;}.cls-58{fill:#17467f;}.cls-59{fill:#0c2442;}.cls-60{fill:#9db0f4;}.cls-61{fill:#e2915a;}.cls-62{fill:#aec3ff;}.cls-63{fill:#c65447;}.cls-64{fill:#006;}.cls-65{fill:#09f;}.cls-66{fill:#f6c;}.cls-67{fill:#ed1c24;}.cls-68{font-size:13.64px;font-family:Loew-Heavy, Loew;}.cls-69{fill:#e4e8ef;}.cls-70{fill:url(#New_Gradient_Swatch_10-183);}.cls-71{fill:#0a0a4a;}.cls-72{fill:#f176bb;}</style><linearGradient id="linear-gradient" x1="-1056.7" y1="-117.89" x2="-1056.57" y2="-117.89" gradientTransform="matrix(581.22, 0, 0, -581.22, 614504.28, -68313.31)" gradientUnits="userSpaceOnUse"><stop offset="0" stop-color="#fff"/><stop offset="0.46" stop-color="#fff"/><stop offset="0.89" stop-color="#fafafa"/><stop offset="1" stop-color="#fafafa"/></linearGradient><linearGradient id="linear-gradient-2" x1="286.38" y1="214.5" x2="286.38" y2="143.36" gradientUnits="userSpaceOnUse"><stop offset="0" stop-color="#007eff"/><stop offset="0.31" stop-color="#008fff"/><stop offset="0.43" stop-color="#00aef4"/><stop offset="0.59" stop-color="#00d1e7"/><stop offset="0.75" stop-color="#00eade"/><stop offset="0.89" stop-color="#00fad8"/><stop offset="1" stop-color="#00ffd6"/></linearGradient><clipPath id="clip-path" transform="translate(-24.91)"><rect class="cls-2" y="3.5" width="429.56" height="344.94"/></clipPath><linearGradient id="New_Gradient_Swatch_10" x1="124.78" y1="132.24" x2="553.76" y2="340.72" gradientUnits="userSpaceOnUse"><stop offset="0.31" stop-color="#0a0a4a"/><stop offset="0.68" stop-color="#a8459e"/><stop offset="0.9" stop-color="#f6c"/></linearGradient><clipPath id="clip-path-4" transform="translate(-24.91)"><path class="cls-2" d="M85.62,136.16c.39,9.24-8.74,8.11-5.16,18.86,3.08,9.27,13.56,5.67,13.56,5.67L117.42,144s-1.7-10.63-10.69-15a25.18,25.18,0,0,0-9.92-2c-5.78,0-11.49,2.1-11.19,9.08"/></clipPath><clipPath id="clip-path-5" transform="translate(-24.91)"><path class="cls-2" d="M324.39,234.05h72c1.64,0,5.23-11,5.88-12.77.06-.15.12-.31.17-.46a33.8,33.8,0,0,0-10.26-14.5c-5.53-4.46-12.2-4.37-18.12-4.27-6.88.11-12.73.22-14.52-6.86C356.18,182,340.45,181,340.45,181Z"/></clipPath><clipPath id="clip-path-7" transform="translate(-24.91)"><rect class="cls-2" x="166.33" y="132.07" width="119.8" height="102.58"/></clipPath><clipPath id="clip-path-9" transform="translate(-24.91)"><rect class="cls-2" x="232.24" y="99.99" width="110.18" height="3.73"/></clipPath><clipPath id="clip-path-10" transform="translate(-24.91)"><rect class="cls-2" x="166.33" y="141.34" width="77.51" height="19.07"/></clipPath><clipPath id="clip-path-12" transform="translate(-24.91)"><rect class="cls-2" x="104.04" y="184.84" width="62.29" height="8.45"/></clipPath><clipPath id="clip-path-14" transform="translate(-24.91)"><rect class="cls-2" x="89.5" y="143.98" width="76.83" height="4.02"/></clipPath><clipPath id="clip-path-15" transform="translate(-24.91)"><path class="cls-2" d="M25.57,207.15a33.3,33.3,0,0,0,1,13.36,25.41,25.41,0,0,0,4.86,9.23c1.06,1.28,2.53,3.54,4.29,4.17h68.66c3.44-8.38-5.63-18.76-15-16.6s-11.88,9.87-17.82,5.24-13.44-1.54-17.5-1.34-3.44-9.45-12.19-12.54c-3.38-1.19-8.57-1.59-13.09-1.59-1.12,0-2.21,0-3.21.07"/></clipPath><clipPath id="clip-path-17" transform="translate(-24.91)"><path class="cls-2" d="M183.19,227.73a5.43,5.43,0,0,0-4.15,5.84h19.75s1.71-4.15-3.7-7.69a7.11,7.11,0,0,0-3.9-1.39c-2.78,0-4.67,2.4-8,3.24"/></clipPath><clipPath id="clip-path-19" transform="translate(-24.91)"><rect class="cls-2" x="102.01" y="158.39" width="55.08" height="13.63"/></clipPath><clipPath id="clip-path-20" transform="translate(-24.91)"><rect class="cls-2" x="102.01" y="202.3" width="55.08" height="13.63"/></clipPath><clipPath id="clip-path-21" transform="translate(-24.91)"><path class="cls-2" d="M123.28,144h23.81c-.33-3-5.66-3.44-7.49-2.64s-3.5-4.17-8.83-4.34h-.18c-5.19,0-7.31,7-7.31,7"/></clipPath><clipPath id="clip-path-23" transform="translate(-24.91)"><rect class="cls-2" x="373.15" y="208.13" width="3.7" height="5.59"/></clipPath><clipPath id="clip-path-24" transform="translate(-24.91)"><rect class="cls-2" x="171.14" y="145.06" width="11.47" height="11.62"/></clipPath><linearGradient id="linear-gradient-3" x1="-1052.99" y1="-121.81" x2="-1052.86" y2="-121.81" gradientTransform="matrix(281.57, 0, 0, -281.57, 296544.13, -34153.22)" gradientUnits="userSpaceOnUse"><stop offset="0" stop-color="#36e864"/><stop offset="0.46" stop-color="#29bc00"/><stop offset="0.86" stop-color="#30db00"/><stop offset="1" stop-color="#30db00"/></linearGradient><mask id="mask" x="299.49" y="181.04" width="78.02" height="53.02" maskUnits="userSpaceOnUse"><g transform="translate(-24.91)"><rect class="cls-1" x="324.39" y="181.04" width="78.02" height="53.02"/></g></mask><linearGradient id="linear-gradient-4" x1="-1056.7" y1="-117.89" x2="-1056.57" y2="-117.89" gradientTransform="matrix(581.22, 0, 0, -581.22, 614479.31, -68313.3)" gradientUnits="userSpaceOnUse"><stop offset="0" stop-color="#36e864"/><stop offset="0.46" stop-color="#29bc00"/><stop offset="0.89" stop-color="#308b00"/><stop offset="1" stop-color="#308b00"/></linearGradient><linearGradient id="linear-gradient-5" x1="-1054.17" y1="-117.11" x2="-1054.03" y2="-117.11" gradientTransform="matrix(909.09, 402.04, 402.04, -909.09, 1005548.11, 317508.17)" gradientUnits="userSpaceOnUse"><stop offset="0" stop-color="#f576ff"/><stop offset="0.11" stop-color="#f576ff"/><stop offset="0.21" stop-color="#e376fc"/><stop offset="0.45" stop-color="#bd75f4"/><stop offset="0.66" stop-color="#a275ef"/><stop offset="0.85" stop-color="#9275ec"/><stop offset="1" stop-color="#8c75eb"/></linearGradient><linearGradient id="linear-gradient-6" x1="-1055.46" y1="-118.03" x2="-1055.32" y2="-118.03" gradientTransform="matrix(820.81, 0, 0, -820.81, 866533.9, -96774.97)" gradientUnits="userSpaceOnUse"><stop offset="0" stop-color="#ffc850"/><stop offset="0.45" stop-color="#ffa442"/><stop offset="0.69" stop-color="#ff8e39"/><stop offset="1" stop-color="#ff8720"/></linearGradient><linearGradient id="linear-gradient-7" x1="-1054.95" y1="-118.53" x2="-1054.81" y2="-118.53" gradientTransform="matrix(577.42, 0, 0, -577.42, 609284.05, -68290.04)" gradientUnits="userSpaceOnUse"><stop offset="0" stop-color="#28a8e0"/><stop offset="0.06" stop-color="#259cdc"/><stop offset="0.38" stop-color="#1967cc"/><stop offset="0.65" stop-color="#1040bf"/><stop offset="0.87" stop-color="#0a29b8"/><stop offset="1" stop-color="#0820b5"/></linearGradient><linearGradient id="linear-gradient-8" x1="-1054.09" y1="-118.73" x2="-1053.96" y2="-118.73" gradientTransform="matrix(464, 0, 0, -464, 489171.42, -54903.25)" xlink:href="#linear-gradient-6"/><linearGradient id="linear-gradient-9" x1="-1054.08" y1="-118.61" x2="-1053.95" y2="-118.61" gradientTransform="matrix(572.35, 0, 0, -572.35, 603371.11, -67740.97)" xlink:href="#linear-gradient-6"/><linearGradient id="linear-gradient-10" x1="-1053.42" y1="-117.7" x2="-1053.28" y2="-117.7" gradientTransform="matrix(594.65, 0, 0, -594.65, 626413.66, -69769.35)" xlink:href="#linear-gradient-3"/><linearGradient id="linear-gradient-11" x1="-1055.59" y1="-123.75" x2="-1055.45" y2="-123.75" gradientTransform="matrix(149.14, 0, 0, -149.14, 157586.1, -18227.47)" xlink:href="#linear-gradient-3"/><linearGradient id="linear-gradient-12" x1="-1053.45" y1="-125.62" x2="-1053.32" y2="-125.62" gradientTransform="matrix(177.37, 0, 0, -177.37, 186951.33, -22140.72)" xlink:href="#linear-gradient-3"/><linearGradient id="New_Gradient_Swatch_10-183" x1="465.54" y1="416.33" x2="114.56" y2="189.85" xlink:href="#New_Gradient_Swatch_10"/></defs><title>About layer Image</title><g id="Layer_2" data-name="Layer 2"><g id="bg_About_us" data-name="bg About us"><g id="colour_design" data-name="colour design"><path class="cls-3" d="M165.06,352.93c-16.62-18-33-48.28-8.51-85.78a171.56,171.56,0,0,1,50-52.33c93.83-71.69,161-51.23,195.59-29.42a57.62,57.62,0,0,1,26.55,48.84l-.07,79.29c0,31.79-25.39,57.54-56.66,57.54H206.33A56.13,56.13,0,0,1,165.06,352.93Z" transform="translate(-24.91)"/><g class="cls-4"><g class="cls-4"><g class="cls-4"><path class="cls-5" d="M409.86,183.24a116.72,116.72,0,0,1-7.62,38C401.59,223,398,234,396.36,234h-7.67l-85.08,0-167.66,0q-49.65,0-99.29,0c-2.17,0-4-2.85-5.22-4.35a25.41,25.41,0,0,1-4.86-9.23,35.07,35.07,0,0,1,.3-19.78c1.33-4.61,4.16-9.25,6.31-12.74a84.55,84.55,0,0,1,17.24-19.62c7.61-6.54,17.41-12.57,21.16-22.43,5.55-14.59-4-28.9-2.67-43.6,2.17-24.51,26.21-42.82,47.33-51.09,16.36-6.41,34.5-8,51.91-7.4a185.24,185.24,0,0,1,25.42,2.58c7.68,1.32,16.72,2.67,23.76,6.23a103.93,103.93,0,0,1,39.23,26.62c5.38,5.71,10.16,12.13,16,17.34,7,6.23,14.18,6,22.9,4.29,16.6-3.3,32.82-6.89,49.64-2.75,16.3,4,30.31,14,41.88,26.06a82.07,82.07,0,0,1,22.84,59c0,.84.1-5.26,0,0" transform="translate(-24.91)"/><path class="cls-5" d="M98.52,180s-12.71-3.19-17.71,4.81-15,8.3-20.23,14.73-9.24,18,2.75,23.71,41.8-2.67,41.8-2.67l5.7-37.26Z" transform="translate(-24.91)"/></g><g class="cls-6"><rect class="cls-5" x="51.97" y="127.08" width="40.54" height="37.2"/></g><g class="cls-7"><rect class="cls-5" x="299.49" y="181.04" width="78.02" height="53.02"/></g><g class="cls-4"><rect class="cls-5" x="209.47" y="101.86" width="106.07" height="132.33"/><rect class="cls-5" x="220.05" y="108.33" width="95.49" height="14.41"/></g><g class="cls-8"><polygon class="cls-5" points="161.02 87.18 298.68 148.85 241.62 279.53 103.96 217.86 161.02 87.18"/></g><g class="cls-4"><rect class="cls-5" x="138.46" y="128.34" width="124.63" height="3.73"/></g><g class="cls-9"><rect class="cls-5" x="207.33" y="99.99" width="110.18" height="3.73"/></g><g class="cls-10"><rect class="cls-5" x="141.42" y="141.34" width="77.51" height="19.07"/></g><g class="cls-4"><rect class="cls-5" x="69.11" y="144.22" width="72.31" height="40.62"/><rect class="cls-5" x="69.11" y="193.29" width="72.31" height="40.62"/></g><g class="cls-11"><rect class="cls-5" x="79.13" y="184.84" width="62.29" height="8.45"/></g><g class="cls-4"><path class="cls-5" d="M176.87,157.72a6.73,6.73,0,0,1-4.8-2,7,7,0,0,1,0-9.72,6.74,6.74,0,0,1,9.6,0,6.93,6.93,0,0,1,0,9.72,6.73,6.73,0,0,1-4.8,2m0-13.11a6.07,6.07,0,0,0-4.35,1.83,6.28,6.28,0,0,0,0,8.82,6.1,6.1,0,0,0,8.71,0,6.3,6.3,0,0,0,0-8.82,6.09,6.09,0,0,0-4.36-1.83" transform="translate(-24.91)"/><polygon class="cls-5" points="156.35 149.73 153.07 149.73 153.07 146.41 150.86 146.41 150.86 149.73 147.58 149.73 147.58 151.97 150.86 151.97 150.86 155.28 153.07 155.28 153.07 151.97 156.35 151.97 156.35 149.73"/><rect class="cls-5" x="267.24" y="185.59" width="48.31" height="32.29"/><rect class="cls-5" x="267.24" y="138.04" width="48.31" height="32.29"/><rect class="cls-5" x="221.06" y="109.1" width="94.49" height="12.72"/><polygon class="cls-5" points="141.42 133.35 261.22 137 261.22 132.07 141.42 132.07 141.42 133.35"/></g><g class="cls-12"><rect class="cls-5" x="64.59" y="143.98" width="76.83" height="4.02"/></g><g class="cls-13"><rect class="cls-5" y="207.08" width="82.92" height="26.84"/></g><g class="cls-4"><path class="cls-5" d="M64.39,86.32s6.35-7.55,21.54-6.72c0,0,22-12.58,45.57-1.67,0,0,25-2.71,43.51,2.34,12.35,3.36,16.42,6.89,16.42,6.89Z" transform="translate(-24.91)"/><path class="cls-5" d="M201.3,77.05a4.89,4.89,0,1,1,4.89,5,4.92,4.92,0,0,1-4.89-5" transform="translate(-24.91)"/><path class="cls-5" d="M137.7,108.46s3.48-4.13,11.8-3.68c0,0,12.07-6.89,25-.91,0,0,13.69-1.49,23.83,1.28,6.76,1.84,9,3.77,9,3.77Z" transform="translate(-24.91)"/><rect class="cls-5" x="160.06" y="189.04" width="84.18" height="44.54"/><rect class="cls-5" x="162.89" y="192.16" width="78.91" height="41.58"/><rect class="cls-5" x="165.88" y="194.79" width="73.1" height="9.55"/><rect class="cls-5" x="165.88" y="206.94" width="21.37" height="26.62"/><rect class="cls-5" x="189.29" y="206.94" width="26.28" height="26.62"/><rect class="cls-5" x="217.38" y="206.94" width="21.6" height="26.62"/><polygon class="cls-5" points="197.9 206.94 215.57 206.94 215.57 216.79 212.42 233.56 192.9 233.56 197.9 206.94"/><rect class="cls-5" x="192.73" y="212" width="19.66" height="21.58"/><rect class="cls-5" x="193.67" y="212.98" width="17.79" height="20.61"/><rect class="cls-5" x="202.23" y="212.98" width="0.66" height="20.61"/><path class="cls-5" d="M225.55,223.28a.43.43,0,1,1,.43.43.42.42,0,0,1-.43-.43" transform="translate(-24.91)"/><path class="cls-5" d="M228.55,223.28a.42.42,0,1,1,.42.43.42.42,0,0,1-.42-.43" transform="translate(-24.91)"/><polygon class="cls-5" points="172.68 206.94 183.5 206.94 180.05 233.56 169.23 233.56 172.68 206.94"/><polygon class="cls-5" points="185.08 194.79 183.84 204.34 173.02 204.34 174.26 194.79 185.08 194.79"/><polygon class="cls-5" points="222.49 206.94 233.31 206.94 229.86 233.56 219.03 233.56 222.49 206.94"/><polygon class="cls-5" points="234.89 194.79 233.65 204.34 222.82 204.34 224.06 194.79 234.89 194.79"/><polygon class="cls-5" points="219.7 194.79 217.91 204.34 198.39 204.34 200.18 194.79 219.7 194.79"/><polygon class="cls-5" points="217.39 208.9 217.43 208.9 217.39 209.11 217.39 208.9"/></g><g class="cls-14"><rect class="cls-5" x="153.62" y="224.49" width="21.98" height="9.08"/></g><g class="cls-4"><polygon class="cls-5" points="289.82 170.33 273.83 170.33 280.83 138.04 296.81 138.04 289.82 170.33"/><polygon class="cls-5" points="303.98 217.88 288 217.88 294.99 185.59 310.97 185.59 303.98 217.88"/><polygon class="cls-5" points="281.25 185.59 274.25 217.88 267.24 217.88 267.24 185.59 281.25 185.59"/><polygon class="cls-5" points="315.55 138.04 315.55 170.33 297.98 170.33 305.78 138.04 315.55 138.04"/><rect class="cls-5" x="244.2" y="109.1" width="1.33" height="12.72"/><rect class="cls-5" x="271.09" y="109.1" width="1.33" height="12.72"/><rect class="cls-5" x="297.31" y="109.1" width="1.33" height="12.72"/><g class="cls-15"><rect class="cls-5" x="77.58" y="158.8" width="8.01" height="12.81"/><path class="cls-5" d="M110.83,172H102V158.39h8.82Zm-8-.83H110v-12h-7.2Z" transform="translate(-24.91)"/><rect class="cls-5" x="77.81" y="163.08" width="7.4" height="0.62"/><rect class="cls-5" x="77.81" y="167.34" width="7.4" height="0.62"/><rect class="cls-5" x="81.21" y="158.74" width="0.61" height="12.87"/><rect class="cls-5" x="100.71" y="158.8" width="8.01" height="12.81"/><path class="cls-5" d="M134,172h-8.82V158.39H134Zm-8-.83h7.2v-12H126Z" transform="translate(-24.91)"/><rect class="cls-5" x="100.94" y="163.08" width="7.4" height="0.62"/><rect class="cls-5" x="100.94" y="167.34" width="7.4" height="0.62"/><rect class="cls-5" x="104.34" y="158.74" width="0.61" height="12.87"/><rect class="cls-5" x="123.84" y="158.8" width="8.01" height="12.81"/><path class="cls-5" d="M157.09,172h-8.82V158.39h8.82Zm-8-.83h7.2v-12h-7.2Z" transform="translate(-24.91)"/><rect class="cls-5" x="124.07" y="163.08" width="7.4" height="0.62"/><rect class="cls-5" x="124.07" y="167.34" width="7.4" height="0.62"/><rect class="cls-5" x="127.47" y="158.74" width="0.61" height="12.87"/></g><g class="cls-16"><rect class="cls-5" x="77.58" y="202.71" width="8.01" height="12.81"/><path class="cls-5" d="M110.83,215.93H102V202.3h8.82Zm-8-.83H110v-12h-7.2Z" transform="translate(-24.91)"/><rect class="cls-5" x="77.81" y="206.99" width="7.4" height="0.62"/><rect class="cls-5" x="77.81" y="211.25" width="7.4" height="0.62"/><rect class="cls-5" x="81.21" y="202.65" width="0.61" height="12.87"/><rect class="cls-5" x="100.71" y="202.71" width="8.01" height="12.81"/><path class="cls-5" d="M134,215.93h-8.82V202.3H134Zm-8-.83h7.2v-12H126Z" transform="translate(-24.91)"/><rect class="cls-5" x="100.94" y="206.99" width="7.4" height="0.62"/><rect class="cls-5" x="100.94" y="211.25" width="7.4" height="0.62"/><rect class="cls-5" x="104.34" y="202.65" width="0.61" height="12.87"/><rect class="cls-5" x="123.84" y="202.71" width="8.01" height="12.81"/><path class="cls-5" d="M157.09,215.93h-8.82V202.3h8.82Zm-8-.83h7.2v-12h-7.2Z" transform="translate(-24.91)"/><rect class="cls-5" x="124.07" y="206.99" width="7.4" height="0.62"/><rect class="cls-5" x="124.07" y="211.25" width="7.4" height="0.62"/><rect class="cls-5" x="127.47" y="202.65" width="0.61" height="12.87"/></g><rect class="cls-5" x="139.56" y="175.57" width="125.19" height="4.46"/></g><g class="cls-17"><rect class="cls-5" x="98.37" y="137" width="23.81" height="6.97"/></g><g class="cls-4"><path class="cls-5" d="M377,209v3a1.76,1.76,0,0,1-.17.76,1.7,1.7,0,0,1-1.5.94h-.53a1.69,1.69,0,0,1-1.68-1.7v-3a1.61,1.61,0,0,1,.25-.87h0a1.65,1.65,0,0,1,1.43-.81h.53A1.68,1.68,0,0,1,377,209" transform="translate(-24.91)"/><g class="cls-18"><path class="cls-5" d="M376.86,212.78a1.7,1.7,0,0,1-1.5.94h-.53a1.69,1.69,0,0,1-1.68-1.7v-3a1.61,1.61,0,0,1,.25-.87c0,.19.74,4.33,3.46,4.65" transform="translate(-24.91)"/></g><polygon class="cls-5" points="325.62 231.13 333.88 231.13 333.88 222.68 325.26 222.68 325.62 231.13"/><path class="cls-5" d="M376.59,213.26l-40.61,1V192.59h26.66a6.76,6.76,0,0,1,6,3.73l1.75,3.45Z" transform="translate(-24.91)"/><path class="cls-5" d="M353.52,229.75a13.59,13.59,0,0,0,1.17,4.82h2c1.74,0,3.15-2.16,3.15-4.82s-3.39-4.82-5.12-4.82-1.17,2.16-1.17,4.82" transform="translate(-24.91)"/><path class="cls-5" d="M351.54,229.75c0,2.66,1.41,4.82,3.15,4.82s3.14-2.16,3.14-4.82-1.41-4.82-3.14-4.82-3.15,2.16-3.15,4.82" transform="translate(-24.91)"/><path class="cls-5" d="M352.36,229.75c0,2,1.06,3.63,2.37,3.63s2.36-1.62,2.36-3.63-1.06-3.63-2.36-3.63-2.37,1.62-2.37,3.63" transform="translate(-24.91)"/><path class="cls-5" d="M376.25,229.75a13.59,13.59,0,0,0,1.17,4.82h2c1.74,0,3.15-2.16,3.15-4.82s-3.39-4.82-5.13-4.82-1.17,2.16-1.17,4.82" transform="translate(-24.91)"/><path class="cls-5" d="M374.28,229.75c0,2.66,1.41,4.82,3.14,4.82s3.15-2.16,3.15-4.82-1.41-4.82-3.15-4.82-3.14,2.16-3.14,4.82" transform="translate(-24.91)"/><path class="cls-5" d="M324,229.75a13.59,13.59,0,0,0,1.17,4.82h2c1.73,0,3.14-2.16,3.14-4.82s-3.38-4.82-5.12-4.82-1.17,2.16-1.17,4.82" transform="translate(-24.91)"/><path class="cls-5" d="M322.06,229.75c0,2.66,1.41,4.82,3.15,4.82s3.14-2.16,3.14-4.82-1.4-4.82-3.14-4.82-3.15,2.16-3.15,4.82" transform="translate(-24.91)"/><path class="cls-5" d="M385.68,227.47a3.63,3.63,0,0,1-3.6,3.66H358.79a7.12,7.12,0,0,0,.1-1.23c0-3.12-1.84-5.65-4.12-5.65s-4.13,2.53-4.13,5.65a8.28,8.28,0,0,0,.1,1.23H337.13s-.55-6.16-.48-9.25c.06-2.68.06-7.95-.1-9.23,0-.19,13.12-.21,16.44-.23h.74l0,0,.05,0c.61.43,4,2.86,6.16,4.29,1.87,1.25,15.71,1.76,21.13,1.91l2.18.05a9.56,9.56,0,0,1,1.4,2,7.51,7.51,0,0,1,1,3.48c0,.82,0,1.81,0,2.79,0,.16,0,.31,0,.47" transform="translate(-24.91)"/><path class="cls-5" d="M373.31,212.42H355.06a1.08,1.08,0,0,1-1-.64l-4.51-10.18a.5.5,0,0,1,.45-.71h19.25a1.08,1.08,0,0,1,1,.65l3.24,7.49.81,1.87a1.09,1.09,0,0,1-1,1.52" transform="translate(-24.91)"/><path class="cls-5" d="M364.81,227c0,.32,0,.62,0,.88a5.54,5.54,0,0,1-1.89,3.24h-4.1a6.93,6.93,0,0,0,.1-1.22,7.25,7.25,0,0,0-.58-2.9,3.65,3.65,0,0,0-7.08,0,7.25,7.25,0,0,0-.59,2.9,8,8,0,0,0,.1,1.22H336V192.59h11.85l.06,7.18a11.61,11.61,0,0,0,.6,2c.36.86.85,2,1.37,3.25,1.08,2.55,2.34,5.53,3.13,7.36.39.93.67,1.56.74,1.7.22.43,3.51,2.23,6.29,3.84.7.4,1.36.78,1.93,1.13a14.13,14.13,0,0,1,1.77,1.2c.75.69,1.13,4.29,1.09,6.71" transform="translate(-24.91)"/><polygon class="cls-5" points="358.4 218.74 336.77 218.74 328.87 212.45 328.82 212.42 350.64 212.42 356.86 217.48 358.4 218.74"/><path class="cls-5" d="M364.48,222.44l-2-.2a1.54,1.54,0,0,1-1.36-1.27l-.45-2.5a.49.49,0,0,1,0-.12,23.22,23.22,0,0,1,3,1.94,4.49,4.49,0,0,1,.76,2.15" transform="translate(-24.91)"/><path class="cls-5" d="M370.42,199.77H347.89a13.36,13.36,0,0,0-.66-3.13,7.46,7.46,0,0,0-2.89-4h18.41a7.23,7.23,0,0,1,6.72,4,2.88,2.88,0,0,1,.13.31,18.93,18.93,0,0,1,.82,2.82" transform="translate(-24.91)"/><path class="cls-5" d="M364.48,222.44l-2-.2a1.54,1.54,0,0,1-1.36-1.27l-.45-2.5a.49.49,0,0,1,0-.12,23.22,23.22,0,0,1,3,1.94,4.49,4.49,0,0,1,.76,2.15" transform="translate(-24.91)"/><path class="cls-5" d="M385.68,227.47a3.72,3.72,0,0,1-3.77,3.66H358.79a7.12,7.12,0,0,0,.1-1.23,7.25,7.25,0,0,0-.58-2.9h27.36c0,.16,0,.31,0,.47" transform="translate(-24.91)"/><path class="cls-5" d="M350.64,229.9a8.28,8.28,0,0,0,.1,1.23H336V227h15.25a7.25,7.25,0,0,0-.59,2.9" transform="translate(-24.91)"/><path class="cls-5" d="M370.45,218.92h8.84c.29,0,.5.39.46.81l-.31,3.12c-.05.46-.31.79-.61.79h-7.29c-.46,0-.88-.47-1-1.15l-.53-2.65c-.09-.46.14-.92.45-.92" transform="translate(-24.91)"/><path class="cls-5" d="M373.49,209a32.41,32.41,0,0,1-19.62-8.14h15.4a1.08,1.08,0,0,1,1,.65Z" transform="translate(-24.91)"/><rect class="cls-5" x="275.78" y="192.59" width="39.46" height="38.54"/><path class="cls-5" d="M370.42,199.77H347.89a13.36,13.36,0,0,0-.66-3.13h22.24a2.88,2.88,0,0,1,.13.31,18.93,18.93,0,0,1,.82,2.82" transform="translate(-24.91)"/><path class="cls-5" d="M384.7,220.73a.7.7,0,0,1-.46.37l-3,.57c-.26.05-.46-.4-.39-.86l.3-2.07v-.05l.06-.42a.89.89,0,0,1,.41-.72l.17-.07,1.54,1.26a9.56,9.56,0,0,1,1.4,2" transform="translate(-24.91)"/><rect class="cls-5" x="275.78" y="217.95" width="63.03" height="3.25"/><rect class="cls-5" x="275.78" y="199.27" width="39.46" height="3.25"/><path class="cls-5" d="M314.8,210.16a5.62,5.62,0,1,1,5.62,5.69,5.66,5.66,0,0,1-5.62-5.69" transform="translate(-24.91)"/><path class="cls-5" d="M320.42,215.2a4.89,4.89,0,0,1-3.52-1.48,5.1,5.1,0,0,1,0-7.12,4.95,4.95,0,0,1,7,0,5.1,5.1,0,0,1,0,7.12,4.89,4.89,0,0,1-3.52,1.48m0-9.61a4.41,4.41,0,0,0-3.19,1.34,4.6,4.6,0,0,0,0,6.47,4.47,4.47,0,0,0,6.38,0,4.6,4.6,0,0,0,0-6.47,4.41,4.41,0,0,0-3.19-1.34" transform="translate(-24.91)"/><polygon class="cls-5" points="298.73 209.34 296.32 209.34 296.32 206.91 294.7 206.91 294.7 209.34 292.3 209.34 292.3 210.98 294.7 210.98 294.7 213.42 296.32 213.42 296.32 210.98 298.73 210.98 298.73 209.34"/><path class="cls-5" d="M368.19,222.81l-3.71-.37h0l-2-.2a1.54,1.54,0,0,1-1.36-1.27l-.45-2.5a.49.49,0,0,1,0-.12h0a.83.83,0,0,1,1-.85l5.78,1.19a1,1,0,0,1,.76.72l.68,2.54a.68.68,0,0,1-.72.86" transform="translate(-24.91)"/><path class="cls-5" d="M348,202.72l3.89,9.7h-6.67s-1.37-.23-1.54-3.06c-.19-3-.19-8.25-.19-8.25h2.93c1.11.17,1.29.79,1.58,1.62" transform="translate(-24.91)"/><path class="cls-5" d="M349.87,207.44s.34,3.92-1.57,5h3.57Z" transform="translate(-24.91)"/><path class="cls-5" d="M350.4,210.06s-.81-.58-.88-1.06v2.74h1.06Z" transform="translate(-24.91)"/><path class="cls-5" d="M349.52,209v3a1.76,1.76,0,0,1-.17.76,1.7,1.7,0,0,1-1.5.94h-.54a1.69,1.69,0,0,1-1.67-1.7v-3a1.69,1.69,0,0,1,.24-.87h0a1.68,1.68,0,0,1,1.43-.81h.54a1.68,1.68,0,0,1,1.67,1.69" transform="translate(-24.91)"/><path class="cls-5" d="M340.19,229.9a4.26,4.26,0,0,0,.18,1.23H313.2V227h28.06a4.65,4.65,0,0,0-1.07,2.9" transform="translate(-24.91)"/><path class="cls-5" d="M327.68,229.9a3.94,3.94,0,0,0,.18,1.23H300.69V227h28.06a4.59,4.59,0,0,0-1.07,2.9" transform="translate(-24.91)"/><path class="cls-5" d="M313.58,231.13h-9.71c-.2-.89-.82-7.21,4.62-7.21,4.94,0,5.31,5.77,5.09,7.21" transform="translate(-24.91)"/><path class="cls-5" d="M306.91,229.75a13.59,13.59,0,0,0,1.17,4.82h2c1.73,0,3.14-2.16,3.14-4.82s-3.39-4.82-5.12-4.82-1.17,2.16-1.17,4.82" transform="translate(-24.91)"/><path class="cls-5" d="M304.93,229.75c0,2.66,1.41,4.82,3.15,4.82s3.14-2.16,3.14-4.82-1.41-4.82-3.14-4.82-3.15,2.16-3.15,4.82" transform="translate(-24.91)"/><path class="cls-5" d="M305.75,229.75c0,2,1.06,3.63,2.37,3.63s2.37-1.62,2.37-3.63-1.06-3.63-2.37-3.63-2.37,1.62-2.37,3.63" transform="translate(-24.91)"/><path class="cls-5" d="M243.23,190.14c-.2-.39,4.39-1.81,4.46,2.07,0,0,8.6-.21,4.49-5.07a5.42,5.42,0,0,1-1.23-4.36c.05-1.29-.88-5.05-4.06-4.67a2.38,2.38,0,0,0-1.88.2c-2.36,1.25-7.66,13.26-1.78,11.83" transform="translate(-24.91)"/><path class="cls-5" d="M257.29,194.48s.55-.87,1-.88,1.28-.26,1.21-.09-.58.19-.63.29.77.25,1,.27.79,0,.77.12a2.61,2.61,0,0,1-1.68.54,4.58,4.58,0,0,0-1.54.2Z" transform="translate(-24.91)"/><path class="cls-5" d="M249.19,194.75a9.26,9.26,0,0,0,.86,1.32,5,5,0,0,0,3,2,3.19,3.19,0,0,0,1.77-.3h0a8.14,8.14,0,0,0,2.74-2.31,1.32,1.32,0,0,0-.18-1.28,19.86,19.86,0,0,1-3.46.56c-.3-.15-2.05-5.26-2.47-5.91s-1.84-1-1.84-1Z" transform="translate(-24.91)"/><path class="cls-5" d="M237.42,229.27s-1,.89-.78,1.52,1.06,1.05,1.18,1.83.58,1.19,1,1.19h2s.31-.54-.44-.71-1-1.07-1-1.91a14.5,14.5,0,0,0-.07-2l-1.59-.38Z" transform="translate(-24.91)"/><path class="cls-5" d="M245.57,229.64s-.35,3.77.08,4l5.41,0s0-.63-.87-.77-2.4-.65-2.66-1.8-2-1.4-2-1.4" transform="translate(-24.91)"/><path class="cls-5" d="M241.71,202.59c1.12-2.53,1.8-3.26,1.67-4.05-.1-.58.29-10.89.29-10.89s.4-.08.54-.11a1.37,1.37,0,0,0,1-.88,6.89,6.89,0,0,0,.33-2.32l.15,0,2.39.48s-.05.76-.05,1.48v0a1.39,1.39,0,0,0,1,1.35l.57.17a22.5,22.5,0,0,1,1,5.16c.17,2.62-1.6,3.75,0,9s-9.55,2-8.94.58" transform="translate(-24.91)"/><path class="cls-5" d="M248.08,184.85s-.05.76-.05,1.48a2.86,2.86,0,0,1-2.34-2Z" transform="translate(-24.91)"/><path class="cls-5" d="M248.53,185.53s-3.17.05-3.17-1.95-.42-3.35,1.61-3.47,2.42.65,2.58,1.32-.19,4-1,4.1" transform="translate(-24.91)"/><path class="cls-5" d="M248.42,180.07s-.87,2.35-2.21,2.69a2.6,2.6,0,0,1-1.91,0,3.81,3.81,0,0,0,1.23-2.26s2.23-1.54,2.89-.42" transform="translate(-24.91)"/><path class="cls-5" d="M248.2,180.26a1.92,1.92,0,0,1,.91.72,3.26,3.26,0,0,1,.43,1.84s.65-1.6-.08-2.51-1.26-.05-1.26-.05" transform="translate(-24.91)"/><path class="cls-5" d="M247.84,184.29a.8.8,0,0,0,.66.27.6.6,0,0,0,.49-.33,2.08,2.08,0,0,0-1.15.06" transform="translate(-24.91)"/><path class="cls-5" d="M242.15,192.21s0,1.53.09,2.91a8.79,8.79,0,0,0,.27,2.07c.32.76.69.89.69.89l2.84.7,1,.25,3.15-.95s1.43-4.06.86-6.34a17.65,17.65,0,0,0-1.46-3.87s-2.57,2.55-5.92-.22Z" transform="translate(-24.91)"/><path class="cls-5" d="M250,198.69a47.94,47.94,0,0,1,1.66,6.59c.1,1.68-3,23.79-3.11,24.57s-1,1.19-1,1.19a1.36,1.36,0,0,1-1,.08,2.52,2.52,0,0,1-1.07-.52s-1.21-15.77-.46-21.4a90.82,90.82,0,0,0,.76-10.51Z" transform="translate(-24.91)"/><path class="cls-5" d="M243.38,198.54s-2.38,3.24-2.6,5.43-.35,9.86-.82,12-2.21,6.24-2.21,12.88a1.34,1.34,0,0,0,.73.59,6.59,6.59,0,0,0,.65.18,1,1,0,0,0,1.14-.55c1.18-2.39,4.92-10.12,5.11-11.72.14-1.13,1.32-8.64,3.89-13.05.62-1.06-.38-5.26-.38-5.26Z" transform="translate(-24.91)"/><path class="cls-5" d="M247.91,184.34s.06.24.64.2c0,0,.48,0,.47-.29a1.59,1.59,0,0,0-1.11.09" transform="translate(-24.91)"/><path class="cls-5" d="M250.24,197.93a3.29,3.29,0,0,1-1.87.53c-1.49,0-5.17-.38-5.17-.38a2.94,2.94,0,0,0-.16.95s4.5,1.15,7.11.17a1.74,1.74,0,0,0,.09-1.27" transform="translate(-24.91)"/><path class="cls-5" d="M248.05,199a.68.68,0,1,1,.67.78.73.73,0,0,1-.67-.78m.22,0a.51.51,0,0,0,.45.55.56.56,0,0,0,0-1.1.51.51,0,0,0-.45.55" transform="translate(-24.91)"/><polygon class="cls-5" points="212.54 206.32 219.62 207.86 220.47 203.84 213.4 202.3 212.54 206.32"/><path class="cls-5" d="M245.38,203.85a5.17,5.17,0,0,1-4.18,1.09,4.44,4.44,0,0,1-2.9-2.64Z" transform="translate(-24.91)"/><path class="cls-5" d="M244,203.58a.4.4,0,1,1,.39.4.4.4,0,0,1-.39-.4m.13,0a.27.27,0,0,0,.26.27.27.27,0,0,0,0-.53.26.26,0,0,0-.26.26" transform="translate(-24.91)"/><path class="cls-5" d="M238.63,204.09a3.2,3.2,0,0,1-.11.86c-.11.28-.44.66-.55.66s.1-.59.05-.58-.32,1-.51,1-.36-1.08-.26-1.51a3,3,0,0,1,.53-1Z" transform="translate(-24.91)"/><path class="cls-5" d="M243.67,187.65a3.87,3.87,0,0,0-2.7,2.13c-.73,1.46-1.23,6-1.75,7.49a46.32,46.32,0,0,0-1.55,6.19.35.35,0,0,0,.22.39l.64.26a.31.31,0,0,0,.38-.13,54.5,54.5,0,0,0,3.62-7.14,11.81,11.81,0,0,1,2.64-4.29Z" transform="translate(-24.91)"/><path class="cls-5" d="M244.52,203.27c0-.06.41-6.6.34-10.28a15.39,15.39,0,0,0-.58-4.09,2.94,2.94,0,0,0-.66-1.25l-.14,0a10.66,10.66,0,0,1,1.18,5.3c.07,3.67-.33,10.21-.34,10.27Z" transform="translate(-24.91)"/><path class="cls-5" d="M277.13,234h-3.41a7.73,7.73,0,0,1,.27-1.24,3.25,3.25,0,0,1,.19-.5c.34-.67,2.45-.24,2.45-.24a1.73,1.73,0,0,1,.35.82,7.73,7.73,0,0,1,.15,1.16" transform="translate(-24.91)"/><path class="cls-5" d="M270.86,181.08s-2.72.48-3.34,2.11-4.09,27.93-4.09,27.93,1.72,1.38,5.42.88,2-30.92,2-30.92" transform="translate(-24.91)"/><path class="cls-5" d="M266.81,232.86a1.87,1.87,0,0,1-.24,1.09h-6.76a1.16,1.16,0,0,1,1-.73,5.18,5.18,0,0,0,2.74-1.28,2.23,2.23,0,0,0,.53-1c.32-1.43,2.63.44,2.63.44a12.88,12.88,0,0,1,.08,1.46" transform="translate(-24.91)"/><path class="cls-5" d="M263.9,232.16c.75.25,2.19,1,3.11.64.59-.23,3.91-9.93,4.12-14.18,0-.31.08-.74.17-1.26.2-1.1.54-2.61.94-4.27,1.06-4.45,2.49-10,2.46-11.8-.05-2.76-8.13-.58-8.13-.58a29.71,29.71,0,0,0-.67,5.55c-.22,6.51-.82,17.52-2.46,25.16a.65.65,0,0,0,.46.74" transform="translate(-24.91)"/><path class="cls-5" d="M269.5,201.3l4.28,31.36a8.17,8.17,0,0,0,3.33.09s1.25-16.68,1.15-20.71.9-10.79-.23-11.54-8.53.8-8.53.8" transform="translate(-24.91)"/><path class="cls-5" d="M278.57,182.51s-4.49-2.94-7.71-1.43a5.89,5.89,0,0,0-1.52,1.37c-1.16,1.3-3.44,21.94-3.44,21.94a18.45,18.45,0,0,0,12.67-.75Z" transform="translate(-24.91)"/><path class="cls-5" d="M270.6,181s-4.54,1.89-5.16,3.34a90.47,90.47,0,0,0-2.61,11.39c0,1.05,3.48.24,4-1.45.47-1.39,2-5.69,2.87-8.41Z" transform="translate(-24.91)"/><path class="cls-5" d="M271.55,182.44a5,5,0,0,0,3.52-.73,9.92,9.92,0,0,1-.75-2.68.28.28,0,0,1,0-.09,2.78,2.78,0,0,1,0-.62h-2.56s-.7.33-.7.55,0,.24,0,.35q0,.45,0,.78a7.84,7.84,0,0,1-.13,1.08s-.31,1.16.69,1.36" transform="translate(-24.91)"/><path class="cls-5" d="M271,180a3.52,3.52,0,0,0,3.33-1l.05-.06-.06,0a6,6,0,0,0-3.29.28q0,.45,0,.78" transform="translate(-24.91)"/><path class="cls-5" d="M275,177.9c-.35,1.89-2.76,1.83-3.8,1.71-.29,0-.48-.07-.48-.07-.33-.09-.51-.62-.6-1.31a11.1,11.1,0,0,1,.27-3.89c.35-.77,1-1.61,3.42-1s1.64,2.13,1.19,4.56" transform="translate(-24.91)"/><path class="cls-5" d="M270.25,173.29a5.62,5.62,0,0,1,1.68-1.39,4,4,0,0,1,3.14,0c2,.88,2.5,2.42,1.45,4.81s-2.17,2.25-2.17,2.25.22-.14.2-.93V178a.51.51,0,0,1,.16-.44c.25-.22.37-.89.16-1.08s-.6,0-.71.26a.3.3,0,0,1-.43.1c-.62-.4-.22-1.19-.81-1.67s-1.79-.08-2.67-.47c-1.16-.43-.25-1,0-1.36" transform="translate(-24.91)"/><path class="cls-5" d="M270,213.05c.39.1.77.18,1.16.25s.68.1,1,.13a16.27,16.27,0,0,0,6.11-.76l1.57-.5c.06,0-.15-6.06-.38-12.3,0-.64,0-1.28-.08-1.93l0-.81c-.22-5.51-.43-10.49-.47-10.76-.11-.6-.2-1.12-.31-1.57a4,4,0,0,0-1.52-2.64c-.08-.06-.75-.4-1.33-.69l-.92-.46h0c-.2.09-.43.54-.67,1.17-.45,1.17-.93,2.95-1.27,4.27h0c-.21.86-.37,1.53-.41,1.72s-.18.95-.29,1.8c-.16,1.16-.35,2.73-.55,4.51l-.06.55c0,.22-.05.43-.07.65l0,.21c-.07.71-.15,1.43-.23,2.17s-1,1.06-1,1.68c0,.36-.11,3.74-.21,4.81-.07.77,0,8.13,0,8.49" transform="translate(-24.91)"/><path class="cls-5" d="M276.6,188.6s.16,5.57-4,6.25-1.39.85-1.39.85,7.77-.33,7.9-.54-2.54-6.56-2.54-6.56" transform="translate(-24.91)"/><path class="cls-5" d="M273.11,197.23l.23.16h0a19.07,19.07,0,0,0,5.22,2.26c.29.08.58.16.89.22,0-.64,0-1.28-.08-1.93a6.56,6.56,0,0,0,1-.14c0-.08,0-.17,0-.25l-1-.42-.78-.3c-1.12-.43-1.95-.72-1.95-.72l-3.31,1.06Z" transform="translate(-24.91)"/><path class="cls-5" d="M272.24,197.14s.42.11,1.1.25h0a27.1,27.1,0,0,0,5.22.59c.28,0,.55,0,.81,0a6.56,6.56,0,0,0,1-.14A3.16,3.16,0,0,0,282,197c2.79-2.88-1.52-13.21-2.43-14.21a6.91,6.91,0,0,0-4.05-1.73l-.13,0-.63-.05h0l.22.73c.06.18.12.39.19.62.65,2.17,1.92,6.44,2.47,8.85a6.07,6.07,0,0,1,.27,1.71c-.22.82-2.47,1.24-3.9,1.43-.6.08-1.05.11-1.15.12h0l-.08.34-.2.83-.2.81Z" transform="translate(-24.91)"/><polygon class="cls-5" points="239.55 202.09 249.13 201.68 247.19 189.59 237.61 190 239.55 202.09"/><path class="cls-5" d="M272.88,194.47s-1.87-.13-2,.31c-.22,1,1.6,1.87,2.19,1.81s.2-2.19-.23-2.12" transform="translate(-24.91)"/><path class="cls-5" d="M263,192.45s1.78-.56,2-.16c.45,1-1.13,2.2-1.72,2.28s-.69-2.08-.25-2.12" transform="translate(-24.91)"/><path class="cls-5" d="M274.6,180.4a2.23,2.23,0,0,1,1.28.73s-3,5.38-3,5.33,1-5.4,1.74-6.06" transform="translate(-24.91)"/><path class="cls-5" d="M271,180.47a2.26,2.26,0,0,0-.86.9l-.35,4.5s.74-3.3,1.12-4.79a2.27,2.27,0,0,0,.09-.61" transform="translate(-24.91)"/><path class="cls-5" d="M268.92,189.72a.44.44,0,0,0-.51-.29c-.44,0-2.89.16-2.89.16s-.47,0-.43.3Z" transform="translate(-24.91)"/></g><g class="cls-19"><path class="cls-5" d="M182.61,150.87a5.74,5.74,0,1,1-5.74-5.81,5.77,5.77,0,0,1,5.74,5.81" transform="translate(-24.91)"/><path class="cls-5" d="M182.33,150.87a5.46,5.46,0,1,1-5.46-5.53,5.49,5.49,0,0,1,5.46,5.53" transform="translate(-24.91)"/><path class="cls-5" d="M176.62,154.3c.07,0,.38.15.44.18a.84.84,0,0,0,.36.11.89.89,0,0,0,.39-.06s0-.08,0-.11l-.19,0s0,0-.05,0l-.07,0s0,0,0,0l-.08-.11-.1-.13s0-.05,0-.14a2.72,2.72,0,0,1,.39-.46,3.4,3.4,0,0,0,.35-.4,3.29,3.29,0,0,1,.24-.32,1.12,1.12,0,0,0,.17-.2.52.52,0,0,0,.07-.24l.39,0a2.39,2.39,0,0,0,.43-.05,1.71,1.71,0,0,1,.25,0,.6.6,0,0,0,.29-.14.35.35,0,0,0,.13-.21c0-.11-.11-.3-.22-.46a3.1,3.1,0,0,0-.38-.4l-.13-.1s0,0,0,0,0,0-.05-.05,0,0-.06,0,0,0,0,0a.09.09,0,0,0-.06,0s0,0,0,0l-.07,0a.23.23,0,0,1-.08-.12s0,0,0-.05,0-.06,0-.12v-.14a1.67,1.67,0,0,1,0-.18,1.08,1.08,0,0,0,.05-.2l.07.06a.14.14,0,0,0,.17,0,1.11,1.11,0,0,1,.12-.15,1,1,0,0,0,.2-.3c.09-.15.14-.29.2-.41a.54.54,0,0,1,.15-.21.4.4,0,0,0,.07-.12.36.36,0,0,0,0-.09.06.06,0,0,0,0-.08,0,0,0,0,1,0,0s0,0,0,0a.11.11,0,0,0-.05,0s0,0,0,0l0,0h-.05s0,0,0,0-.06,0-.06,0,0-.08,0-.08,0,0,0,0,0,0-.06.09a.37.37,0,0,1,0,.1.06.06,0,0,0,0,.06s0,.07,0,.11a.15.15,0,0,0,0,.1s0,.08-.14.28a.86.86,0,0,1-.23.27s0,0,0,0,0-.13,0-.17a.83.83,0,0,0,0-.12.42.42,0,0,1,0-.14.5.5,0,0,0,0-.24.69.69,0,0,0-.11-.23.19.19,0,0,1,0-.08.3.3,0,0,0-.08-.08l-.06-.07a.12.12,0,0,1,0-.08.45.45,0,0,1,.06-.12.31.31,0,0,0,0-.13.1.1,0,0,1,0-.06.59.59,0,0,1,.16-.08s0-.08,0-.1a0,0,0,0,1,0-.05,0,0,0,0,0,0,0s0,0,0,0,0,0,0-.07,0,0,0,0a.09.09,0,0,0,0-.05s0,0-.06-.08-.06-.06-.07-.06,0,0,0-.05,0,0,0-.08,0-.07-.06-.09l-.05-.07s0-.11-.19-.12a.75.75,0,0,0-.41.08.47.47,0,0,0-.2.28.35.35,0,0,0,0,.3c.05.07.09.14.16.23a.23.23,0,0,1,.06.21c0,.07-.08.12-.08.12s-.05,0-.09,0a.41.41,0,0,0-.08.12.42.42,0,0,1-.1.12,1.24,1.24,0,0,0-.14.18c0,.06,0,0,0,.09a.7.7,0,0,1-.07.1c0,.05,0,0-.05,0s0,.05-.06.08a.44.44,0,0,0-.09.11s0,0,0,0l-.09.16a.72.72,0,0,0-.11.32c0,.1.1.11.14.13l.28.07a.69.69,0,0,0,.19,0v.13a1.31,1.31,0,0,0-.05.21.78.78,0,0,1-.06.28.43.43,0,0,1-.09.18c-.05,0-.07.12-.08.14s0,0,0,0a2.62,2.62,0,0,0,0,.37,1,1,0,0,1,0,.16,1.18,1.18,0,0,0,0,.27s0,0,0,.09a1.2,1.2,0,0,0,0,.19s0,0,.07,0h.09a2.6,2.6,0,0,0,0,.45h-.07a.48.48,0,0,0-.2,0c-.08,0-.1,0-.11,0h-.06a1.1,1.1,0,0,0,0,.34,1.31,1.31,0,0,1,.05.33s0,0-.08.09a1.42,1.42,0,0,0-.21.36,2.3,2.3,0,0,1-.19.39,2.9,2.9,0,0,1-.3.38h0s0,0-.07.07a.36.36,0,0,0-.08.18s0,0,0,.05,0,0,.06.09m1.3-5.22s0,0-.06,0a.11.11,0,0,0,0,0s0,0,0,0m.69,2.7a.65.65,0,0,1,0-.11.34.34,0,0,0,0-.08l0-.14.18.1.24.1a.86.86,0,0,0-.25,0l-.24.11" transform="translate(-24.91)"/><path class="cls-5" d="M178.67,154.27c0-.08-.13-.06-.17-.06a1.46,1.46,0,0,1-.22,0s-.07,0-.08,0l0,0s.09,0,.06,0a.12.12,0,0,0-.11,0H178l-.09,0s0,0,0,0-.05,0,0-.07a.35.35,0,0,0,.06-.22,1.69,1.69,0,0,1-.1-.41,3.75,3.75,0,0,1,0-.47,2.85,2.85,0,0,0,.06-.47c0-.19,0-.25,0-.39s-.14-.2-.22-.34a4.76,4.76,0,0,0-.36-.6,1.12,1.12,0,0,0-.16-.22s0,0,0,0,0-.08,0-.08-.05,0,0,0a.13.13,0,0,0,0-.05s0,0,0,0,0-.06,0-.13a1.09,1.09,0,0,1,0-.19.25.25,0,0,0,0-.1.65.65,0,0,1,0-.14l0-.13a.18.18,0,0,0,0,0s.08,0,.09,0a0,0,0,0,0,0,0s0,0,0,0a.11.11,0,0,0,.1,0s0-.05,0-.05,0,0,0,0,.07,0,0-.08a.52.52,0,0,0,.14-.06l.22-.14a.11.11,0,0,1,.08,0,.28.28,0,0,0,.18,0s.08,0,.08-.06,0,0,0,0,0,0,0,0,.06-.05.06-.07a.05.05,0,0,0,0,0v-.07s0,0,0,0,0-.09,0-.11-.07,0-.1,0h0a.16.16,0,0,0,0-.09,0,0,0,0,0-.06,0,.21.21,0,0,1-.06.1l-.06.08a.93.93,0,0,0,0,.1s0,0,0,0a.49.49,0,0,1-.16.06h-.1a.61.61,0,0,0,.08-.33,1.52,1.52,0,0,0-.1-.32,1.13,1.13,0,0,1,0-.15.39.39,0,0,0-.07-.23.4.4,0,0,0-.13-.07l0,0s0,0,.06,0,.13,0,.19,0,0-.09,0-.11,0,0,0-.07l0,0s0,0,0,0,.08,0,.08,0a0,0,0,0,0,0-.06s0,0,0-.07a.13.13,0,0,1,0-.09s0,0,0-.12a.66.66,0,0,0,0-.14v-.06s0,0,0-.07a.23.23,0,0,0-.1-.17.11.11,0,0,1,0,0,.31.31,0,0,0-.08-.07l0,.05a.38.38,0,0,0-.15-.08,2.3,2.3,0,0,0-.3-.07.4.4,0,0,0-.13,0,.15.15,0,0,1-.08,0,.49.49,0,0,0-.35-.1c-.18,0-.17.17-.26.17H176a.45.45,0,0,1,.14,0,.22.22,0,0,0,.16,0,.21.21,0,0,1-.11.09.84.84,0,0,0-.24.14s0,.08-.06.13a.38.38,0,0,0,.08-.07.27.27,0,0,1,.12-.07l.11,0-.11.07a.45.45,0,0,0-.12.12l-.06.1.08-.07a.66.66,0,0,1,.18-.14c.06,0,.09,0,.13,0s0,0,0,0l-.12.05a.31.31,0,0,0-.12.07.74.74,0,0,1,.18-.06l0,.05,0,.07a.35.35,0,0,1-.17,0,.1.1,0,0,0,.11,0l.08,0a.31.31,0,0,1,0,.11s-.06.07-.06.08a.3.3,0,0,0,.1-.07.15.15,0,0,1,.07-.07l.06,0-.13.17a.82.82,0,0,0-.11.17.62.62,0,0,1-.15.19l-.14.08a.27.27,0,0,0,.17-.06.29.29,0,0,1,.09-.07l-.1.13.1-.07a.3.3,0,0,1,0,.16c0,.09-.07.1-.07.1s.09,0,.12-.12a.67.67,0,0,1,.06-.2s.06.14.06.17-.05.15-.08.16a.2.2,0,0,0,.11-.13s0,0,0,0a.46.46,0,0,0,.06-.21c0-.1,0-.1,0,0a.45.45,0,0,0,.06.15s0,0,0,0a.38.38,0,0,0-.08.09l-.09.12a.64.64,0,0,0-.08.14l-.07.12a.46.46,0,0,1,0,.09,2,2,0,0,0-.17.19,1.22,1.22,0,0,0-.16.26.15.15,0,0,0,0,.11.09.09,0,0,0,0,.1l.12.07.15.07.11,0a.89.89,0,0,0,0,.27.51.51,0,0,1,0,.28l-.1.15s0,.07,0,.09a1.21,1.21,0,0,0-.05.14.24.24,0,0,1,0,.09.14.14,0,0,0,0,.07.46.46,0,0,0,0,.28,2.1,2.1,0,0,1,0,.21.08.08,0,0,1,0,.07l0,0v0a0,0,0,0,0,0,0s0,0,0,0a.11.11,0,0,0,0,0l0,0a.11.11,0,0,1,0,.07s0,.1-.06.13a.11.11,0,0,0,0,.07.65.65,0,0,1,0,.13s0,.05,0,.08a.27.27,0,0,1-.06.12.47.47,0,0,0-.16.12,1.21,1.21,0,0,1-.16.16l-.2.17c0,.06-.13.13-.17.17a3.47,3.47,0,0,0-.24.26l-.18.2s-.13.1-.14.16,0,.07,0,.07,0,0,0,0,0,0,0,0,0,0,0,0,0,.06,0,.06h0s0,0,0,0,0,0,0,0h0a.82.82,0,0,0-.21,0s-.08,0-.08.1a3.24,3.24,0,0,0,.07.39,2.09,2.09,0,0,0,.12.56c.07.12.13.21.16.2s.07,0,.07-.09,0-.21,0-.27a.22.22,0,0,1,0-.09s0,0,.06,0a.31.31,0,0,0,.05-.17V154a.84.84,0,0,1,0-.1s0,0,0-.05a.12.12,0,0,0,.05,0s0-.05,0-.05,0,.05.07,0,.09-.08.1-.1a.69.69,0,0,0,.07-.13s0-.06,0-.08l.15-.13.13-.1a1.79,1.79,0,0,1,.26-.2,1,1,0,0,1,.23-.17.72.72,0,0,0,.18-.1.64.64,0,0,1,.14-.08.29.29,0,0,0,.18-.14l.23-.39c.09-.15.16-.24.24-.36l.1-.19a2.25,2.25,0,0,1,.2.21,2.27,2.27,0,0,0,.27.3,1.84,1.84,0,0,0,.27.18,0,0,0,0,1,0,0s0,0,0,.06a.12.12,0,0,1,0,.07s0,.06,0,.09,0,0,0,.06v.07a.47.47,0,0,1,0,.12s0,.17,0,.48a3.25,3.25,0,0,1,0,.46,2.08,2.08,0,0,1,0,.23v.08s0,0,0,.05,0,.06,0,.07,0,0,0,0,0,0,0,0,0,.05,0,.14,0,.2.1.22a2.11,2.11,0,0,0,.35,0,1.51,1.51,0,0,0,.54-.09c.16-.09.28-.16.26-.24m-4.4,0s-.05,0,0,0a.26.26,0,0,1,0-.08s0,.1,0,.12m2.1-6.85a.76.76,0,0,1-.13.08s0-.06.06-.11l.12-.08a.22.22,0,0,1,0,.11m.11-.41c-.07,0-.15,0-.19,0l.15-.12a.15.15,0,0,1,.16,0,.56.56,0,0,1-.12.09m.24.87a.34.34,0,0,1-.09.13s0-.07,0-.12a.38.38,0,0,0,0-.17c0-.06,0-.07,0-.12s0,0,.05,0a.65.65,0,0,0,.09.14s0,0,0,.11m1.48,6.26s-.06,0-.09,0,.12,0,.09,0" transform="translate(-24.91)"/><path class="cls-5" d="M173.79,154.7a.85.85,0,0,1-.27-.12l.12-.26a1,1,0,0,0,.23.11.75.75,0,0,0,.26,0,.43.43,0,0,0,.22,0,.15.15,0,0,0,.07-.12.15.15,0,0,0,0-.09l-.11-.06-.18,0-.27-.08a.45.45,0,0,1-.19-.14.36.36,0,0,1-.08-.24.48.48,0,0,1,.07-.23.51.51,0,0,1,.21-.17.91.91,0,0,1,.35-.07,1.35,1.35,0,0,1,.28,0,.7.7,0,0,1,.23.1l-.1.26a.83.83,0,0,0-.41-.12.42.42,0,0,0-.22.05.16.16,0,0,0-.07.13.12.12,0,0,0,.08.11,1.48,1.48,0,0,0,.25.08,1.58,1.58,0,0,1,.28.08.38.38,0,0,1,.18.13.34.34,0,0,1,.08.23.43.43,0,0,1-.29.41.86.86,0,0,1-.34.06,1,1,0,0,1-.34-.05" transform="translate(-24.91)"/><polygon class="cls-5" points="151.44 154.73 151.44 153.82 151 154.57 150.84 154.57 150.41 153.84 150.41 154.73 150.09 154.73 150.09 153.22 150.37 153.22 150.93 154.16 151.47 153.22 151.76 153.22 151.76 154.73 151.44 154.73"/><path class="cls-5" d="M177.32,154.65a.78.78,0,0,1-.29-.28.77.77,0,0,1-.1-.4.79.79,0,0,1,.1-.4.75.75,0,0,1,.29-.27.86.86,0,0,1,.84,0,.75.75,0,0,1,.29.27.79.79,0,0,1,.1.4.77.77,0,0,1-.1.4.78.78,0,0,1-.29.28.93.93,0,0,1-.84,0m.66-.26a.38.38,0,0,0,.16-.17.41.41,0,0,0,.07-.25.45.45,0,0,0-.07-.25.44.44,0,0,0-.16-.17.51.51,0,0,0-.48,0,.44.44,0,0,0-.16.17.54.54,0,0,0-.06.25.49.49,0,0,0,.06.25.38.38,0,0,0,.16.17.51.51,0,0,0,.48,0" transform="translate(-24.91)"/><path class="cls-5" d="M179.11,154.65a.78.78,0,0,1-.29-.28.74.74,0,0,1-.1-.4.77.77,0,0,1,.1-.4.78.78,0,0,1,.29-.28,1,1,0,0,1,.42-.1.94.94,0,0,1,.34.07.79.79,0,0,1,.27.2l-.22.21a.5.5,0,0,0-.62-.12.4.4,0,0,0-.17.17.54.54,0,0,0-.06.25.49.49,0,0,0,.06.25.35.35,0,0,0,.17.17.48.48,0,0,0,.24.06.47.47,0,0,0,.38-.17l.22.2a.6.6,0,0,1-.27.2.78.78,0,0,1-.35.07.83.83,0,0,1-.41-.1" transform="translate(-24.91)"/><rect class="cls-5" x="149.17" y="150.07" width="0.55" height="1.92"/><rect class="cls-5" x="148.5" y="150.75" width="1.9" height="0.56"/></g><path class="cls-5" d="M200.05,147.05l-1.06,2a7.48,7.48,0,0,0-3.28-.9c-.52,0-.89.2-.89.64a.46.46,0,0,0,.29.39,7.38,7.38,0,0,0,1.34.42c.37.09.68.18.92.26a8.35,8.35,0,0,1,1.51.62,2.9,2.9,0,0,1,1,.89,2.7,2.7,0,0,1,.35,1.4c0,2.05-1.48,3.21-4,3.21a7.91,7.91,0,0,1-4.62-1.36l1.13-2a7.32,7.32,0,0,0,3.79,1.08c.55,0,1-.22,1-.63a.58.58,0,0,0-.3-.56,11.32,11.32,0,0,0-1.52-.46l-.89-.24a6.81,6.81,0,0,1-1.46-.55,3,3,0,0,1-1-.86,2.55,2.55,0,0,1-.34-1.32c0-2.19,1.73-3.19,3.93-3.19A7.53,7.53,0,0,1,200.05,147.05Z" transform="translate(-24.91)"/><path class="cls-5" d="M213.19,155.88h-2.5v-6.27l-2.84,5H207l-2.85-5v6.27h-2.5V146.1H205l2.45,4.19,2.44-4.19h3.33Z" transform="translate(-24.91)"/><path class="cls-5" d="M219.89,146a5,5,0,0,1,4.37,2.5,4.85,4.85,0,0,1,.68,2.53,5,5,0,0,1-5.05,5,5,5,0,0,1-5-5,5,5,0,0,1,5-5Zm0,2.48a2.28,2.28,0,0,0-1.73.74,2.79,2.79,0,0,0,0,3.63,2.32,2.32,0,0,0,1.73.74,2.25,2.25,0,0,0,1.72-.74,2.73,2.73,0,0,0,0-3.63A2.22,2.22,0,0,0,219.88,148.44Z" transform="translate(-24.91)"/><path class="cls-5" d="M235.38,148.12l-2.19,1.27a2.19,2.19,0,0,0-1.85-.95,2.15,2.15,0,0,0-1.68.74,2.83,2.83,0,0,0,0,3.63,2.28,2.28,0,0,0,3.53-.21l2.19,1.27a4.94,4.94,0,0,1-4.07,2.15,5,5,0,0,1,0-10.06A4.92,4.92,0,0,1,235.38,148.12Z" transform="translate(-24.91)"/><g class="cls-4"><path class="cls-5" d="M35.73,233.91s-17.21,61.8,53.77,66.7,107.46-8.16,129.08,9.78,105,44.05,129.72,21.21,38.15-20.55,48.06-97.56Z" transform="translate(-24.91)"/></g></g></g><g class="cls-4"><g class="cls-4"><g class="cls-4"><path class="cls-20" d="M409.86,183.24a116.72,116.72,0,0,1-7.62,38C401.59,223,398,234,396.36,234h-7.67l-85.08,0-167.66,0q-49.65,0-99.29,0c-2.17,0-4-2.85-5.22-4.35a25.41,25.41,0,0,1-4.86-9.23,35.07,35.07,0,0,1,.3-19.78c1.33-4.61,4.16-9.25,6.31-12.74a84.55,84.55,0,0,1,17.24-19.62c7.61-6.54,17.41-12.57,21.16-22.43,5.55-14.59-4-28.9-2.67-43.6,2.17-24.51,26.21-42.82,47.33-51.09,16.36-6.41,34.5-8,51.91-7.4a185.24,185.24,0,0,1,25.42,2.58c7.68,1.32,16.72,2.67,23.76,6.23a103.93,103.93,0,0,1,39.23,26.62c5.38,5.71,10.16,12.13,16,17.34,7,6.23,14.18,6,22.9,4.29,16.6-3.3,32.82-6.89,49.64-2.75,16.3,4,30.31,14,41.88,26.06a82.07,82.07,0,0,1,22.84,59c0,.84.1-5.26,0,0" transform="translate(-24.91)"/><path class="cls-21" d="M98.52,180s-12.71-3.19-17.71,4.81-15,8.3-20.23,14.73-9.24,18,2.75,23.71,41.8-2.67,41.8-2.67l5.7-37.26Z" transform="translate(-24.91)"/></g><g class="cls-6"><rect class="cls-22" x="51.97" y="127.08" width="40.54" height="37.2"/></g><g class="cls-7"><g class="cls-23"><rect class="cls-24" x="299.49" y="181.04" width="78.02" height="53.02"/></g></g><g class="cls-4"><rect class="cls-25" x="209.47" y="101.86" width="106.07" height="132.33"/><rect class="cls-20" x="220.05" y="108.33" width="95.49" height="14.41"/></g><g class="cls-8"><polygon class="cls-26" points="161.02 87.18 298.68 148.85 241.62 279.53 103.96 217.86 161.02 87.18"/></g><g class="cls-4"><rect class="cls-27" x="138.46" y="128.34" width="124.63" height="3.73"/></g><g class="cls-9"><rect class="cls-28" x="207.33" y="99.99" width="110.18" height="3.73"/></g><g class="cls-10"><rect class="cls-29" x="141.42" y="141.34" width="77.51" height="19.07"/></g><g class="cls-4"><rect class="cls-27" x="69.11" y="144.22" width="72.31" height="40.62"/><rect class="cls-27" x="69.11" y="193.29" width="72.31" height="40.62"/></g><g class="cls-11"><rect class="cls-30" x="79.13" y="184.84" width="62.29" height="8.45"/></g><g class="cls-4"><path class="cls-31" d="M176.87,157.72a6.73,6.73,0,0,1-4.8-2,7,7,0,0,1,0-9.72,6.74,6.74,0,0,1,9.6,0,6.93,6.93,0,0,1,0,9.72,6.73,6.73,0,0,1-4.8,2m0-13.11a6.07,6.07,0,0,0-4.35,1.83,6.28,6.28,0,0,0,0,8.82,6.1,6.1,0,0,0,8.71,0,6.3,6.3,0,0,0,0-8.82,6.09,6.09,0,0,0-4.36-1.83" transform="translate(-24.91)"/><polygon class="cls-31" points="156.35 149.73 153.07 149.73 153.07 146.41 150.86 146.41 150.86 149.73 147.58 149.73 147.58 151.97 150.86 151.97 150.86 155.28 153.07 155.28 153.07 151.97 156.35 151.97 156.35 149.73"/><rect class="cls-32" x="267.24" y="185.59" width="48.31" height="32.29"/><rect class="cls-32" x="267.24" y="138.04" width="48.31" height="32.29"/><rect class="cls-32" x="221.06" y="109.1" width="94.49" height="12.72"/><polygon class="cls-33" points="141.42 133.35 261.22 137 261.22 132.07 141.42 132.07 141.42 133.35"/></g><g class="cls-12"><rect class="cls-34" x="64.59" y="143.98" width="76.83" height="4.02"/></g><g class="cls-13"><rect class="cls-35" y="207.08" width="82.92" height="26.84"/></g><g class="cls-4"><path class="cls-36" d="M64.39,86.32s6.35-7.55,21.54-6.72c0,0,22-12.58,45.57-1.67,0,0,25-2.71,43.51,2.34,12.35,3.36,16.42,6.89,16.42,6.89Z" transform="translate(-24.91)"/><path class="cls-36" d="M201.3,77.05a4.89,4.89,0,1,1,4.89,5,4.92,4.92,0,0,1-4.89-5" transform="translate(-24.91)"/><path class="cls-36" d="M137.7,108.46s3.48-4.13,11.8-3.68c0,0,12.07-6.89,25-.91,0,0,13.69-1.49,23.83,1.28,6.76,1.84,9,3.77,9,3.77Z" transform="translate(-24.91)"/><rect class="cls-37" x="160.06" y="189.04" width="84.18" height="44.54"/><rect class="cls-38" x="162.89" y="192.16" width="78.91" height="41.58"/><rect class="cls-32" x="165.88" y="194.79" width="73.1" height="9.55"/><rect class="cls-32" x="165.88" y="206.94" width="21.37" height="26.62"/><rect class="cls-32" x="189.29" y="206.94" width="26.28" height="26.62"/><rect class="cls-32" x="217.38" y="206.94" width="21.6" height="26.62"/><polygon class="cls-39" points="197.9 206.94 215.57 206.94 215.57 216.79 212.42 233.56 192.9 233.56 197.9 206.94"/><rect class="cls-31" x="192.73" y="212" width="19.66" height="21.58"/><rect class="cls-40" x="193.67" y="212.98" width="17.79" height="20.61"/><rect class="cls-31" x="202.23" y="212.98" width="0.66" height="20.61"/><path class="cls-31" d="M225.55,223.28a.43.43,0,1,1,.43.43.42.42,0,0,1-.43-.43" transform="translate(-24.91)"/><path class="cls-31" d="M228.55,223.28a.42.42,0,1,1,.42.43.42.42,0,0,1-.42-.43" transform="translate(-24.91)"/><polygon class="cls-39" points="172.68 206.94 183.5 206.94 180.05 233.56 169.23 233.56 172.68 206.94"/><polygon class="cls-39" points="185.08 194.79 183.84 204.34 173.02 204.34 174.26 194.79 185.08 194.79"/><polygon class="cls-39" points="222.49 206.94 233.31 206.94 229.86 233.56 219.03 233.56 222.49 206.94"/><polygon class="cls-39" points="234.89 194.79 233.65 204.34 222.82 204.34 224.06 194.79 234.89 194.79"/><polygon class="cls-39" points="219.7 194.79 217.91 204.34 198.39 204.34 200.18 194.79 219.7 194.79"/><polygon class="cls-39" points="217.39 208.9 217.43 208.9 217.39 209.11 217.39 208.9"/></g><g class="cls-14"><rect class="cls-41" x="153.62" y="224.49" width="21.98" height="9.08"/></g><g class="cls-4"><polygon class="cls-42" points="289.82 170.33 273.83 170.33 280.83 138.04 296.81 138.04 289.82 170.33"/><polygon class="cls-39" points="303.98 217.88 288 217.88 294.99 185.59 310.97 185.59 303.98 217.88"/><polygon class="cls-39" points="281.25 185.59 274.25 217.88 267.24 217.88 267.24 185.59 281.25 185.59"/><polygon class="cls-39" points="315.55 138.04 315.55 170.33 297.98 170.33 305.78 138.04 315.55 138.04"/><rect class="cls-38" x="244.2" y="109.1" width="1.33" height="12.72"/><rect class="cls-38" x="271.09" y="109.1" width="1.33" height="12.72"/><rect class="cls-38" x="297.31" y="109.1" width="1.33" height="12.72"/><g class="cls-43"><g class="cls-15"><rect class="cls-40" x="77.58" y="158.8" width="8.01" height="12.81"/><path class="cls-31" d="M110.83,172H102V158.39h8.82Zm-8-.83H110v-12h-7.2Z" transform="translate(-24.91)"/><rect class="cls-31" x="77.81" y="163.08" width="7.4" height="0.62"/><rect class="cls-31" x="77.81" y="167.34" width="7.4" height="0.62"/><rect class="cls-31" x="81.21" y="158.74" width="0.61" height="12.87"/><rect class="cls-40" x="100.71" y="158.8" width="8.01" height="12.81"/><path class="cls-31" d="M134,172h-8.82V158.39H134Zm-8-.83h7.2v-12H126Z" transform="translate(-24.91)"/><rect class="cls-31" x="100.94" y="163.08" width="7.4" height="0.62"/><rect class="cls-31" x="100.94" y="167.34" width="7.4" height="0.62"/><rect class="cls-31" x="104.34" y="158.74" width="0.61" height="12.87"/><rect class="cls-40" x="123.84" y="158.8" width="8.01" height="12.81"/><path class="cls-31" d="M157.09,172h-8.82V158.39h8.82Zm-8-.83h7.2v-12h-7.2Z" transform="translate(-24.91)"/><rect class="cls-31" x="124.07" y="163.08" width="7.4" height="0.62"/><rect class="cls-31" x="124.07" y="167.34" width="7.4" height="0.62"/><rect class="cls-31" x="127.47" y="158.74" width="0.61" height="12.87"/></g></g><g class="cls-43"><g class="cls-16"><rect class="cls-40" x="77.58" y="202.71" width="8.01" height="12.81"/><path class="cls-31" d="M110.83,215.93H102V202.3h8.82Zm-8-.83H110v-12h-7.2Z" transform="translate(-24.91)"/><rect class="cls-31" x="77.81" y="206.99" width="7.4" height="0.62"/><rect class="cls-31" x="77.81" y="211.25" width="7.4" height="0.62"/><rect class="cls-31" x="81.21" y="202.65" width="0.61" height="12.87"/><rect class="cls-40" x="100.71" y="202.71" width="8.01" height="12.81"/><path class="cls-31" d="M134,215.93h-8.82V202.3H134Zm-8-.83h7.2v-12H126Z" transform="translate(-24.91)"/><rect class="cls-31" x="100.94" y="206.99" width="7.4" height="0.62"/><rect class="cls-31" x="100.94" y="211.25" width="7.4" height="0.62"/><rect class="cls-31" x="104.34" y="202.65" width="0.61" height="12.87"/><rect class="cls-40" x="123.84" y="202.71" width="8.01" height="12.81"/><path class="cls-31" d="M157.09,215.93h-8.82V202.3h8.82Zm-8-.83h7.2v-12h-7.2Z" transform="translate(-24.91)"/><rect class="cls-31" x="124.07" y="206.99" width="7.4" height="0.62"/><rect class="cls-31" x="124.07" y="211.25" width="7.4" height="0.62"/><rect class="cls-31" x="127.47" y="202.65" width="0.61" height="12.87"/></g></g><rect class="cls-33" x="139.56" y="175.57" width="125.19" height="4.46"/></g><g class="cls-17"><rect class="cls-44" x="98.37" y="137" width="23.81" height="6.97"/></g><g class="cls-4"><path class="cls-45" d="M377,209v3a1.76,1.76,0,0,1-.17.76,1.7,1.7,0,0,1-1.5.94h-.53a1.69,1.69,0,0,1-1.68-1.7v-3a1.61,1.61,0,0,1,.25-.87h0a1.65,1.65,0,0,1,1.43-.81h.53A1.68,1.68,0,0,1,377,209" transform="translate(-24.91)"/><g class="cls-46"><g class="cls-18"><path class="cls-45" d="M376.86,212.78a1.7,1.7,0,0,1-1.5.94h-.53a1.69,1.69,0,0,1-1.68-1.7v-3a1.61,1.61,0,0,1,.25-.87c0,.19.74,4.33,3.46,4.65" transform="translate(-24.91)"/></g></g><polygon class="cls-47" points="325.62 231.13 333.88 231.13 333.88 222.68 325.26 222.68 325.62 231.13"/><path class="cls-31" d="M376.59,213.26l-40.61,1V192.59h26.66a6.76,6.76,0,0,1,6,3.73l1.75,3.45Z" transform="translate(-24.91)"/><path class="cls-45" d="M353.52,229.75a13.59,13.59,0,0,0,1.17,4.82h2c1.74,0,3.15-2.16,3.15-4.82s-3.39-4.82-5.12-4.82-1.17,2.16-1.17,4.82" transform="translate(-24.91)"/><path class="cls-48" d="M351.54,229.75c0,2.66,1.41,4.82,3.15,4.82s3.14-2.16,3.14-4.82-1.41-4.82-3.14-4.82-3.15,2.16-3.15,4.82" transform="translate(-24.91)"/><path class="cls-32" d="M352.36,229.75c0,2,1.06,3.63,2.37,3.63s2.36-1.62,2.36-3.63-1.06-3.63-2.36-3.63-2.37,1.62-2.37,3.63" transform="translate(-24.91)"/><path class="cls-45" d="M376.25,229.75a13.59,13.59,0,0,0,1.17,4.82h2c1.74,0,3.15-2.16,3.15-4.82s-3.39-4.82-5.13-4.82-1.17,2.16-1.17,4.82" transform="translate(-24.91)"/><path class="cls-48" d="M374.28,229.75c0,2.66,1.41,4.82,3.14,4.82s3.15-2.16,3.15-4.82-1.41-4.82-3.15-4.82-3.14,2.16-3.14,4.82" transform="translate(-24.91)"/><path class="cls-45" d="M324,229.75a13.59,13.59,0,0,0,1.17,4.82h2c1.73,0,3.14-2.16,3.14-4.82s-3.38-4.82-5.12-4.82-1.17,2.16-1.17,4.82" transform="translate(-24.91)"/><path class="cls-48" d="M322.06,229.75c0,2.66,1.41,4.82,3.15,4.82s3.14-2.16,3.14-4.82-1.4-4.82-3.14-4.82-3.15,2.16-3.15,4.82" transform="translate(-24.91)"/><path class="cls-31" d="M385.68,227.47a3.63,3.63,0,0,1-3.6,3.66H358.79a7.12,7.12,0,0,0,.1-1.23c0-3.12-1.84-5.65-4.12-5.65s-4.13,2.53-4.13,5.65a8.28,8.28,0,0,0,.1,1.23H337.13s-.55-6.16-.48-9.25c.06-2.68.06-7.95-.1-9.23,0-.19,13.12-.21,16.44-.23h.74l0,0,.05,0c.61.43,4,2.86,6.16,4.29,1.87,1.25,15.71,1.76,21.13,1.91l2.18.05a9.56,9.56,0,0,1,1.4,2,7.51,7.51,0,0,1,1,3.48c0,.82,0,1.81,0,2.79,0,.16,0,.31,0,.47" transform="translate(-24.91)"/><path class="cls-40" d="M373.31,212.42H355.06a1.08,1.08,0,0,1-1-.64l-4.51-10.18a.5.5,0,0,1,.45-.71h19.25a1.08,1.08,0,0,1,1,.65l3.24,7.49.81,1.87a1.09,1.09,0,0,1-1,1.52" transform="translate(-24.91)"/><path class="cls-33" d="M364.81,227c0,.32,0,.62,0,.88a5.54,5.54,0,0,1-1.89,3.24h-4.1a6.93,6.93,0,0,0,.1-1.22,7.25,7.25,0,0,0-.58-2.9,3.65,3.65,0,0,0-7.08,0,7.25,7.25,0,0,0-.59,2.9,8,8,0,0,0,.1,1.22H336V192.59h11.85l.06,7.18a11.61,11.61,0,0,0,.6,2c.36.86.85,2,1.37,3.25,1.08,2.55,2.34,5.53,3.13,7.36.39.93.67,1.56.74,1.7.22.43,3.51,2.23,6.29,3.84.7.4,1.36.78,1.93,1.13a14.13,14.13,0,0,1,1.77,1.2c.75.69,1.13,4.29,1.09,6.71" transform="translate(-24.91)"/><polygon class="cls-31" points="358.4 218.74 336.77 218.74 328.87 212.45 328.82 212.42 350.64 212.42 356.86 217.48 358.4 218.74"/><path class="cls-49" d="M364.48,222.44l-2-.2a1.54,1.54,0,0,1-1.36-1.27l-.45-2.5a.49.49,0,0,1,0-.12,23.22,23.22,0,0,1,3,1.94,4.49,4.49,0,0,1,.76,2.15" transform="translate(-24.91)"/><path class="cls-31" d="M370.42,199.77H347.89a13.36,13.36,0,0,0-.66-3.13,7.46,7.46,0,0,0-2.89-4h18.41a7.23,7.23,0,0,1,6.72,4,2.88,2.88,0,0,1,.13.31,18.93,18.93,0,0,1,.82,2.82" transform="translate(-24.91)"/><path class="cls-50" d="M364.48,222.44l-2-.2a1.54,1.54,0,0,1-1.36-1.27l-.45-2.5a.49.49,0,0,1,0-.12,23.22,23.22,0,0,1,3,1.94,4.49,4.49,0,0,1,.76,2.15" transform="translate(-24.91)"/><path class="cls-45" d="M385.68,227.47a3.72,3.72,0,0,1-3.77,3.66H358.79a7.12,7.12,0,0,0,.1-1.23,7.25,7.25,0,0,0-.58-2.9h27.36c0,.16,0,.31,0,.47" transform="translate(-24.91)"/><path class="cls-45" d="M350.64,229.9a8.28,8.28,0,0,0,.1,1.23H336V227h15.25a7.25,7.25,0,0,0-.59,2.9" transform="translate(-24.91)"/><path class="cls-45" d="M370.45,218.92h8.84c.29,0,.5.39.46.81l-.31,3.12c-.05.46-.31.79-.61.79h-7.29c-.46,0-.88-.47-1-1.15l-.53-2.65c-.09-.46.14-.92.45-.92" transform="translate(-24.91)"/><path class="cls-32" d="M373.49,209a32.41,32.41,0,0,1-19.62-8.14h15.4a1.08,1.08,0,0,1,1,.65Z" transform="translate(-24.91)"/><rect class="cls-31" x="275.78" y="192.59" width="39.46" height="38.54"/><path class="cls-33" d="M370.42,199.77H347.89a13.36,13.36,0,0,0-.66-3.13h22.24a2.88,2.88,0,0,1,.13.31,18.93,18.93,0,0,1,.82,2.82" transform="translate(-24.91)"/><path class="cls-45" d="M384.7,220.73a.7.7,0,0,1-.46.37l-3,.57c-.26.05-.46-.4-.39-.86l.3-2.07v-.05l.06-.42a.89.89,0,0,1,.41-.72l.17-.07,1.54,1.26a9.56,9.56,0,0,1,1.4,2" transform="translate(-24.91)"/><rect class="cls-51" x="275.78" y="217.95" width="63.03" height="3.25"/><rect class="cls-51" x="275.78" y="199.27" width="39.46" height="3.25"/><path class="cls-51" d="M314.8,210.16a5.62,5.62,0,1,1,5.62,5.69,5.66,5.66,0,0,1-5.62-5.69" transform="translate(-24.91)"/><path class="cls-31" d="M320.42,215.2a4.89,4.89,0,0,1-3.52-1.48,5.1,5.1,0,0,1,0-7.12,4.95,4.95,0,0,1,7,0,5.1,5.1,0,0,1,0,7.12,4.89,4.89,0,0,1-3.52,1.48m0-9.61a4.41,4.41,0,0,0-3.19,1.34,4.6,4.6,0,0,0,0,6.47,4.47,4.47,0,0,0,6.38,0,4.6,4.6,0,0,0,0-6.47,4.41,4.41,0,0,0-3.19-1.34" transform="translate(-24.91)"/><polygon class="cls-31" points="298.73 209.34 296.32 209.34 296.32 206.91 294.7 206.91 294.7 209.34 292.3 209.34 292.3 210.98 294.7 210.98 294.7 213.42 296.32 213.42 296.32 210.98 298.73 210.98 298.73 209.34"/><path class="cls-45" d="M368.19,222.81l-3.71-.37h0l-2-.2a1.54,1.54,0,0,1-1.36-1.27l-.45-2.5a.49.49,0,0,1,0-.12h0a.83.83,0,0,1,1-.85l5.78,1.19a1,1,0,0,1,.76.72l.68,2.54a.68.68,0,0,1-.72.86" transform="translate(-24.91)"/><path class="cls-40" d="M348,202.72l3.89,9.7h-6.67s-1.37-.23-1.54-3.06c-.19-3-.19-8.25-.19-8.25h2.93c1.11.17,1.29.79,1.58,1.62" transform="translate(-24.91)"/><path class="cls-45" d="M349.87,207.44s.34,3.92-1.57,5h3.57Z" transform="translate(-24.91)"/><path class="cls-45" d="M350.4,210.06s-.81-.58-.88-1.06v2.74h1.06Z" transform="translate(-24.91)"/><path class="cls-45" d="M349.52,209v3a1.76,1.76,0,0,1-.17.76,1.7,1.7,0,0,1-1.5.94h-.54a1.69,1.69,0,0,1-1.67-1.7v-3a1.69,1.69,0,0,1,.24-.87h0a1.68,1.68,0,0,1,1.43-.81h.54a1.68,1.68,0,0,1,1.67,1.69" transform="translate(-24.91)"/><path class="cls-45" d="M340.19,229.9a4.26,4.26,0,0,0,.18,1.23H313.2V227h28.06a4.65,4.65,0,0,0-1.07,2.9" transform="translate(-24.91)"/><path class="cls-45" d="M327.68,229.9a3.94,3.94,0,0,0,.18,1.23H300.69V227h28.06a4.59,4.59,0,0,0-1.07,2.9" transform="translate(-24.91)"/><path class="cls-47" d="M313.58,231.13h-9.71c-.2-.89-.82-7.21,4.62-7.21,4.94,0,5.31,5.77,5.09,7.21" transform="translate(-24.91)"/><path class="cls-45" d="M306.91,229.75a13.59,13.59,0,0,0,1.17,4.82h2c1.73,0,3.14-2.16,3.14-4.82s-3.39-4.82-5.12-4.82-1.17,2.16-1.17,4.82" transform="translate(-24.91)"/><path class="cls-48" d="M304.93,229.75c0,2.66,1.41,4.82,3.15,4.82s3.14-2.16,3.14-4.82-1.41-4.82-3.14-4.82-3.15,2.16-3.15,4.82" transform="translate(-24.91)"/><path class="cls-32" d="M305.75,229.75c0,2,1.06,3.63,2.37,3.63s2.37-1.62,2.37-3.63-1.06-3.63-2.37-3.63-2.37,1.62-2.37,3.63" transform="translate(-24.91)"/><path class="cls-52" d="M243.23,190.14c-.2-.39,4.39-1.81,4.46,2.07,0,0,8.6-.21,4.49-5.07a5.42,5.42,0,0,1-1.23-4.36c.05-1.29-.88-5.05-4.06-4.67a2.38,2.38,0,0,0-1.88.2c-2.36,1.25-7.66,13.26-1.78,11.83" transform="translate(-24.91)"/><path class="cls-53" d="M257.29,194.48s.55-.87,1-.88,1.28-.26,1.21-.09-.58.19-.63.29.77.25,1,.27.79,0,.77.12a2.61,2.61,0,0,1-1.68.54,4.58,4.58,0,0,0-1.54.2Z" transform="translate(-24.91)"/><path class="cls-52" d="M249.19,194.75a9.26,9.26,0,0,0,.86,1.32,5,5,0,0,0,3,2,3.19,3.19,0,0,0,1.77-.3h0a8.14,8.14,0,0,0,2.74-2.31,1.32,1.32,0,0,0-.18-1.28,19.86,19.86,0,0,1-3.46.56c-.3-.15-2.05-5.26-2.47-5.91s-1.84-1-1.84-1Z" transform="translate(-24.91)"/><path class="cls-45" d="M237.42,229.27s-1,.89-.78,1.52,1.06,1.05,1.18,1.83.58,1.19,1,1.19h2s.31-.54-.44-.71-1-1.07-1-1.91a14.5,14.5,0,0,0-.07-2l-1.59-.38Z" transform="translate(-24.91)"/><path class="cls-45" d="M245.57,229.64s-.35,3.77.08,4l5.41,0s0-.63-.87-.77-2.4-.65-2.66-1.8-2-1.4-2-1.4" transform="translate(-24.91)"/><path class="cls-53" d="M241.71,202.59c1.12-2.53,1.8-3.26,1.67-4.05-.1-.58.29-10.89.29-10.89s.4-.08.54-.11a1.37,1.37,0,0,0,1-.88,6.89,6.89,0,0,0,.33-2.32l.15,0,2.39.48s-.05.76-.05,1.48v0a1.39,1.39,0,0,0,1,1.35l.57.17a22.5,22.5,0,0,1,1,5.16c.17,2.62-1.6,3.75,0,9s-9.55,2-8.94.58" transform="translate(-24.91)"/><path class="cls-54" d="M248.08,184.85s-.05.76-.05,1.48a2.86,2.86,0,0,1-2.34-2Z" transform="translate(-24.91)"/><path class="cls-53" d="M248.53,185.53s-3.17.05-3.17-1.95-.42-3.35,1.61-3.47,2.42.65,2.58,1.32-.19,4-1,4.1" transform="translate(-24.91)"/><path class="cls-52" d="M248.42,180.07s-.87,2.35-2.21,2.69a2.6,2.6,0,0,1-1.91,0,3.81,3.81,0,0,0,1.23-2.26s2.23-1.54,2.89-.42" transform="translate(-24.91)"/><path class="cls-52" d="M248.2,180.26a1.92,1.92,0,0,1,.91.72,3.26,3.26,0,0,1,.43,1.84s.65-1.6-.08-2.51-1.26-.05-1.26-.05" transform="translate(-24.91)"/><path class="cls-55" d="M247.84,184.29a.8.8,0,0,0,.66.27.6.6,0,0,0,.49-.33,2.08,2.08,0,0,0-1.15.06" transform="translate(-24.91)"/><path class="cls-52" d="M242.15,192.21s0,1.53.09,2.91a8.79,8.79,0,0,0,.27,2.07c.32.76.69.89.69.89l2.84.7,1,.25,3.15-.95s1.43-4.06.86-6.34a17.65,17.65,0,0,0-1.46-3.87s-2.57,2.55-5.92-.22Z" transform="translate(-24.91)"/><path class="cls-56" d="M250,198.69a47.94,47.94,0,0,1,1.66,6.59c.1,1.68-3,23.79-3.11,24.57s-1,1.19-1,1.19a1.36,1.36,0,0,1-1,.08,2.52,2.52,0,0,1-1.07-.52s-1.21-15.77-.46-21.4a90.82,90.82,0,0,0,.76-10.51Z" transform="translate(-24.91)"/><path class="cls-57" d="M243.38,198.54s-2.38,3.24-2.6,5.43-.35,9.86-.82,12-2.21,6.24-2.21,12.88a1.34,1.34,0,0,0,.73.59,6.59,6.59,0,0,0,.65.18,1,1,0,0,0,1.14-.55c1.18-2.39,4.92-10.12,5.11-11.72.14-1.13,1.32-8.64,3.89-13.05.62-1.06-.38-5.26-.38-5.26Z" transform="translate(-24.91)"/><path class="cls-31" d="M247.91,184.34s.06.24.64.2c0,0,.48,0,.47-.29a1.59,1.59,0,0,0-1.11.09" transform="translate(-24.91)"/><path class="cls-45" d="M250.24,197.93a3.29,3.29,0,0,1-1.87.53c-1.49,0-5.17-.38-5.17-.38a2.94,2.94,0,0,0-.16.95s4.5,1.15,7.11.17a1.74,1.74,0,0,0,.09-1.27" transform="translate(-24.91)"/><path class="cls-31" d="M248.05,199a.68.68,0,1,1,.67.78.73.73,0,0,1-.67-.78m.22,0a.51.51,0,0,0,.45.55.56.56,0,0,0,0-1.1.51.51,0,0,0-.45.55" transform="translate(-24.91)"/><polygon class="cls-52" points="212.54 206.32 219.62 207.86 220.47 203.84 213.4 202.3 212.54 206.32"/><path class="cls-58" d="M245.38,203.85a5.17,5.17,0,0,1-4.18,1.09,4.44,4.44,0,0,1-2.9-2.64Z" transform="translate(-24.91)"/><path class="cls-58" d="M244,203.58a.4.4,0,1,1,.39.4.4.4,0,0,1-.39-.4m.13,0a.27.27,0,0,0,.26.27.27.27,0,0,0,0-.53.26.26,0,0,0-.26.26" transform="translate(-24.91)"/><path class="cls-53" d="M238.63,204.09a3.2,3.2,0,0,1-.11.86c-.11.28-.44.66-.55.66s.1-.59.05-.58-.32,1-.51,1-.36-1.08-.26-1.51a3,3,0,0,1,.53-1Z" transform="translate(-24.91)"/><path class="cls-52" d="M243.67,187.65a3.87,3.87,0,0,0-2.7,2.13c-.73,1.46-1.23,6-1.75,7.49a46.32,46.32,0,0,0-1.55,6.19.35.35,0,0,0,.22.39l.64.26a.31.31,0,0,0,.38-.13,54.5,54.5,0,0,0,3.62-7.14,11.81,11.81,0,0,1,2.64-4.29Z" transform="translate(-24.91)"/><path class="cls-59" d="M244.52,203.27c0-.06.41-6.6.34-10.28a15.39,15.39,0,0,0-.58-4.09,2.94,2.94,0,0,0-.66-1.25l-.14,0a10.66,10.66,0,0,1,1.18,5.3c.07,3.67-.33,10.21-.34,10.27Z" transform="translate(-24.91)"/><path class="cls-45" d="M277.13,234h-3.41a7.73,7.73,0,0,1,.27-1.24,3.25,3.25,0,0,1,.19-.5c.34-.67,2.45-.24,2.45-.24a1.73,1.73,0,0,1,.35.82,7.73,7.73,0,0,1,.15,1.16" transform="translate(-24.91)"/><path class="cls-60" d="M270.86,181.08s-2.72.48-3.34,2.11-4.09,27.93-4.09,27.93,1.72,1.38,5.42.88,2-30.92,2-30.92" transform="translate(-24.91)"/><path class="cls-45" d="M266.81,232.86a1.87,1.87,0,0,1-.24,1.09h-6.76a1.16,1.16,0,0,1,1-.73,5.18,5.18,0,0,0,2.74-1.28,2.23,2.23,0,0,0,.53-1c.32-1.43,2.63.44,2.63.44a12.88,12.88,0,0,1,.08,1.46" transform="translate(-24.91)"/><path class="cls-45" d="M263.9,232.16c.75.25,2.19,1,3.11.64.59-.23,3.91-9.93,4.12-14.18,0-.31.08-.74.17-1.26.2-1.1.54-2.61.94-4.27,1.06-4.45,2.49-10,2.46-11.8-.05-2.76-8.13-.58-8.13-.58a29.71,29.71,0,0,0-.67,5.55c-.22,6.51-.82,17.52-2.46,25.16a.65.65,0,0,0,.46.74" transform="translate(-24.91)"/><path class="cls-48" d="M269.5,201.3l4.28,31.36a8.17,8.17,0,0,0,3.33.09s1.25-16.68,1.15-20.71.9-10.79-.23-11.54-8.53.8-8.53.8" transform="translate(-24.91)"/><path class="cls-31" d="M278.57,182.51s-4.49-2.94-7.71-1.43a5.89,5.89,0,0,0-1.52,1.37c-1.16,1.3-3.44,21.94-3.44,21.94a18.45,18.45,0,0,0,12.67-.75Z" transform="translate(-24.91)"/><path class="cls-60" d="M270.6,181s-4.54,1.89-5.16,3.34a90.47,90.47,0,0,0-2.61,11.39c0,1.05,3.48.24,4-1.45.47-1.39,2-5.69,2.87-8.41Z" transform="translate(-24.91)"/><path class="cls-53" d="M271.55,182.44a5,5,0,0,0,3.52-.73,9.92,9.92,0,0,1-.75-2.68.28.28,0,0,1,0-.09,2.78,2.78,0,0,1,0-.62h-2.56s-.7.33-.7.55,0,.24,0,.35q0,.45,0,.78a7.84,7.84,0,0,1-.13,1.08s-.31,1.16.69,1.36" transform="translate(-24.91)"/><path class="cls-61" d="M271,180a3.52,3.52,0,0,0,3.33-1l.05-.06-.06,0a6,6,0,0,0-3.29.28q0,.45,0,.78" transform="translate(-24.91)"/><path class="cls-53" d="M275,177.9c-.35,1.89-2.76,1.83-3.8,1.71-.29,0-.48-.07-.48-.07-.33-.09-.51-.62-.6-1.31a11.1,11.1,0,0,1,.27-3.89c.35-.77,1-1.61,3.42-1s1.64,2.13,1.19,4.56" transform="translate(-24.91)"/><path class="cls-45" d="M270.25,173.29a5.62,5.62,0,0,1,1.68-1.39,4,4,0,0,1,3.14,0c2,.88,2.5,2.42,1.45,4.81s-2.17,2.25-2.17,2.25.22-.14.2-.93V178a.51.51,0,0,1,.16-.44c.25-.22.37-.89.16-1.08s-.6,0-.71.26a.3.3,0,0,1-.43.1c-.62-.4-.22-1.19-.81-1.67s-1.79-.08-2.67-.47c-1.16-.43-.25-1,0-1.36" transform="translate(-24.91)"/><path class="cls-62" d="M270,213.05c.39.1.77.18,1.16.25s.68.1,1,.13a16.27,16.27,0,0,0,6.11-.76l1.57-.5c.06,0-.15-6.06-.38-12.3,0-.64,0-1.28-.08-1.93l0-.81c-.22-5.51-.43-10.49-.47-10.76-.11-.6-.2-1.12-.31-1.57a4,4,0,0,0-1.52-2.64c-.08-.06-.75-.4-1.33-.69l-.92-.46h0c-.2.09-.43.54-.67,1.17-.45,1.17-.93,2.95-1.27,4.27h0c-.21.86-.37,1.53-.41,1.72s-.18.95-.29,1.8c-.16,1.16-.35,2.73-.55,4.51l-.06.55c0,.22-.05.43-.07.65l0,.21c-.07.71-.15,1.43-.23,2.17s-1,1.06-1,1.68c0,.36-.11,3.74-.21,4.81-.07.77,0,8.13,0,8.49" transform="translate(-24.91)"/><path class="cls-60" d="M276.6,188.6s.16,5.57-4,6.25-1.39.85-1.39.85,7.77-.33,7.9-.54-2.54-6.56-2.54-6.56" transform="translate(-24.91)"/><path class="cls-60" d="M273.11,197.23l.23.16h0a19.07,19.07,0,0,0,5.22,2.26c.29.08.58.16.89.22,0-.64,0-1.28-.08-1.93a6.56,6.56,0,0,0,1-.14c0-.08,0-.17,0-.25l-1-.42-.78-.3c-1.12-.43-1.95-.72-1.95-.72l-3.31,1.06Z" transform="translate(-24.91)"/><path class="cls-62" d="M272.24,197.14s.42.11,1.1.25h0a27.1,27.1,0,0,0,5.22.59c.28,0,.55,0,.81,0a6.56,6.56,0,0,0,1-.14A3.16,3.16,0,0,0,282,197c2.79-2.88-1.52-13.21-2.43-14.21a6.91,6.91,0,0,0-4.05-1.73l-.13,0-.63-.05h0l.22.73c.06.18.12.39.19.62.65,2.17,1.92,6.44,2.47,8.85a6.07,6.07,0,0,1,.27,1.71c-.22.82-2.47,1.24-3.9,1.43-.6.08-1.05.11-1.15.12h0l-.08.34-.2.83-.2.81Z" transform="translate(-24.91)"/><polygon class="cls-57" points="239.55 202.09 249.13 201.68 247.19 189.59 237.61 190 239.55 202.09"/><path class="cls-53" d="M272.88,194.47s-1.87-.13-2,.31c-.22,1,1.6,1.87,2.19,1.81s.2-2.19-.23-2.12" transform="translate(-24.91)"/><path class="cls-53" d="M263,192.45s1.78-.56,2-.16c.45,1-1.13,2.2-1.72,2.28s-.69-2.08-.25-2.12" transform="translate(-24.91)"/><path class="cls-60" d="M274.6,180.4a2.23,2.23,0,0,1,1.28.73s-3,5.38-3,5.33,1-5.4,1.74-6.06" transform="translate(-24.91)"/><path class="cls-60" d="M271,180.47a2.26,2.26,0,0,0-.86.9l-.35,4.5s.74-3.3,1.12-4.79a2.27,2.27,0,0,0,.09-.61" transform="translate(-24.91)"/><path class="cls-63" d="M268.92,189.72a.44.44,0,0,0-.51-.29c-.44,0-2.89.16-2.89.16s-.47,0-.43.3Z" transform="translate(-24.91)"/></g><g class="cls-19"><path class="cls-31" d="M182.61,150.87a5.74,5.74,0,1,1-5.74-5.81,5.77,5.77,0,0,1,5.74,5.81" transform="translate(-24.91)"/><path class="cls-64" d="M182.33,150.87a5.46,5.46,0,1,1-5.46-5.53,5.49,5.49,0,0,1,5.46,5.53" transform="translate(-24.91)"/><path class="cls-65" d="M176.62,154.3c.07,0,.38.15.44.18a.84.84,0,0,0,.36.11.89.89,0,0,0,.39-.06s0-.08,0-.11l-.19,0s0,0-.05,0l-.07,0s0,0,0,0l-.08-.11-.1-.13s0-.05,0-.14a2.72,2.72,0,0,1,.39-.46,3.4,3.4,0,0,0,.35-.4,3.29,3.29,0,0,1,.24-.32,1.12,1.12,0,0,0,.17-.2.52.52,0,0,0,.07-.24l.39,0a2.39,2.39,0,0,0,.43-.05,1.71,1.71,0,0,1,.25,0,.6.6,0,0,0,.29-.14.35.35,0,0,0,.13-.21c0-.11-.11-.3-.22-.46a3.1,3.1,0,0,0-.38-.4l-.13-.1s0,0,0,0,0,0-.05-.05,0,0-.06,0,0,0,0,0a.09.09,0,0,0-.06,0s0,0,0,0l-.07,0a.23.23,0,0,1-.08-.12s0,0,0-.05,0-.06,0-.12v-.14a1.67,1.67,0,0,1,0-.18,1.08,1.08,0,0,0,.05-.2l.07.06a.14.14,0,0,0,.17,0,1.11,1.11,0,0,1,.12-.15,1,1,0,0,0,.2-.3c.09-.15.14-.29.2-.41a.54.54,0,0,1,.15-.21.4.4,0,0,0,.07-.12.36.36,0,0,0,0-.09.06.06,0,0,0,0-.08,0,0,0,0,1,0,0s0,0,0,0a.11.11,0,0,0-.05,0s0,0,0,0l0,0h-.05s0,0,0,0-.06,0-.06,0,0-.08,0-.08,0,0,0,0,0,0-.06.09a.37.37,0,0,1,0,.1.06.06,0,0,0,0,.06s0,.07,0,.11a.15.15,0,0,0,0,.1s0,.08-.14.28a.86.86,0,0,1-.23.27s0,0,0,0,0-.13,0-.17a.83.83,0,0,0,0-.12.42.42,0,0,1,0-.14.5.5,0,0,0,0-.24.69.69,0,0,0-.11-.23.19.19,0,0,1,0-.08.3.3,0,0,0-.08-.08l-.06-.07a.12.12,0,0,1,0-.08.45.45,0,0,1,.06-.12.31.31,0,0,0,0-.13.1.1,0,0,1,0-.06.59.59,0,0,1,.16-.08s0-.08,0-.1a0,0,0,0,1,0-.05,0,0,0,0,0,0,0s0,0,0,0,0,0,0-.07,0,0,0,0a.09.09,0,0,0,0-.05s0,0-.06-.08-.06-.06-.07-.06,0,0,0-.05,0,0,0-.08,0-.07-.06-.09l-.05-.07s0-.11-.19-.12a.75.75,0,0,0-.41.08.47.47,0,0,0-.2.28.35.35,0,0,0,0,.3c.05.07.09.14.16.23a.23.23,0,0,1,.06.21c0,.07-.08.12-.08.12s-.05,0-.09,0a.41.41,0,0,0-.08.12.42.42,0,0,1-.1.12,1.24,1.24,0,0,0-.14.18c0,.06,0,0,0,.09a.7.7,0,0,1-.07.1c0,.05,0,0-.05,0s0,.05-.06.08a.44.44,0,0,0-.09.11s0,0,0,0l-.09.16a.72.72,0,0,0-.11.32c0,.1.1.11.14.13l.28.07a.69.69,0,0,0,.19,0v.13a1.31,1.31,0,0,0-.05.21.78.78,0,0,1-.06.28.43.43,0,0,1-.09.18c-.05,0-.07.12-.08.14s0,0,0,0a2.62,2.62,0,0,0,0,.37,1,1,0,0,1,0,.16,1.18,1.18,0,0,0,0,.27s0,0,0,.09a1.2,1.2,0,0,0,0,.19s0,0,.07,0h.09a2.6,2.6,0,0,0,0,.45h-.07a.48.48,0,0,0-.2,0c-.08,0-.1,0-.11,0h-.06a1.1,1.1,0,0,0,0,.34,1.31,1.31,0,0,1,.05.33s0,0-.08.09a1.42,1.42,0,0,0-.21.36,2.3,2.3,0,0,1-.19.39,2.9,2.9,0,0,1-.3.38h0s0,0-.07.07a.36.36,0,0,0-.08.18s0,0,0,.05,0,0,.06.09m1.3-5.22s0,0-.06,0a.11.11,0,0,0,0,0s0,0,0,0m.69,2.7a.65.65,0,0,1,0-.11.34.34,0,0,0,0-.08l0-.14.18.1.24.1a.86.86,0,0,0-.25,0l-.24.11" transform="translate(-24.91)"/><path class="cls-66" d="M178.67,154.27c0-.08-.13-.06-.17-.06a1.46,1.46,0,0,1-.22,0s-.07,0-.08,0l0,0s.09,0,.06,0a.12.12,0,0,0-.11,0H178l-.09,0s0,0,0,0-.05,0,0-.07a.35.35,0,0,0,.06-.22,1.69,1.69,0,0,1-.1-.41,3.75,3.75,0,0,1,0-.47,2.85,2.85,0,0,0,.06-.47c0-.19,0-.25,0-.39s-.14-.2-.22-.34a4.76,4.76,0,0,0-.36-.6,1.12,1.12,0,0,0-.16-.22s0,0,0,0,0-.08,0-.08-.05,0,0,0a.13.13,0,0,0,0-.05s0,0,0,0,0-.06,0-.13a1.09,1.09,0,0,1,0-.19.25.25,0,0,0,0-.1.65.65,0,0,1,0-.14l0-.13a.18.18,0,0,0,0,0s.08,0,.09,0a0,0,0,0,0,0,0s0,0,0,0a.11.11,0,0,0,.1,0s0-.05,0-.05,0,0,0,0,.07,0,0-.08a.52.52,0,0,0,.14-.06l.22-.14a.11.11,0,0,1,.08,0,.28.28,0,0,0,.18,0s.08,0,.08-.06,0,0,0,0,0,0,0,0,.06-.05.06-.07a.05.05,0,0,0,0,0v-.07s0,0,0,0,0-.09,0-.11-.07,0-.1,0h0a.16.16,0,0,0,0-.09,0,0,0,0,0-.06,0,.21.21,0,0,1-.06.1l-.06.08a.93.93,0,0,0,0,.1s0,0,0,0a.49.49,0,0,1-.16.06h-.1a.61.61,0,0,0,.08-.33,1.52,1.52,0,0,0-.1-.32,1.13,1.13,0,0,1,0-.15.39.39,0,0,0-.07-.23.4.4,0,0,0-.13-.07l0,0s0,0,.06,0,.13,0,.19,0,0-.09,0-.11,0,0,0-.07l0,0s0,0,0,0,.08,0,.08,0a0,0,0,0,0,0-.06s0,0,0-.07a.13.13,0,0,1,0-.09s0,0,0-.12a.66.66,0,0,0,0-.14v-.06s0,0,0-.07a.23.23,0,0,0-.1-.17.11.11,0,0,1,0,0,.31.31,0,0,0-.08-.07l0,.05a.38.38,0,0,0-.15-.08,2.3,2.3,0,0,0-.3-.07.4.4,0,0,0-.13,0,.15.15,0,0,1-.08,0,.49.49,0,0,0-.35-.1c-.18,0-.17.17-.26.17H176a.45.45,0,0,1,.14,0,.22.22,0,0,0,.16,0,.21.21,0,0,1-.11.09.84.84,0,0,0-.24.14s0,.08-.06.13a.38.38,0,0,0,.08-.07.27.27,0,0,1,.12-.07l.11,0-.11.07a.45.45,0,0,0-.12.12l-.06.1.08-.07a.66.66,0,0,1,.18-.14c.06,0,.09,0,.13,0s0,0,0,0l-.12.05a.31.31,0,0,0-.12.07.74.74,0,0,1,.18-.06l0,.05,0,.07a.35.35,0,0,1-.17,0,.1.1,0,0,0,.11,0l.08,0a.31.31,0,0,1,0,.11s-.06.07-.06.08a.3.3,0,0,0,.1-.07.15.15,0,0,1,.07-.07l.06,0-.13.17a.82.82,0,0,0-.11.17.62.62,0,0,1-.15.19l-.14.08a.27.27,0,0,0,.17-.06.29.29,0,0,1,.09-.07l-.1.13.1-.07a.3.3,0,0,1,0,.16c0,.09-.07.1-.07.1s.09,0,.12-.12a.67.67,0,0,1,.06-.2s.06.14.06.17-.05.15-.08.16a.2.2,0,0,0,.11-.13s0,0,0,0a.46.46,0,0,0,.06-.21c0-.1,0-.1,0,0a.45.45,0,0,0,.06.15s0,0,0,0a.38.38,0,0,0-.08.09l-.09.12a.64.64,0,0,0-.08.14l-.07.12a.46.46,0,0,1,0,.09,2,2,0,0,0-.17.19,1.22,1.22,0,0,0-.16.26.15.15,0,0,0,0,.11.09.09,0,0,0,0,.1l.12.07.15.07.11,0a.89.89,0,0,0,0,.27.51.51,0,0,1,0,.28l-.1.15s0,.07,0,.09a1.21,1.21,0,0,0-.05.14.24.24,0,0,1,0,.09.14.14,0,0,0,0,.07.46.46,0,0,0,0,.28,2.1,2.1,0,0,1,0,.21.08.08,0,0,1,0,.07l0,0v0a0,0,0,0,0,0,0s0,0,0,0a.11.11,0,0,0,0,0l0,0a.11.11,0,0,1,0,.07s0,.1-.06.13a.11.11,0,0,0,0,.07.65.65,0,0,1,0,.13s0,.05,0,.08a.27.27,0,0,1-.06.12.47.47,0,0,0-.16.12,1.21,1.21,0,0,1-.16.16l-.2.17c0,.06-.13.13-.17.17a3.47,3.47,0,0,0-.24.26l-.18.2s-.13.1-.14.16,0,.07,0,.07,0,0,0,0,0,0,0,0,0,0,0,0,0,.06,0,.06h0s0,0,0,0,0,0,0,0h0a.82.82,0,0,0-.21,0s-.08,0-.08.1a3.24,3.24,0,0,0,.07.39,2.09,2.09,0,0,0,.12.56c.07.12.13.21.16.2s.07,0,.07-.09,0-.21,0-.27a.22.22,0,0,1,0-.09s0,0,.06,0a.31.31,0,0,0,.05-.17V154a.84.84,0,0,1,0-.1s0,0,0-.05a.12.12,0,0,0,.05,0s0-.05,0-.05,0,.05.07,0,.09-.08.1-.1a.69.69,0,0,0,.07-.13s0-.06,0-.08l.15-.13.13-.1a1.79,1.79,0,0,1,.26-.2,1,1,0,0,1,.23-.17.72.72,0,0,0,.18-.1.64.64,0,0,1,.14-.08.29.29,0,0,0,.18-.14l.23-.39c.09-.15.16-.24.24-.36l.1-.19a2.25,2.25,0,0,1,.2.21,2.27,2.27,0,0,0,.27.3,1.84,1.84,0,0,0,.27.18,0,0,0,0,1,0,0s0,0,0,.06a.12.12,0,0,1,0,.07s0,.06,0,.09,0,0,0,.06v.07a.47.47,0,0,1,0,.12s0,.17,0,.48a3.25,3.25,0,0,1,0,.46,2.08,2.08,0,0,1,0,.23v.08s0,0,0,.05,0,.06,0,.07,0,0,0,0,0,0,0,0,0,.05,0,.14,0,.2.1.22a2.11,2.11,0,0,0,.35,0,1.51,1.51,0,0,0,.54-.09c.16-.09.28-.16.26-.24m-4.4,0s-.05,0,0,0a.26.26,0,0,1,0-.08s0,.1,0,.12m2.1-6.85a.76.76,0,0,1-.13.08s0-.06.06-.11l.12-.08a.22.22,0,0,1,0,.11m.11-.41c-.07,0-.15,0-.19,0l.15-.12a.15.15,0,0,1,.16,0,.56.56,0,0,1-.12.09m.24.87a.34.34,0,0,1-.09.13s0-.07,0-.12a.38.38,0,0,0,0-.17c0-.06,0-.07,0-.12s0,0,.05,0a.65.65,0,0,0,.09.14s0,0,0,.11m1.48,6.26s-.06,0-.09,0,.12,0,.09,0" transform="translate(-24.91)"/><path class="cls-31" d="M173.79,154.7a.85.85,0,0,1-.27-.12l.12-.26a1,1,0,0,0,.23.11.75.75,0,0,0,.26,0,.43.43,0,0,0,.22,0,.15.15,0,0,0,.07-.12.15.15,0,0,0,0-.09l-.11-.06-.18,0-.27-.08a.45.45,0,0,1-.19-.14.36.36,0,0,1-.08-.24.48.48,0,0,1,.07-.23.51.51,0,0,1,.21-.17.91.91,0,0,1,.35-.07,1.35,1.35,0,0,1,.28,0,.7.7,0,0,1,.23.1l-.1.26a.83.83,0,0,0-.41-.12.42.42,0,0,0-.22.05.16.16,0,0,0-.07.13.12.12,0,0,0,.08.11,1.48,1.48,0,0,0,.25.08,1.58,1.58,0,0,1,.28.08.38.38,0,0,1,.18.13.34.34,0,0,1,.08.23.43.43,0,0,1-.29.41.86.86,0,0,1-.34.06,1,1,0,0,1-.34-.05" transform="translate(-24.91)"/><polygon class="cls-31" points="151.44 154.73 151.44 153.82 151 154.57 150.84 154.57 150.41 153.84 150.41 154.73 150.09 154.73 150.09 153.22 150.37 153.22 150.93 154.16 151.47 153.22 151.76 153.22 151.76 154.73 151.44 154.73"/><path class="cls-31" d="M177.32,154.65a.78.78,0,0,1-.29-.28.77.77,0,0,1-.1-.4.79.79,0,0,1,.1-.4.75.75,0,0,1,.29-.27.86.86,0,0,1,.84,0,.75.75,0,0,1,.29.27.79.79,0,0,1,.1.4.77.77,0,0,1-.1.4.78.78,0,0,1-.29.28.93.93,0,0,1-.84,0m.66-.26a.38.38,0,0,0,.16-.17.41.41,0,0,0,.07-.25.45.45,0,0,0-.07-.25.44.44,0,0,0-.16-.17.51.51,0,0,0-.48,0,.44.44,0,0,0-.16.17.54.54,0,0,0-.06.25.49.49,0,0,0,.06.25.38.38,0,0,0,.16.17.51.51,0,0,0,.48,0" transform="translate(-24.91)"/><path class="cls-31" d="M179.11,154.65a.78.78,0,0,1-.29-.28.74.74,0,0,1-.1-.4.77.77,0,0,1,.1-.4.78.78,0,0,1,.29-.28,1,1,0,0,1,.42-.1.94.94,0,0,1,.34.07.79.79,0,0,1,.27.2l-.22.21a.5.5,0,0,0-.62-.12.4.4,0,0,0-.17.17.54.54,0,0,0-.06.25.49.49,0,0,0,.06.25.35.35,0,0,0,.17.17.48.48,0,0,0,.24.06.47.47,0,0,0,.38-.17l.22.2a.6.6,0,0,1-.27.2.78.78,0,0,1-.35.07.83.83,0,0,1-.41-.1" transform="translate(-24.91)"/><rect class="cls-67" x="149.17" y="150.07" width="0.55" height="1.92"/><rect class="cls-67" x="148.5" y="150.75" width="1.9" height="0.56"/></g><text class="cls-68" transform="translate(166.29 155.88) scale(0.99 1.02)">SMOC</text><g class="cls-4"><path class="cls-69" d="M35.73,233.91s-17.21,61.8,53.77,66.7,107.46-8.16,129.08,9.78,105,44.05,129.72,21.21,38.15-20.55,48.06-97.56Z" transform="translate(-24.91)"/></g></g></g><g id="Top"><g id="Bottom"><path class="cls-70" d="M412.19,467.16c-13.42,27.72-47.76,38.7-74.22,22.94-14.77-8.81-17.7-21.18-23.41-34a57.22,57.22,0,0,0-55.66-33.7c-84.53,5.13-152.64-51.36-152.64-51.36-82.76-83.36,18.86-173,87.19-128.19a79.61,79.61,0,0,1,18.9,17.78c22.14,28.38,33.33,60,59.11,64.31,24.1,4,40.65-7.85,45.66-30.3a37.43,37.43,0,0,1,13.4-21.45c5-3.87,11.08-6.53,19.09-7.84a58.81,58.81,0,0,1,15.57-.2c45.13,4.8,63.22-60.48,63.22-60.48V371.07S430.73,428.88,412.19,467.16Z" transform="translate(-24.91)"/><path class="cls-65" d="M386.08,489.45c-24.9,7-49.8-11.64-63.73-41-1-2-12.89-20.14-21-24.35a76.54,76.54,0,0,0-35.95-8.4c-28.93.23-108.09-3.14-149.15-44.64C36,290.93,134.52,204.75,200.72,247.83A76.92,76.92,0,0,1,219,264.92c21.46,27.29,32.3,57.67,57.28,61.83,23.35,3.89,39.39-7.55,44.25-29.12a35.93,35.93,0,0,1,13-20.62c4.87-3.74,10.79-6.31,18.6-7.56a56.76,56.76,0,0,1,15-.18c43.76,4.64,61.29-64.57,61.29-64.57V371.07S429.84,484.81,386.08,489.45Z" transform="translate(-24.91)"/></g><path class="cls-71" d="M211.36.67s41.22,61.25,121.3,89.56c46.39,16.39,95.64-18,95.63-67.32L428.41,0Z" transform="translate(-24.91)"/><path class="cls-72" d="M78.62,0S52.39,82,146.53,101.47C233.1,119.41,274.23,0,428.41,0H78.62Z" transform="translate(-24.91)"/></g></g></g></g></svg>