<svg xmlns="http://www.w3.org/2000/svg" xmlns:xlink="http://www.w3.org/1999/xlink" viewBox="0 0 353.24 497.35"><defs><style>.cls-1{fill:none;}.cls-2{clip-path:url(#clip-path);}.cls-3{fill:#f6f6f6;}.cls-4{fill:#e0ddff;}.cls-5{fill:#c7b6fd;}.cls-6{fill:#dfdafb;}.cls-7{fill:#f88575;}.cls-8{fill:#f45948;}.cls-9{fill:#f9be3f;}.cls-10{fill:#f4b231;}.cls-11{fill:#f1a21c;}.cls-12{fill:#342e73;}.cls-13{opacity:0.08;}.cls-14{clip-path:url(#clip-path-5);}.cls-15{fill:#fff;}.cls-16{fill:#8d74eb;}.cls-17{fill:#3c4689;}.cls-18{fill:#5f65da;}.cls-19{fill:#ff8894;}.cls-20{fill:#e3e3e3;}.cls-21{fill:#404a8e;}.cls-22{fill:#373f7f;}.cls-23{fill:#2a2e64;}.cls-24{fill:#1f214f;}.cls-25{fill:#b38ff6;}.cls-26{opacity:0.41;}.cls-27{clip-path:url(#clip-path-6);}.cls-28{fill:#ffd1dd;}.cls-29{fill:#ff839b;}.cls-30{fill:#ffb33c;}.cls-31{fill:#fc8e22;}.cls-32{fill:#fcc89e;}.cls-33{fill:#f8b485;}.cls-34{fill:#5e5e5e;}.cls-35{fill:#bbb;}.cls-36{fill:#5f5ea7;}.cls-37{opacity:0.37;}.cls-38{clip-path:url(#clip-path-7);}.cls-39{fill:#f7f7f7;}.cls-40{opacity:0.06;}.cls-41{clip-path:url(#clip-path-8);}.cls-42{fill:#514d93;}.cls-43{fill:#ac96fc;}.cls-44{opacity:0.11;}.cls-45{clip-path:url(#clip-path-9);}.cls-46{fill:url(#New_Gradient_Swatch_10);}.cls-47{fill:#09f;}.cls-48{fill:#0a0a4a;}.cls-49{fill:#f176bb;}</style><clipPath id="clip-path" transform="translate(-150.38)"><rect class="cls-1" width="559.84" height="392.78"/></clipPath><clipPath id="clip-path-5" transform="translate(-150.38)"><rect class="cls-1" x="381.74" y="165.85" width="52.17" height="74.81"/></clipPath><clipPath id="clip-path-6" transform="translate(-150.38)"><rect class="cls-1" x="332.58" y="208.67" width="13.13" height="16.13"/></clipPath><clipPath id="clip-path-7" transform="translate(-150.38)"><rect class="cls-1" x="279.65" y="196.65" width="18.49" height="19.88"/></clipPath><clipPath id="clip-path-8" transform="translate(-150.38)"><rect class="cls-1" x="224.04" y="174.03" width="44.54" height="31.3"/></clipPath><clipPath id="clip-path-9" transform="translate(-150.38)"><rect class="cls-1" x="229.04" y="215.1" width="82.49" height="46.17"/></clipPath><linearGradient id="New_Gradient_Swatch_10" x1="542.11" y1="391.96" x2="206.12" y2="220.97" gradientUnits="userSpaceOnUse"><stop offset="0.31" stop-color="#0a0a4a"/><stop offset="0.68" stop-color="#a8459e"/><stop offset="0.9" stop-color="#f6c"/></linearGradient></defs><title>Contactus  layer Image</title><g id="Layer_2" data-name="Layer 2"><g id="bg_Contact_us" data-name="bg Contact us"><g id="colour_design" data-name="colour design"><g class="cls-2"><g class="cls-2"><g class="cls-2"><path class="cls-3" d="M194.07,242.27c-7.12-7.36,42.47-54.19,40.83-65.8-7.19-50.8-22-9-48.47-50.8-27.89-44,31.55-97.95,80.11-56.51,14.66,12.51,29.51-21.44,43.63-26.71,37.95-14.14,94.89-6,116.88,31.13,5.76,9.72,7.68,21.68,14.44,30.84,7.23,9.81,19.08,14.67,26.38,24.29s11.66,21.51,13.27,33.43c2.08,15.48-.12,31.24-4,46.39-18.63,73-120.4,52.37-178.07,54.84-17.18.74-34.38,2.59-51.53,1.27-19.84-1.53-39.57-8-53.48-22.37" transform="translate(-150.38)"/><path class="cls-3" d="M293,149.62S164,211.55,173.29,283.35c4.3,33.37,46.71,57.63,81.79,50.11,0,0,33,66.61,159.47,10.92,33.56-14.78,37.11-48.45,38.57-48.83,10.38-2.66,50.3-2.78,5.62-84.47C364.14,106.68,293,149.62,293,149.62" transform="translate(-150.38)"/></g><g class="cls-2"><path class="cls-4" d="M468.83,259.27c0,7.89-63.21,14.28-141.2,14.28s-141.2-6.39-141.2-14.28S249.65,245,327.63,245s141.2,6.39,141.2,14.29" transform="translate(-150.38)"/><path class="cls-5" d="M350,175.93a18.42,18.42,0,0,1,0,7,41.86,41.86,0,0,1-2.69,10.68,26.61,26.61,0,0,1-8.59,11,11.44,11.44,0,0,1-3.05,1.59,13.6,13.6,0,0,1-2.58.6c-1.84.26-3.77.23-5.89.35-10.06.53-19.71-1.09-28.34-6.44a19,19,0,0,1-6.74-6.35,9.84,9.84,0,0,1-1.34-4.86,7.68,7.68,0,0,1,.42-2.56,6.6,6.6,0,0,1,.65-1.37c2.21-3.56,7.1-4.45,11.38-4.44a25.61,25.61,0,0,1-14.56-7.69c-2.14-2.29-3.88-5.23-3.86-8.28a6.86,6.86,0,0,1,.07-1,5.7,5.7,0,0,1,.44-1.55c1.16-2.71,4.21-4.74,7-3.8l-7.77-9.76a27.65,27.65,0,0,1-4.69-7.4,9.68,9.68,0,0,1,0-7.16,7.84,7.84,0,0,1,.7-1.22,5.77,5.77,0,0,1,.78-.86c1.89-1.74,5-2.34,7.09-.86-1.83-4.31-3.68-8.7-4.17-13.35s.53-9.66,3.82-13A10.89,10.89,0,0,1,291,103a11.31,11.31,0,0,1,2.45-.92,9.44,9.44,0,0,1,7.71,1.15c2.71,1.87,4,5.08,5.12,8.13q2.31,6.38,4.28,12.85c-.52-3.29,3.05-6.24,6.46-6a7.68,7.68,0,0,1,1.52.27,8.32,8.32,0,0,1,2.5,1.23,11.21,11.21,0,0,1,3.6,4.42c1.39,3,1.6,6.44,1.8,9.76q.38,6.1.73,12.2c.22-3,3.87-5,6.89-4.3l.47.14a7.1,7.1,0,0,1,2.48,1.37,10.1,10.1,0,0,1,3.11,4.82c.88,2.9.69,6,.5,9q-.51,8.06-1,16.11a4.52,4.52,0,0,1,4.57-2.8,4.6,4.6,0,0,1,1.38.24,6.08,6.08,0,0,1,1.1.5,7.73,7.73,0,0,1,3.32,4.73" transform="translate(-150.38)"/><path class="cls-6" d="M329.63,195.44c1.92,3.65,3.92,7.25,6,10.77a13.6,13.6,0,0,1-2.58.6c-.52-.87-1-1.75-1.54-2.63q-2.34-4.11-4.57-8.29a81.12,81.12,0,0,1-36.2-6.38,7.68,7.68,0,0,1,.42-2.56,78.26,78.26,0,0,0,34.49,6.49q-4.94-9.48-9.32-19.23a82.7,82.7,0,0,1-31.56-9,6.86,6.86,0,0,1,.07-1,5.7,5.7,0,0,1,.44-1.55,79.94,79.94,0,0,0,29.89,9c-3.06-6.87-5.95-13.81-8.73-20.75-.08-.19-.15-.39-.23-.58-10.24-2.7-18.78-8.76-26.35-15.8a7.84,7.84,0,0,1,.7-1.22,5.77,5.77,0,0,1,.78-.86c6.86,6.44,14.57,12.12,23.71,14.94-3.2-8.17-6.21-16.41-8.95-24.74A137.53,137.53,0,0,1,291,103a11.31,11.31,0,0,1,2.45-.92,149,149,0,0,0,6.5,23.81q3.76,11,8,21.83c2.61-1.73,4-4.43,5.15-7.28a103.72,103.72,0,0,0,3.25-10,57.33,57.33,0,0,0,2.15-12,8.44,8.44,0,0,1,2.5,1.23,64.55,64.55,0,0,1-2.61,12.91c-1.79,6-3.52,14-9.49,17.47q4.64,11.6,9.83,23A45.2,45.2,0,0,0,334.55,142a7.1,7.1,0,0,1,2.48,1.37,48,48,0,0,1-17.15,32.14c.78,1.69,1.56,3.37,2.36,5.05,2,4.22,4.06,8.45,6.21,12.64,7.52-5.86,13.81-13.64,15.73-22.71a4.6,4.6,0,0,1,1.38.24,6.41,6.41,0,0,1,1.1.5c-2.15,9.69-8.94,18-17,24.24" transform="translate(-150.38)"/><path class="cls-7" d="M407.66,193.85a16.86,16.86,0,0,0,0,6.45,38.76,38.76,0,0,0,2.46,9.82,24.59,24.59,0,0,0,7.9,10.09,10.35,10.35,0,0,0,2.8,1.47,12.26,12.26,0,0,0,2.38.55c1.69.24,3.46.22,5.42.32,9.24.49,18.12-1,26.05-5.92a17.45,17.45,0,0,0,6.2-5.83,9.17,9.17,0,0,0,1.22-4.47,7.29,7.29,0,0,0-.38-2.36,6.58,6.58,0,0,0-.6-1.26c-2-3.27-6.52-4.09-10.46-4.07A23.61,23.61,0,0,0,464,191.57c2-2.11,3.57-4.81,3.56-7.62a7.41,7.41,0,0,0-.07-.93,5.12,5.12,0,0,0-.41-1.42c-1.06-2.49-3.87-4.36-6.47-3.5l7.14-9a25.43,25.43,0,0,0,4.32-6.8,8.9,8.9,0,0,0,0-6.58,5.68,5.68,0,0,0-.64-1.12,4.88,4.88,0,0,0-.71-.79c-1.75-1.61-4.59-2.16-6.52-.79,1.68-4,3.38-8,3.84-12.27s-.49-8.89-3.52-12a10.06,10.06,0,0,0-2.66-1.94,10.82,10.82,0,0,0-2.26-.85,8.72,8.72,0,0,0-7.09,1c-2.48,1.72-3.69,4.68-4.7,7.48q-2.13,5.87-3.94,11.81c.48-3-2.81-5.73-5.94-5.5a6.43,6.43,0,0,0-1.39.25,7.58,7.58,0,0,0-2.3,1.13,10.13,10.13,0,0,0-3.31,4.06c-1.28,2.8-1.48,5.92-1.66,9-.22,3.74-.45,7.48-.67,11.22-.2-2.77-3.56-4.61-6.33-3.95l-.44.12a6.89,6.89,0,0,0-2.28,1.26,9.38,9.38,0,0,0-2.85,4.44,23.12,23.12,0,0,0-.46,8.26q.47,7.41.94,14.81a4.17,4.17,0,0,0-4.2-2.58,4.57,4.57,0,0,0-1.27.22,6.08,6.08,0,0,0-1,.47,7.1,7.1,0,0,0-3.06,4.35" transform="translate(-150.38)"/><path class="cls-8" d="M426.37,211.78c-1.76,3.35-3.6,6.67-5.56,9.9a12.26,12.26,0,0,0,2.38.55c.47-.8.95-1.6,1.41-2.42,1.44-2.51,2.84-5.06,4.21-7.62a74.46,74.46,0,0,0,33.27-5.86,7.29,7.29,0,0,0-.38-2.36,72,72,0,0,1-31.71,6c3-5.81,5.87-11.71,8.57-17.67a76.18,76.18,0,0,0,29-8.32,7.41,7.41,0,0,0-.07-.93,4.72,4.72,0,0,0-.41-1.42,73.52,73.52,0,0,1-27.47,8.28q4.22-9.48,8-19.08l.21-.53c9.42-2.48,17.27-8.05,24.22-14.52a6.23,6.23,0,0,0-.64-1.12,4.88,4.88,0,0,0-.71-.79c-6.31,5.92-13.39,11.14-21.8,13.73,2.94-7.51,5.7-15.09,8.22-22.74a127.14,127.14,0,0,0,4.72-18,10.82,10.82,0,0,0-2.26-.85,137.15,137.15,0,0,1-6,21.89q-3.47,10.11-7.39,20.07c-2.41-1.59-3.71-4.07-4.74-6.7-1.16-3-2.13-6.08-3-9.17a52.72,52.72,0,0,1-2-11,7.58,7.58,0,0,0-2.3,1.13,59.82,59.82,0,0,0,2.39,11.86c1.65,5.55,3.24,12.89,8.73,16.06q-4.26,10.66-9,21.13a41.58,41.58,0,0,1-14.5-28.63,6.89,6.89,0,0,0-2.28,1.26,44.13,44.13,0,0,0,15.78,29.55c-.72,1.55-1.44,3.1-2.18,4.64-1.84,3.88-3.73,7.77-5.71,11.62-6.91-5.39-12.69-12.54-14.45-20.88a4.58,4.58,0,0,0-1.28.22,6.08,6.08,0,0,0-1,.47c2,8.91,8.21,16.55,15.65,22.28" transform="translate(-150.38)"/><path class="cls-9" d="M475.48,197a27.3,27.3,0,0,0-5.44,4.19c-1.74,1.55-3.43,3.14-5.09,4.77-3.31,3.27-6.45,6.7-9.45,10.25a252.74,252.74,0,0,0-16.65,22.33c-2.92,4.32-5.74,8.71-8.54,13.1-.54.85.83,1.63,1.37.79,9.8-15.46,20.05-30.8,32.95-44,1.81-1.86,3.68-3.68,5.6-5.44a54.61,54.61,0,0,0,5.73-5.33.4.4,0,0,0-.48-.63" transform="translate(-150.38)"/><path class="cls-9" d="M482.7,193c-.95-1.35-3.29-1.06-4.74-.76-3.41.68-6.39,2.93-8.82,5.39a40,40,0,0,0-4.8,5.91,22,22,0,0,0-3.33,6.79.36.36,0,0,0,.43.45.74.74,0,0,0,.68.14,37.67,37.67,0,0,0,10.81-4.62,38.5,38.5,0,0,0,4.78-3.56,21.58,21.58,0,0,0,4.23-4.62c.87-1.41,1.8-3.65.76-5.12" transform="translate(-150.38)"/><path class="cls-9" d="M458.74,211.08c.7-2,1.33-4.05,1.85-6.1a54.7,54.7,0,0,0,1.19-6.1c.24-1.78.32-3.67-.57-5.08a3.12,3.12,0,0,0-3.92-1.21,8.28,8.28,0,0,0-3.94,3.86,20.13,20.13,0,0,0-1.05,16.3,12.11,12.11,0,0,0,1.24,2.4,7.29,7.29,0,0,0,1.46,1.61.73.73,0,0,0,.29.24l.09.06a.23.23,0,0,0,.32,0,.91.91,0,0,0,.4-.26c1.41-1.53,2-3.79,2.64-5.68" transform="translate(-150.38)"/><path class="cls-9" d="M449.85,220c0-2.07-.1-4.13-.29-6.17a53.33,53.33,0,0,0-.89-6c-.36-1.7-.9-3.46-2.18-4.48a3,3,0,0,0-4,.09,7.8,7.8,0,0,0-2.36,4.76,19.73,19.73,0,0,0,4.34,15.28,12.21,12.21,0,0,0,1.91,1.83,7.19,7.19,0,0,0,1.88,1,.62.62,0,0,0,.34.13l.1,0a.23.23,0,0,0,.28-.14.79.79,0,0,0,.28-.37c.8-1.84.59-4.08.58-6" transform="translate(-150.38)"/><path class="cls-9" d="M441.86,230.41c-.24-2.06-.54-4.1-.94-6.11a54,54,0,0,0-1.52-5.85c-.54-1.66-1.26-3.35-2.64-4.24a3.06,3.06,0,0,0-4,.49,7.83,7.83,0,0,0-1.83,5A18.43,18.43,0,0,0,433.47,230a19,19,0,0,0,3.41,4.48,13,13,0,0,0,2.11,1.62,7.36,7.36,0,0,0,2,.84.73.73,0,0,0,.35.09l.1,0a.23.23,0,0,0,.27-.16.82.82,0,0,0,.24-.4c.6-1.91.15-4.12-.06-6" transform="translate(-150.38)"/><path class="cls-9" d="M434.2,240.67c-.35-2-.77-4-1.3-6A52.8,52.8,0,0,0,431,229c-.65-1.61-1.48-3.25-2.92-4a3.17,3.17,0,0,0-4,.68,7.58,7.58,0,0,0-1.58,5,18,18,0,0,0,3.14,10,19.13,19.13,0,0,0,3.73,4.26,12.57,12.57,0,0,0,2.23,1.49,7.75,7.75,0,0,0,2.05.73.79.79,0,0,0,.37.07l.1,0a.23.23,0,0,0,.26-.17.9.9,0,0,0,.23-.41c.49-1.91-.09-4.08-.42-6" transform="translate(-150.38)"/><path class="cls-9" d="M440.15,244.78c2.1-.23,4.19-.38,6.28-.43a54.72,54.72,0,0,1,6.15.18c1.77.16,3.62.48,4.81,1.61a2.94,2.94,0,0,1,.43,3.93,7.86,7.86,0,0,1-4.5,2.86,19.43,19.43,0,0,1-10.78-.16,20,20,0,0,1-5.24-2.31,13.67,13.67,0,0,1-2.09-1.67,7.4,7.4,0,0,1-1.28-1.72.68.68,0,0,1-.18-.32l0-.09a.21.21,0,0,1,.1-.29.86.86,0,0,1,.33-.33c1.76-1,4.06-1,6-1.26" transform="translate(-150.38)"/><path class="cls-9" d="M447.49,234.39c2.12-.25,4.24-.42,6.36-.49a56.34,56.34,0,0,1,6.24.16c1.8.15,3.68.48,4.92,1.65a3.12,3.12,0,0,1,.53,4.07,7.77,7.77,0,0,1-4.5,3,19.2,19.2,0,0,1-10.94-.11,20.07,20.07,0,0,1-5.36-2.37,13.57,13.57,0,0,1-2.17-1.72,8.26,8.26,0,0,1-1.34-1.77.66.66,0,0,1-.18-.34l-.06-.09a.23.23,0,0,1,.1-.3.82.82,0,0,1,.33-.34c1.76-1,4.09-1.11,6.07-1.34" transform="translate(-150.38)"/><path class="cls-9" d="M481.65,215.22a4.49,4.49,0,0,0-2.39-4.17c-3-1.83-7.09-1-10.32-.35a33.8,33.8,0,0,0-10.23,4c-.76.45-1.52.89-2.32,1.29-.24.12-.5,0-.71.21-1.42,1.75,5.68,3.73,6.91,4.07a24.18,24.18,0,0,0,11.2.73c3.14-.66,7.54-2.08,7.86-5.78" transform="translate(-150.38)"/><path class="cls-9" d="M473.1,229.45a4.33,4.33,0,0,0-1.4-4.42c-2.43-2.34-6.47-2.44-9.66-2.45a32.59,32.59,0,0,0-10.47,1.66c-.82.28-1.62.53-2.46.74-.25.07-.46-.14-.71.05-1.71,1.36,4.59,4.69,5.68,5.27a23.39,23.39,0,0,0,10.41,3c3.1,0,7.54-.41,8.61-3.84" transform="translate(-150.38)"/><polygon class="cls-9" points="278.87 127.63 213.56 194.4 168.07 152.33 233.39 85.55 278.87 127.63"/><polygon class="cls-10" points="213.56 194.4 220.47 137.2 278.87 127.63 213.56 194.4"/><path class="cls-11" d="M318.46,152.33l56.8-5.88a5.87,5.87,0,0,0,5.32-5.43l3.19-55.47Z" transform="translate(-150.38)"/><path class="cls-5" d="M435.57,253.76H380.08a2,2,0,0,1-2-2V163.36a2,2,0,0,1,2-2h55.49a2,2,0,0,1,2,2v88.42a2,2,0,0,1-2,2" transform="translate(-150.38)"/><rect class="cls-12" x="231.36" y="165.85" width="52.17" height="74.8"/><g class="cls-13"><g class="cls-14"><polygon class="cls-15" points="283.53 240.65 231.36 240.65 231.36 165.85 283.53 240.65"/></g></g><path class="cls-12" d="M412.93,247.1a5.11,5.11,0,1,1-5.1-5,5,5,0,0,1,5.1,5" transform="translate(-150.38)"/><path class="cls-15" d="M427.47,134.77c-14.79,0-26.78,8.75-26.78,19.54,0,5.74,3.4,10.9,8.8,14.48.11,1.63.36,3.28.42,4.06a44,44,0,0,0,1,6.47.81.81,0,0,0,1.47.23,77.62,77.62,0,0,1,5-7.13,35.35,35.35,0,0,0,10,1.42c14.8,0,26.79-8.74,26.79-19.53s-12-19.54-26.79-19.54" transform="translate(-150.38)"/><path class="cls-5" d="M419,154a4.47,4.47,0,1,1-4.46-4.34A4.4,4.4,0,0,1,419,154" transform="translate(-150.38)"/><path class="cls-5" d="M433.11,154a4.47,4.47,0,1,1-4.46-4.34,4.41,4.41,0,0,1,4.46,4.34" transform="translate(-150.38)"/><path class="cls-5" d="M447.21,154a4.47,4.47,0,1,1-4.47-4.34,4.41,4.41,0,0,1,4.47,4.34" transform="translate(-150.38)"/><path class="cls-16" d="M406.53,212.31c-.32.64-.65,1.28-1,1.93a7,7,0,0,1-9.27,2.86l-18.39-9.3-.19-.1a6.58,6.58,0,0,1-2.8-9.21l.87-1.49,1.34-2.31a5.5,5.5,0,0,0,.72-2.07c.35-2.7-.05-8.73-10.43-9.27H316.63c-9.79.51-10.7,5.9-10.48,8.79a6.49,6.49,0,0,0,.87,2.73l1.32,2.27.79,1.35a6.58,6.58,0,0,1-2.8,9.21l-.08,0-18.5,9.36a7,7,0,0,1-9.27-2.86l-.92-1.78c-3.56-7.14-5.52-14-2.51-22a19.16,19.16,0,0,1,11.34-11.12A152.38,152.38,0,0,1,342,169.8a152.38,152.38,0,0,1,55.62,9.51A19.16,19.16,0,0,1,409,190.43c3,8,1.08,14.8-2.44,21.88" transform="translate(-150.38)"/><path class="cls-5" d="M306.33,207.7l-18.58,9.4a7,7,0,0,1-9.27-2.86c-.32-.6-.62-1.19-.91-1.79l30.78-15.31.78,1.35a6.57,6.57,0,0,1-2.8,9.21" transform="translate(-150.38)"/><path class="cls-5" d="M406.53,212.31c-.32.64-.65,1.28-1,1.93a7,7,0,0,1-9.27,2.86l-18.58-9.4a6.58,6.58,0,0,1-2.8-9.21l.87-1.49Z" transform="translate(-150.38)"/><path class="cls-17" d="M382.47,194.2c-.62,2.82-2.54,5.2-3.77,7.83a9.25,9.25,0,0,0-.82,5.77l-.19-.1a6.58,6.58,0,0,1-2.8-9.21l.87-1.49,1.34-2.31a5.5,5.5,0,0,0,.72-2.07c.35-2.7-.05-8.73-10.43-9.27H316.63c-9.79.51-10.7,5.9-10.48,8.79a6.49,6.49,0,0,0,.87,2.73l1.32,2.27.79,1.35a6.58,6.58,0,0,1-2.8,9.21l-.08,0a4.56,4.56,0,0,0,.48-1.46c.34-2.12-.78-4.17-1.81-6.06-2.32-4.28-4.39-9.37-2.43-13.82,1.54-3.5,5.3-5.67,9.1-6.62a47,47,0,0,1,11.06-1l34.83-.25c5.73,0,11.67,0,16.85,2.34s9.34,7.84,8.14,13.29" transform="translate(-150.38)"/><path class="cls-18" d="M393.87,236.39v15.27a2.44,2.44,0,0,1-2.48,2.4H292.27a2.44,2.44,0,0,1-2.48-2.4V236.39a2.41,2.41,0,0,1,1.17-2c21-12.67,25.75-47.71,26.61-56.3a2.16,2.16,0,0,1,2.17-1.92h5.08a4.6,4.6,0,0,1,4.66,4.53V185a2.43,2.43,0,0,0,2.47,2.4h19.76a2.44,2.44,0,0,0,2.47-2.4v-4.35a4.6,4.6,0,0,1,4.66-4.53h5.08a2.16,2.16,0,0,1,2.17,1.92c.86,8.59,5.59,43.63,26.61,56.3a2.41,2.41,0,0,1,1.17,2" transform="translate(-150.38)"/><path class="cls-19" d="M363.4,216.33c0,11.88-9.9,21.51-22.11,21.51s-22.12-9.63-22.12-21.51,9.9-21.51,22.12-21.51,22.11,9.63,22.11,21.51" transform="translate(-150.38)"/><path class="cls-20" d="M350,216.33a8.41,8.41,0,0,1-4.28,7.29,8.82,8.82,0,0,1-4.42,1.18,8.59,8.59,0,0,1-8.71-8.47,8.43,8.43,0,0,1,5-7.66,8.73,8.73,0,0,1,3.69-.8,8.59,8.59,0,0,1,8.7,8.46" transform="translate(-150.38)"/><path class="cls-21" d="M330.41,216.16a4.17,4.17,0,1,1-4.17-4.06,4.12,4.12,0,0,1,4.17,4.06" transform="translate(-150.38)"/><path class="cls-21" d="M360.5,216.16a4.17,4.17,0,1,1-4.17-4.06,4.11,4.11,0,0,1,4.17,4.06" transform="translate(-150.38)"/><path class="cls-22" d="M349,223.64a4.25,4.25,0,0,1,5.9,0,4,4,0,0,1,0,5.73,4.25,4.25,0,0,1-5.9,0,4,4,0,0,1,0-5.73" transform="translate(-150.38)"/><path class="cls-22" d="M327.7,202.94a4.25,4.25,0,0,1,5.89,0,4,4,0,0,1,0,5.74,4.25,4.25,0,0,1-5.89,0,4,4,0,0,1,0-5.74" transform="translate(-150.38)"/><path class="cls-23" d="M349,208.67a4,4,0,0,1,0-5.73,4.26,4.26,0,0,1,5.9,0,4,4,0,0,1,0,5.73,4.25,4.25,0,0,1-5.9,0" transform="translate(-150.38)"/><path class="cls-23" d="M327.7,229.37a4,4,0,0,1,0-5.73,4.23,4.23,0,0,1,5.89,0,4,4,0,0,1,0,5.73,4.25,4.25,0,0,1-5.89,0" transform="translate(-150.38)"/><path class="cls-24" d="M341.29,226.73a4.06,4.06,0,1,1-4.17,4.06,4.12,4.12,0,0,1,4.17-4.06" transform="translate(-150.38)"/><path class="cls-24" d="M341.29,197.47a4.06,4.06,0,1,1-4.17,4.05,4.11,4.11,0,0,1,4.17-4.05" transform="translate(-150.38)"/><path class="cls-25" d="M393.87,244.54v7.12a2.44,2.44,0,0,1-2.48,2.4H292.27a2.44,2.44,0,0,1-2.48-2.4v-7.12Z" transform="translate(-150.38)"/><g class="cls-26"><g class="cls-27"><path class="cls-28" d="M345.71,223.62a8.82,8.82,0,0,1-4.42,1.18,8.59,8.59,0,0,1-8.71-8.47,8.43,8.43,0,0,1,5-7.66Z" transform="translate(-150.38)"/></g></g><path class="cls-15" d="M256.09,131.71c9.65,0,17.47,5.71,17.47,12.75,0,3.74-2.21,7.11-5.74,9.44-.07,1.06-.23,2.14-.27,2.65a28.73,28.73,0,0,1-.67,4.22.53.53,0,0,1-1,.15,51.81,51.81,0,0,0-3.27-4.65,23.16,23.16,0,0,1-6.56.93c-9.64,0-17.47-5.71-17.47-12.74s7.83-12.75,17.47-12.75" transform="translate(-150.38)"/><path class="cls-5" d="M261.61,144.23a2.91,2.91,0,1,0,2.91-2.83,2.86,2.86,0,0,0-2.91,2.83" transform="translate(-150.38)"/><path class="cls-5" d="M252.42,144.23a2.91,2.91,0,1,0,2.91-2.83,2.86,2.86,0,0,0-2.91,2.83" transform="translate(-150.38)"/><path class="cls-5" d="M243.22,144.23a2.92,2.92,0,1,0,2.91-2.83,2.87,2.87,0,0,0-2.91,2.83" transform="translate(-150.38)"/><path class="cls-29" d="M190.43,191.68a30.85,30.85,0,0,1,6.09,4.7c1.95,1.73,3.85,3.52,5.71,5.35,3.71,3.66,7.23,7.51,10.59,11.48a285.56,285.56,0,0,1,18.68,25c3.26,4.85,6.43,9.77,9.57,14.7.6.94-.93,1.82-1.54.87-11-17.33-22.48-34.52-36.94-49.35q-3-3.14-6.28-6.11c-2.14-2-4.6-3.73-6.42-6a.45.45,0,0,1,.54-.71" transform="translate(-150.38)"/><path class="cls-29" d="M182.33,187.21c1.07-1.51,3.69-1.18,5.31-.85,3.83.77,7.16,3.29,9.9,6a46.19,46.19,0,0,1,5.38,6.62,24.42,24.42,0,0,1,3.72,7.62.4.4,0,0,1-.48.5.81.81,0,0,1-.76.16,42.08,42.08,0,0,1-12.11-5.18,43.51,43.51,0,0,1-5.37-4,23.82,23.82,0,0,1-4.74-5.18c-1-1.57-2-4.09-.85-5.74" transform="translate(-150.38)"/><path class="cls-29" d="M209.19,207.49c-.78-2.26-1.49-4.54-2.07-6.84a60.73,60.73,0,0,1-1.34-6.84c-.26-2-.35-4.11.64-5.69a3.5,3.5,0,0,1,4.4-1.37,9.32,9.32,0,0,1,4.41,4.34,22.68,22.68,0,0,1,1.19,18.27,14.54,14.54,0,0,1-1.39,2.69,8.21,8.21,0,0,1-1.65,1.81.73.73,0,0,1-.32.26l-.1.08a.25.25,0,0,1-.35,0,.89.89,0,0,1-.46-.3c-1.58-1.71-2.22-4.24-3-6.36" transform="translate(-150.38)"/><path class="cls-29" d="M219.16,217.45c0-2.32.11-4.64.32-6.93a59.1,59.1,0,0,1,1-6.68c.4-1.92,1-3.89,2.43-5a3.43,3.43,0,0,1,4.49.1,8.86,8.86,0,0,1,2.63,5.34A20.57,20.57,0,0,1,228.47,216a21.17,21.17,0,0,1-3.28,5.38,13.47,13.47,0,0,1-2.16,2.05,8.6,8.6,0,0,1-2.09,1.15.8.8,0,0,1-.39.14l-.11,0a.25.25,0,0,1-.31-.15.86.86,0,0,1-.32-.41c-.9-2.07-.66-4.58-.65-6.75" transform="translate(-150.38)"/><path class="cls-29" d="M228.12,229.16c.26-2.31.6-4.6,1-6.85a61.87,61.87,0,0,1,1.71-6.56c.6-1.86,1.41-3.76,3-4.75a3.42,3.42,0,0,1,4.45.55,8.69,8.69,0,0,1,2.06,5.57,20.66,20.66,0,0,1-2.81,11.54,21.52,21.52,0,0,1-3.83,5,14,14,0,0,1-2.36,1.82,8.32,8.32,0,0,1-2.21.93.8.8,0,0,1-.4.11l-.11,0a.23.23,0,0,1-.29-.18.84.84,0,0,1-.28-.44c-.67-2.14-.17-4.62.07-6.78" transform="translate(-150.38)"/><path class="cls-29" d="M236.7,240.66c.4-2.26.87-4.51,1.47-6.71a57.53,57.53,0,0,1,2.1-6.39c.73-1.81,1.66-3.64,3.28-4.54a3.55,3.55,0,0,1,4.49.76,8.45,8.45,0,0,1,1.77,5.61,20.2,20.2,0,0,1-3.52,11.25,21.27,21.27,0,0,1-4.18,4.76,14.58,14.58,0,0,1-2.5,1.68,8.81,8.81,0,0,1-2.3.82.84.84,0,0,1-.41.08l-.12,0a.25.25,0,0,1-.28-.2.83.83,0,0,1-.26-.45c-.56-2.15.09-4.57.46-6.69" transform="translate(-150.38)"/><path class="cls-29" d="M230,245.28c-2.35-.26-4.7-.44-7-.49a60.71,60.71,0,0,0-6.89.21c-2,.17-4.06.53-5.4,1.8a3.31,3.31,0,0,0-.48,4.41,8.84,8.84,0,0,0,5.05,3.2,23.3,23.3,0,0,0,18-2.77,14.88,14.88,0,0,0,2.34-1.87,8.44,8.44,0,0,0,1.44-1.93.76.76,0,0,0,.2-.36.47.47,0,0,1,0-.1.23.23,0,0,0-.11-.32.9.9,0,0,0-.38-.37c-2-1.11-4.54-1.18-6.74-1.41" transform="translate(-150.38)"/><path class="cls-29" d="M221.81,233.62c-2.38-.27-4.76-.47-7.13-.54a60.43,60.43,0,0,0-7,.18c-2,.17-4.13.53-5.52,1.84a3.52,3.52,0,0,0-.59,4.57c1,1.71,3.05,2.74,5,3.36a21.69,21.69,0,0,0,12.27-.13,22.63,22.63,0,0,0,6-2.66,14.83,14.83,0,0,0,2.43-1.93,8.87,8.87,0,0,0,1.51-2,.75.75,0,0,0,.2-.37l.06-.11a.24.24,0,0,0-.11-.33.89.89,0,0,0-.37-.38c-2-1.17-4.58-1.25-6.8-1.51" transform="translate(-150.38)"/><path class="cls-29" d="M183.5,212.13a5.08,5.08,0,0,1,2.68-4.68c3.35-2,7.95-1.16,11.57-.39a38,38,0,0,1,11.47,4.48c.86.52,1.71,1,2.6,1.45.27.14.57-.05.8.24,1.6,2-6.37,4.18-7.75,4.56a27,27,0,0,1-12.55.82c-3.52-.74-8.45-2.33-8.82-6.48" transform="translate(-150.38)"/><path class="cls-29" d="M193.09,228.09a4.84,4.84,0,0,1,1.57-5c2.73-2.62,7.26-2.73,10.83-2.75a36.47,36.47,0,0,1,11.74,1.87c.92.3,1.82.59,2.75.83.29.07.53-.16.8.06,1.92,1.52-5.14,5.25-6.36,5.9a26.24,26.24,0,0,1-11.68,3.35c-3.47,0-8.45-.46-9.65-4.3" transform="translate(-150.38)"/><path class="cls-30" d="M221.11,151a26.89,26.89,0,0,1,4.1,5.66c1.25,2,2.45,4.06,3.59,6.13,2.28,4.16,4.34,8.42,6.24,12.76a256.33,256.33,0,0,1,9.72,26.69c1.58,5.08,3.05,10.19,4.49,15.31.27,1-1.31,1.37-1.58.38-5-18-10.54-36-19.28-52.64-1.23-2.35-2.53-4.67-3.89-6.94s-3-4.44-4.05-6.86a.42.42,0,0,1,.66-.49" transform="translate(-150.38)"/><path class="cls-30" d="M215.2,145.05c1.34-1.05,3.55-.1,4.89.59,3.15,1.65,5.41,4.7,7.07,7.81a40.39,40.39,0,0,1,3,7.17,21.88,21.88,0,0,1,1.24,7.63.36.36,0,0,1-.55.31.75.75,0,0,1-.71,0,37.73,37.73,0,0,1-12.9-12.47,20.88,20.88,0,0,1-2.78-5.74c-.44-1.63-.69-4.1.78-5.26" transform="translate(-150.38)"/><path class="cls-30" d="M233.38,169.63c-.09-2.19-.1-4.37,0-6.53a55.11,55.11,0,0,1,.65-6.34c.3-1.82.78-3.7,2.08-4.84a3.23,3.23,0,0,1,4.22-.09,8.32,8.32,0,0,1,2.72,4.92,19.45,19.45,0,0,1-1,11.14,20,20,0,0,1-2.86,5.2,12.32,12.32,0,0,1-1.94,2,7.89,7.89,0,0,1-1.92,1.18.7.7,0,0,1-.36.14l-.1.05a.23.23,0,0,1-.3-.14.79.79,0,0,1-.32-.37c-.93-1.91-.82-4.29-.9-6.33" transform="translate(-150.38)"/><path class="cls-30" d="M239.48,180.88c.63-2,1.32-4,2.12-6a54.62,54.62,0,0,1,2.67-5.62c.86-1.58,1.92-3.16,3.47-3.8a3.11,3.11,0,0,1,3.91,1.22,8,8,0,0,1,.9,5.35A19.13,19.13,0,0,1,248,182a19.84,19.84,0,0,1-4.31,3.9,13.39,13.39,0,0,1-2.44,1.25,7.5,7.5,0,0,1-2.15.48.59.59,0,0,1-.37,0h-.11a.23.23,0,0,1-.23-.22.85.85,0,0,1-.18-.44c-.23-2,.65-4.19,1.24-6.09" transform="translate(-150.38)"/><path class="cls-30" d="M244.22,193.42c.84-2,1.75-3.88,2.75-5.75a55.85,55.85,0,0,1,3.24-5.32c1-1.48,2.25-2.95,3.87-3.43a3.11,3.11,0,0,1,3.76,1.6,8,8,0,0,1,.32,5.41,19.28,19.28,0,0,1-5.54,9.42,19.93,19.93,0,0,1-4.71,3.45,13.76,13.76,0,0,1-2.55,1,7.9,7.9,0,0,1-2.19.26.7.7,0,0,1-.38,0h-.11c-.14,0-.2-.11-.21-.24a.83.83,0,0,1-.12-.45c0-2.05,1.08-4.1,1.87-5.94" transform="translate(-150.38)"/><path class="cls-30" d="M248.69,205.68c.95-1.89,2-3.74,3.07-5.52a55,55,0,0,1,3.56-5.08c1.11-1.4,2.42-2.78,4.08-3.16a3.21,3.21,0,0,1,3.74,1.8,7.68,7.68,0,0,1,.06,5.37,18.72,18.72,0,0,1-6.09,9,19.71,19.71,0,0,1-4.94,3.13,13.28,13.28,0,0,1-2.64.84,8.07,8.07,0,0,1-2.23.14.84.84,0,0,1-.39,0h-.11a.23.23,0,0,1-.2-.25.81.81,0,0,1-.1-.46c.08-2,1.3-4,2.19-5.76" transform="translate(-150.38)"/><path class="cls-30" d="M241.6,208.05c-2-.81-4-1.56-6-2.2a57.43,57.43,0,0,0-6.1-1.56c-1.79-.34-3.71-.54-5.22.23a3.06,3.06,0,0,0-1.6,3.75,7.9,7.9,0,0,0,3.58,4.08,19.71,19.71,0,0,0,10.66,2.89,20.49,20.49,0,0,0,5.84-.8,13.11,13.11,0,0,0,2.56-1.05,8,8,0,0,0,1.78-1.32.75.75,0,0,0,.26-.27l.08-.08a.22.22,0,0,0,0-.31.83.83,0,0,0-.24-.42c-1.43-1.47-3.68-2.17-5.54-2.94" transform="translate(-150.38)"/><path class="cls-30" d="M237.49,195.75c-2-.84-4.05-1.62-6.12-2.27a54,54,0,0,0-6.18-1.61c-1.82-.36-3.77-.57-5.34.23a3.24,3.24,0,0,0-1.74,3.86,7.82,7.82,0,0,0,3.53,4.21,19.63,19.63,0,0,0,10.8,3,21.19,21.19,0,0,0,6-.82,13.42,13.42,0,0,0,2.65-1.09,8.27,8.27,0,0,0,1.85-1.36.69.69,0,0,0,.28-.28l.08-.08a.22.22,0,0,0,0-.32.84.84,0,0,0-.22-.43c-1.42-1.52-3.69-2.24-5.57-3" transform="translate(-150.38)"/><path class="cls-30" d="M209.59,167.22a4.72,4.72,0,0,1,3.6-3.43c3.48-.95,7.29,1,10.26,2.58a34,34,0,0,1,8.87,6.82c.62.67,1.24,1.31,1.9,1.93.2.19.51.1.64.41.88,2.12-6.71,2.07-8,2.06a24.87,24.87,0,0,1-11.24-2.45c-2.89-1.54-6.8-4.18-6-7.92" transform="translate(-150.38)"/><path class="cls-30" d="M213.75,183.65a4.53,4.53,0,0,1,2.7-4c3.09-1.61,7.1-.57,10.24.32a33.13,33.13,0,0,1,9.81,4.6c.72.5,1.44,1,2.2,1.42.23.14.5,0,.69.25,1.27,1.82-5.92,3.32-7.17,3.58a24.1,24.1,0,0,1-11.14,0c-3.06-.85-7.3-2.53-7.33-6.21" transform="translate(-150.38)"/><path class="cls-9" d="M418,251.78a9.41,9.41,0,0,1-3,2.5,46,46,0,0,1-14.15,5.27c-.43.1-.87.19-1.31.26-1.52.29-3.07.5-4.62.66-.37,0-.76.08-1.14.11-.87.08-1.74.15-2.61.19l-1,0c-1.63.06-3.26.07-4.88,0l-.83,0h-.2c-.85,0-1.7-.06-2.58-.12-.4,0-.79,0-1.2-.07-1.26-.09-2.54-.2-3.84-.34-.95-.11-1.92-.25-2.88-.41s-1.63-.27-2.43-.45c-6.66-1.35-13-4-17.19-9a6.38,6.38,0,0,1-1.55-3.72,1.5,1.5,0,0,1,.36-1,2.32,2.32,0,0,1,2.19-.48c5.1.73,9.89,3.23,14.5,5.34a.58.58,0,0,0,.67-.92c-4.54-4.46-8.48-9.41-9.68-15.56a3.94,3.94,0,0,1-.07-1.41,1.68,1.68,0,0,1,.53-1l.18-.14a2.29,2.29,0,0,1,1.53-.38,5.28,5.28,0,0,1,2.9,1.49c3.83,3.24,6.95,7.71,9.93,11.93a.68.68,0,0,0,1.23-.52,117,117,0,0,1-2.41-13.81c-.24-2.46-.25-5.18,1.34-7.1a1.84,1.84,0,0,1,.23-.25.91.91,0,0,1,.49-.26,1,1,0,0,1,.51.06,2.65,2.65,0,0,1,.57.37,15.86,15.86,0,0,1,4.5,7.49c1.21,3.88,2.87,8.38,3.77,12.6a.26.26,0,0,0,.51,0c.15-6.6,1.36-13.47,4.89-19a2.72,2.72,0,0,1,2.13-1.26,1.88,1.88,0,0,1,.48,0,1.85,1.85,0,0,1,1,.44c1,.77,1.26,2.4,1.27,3.74a106.12,106.12,0,0,1-1.29,17.15.51.51,0,0,0,.95.32c2.71-5,6-10.56,10.61-13.17,1.29-.73,2.89-1.33,4.23-.28a2.44,2.44,0,0,1,.42.43,2.7,2.7,0,0,1,.52,1l0,0a6.49,6.49,0,0,1-.73,4.39,46.42,46.42,0,0,1-9.12,13.49.6.6,0,0,0,.71,1l8-3.73a11.72,11.72,0,0,1,4.27-1.39,4.06,4.06,0,0,1,3.73,1.66l.1.17a2.8,2.8,0,0,1,.25.72,3.92,3.92,0,0,1-.69,2.95" transform="translate(-150.38)"/><path class="cls-31" d="M385.27,260.84l-.83,0h-.2q-3.62-19.06-8.24-37.93a.91.91,0,0,1,.49-.26.89.89,0,0,1,.51.06q4.67,19,8.27,38.16" transform="translate(-150.38)"/><path class="cls-31" d="M394.81,223.33A140,140,0,0,0,392,244.66c-.26,5.37-.54,10.75-.8,16.11l-1,0q.41-8.55.85-17.09a138.58,138.58,0,0,1,2.85-20.83,1.85,1.85,0,0,1,1,.44" transform="translate(-150.38)"/><path class="cls-31" d="M411.52,232.53c-3.59,5.05-7.25,10.07-10.53,15.31a71.1,71.1,0,0,0-6.07,12.63c-.37,0-.76.08-1.14.11a72.94,72.94,0,0,1,5.84-12.44c3.49-5.72,7.5-11.14,11.38-16.62a2.7,2.7,0,0,1,.52,1" transform="translate(-150.38)"/><path class="cls-31" d="M381.66,260.69c-.4,0-.79,0-1.2-.07-5.66-9.92-13.17-18.71-19.92-28a1.68,1.68,0,0,1,.53-1c7,9.61,14.8,18.7,20.59,29" transform="translate(-150.38)"/><path class="cls-31" d="M373.74,259.87c-.81-.12-1.63-.27-2.43-.45-6.29-4.18-12.74-8.14-18.74-12.76a1.5,1.5,0,0,1,.36-1c6.64,5.16,13.85,9.49,20.81,14.2" transform="translate(-150.38)"/><path class="cls-31" d="M418.71,248.83c-1.51.66-3.07,1.25-4.45,2a85.47,85.47,0,0,0-7.44,4.29,34.06,34.06,0,0,0-6,4.47c-.43.1-.87.19-1.31.26a26.22,26.22,0,0,1,5.24-4.59,88.17,88.17,0,0,1,8.16-4.86c1.69-.89,3.61-1.59,5.42-2.42l.1.17a2.8,2.8,0,0,1,.25.72" transform="translate(-150.38)"/><path class="cls-32" d="M306.84,233.72a1.17,1.17,0,0,1-.61.3,35.89,35.89,0,0,1-7.39,1c-.9,0-1.82.07-2.72.07l-2.56,0-14.76,0h-3.56a46.58,46.58,0,0,1-8.68-.58c-.19,0,.9-10.85,1-11.91a96,96,0,0,1,1.94-12.72,42.55,42.55,0,0,1,3.46-10,16.32,16.32,0,0,1,8.12-8l.43-.17a19,19,0,0,1,9.6-1.11,14.18,14.18,0,0,1,2.8.73c6.11,2.28,9,8.41,10.43,14.65,2,8.85,2.36,18,2.68,27a1.11,1.11,0,0,1-.18.8" transform="translate(-150.38)"/><path class="cls-12" d="M273.86,182.78c-1.26-1.73-1.56-3.86-1.88-5.88-1-6.52,1.87-13.73,9.16-16.23a18.77,18.77,0,0,1,12.55-.11c7.59,2.9,9.08,10.16,8.68,16.77a12.8,12.8,0,0,1-3.53,8.17,11.28,11.28,0,0,1-6.58,3.61c-6.74,1-13.71.16-18.4-6.33" transform="translate(-150.38)"/><path class="cls-12" d="M302.43,195.71h.06v-.31l-.06.31" transform="translate(-150.38)"/><path class="cls-12" d="M302.43,177.58H272.08c4.4,9.4,2.26,14.46.52,16.69a.89.89,0,0,0,.71,1.44l2.89.9a38,38,0,0,0,21.88.18l3.7-1.08a.87.87,0,0,0,.67-1.46c-1.95-2.25-4.4-7.31,0-16.67" transform="translate(-150.38)"/><path class="cls-32" d="M292,180.61v12a4.42,4.42,0,0,1-8.83,0v-12Z" transform="translate(-150.38)"/><path class="cls-33" d="M292,182.89v8.31a18.92,18.92,0,0,1-5.77.92,11.52,11.52,0,0,1-3.06-.46v-7.4a11.1,11.1,0,0,1,1.55-.57,20.58,20.58,0,0,1,7.28-.8" transform="translate(-150.38)"/><path class="cls-32" d="M275.69,176.59c0,7.73,4.22,14,10.83,14s12-6.26,12-14-5.36-14-12-14-10.83,6.26-10.83,14" transform="translate(-150.38)"/><path class="cls-32" d="M295.44,177.9c-.55,2.23.5,4.39,2.33,4.81s3.77-1,4.32-3.27-.5-4.38-2.34-4.81-3.76,1-4.31,3.27" transform="translate(-150.38)"/><path class="cls-32" d="M272.37,179.44c-.55-2.23.5-4.38,2.33-4.81s3.77,1,4.32,3.27-.5,4.39-2.34,4.81-3.76-1-4.31-3.27" transform="translate(-150.38)"/><path class="cls-34" d="M282.63,177.58a.93.93,0,1,1-.93-.9.91.91,0,0,1,.93.9" transform="translate(-150.38)"/><path class="cls-35" d="M281.48,176.93s-.38.08-.45.36.11.41.11.41a.83.83,0,0,1,.34-.77" transform="translate(-150.38)"/><path class="cls-34" d="M293,177.7a.93.93,0,1,1-.93-.9.92.92,0,0,1,.93.9" transform="translate(-150.38)"/><path class="cls-35" d="M291.82,177s-.38.08-.45.37.12.41.12.41a.83.83,0,0,1,.33-.78" transform="translate(-150.38)"/><path class="cls-36" d="M298.84,197.78V235c-.9,0-1.82.07-2.72.07l-2.56,0-14.76,0h-2.17V197.78Z" transform="translate(-150.38)"/><g class="cls-37"><g class="cls-38"><path class="cls-20" d="M298.14,214.31c-5.8,2.27-12.24,2.28-18.49,2.21.33-6.63.68-13.24,1.07-19.87a10.55,10.55,0,0,1,.53.94,31.78,31.78,0,0,0,5.91,8.12,80.66,80.66,0,0,0,11,8.6" transform="translate(-150.38)"/></g></g><path class="cls-39" d="M281.09,191.84c0,.87-.21,2-.25,2.7l-.12,2.11c-.39,6.63-.74,13.24-1.07,19.87q-.16,3.15-.31,6.31-.29,6.1-.54,12.22h-3.56a49.28,49.28,0,0,1-8.68-.57c-.19,0,.9-10.86,1-11.92a95.6,95.6,0,0,1,1.94-12.71,43,43,0,0,1,3.45-10,16.37,16.37,0,0,1,8.14-8" transform="translate(-150.38)"/><path class="cls-39" d="M306.84,233.72a1.17,1.17,0,0,1-.61.3,42.76,42.76,0,0,1-10.11,1q-.25-6.12-.54-12.23-.66-14.15-1.5-28.28a12.78,12.78,0,0,1-.17-3.26c6.11,2.28,9,8.41,10.43,14.65,2,8.85,2.36,18,2.68,27a1.11,1.11,0,0,1-.18.8" transform="translate(-150.38)"/><path class="cls-36" d="M268.77,175.36V204a1.27,1.27,0,0,1-.18.67,1.37,1.37,0,0,1-1.18.65h-42A1.34,1.34,0,0,1,224,204V175.36A1.34,1.34,0,0,1,225.4,174h42a1.34,1.34,0,0,1,1.36,1.33" transform="translate(-150.38)"/><g class="cls-40"><g class="cls-41"><path class="cls-15" d="M268.59,204.68a1.37,1.37,0,0,1-1.18.65h-42A1.34,1.34,0,0,1,224,204V175.36A1.34,1.34,0,0,1,225.4,174H228a14.52,14.52,0,0,0,.56,1.72,34.16,34.16,0,0,0,7.83,11,68.76,68.76,0,0,0,15,10.44,91.64,91.64,0,0,0,17.23,7.53" transform="translate(-150.38)"/></g></g><polygon class="cls-42" points="103.03 191.41 101.97 191.41 90.08 191.41 89.01 191.41 86.35 210.93 90.08 210.93 101.97 210.93 105.69 210.93 103.03 191.41"/><path class="cls-36" d="M250.1,199.3a3.69,3.69,0,1,1-3.69-3.59,3.65,3.65,0,0,1,3.69,3.59" transform="translate(-150.38)"/><polygon class="cls-5" points="165.69 215.1 165.36 218.41 165.15 220.44 163.1 240.42 162.75 243.82 162.32 248.14 161.63 254.94 161.14 259.67 160.98 261.27 83.37 261.27 82.72 254.94 82.03 248.14 81.58 243.82 81.23 240.42 79.2 220.44 78.99 218.41 78.65 215.1 165.69 215.1"/><polygon class="cls-43" points="165.69 215.1 165.15 220.44 79.2 220.44 78.66 215.1 165.69 215.1"/><polygon class="cls-36" points="162.32 248.14 161.63 254.94 82.72 254.94 82.03 248.14 162.32 248.14"/><polygon class="cls-15" points="163.11 240.42 162.76 243.82 81.59 243.82 81.24 240.42 163.11 240.42"/><g class="cls-44"><g class="cls-45"><path class="cls-36" d="M311.53,259.67l-.17,1.6H233.75l-.65-6.33-.69-6.8-.44-4.32-.35-3.4-2-20-.21-2L229,215.1h12.13a3.69,3.69,0,0,1,.34.25c5.56,4.3,10.09,10.44,15.61,15a156.73,156.73,0,0,0,38.47,23.26q5.78,2.44,11.74,4.42c1,.33,2.52,1,4.2,1.65" transform="translate(-150.38)"/></g></g><path class="cls-6" d="M319.49,218.41H225.63a2.43,2.43,0,0,1-2.47-2.4v-2.68a2.43,2.43,0,0,1,2.47-2.4h93.86a2.43,2.43,0,0,1,2.46,2.4V216a2.43,2.43,0,0,1-2.46,2.4" transform="translate(-150.38)"/><path class="cls-7" d="M289.26,185.62a2.6,2.6,0,0,1-2.38,1.68,2.8,2.8,0,0,1-2.38-1.68Z" transform="translate(-150.38)"/><path class="cls-12" d="M287,162.61c-7.11-.28-11.32,6-11.32,11.95,3.84-.06,3.58-2.12,4.13-3.4a.31.31,0,0,1,.44-.14c1.94,1.08,11.45,6,18.07,3.54,0-5.91-5.08-11.71-11.32-11.95" transform="translate(-150.38)"/></g></g></g><g id="Top"><g id="Bottom"><path class="cls-46" d="M487.32,467.17c-13.42,27.72-47.76,38.7-74.22,22.93-14.77-8.81-17.7-21.17-23.41-34A57.23,57.23,0,0,0,334,422.43c-84.52,5.14-152.64-51.36-152.64-51.36-82.76-83.36,18.86-173,87.19-128.19a79.61,79.61,0,0,1,18.9,17.78c22.15,28.38,33.33,60,59.11,64.31,24.1,4,40.65-7.85,45.67-30.29a37.3,37.3,0,0,1,13.39-21.45c5-3.87,11.08-6.54,19.09-7.84a58.39,58.39,0,0,1,15.57-.21c45.13,4.81,63.22-60.48,63.22-60.48V371.07S505.86,428.88,487.32,467.17Z" transform="translate(-150.38)"/><path class="cls-47" d="M461.21,489.45c-24.9,7-49.8-11.63-63.73-41-1-2-12.89-20.13-21-24.35a76.66,76.66,0,0,0-36-8.4c-28.93.24-108.09-3.14-149.15-44.64-80.2-80.14,18.28-166.32,84.48-123.23a76.74,76.74,0,0,1,18.33,17.09c21.45,27.28,32.29,57.67,57.27,61.83,23.35,3.89,39.39-7.55,44.25-29.13a35.93,35.93,0,0,1,13-20.62c4.87-3.74,10.79-6.31,18.61-7.55a57.11,57.11,0,0,1,14.95-.19c43.76,4.65,61.29-64.57,61.29-64.57V371.07S505,484.81,461.21,489.45Z" transform="translate(-150.38)"/></g><path class="cls-48" d="M287.5,0s41.21,61.26,121.3,89.56c46.38,16.4,94.74-18,94.73-67.33V0Z" transform="translate(-150.38)"/><path class="cls-49" d="M154,0s-26.23,82,67.91,101.47C308.49,119.41,349.35,0,503.53,0Z" transform="translate(-150.38)"/></g></g></g></g></svg>