<svg  xmlns="http://www.w3.org/2000/svg" viewBox="0 0 362.72 251.25" preserveAspectRatio="none">
 <defs>
  <clipPath transform="translate(-150.38)" id="clip-path">
   <rect x="-12" y="-102" id="svg_1" fill="none" height="392.78" width="559.84" class="cls-1"/>
  </clipPath>
  <clipPath transform="translate(-150.38)" id="clip-path-5">
   <rect id="svg_2" fill="none" height="74.81" width="52.17" y="131.85" x="377.74" class="cls-1"/>
  </clipPath>
  <clipPath transform="translate(-150.38)" id="clip-path-6">
   <rect id="svg_3" fill="none" height="16.13" width="13.13" y="174.67" x="328.58" class="cls-1"/>
  </clipPath>
  <clipPath transform="translate(-150.38)" id="clip-path-7">
   <rect id="svg_4" fill="none" height="19.88" width="18.49" y="162.65" x="275.65" class="cls-1"/>
  </clipPath>
  <clipPath transform="translate(-150.38)" id="clip-path-8">
   <rect id="svg_5" fill="none" height="31.3" width="44.54" y="140.03" x="220.04" class="cls-1"/>
  </clipPath>
  <clipPath transform="translate(-150.38)" id="clip-path-9">
   <rect id="svg_6" fill="none" height="46.17" width="82.49" y="181.1" x="225.04" class="cls-1"/>
  </clipPath>
 </defs>
 <title>Contactus  layer Image</title>
 <g>
  <title>Layer 1</title>
  <g data-name="Layer 2" id="Layer_2">
   <g data-name="bg Contact us" id="bg_Contact_us">
    <g data-name="colour design" id="colour_design">
     <g id="svg_7" clip-path="url(#clip-path)" class="cls-2">
      <g id="svg_8" clip-path="url(#clip-path)" class="cls-2">
       <g id="svg_9" clip-path="url(#clip-path)" class="cls-2">
        <path id="svg_10" fill="#f6f6f6" d="m39.69,208.27c-7.12,-7.36 42.47,-54.19 40.83,-65.8c-7.19,-50.8 -22,-9 -48.47,-50.8c-27.89,-44 31.55,-97.95 80.11,-56.51c14.66,12.51 29.51,-21.44 43.63,-26.71c37.95,-14.14 94.89,-6 116.88,31.13c5.76,9.72 7.68,21.68 14.44,30.84c7.23,9.81 19.08,14.67 26.38,24.29s11.66,21.51 13.27,33.43c2.08,15.48 -0.12,31.24 -4,46.39c-18.63,73 -120.4,52.37 -178.07,54.84c-17.18,0.74 -34.38,2.59 -51.53,1.27c-19.84,-1.53 -39.57,-8 -53.48,-22.37" class="cls-3"/>
        <path id="svg_11" fill="#f6f6f6" d="m138.62,115.62s-129,61.93 -119.71,133.73c4.3,33.37 46.71,57.63 81.79,50.11c0,0 33,66.61 159.47,10.92c33.56,-14.78 37.11,-48.45 38.57,-48.83c10.38,-2.66 50.3,-2.78 5.62,-84.47c-94.6,-104.4 -165.74,-61.46 -165.74,-61.46" class="cls-3"/>
       </g>
       <g id="svg_12" clip-path="url(#clip-path)" class="cls-2">
        <path id="svg_13" fill="#e0ddff" d="m314.45,225.27c0,7.89 -63.21,14.28 -141.2,14.28s-141.2,-6.39 -141.2,-14.28s63.22,-14.27 141.2,-14.27s141.2,6.39 141.2,14.29" class="cls-4"/>
        <path id="svg_14" fill="#c7b6fd" d="m195.62,141.93a18.42,18.42 0 0 1 0,7a41.86,41.86 0 0 1 -2.69,10.68a26.61,26.61 0 0 1 -8.59,11a11.44,11.44 0 0 1 -3.05,1.59a13.6,13.6 0 0 1 -2.58,0.6c-1.84,0.26 -3.77,0.23 -5.89,0.35c-10.06,0.53 -19.71,-1.09 -28.34,-6.44a19,19 0 0 1 -6.74,-6.35a9.84,9.84 0 0 1 -1.34,-4.86a7.68,7.68 0 0 1 0.42,-2.56a6.6,6.6 0 0 1 0.65,-1.37c2.21,-3.56 7.1,-4.45 11.38,-4.44a25.61,25.61 0 0 1 -14.56,-7.69c-2.14,-2.29 -3.88,-5.23 -3.86,-8.28a6.86,6.86 0 0 1 0.07,-1a5.7,5.7 0 0 1 0.44,-1.55c1.16,-2.71 4.21,-4.74 7,-3.8l-7.77,-9.76a27.65,27.65 0 0 1 -4.69,-7.4a9.68,9.68 0 0 1 0,-7.16a7.84,7.84 0 0 1 0.7,-1.22a5.77,5.77 0 0 1 0.78,-0.86c1.89,-1.74 5,-2.34 7.09,-0.86c-1.83,-4.31 -3.68,-8.7 -4.17,-13.35s0.53,-9.66 3.82,-13a10.89,10.89 0 0 1 2.92,-2.2a11.31,11.31 0 0 1 2.45,-0.92a9.44,9.44 0 0 1 7.71,1.15c2.71,1.87 4,5.08 5.12,8.13q2.31,6.38 4.28,12.85c-0.52,-3.29 3.05,-6.24 6.46,-6a7.68,7.68 0 0 1 1.52,0.27a8.32,8.32 0 0 1 2.5,1.23a11.21,11.21 0 0 1 3.6,4.42c1.39,3 1.6,6.44 1.8,9.76q0.38,6.1 0.73,12.2c0.22,-3 3.87,-5 6.89,-4.3l0.47,0.14a7.1,7.1 0 0 1 2.48,1.37a10.1,10.1 0 0 1 3.11,4.82c0.88,2.9 0.69,6 0.5,9q-0.51,8.06 -1,16.11a4.52,4.52 0 0 1 4.57,-2.8a4.6,4.6 0 0 1 1.38,0.24a6.08,6.08 0 0 1 1.1,0.5a7.73,7.73 0 0 1 3.32,4.73" class="cls-5"/>
        <path id="svg_15" fill="#dfdafb" d="m175.25,161.44c1.92,3.65 3.92,7.25 6,10.77a13.6,13.6 0 0 1 -2.58,0.6c-0.52,-0.87 -1,-1.75 -1.54,-2.63q-2.34,-4.11 -4.57,-8.29a81.12,81.12 0 0 1 -36.2,-6.38a7.68,7.68 0 0 1 0.42,-2.56a78.26,78.26 0 0 0 34.49,6.49q-4.94,-9.48 -9.32,-19.23a82.7,82.7 0 0 1 -31.56,-9a6.86,6.86 0 0 1 0.07,-1a5.7,5.7 0 0 1 0.44,-1.55a79.94,79.94 0 0 0 29.89,9c-3.06,-6.87 -5.95,-13.81 -8.73,-20.75c-0.08,-0.19 -0.15,-0.39 -0.23,-0.58c-10.24,-2.7 -18.78,-8.76 -26.35,-15.8a7.84,7.84 0 0 1 0.7,-1.22a5.77,5.77 0 0 1 0.78,-0.86c6.86,6.44 14.57,12.12 23.71,14.94c-3.2,-8.17 -6.21,-16.41 -8.95,-24.74a137.53,137.53 0 0 1 -5.1,-19.65a11.31,11.31 0 0 1 2.45,-0.92a149,149 0 0 0 6.5,23.81q3.76,11 8,21.83c2.61,-1.73 4,-4.43 5.15,-7.28a103.72,103.72 0 0 0 3.25,-10a57.33,57.33 0 0 0 2.15,-12a8.44,8.44 0 0 1 2.5,1.23a64.55,64.55 0 0 1 -2.61,12.91c-1.79,6 -3.52,14 -9.49,17.47q4.64,11.6 9.83,23a45.2,45.2 0 0 0 15.82,-31.05a7.1,7.1 0 0 1 2.48,1.37a48,48 0 0 1 -17.15,32.14c0.78,1.69 1.56,3.37 2.36,5.05c2,4.22 4.06,8.45 6.21,12.64c7.52,-5.86 13.81,-13.64 15.73,-22.71a4.6,4.6 0 0 1 1.38,0.24a6.41,6.41 0 0 1 1.1,0.5c-2.15,9.69 -8.94,18 -17,24.24" class="cls-6"/>
        <path id="svg_16" fill="#f88575" d="m253.28,159.85a16.86,16.86 0 0 0 0,6.45a38.76,38.76 0 0 0 2.46,9.82a24.59,24.59 0 0 0 7.9,10.09a10.35,10.35 0 0 0 2.8,1.47a12.26,12.26 0 0 0 2.38,0.55c1.69,0.24 3.46,0.22 5.42,0.32c9.24,0.49 18.12,-1 26.05,-5.92a17.45,17.45 0 0 0 6.2,-5.83a9.17,9.17 0 0 0 1.22,-4.47a7.29,7.29 0 0 0 -0.38,-2.36a6.58,6.58 0 0 0 -0.6,-1.26c-2,-3.27 -6.52,-4.09 -10.46,-4.07a23.61,23.61 0 0 0 13.35,-7.07c2,-2.11 3.57,-4.81 3.56,-7.62a7.41,7.41 0 0 0 -0.07,-0.93a5.12,5.12 0 0 0 -0.41,-1.42c-1.06,-2.49 -3.87,-4.36 -6.47,-3.5l7.14,-9a25.43,25.43 0 0 0 4.32,-6.8a8.9,8.9 0 0 0 0,-6.58a5.68,5.68 0 0 0 -0.64,-1.12a4.88,4.88 0 0 0 -0.71,-0.79c-1.75,-1.61 -4.59,-2.16 -6.52,-0.79c1.68,-4 3.38,-8 3.84,-12.27s-0.49,-8.89 -3.52,-12a10.06,10.06 0 0 0 -2.66,-1.94a10.82,10.82 0 0 0 -2.26,-0.85a8.72,8.72 0 0 0 -7.09,1c-2.48,1.72 -3.69,4.68 -4.7,7.48q-2.13,5.87 -3.94,11.81c0.48,-3 -2.81,-5.73 -5.94,-5.5a6.43,6.43 0 0 0 -1.39,0.25a7.58,7.58 0 0 0 -2.3,1.13a10.13,10.13 0 0 0 -3.31,4.06c-1.28,2.8 -1.48,5.92 -1.66,9c-0.22,3.74 -0.45,7.48 -0.67,11.22c-0.2,-2.77 -3.56,-4.61 -6.33,-3.95l-0.44,0.12a6.89,6.89 0 0 0 -2.28,1.26a9.38,9.38 0 0 0 -2.85,4.44a23.12,23.12 0 0 0 -0.46,8.26q0.47,7.41 0.94,14.81a4.17,4.17 0 0 0 -4.2,-2.58a4.57,4.57 0 0 0 -1.27,0.22a6.08,6.08 0 0 0 -1,0.47a7.1,7.1 0 0 0 -3.06,4.35" class="cls-7"/>
        <path id="svg_17" fill="#f45948" d="m271.99,177.78c-1.76,3.35 -3.6,6.67 -5.56,9.9a12.26,12.26 0 0 0 2.38,0.55c0.47,-0.8 0.95,-1.6 1.41,-2.42c1.44,-2.51 2.84,-5.06 4.21,-7.62a74.46,74.46 0 0 0 33.27,-5.86a7.29,7.29 0 0 0 -0.38,-2.36a72,72 0 0 1 -31.71,6c3,-5.81 5.87,-11.71 8.57,-17.67a76.18,76.18 0 0 0 29,-8.32a7.41,7.41 0 0 0 -0.07,-0.93a4.72,4.72 0 0 0 -0.41,-1.42a73.52,73.52 0 0 1 -27.47,8.28q4.22,-9.48 8,-19.08l0.21,-0.53c9.42,-2.48 17.27,-8.05 24.22,-14.52a6.23,6.23 0 0 0 -0.64,-1.12a4.88,4.88 0 0 0 -0.71,-0.79c-6.31,5.92 -13.39,11.14 -21.8,13.73c2.94,-7.51 5.7,-15.09 8.22,-22.74a127.14,127.14 0 0 0 4.72,-18a10.82,10.82 0 0 0 -2.26,-0.85a137.15,137.15 0 0 1 -6,21.89q-3.47,10.11 -7.39,20.07c-2.41,-1.59 -3.71,-4.07 -4.74,-6.7c-1.16,-3 -2.13,-6.08 -3,-9.17a52.72,52.72 0 0 1 -2,-11a7.58,7.58 0 0 0 -2.3,1.13a59.82,59.82 0 0 0 2.39,11.86c1.65,5.55 3.24,12.89 8.73,16.06q-4.26,10.66 -9,21.13a41.58,41.58 0 0 1 -14.5,-28.63a6.89,6.89 0 0 0 -2.28,1.26a44.13,44.13 0 0 0 15.78,29.55c-0.72,1.55 -1.44,3.1 -2.18,4.64c-1.84,3.88 -3.73,7.77 -5.71,11.62c-6.91,-5.39 -12.69,-12.54 -14.45,-20.88a4.58,4.58 0 0 0 -1.28,0.22a6.08,6.08 0 0 0 -1,0.47c2,8.91 8.21,16.55 15.65,22.28" class="cls-8"/>
        <path id="svg_18" fill="#f9be3f" d="m321.1,163a27.3,27.3 0 0 0 -5.44,4.19c-1.74,1.55 -3.43,3.14 -5.09,4.77c-3.31,3.27 -6.45,6.7 -9.45,10.25a252.74,252.74 0 0 0 -16.65,22.33c-2.92,4.32 -5.74,8.71 -8.54,13.1c-0.54,0.85 0.83,1.63 1.37,0.79c9.8,-15.46 20.05,-30.8 32.95,-44c1.81,-1.86 3.68,-3.68 5.6,-5.44a54.61,54.61 0 0 0 5.73,-5.33a0.4,0.4 0 0 0 -0.48,-0.63" class="cls-9"/>
        <path id="svg_19" fill="#f9be3f" d="m328.32,159c-0.95,-1.35 -3.29,-1.06 -4.74,-0.76c-3.41,0.68 -6.39,2.93 -8.82,5.39a40,40 0 0 0 -4.8,5.91a22,22 0 0 0 -3.33,6.79a0.36,0.36 0 0 0 0.43,0.45a0.74,0.74 0 0 0 0.68,0.14a37.67,37.67 0 0 0 10.81,-4.62a38.5,38.5 0 0 0 4.78,-3.56a21.58,21.58 0 0 0 4.23,-4.62c0.87,-1.41 1.8,-3.65 0.76,-5.12" class="cls-9"/>
        <path id="svg_20" fill="#f9be3f" d="m304.36,177.08c0.7,-2 1.33,-4.05 1.85,-6.1a54.7,54.7 0 0 0 1.19,-6.1c0.24,-1.78 0.32,-3.67 -0.57,-5.08a3.12,3.12 0 0 0 -3.92,-1.21a8.28,8.28 0 0 0 -3.94,3.86a20.13,20.13 0 0 0 -1.05,16.3a12.11,12.11 0 0 0 1.24,2.4a7.29,7.29 0 0 0 1.46,1.61a0.73,0.73 0 0 0 0.29,0.24l0.09,0.06a0.23,0.23 0 0 0 0.32,0a0.91,0.91 0 0 0 0.4,-0.26c1.41,-1.53 2,-3.79 2.64,-5.68" class="cls-9"/>
        <path id="svg_21" fill="#f9be3f" d="m295.47,186c0,-2.07 -0.1,-4.13 -0.29,-6.17a53.33,53.33 0 0 0 -0.89,-6c-0.36,-1.7 -0.9,-3.46 -2.18,-4.48a3,3 0 0 0 -4,0.09a7.8,7.8 0 0 0 -2.36,4.76a19.73,19.73 0 0 0 4.34,15.28a12.21,12.21 0 0 0 1.91,1.83a7.19,7.19 0 0 0 1.88,1a0.62,0.62 0 0 0 0.34,0.13l0.1,0a0.23,0.23 0 0 0 0.28,-0.14a0.79,0.79 0 0 0 0.28,-0.37c0.8,-1.84 0.59,-4.08 0.58,-6" class="cls-9"/>
        <path id="svg_22" fill="#f9be3f" d="m287.48,196.41c-0.24,-2.06 -0.54,-4.1 -0.94,-6.11a54,54 0 0 0 -1.52,-5.85c-0.54,-1.66 -1.26,-3.35 -2.64,-4.24a3.06,3.06 0 0 0 -4,0.49a7.83,7.83 0 0 0 -1.83,5a18.43,18.43 0 0 0 2.54,10.3a19,19 0 0 0 3.41,4.48a13,13 0 0 0 2.11,1.62a7.36,7.36 0 0 0 2,0.84a0.73,0.73 0 0 0 0.35,0.09l0.1,0a0.23,0.23 0 0 0 0.27,-0.16a0.82,0.82 0 0 0 0.24,-0.4c0.6,-1.91 0.15,-4.12 -0.06,-6" class="cls-9"/>
        <path id="svg_23" fill="#f9be3f" d="m279.82,206.67c-0.35,-2 -0.77,-4 -1.3,-6a52.8,52.8 0 0 0 -1.9,-5.67c-0.65,-1.61 -1.48,-3.25 -2.92,-4a3.17,3.17 0 0 0 -4,0.68a7.58,7.58 0 0 0 -1.58,5a18,18 0 0 0 3.14,10a19.13,19.13 0 0 0 3.73,4.26a12.57,12.57 0 0 0 2.23,1.49a7.75,7.75 0 0 0 2.05,0.73a0.79,0.79 0 0 0 0.37,0.07l0.1,0a0.23,0.23 0 0 0 0.26,-0.17a0.9,0.9 0 0 0 0.23,-0.41c0.49,-1.91 -0.09,-4.08 -0.42,-6" class="cls-9"/>
        <path id="svg_24" fill="#f9be3f" d="m285.77,210.78c2.1,-0.23 4.19,-0.38 6.28,-0.43a54.72,54.72 0 0 1 6.15,0.18c1.77,0.16 3.62,0.48 4.81,1.61a2.94,2.94 0 0 1 0.43,3.93a7.86,7.86 0 0 1 -4.5,2.86a19.43,19.43 0 0 1 -10.78,-0.16a20,20 0 0 1 -5.24,-2.31a13.67,13.67 0 0 1 -2.09,-1.67a7.4,7.4 0 0 1 -1.28,-1.72a0.68,0.68 0 0 1 -0.18,-0.32l0,-0.09a0.21,0.21 0 0 1 0.1,-0.29a0.86,0.86 0 0 1 0.33,-0.33c1.76,-1 4.06,-1 6,-1.26" class="cls-9"/>
        <path id="svg_25" fill="#f9be3f" d="m293.11,200.39c2.12,-0.25 4.24,-0.42 6.36,-0.49a56.34,56.34 0 0 1 6.24,0.16c1.8,0.15 3.68,0.48 4.92,1.65a3.12,3.12 0 0 1 0.53,4.07a7.77,7.77 0 0 1 -4.5,3a19.2,19.2 0 0 1 -10.94,-0.11a20.07,20.07 0 0 1 -5.36,-2.37a13.57,13.57 0 0 1 -2.17,-1.72a8.26,8.26 0 0 1 -1.34,-1.77a0.66,0.66 0 0 1 -0.18,-0.34l-0.06,-0.09a0.23,0.23 0 0 1 0.1,-0.3a0.82,0.82 0 0 1 0.33,-0.34c1.76,-1 4.09,-1.11 6.07,-1.34" class="cls-9"/>
        <path id="svg_26" fill="#f9be3f" d="m327.27,181.22a4.49,4.49 0 0 0 -2.39,-4.17c-3,-1.83 -7.09,-1 -10.32,-0.35a33.8,33.8 0 0 0 -10.23,4c-0.76,0.45 -1.52,0.89 -2.32,1.29c-0.24,0.12 -0.5,0 -0.71,0.21c-1.42,1.75 5.68,3.73 6.91,4.07a24.18,24.18 0 0 0 11.2,0.73c3.14,-0.66 7.54,-2.08 7.86,-5.78" class="cls-9"/>
        <path id="svg_27" fill="#f9be3f" d="m318.72,195.45a4.33,4.33 0 0 0 -1.4,-4.42c-2.43,-2.34 -6.47,-2.44 -9.66,-2.45a32.59,32.59 0 0 0 -10.47,1.66c-0.82,0.28 -1.62,0.53 -2.46,0.74c-0.25,0.07 -0.46,-0.14 -0.71,0.05c-1.71,1.36 4.59,4.69 5.68,5.27a23.39,23.39 0 0 0 10.41,3c3.1,0 7.54,-0.41 8.61,-3.84" class="cls-9"/>
        <polygon id="svg_28" fill="#f9be3f" points="274.8699951171875,93.62999725341797 209.55999755859375,160.39999389648438 164.07000732421875,118.33000183105469 229.38999938964844,51.55000305175781 274.8699951171875,93.62999725341797 " class="cls-9"/>
        <polygon id="svg_29" fill="#f4b231" points="209.55999755859375,160.39999389648438 216.47000122070312,103.19999694824219 274.8699951171875,93.62999725341797 209.55999755859375,160.39999389648438 " class="cls-10"/>
        <path id="svg_30" fill="#f1a21c" d="m164.08,118.33l56.8,-5.88a5.87,5.87 0 0 0 5.32,-5.43l3.19,-55.47l-65.31,66.78z" class="cls-11"/>
        <path id="svg_31" fill="#c7b6fd" d="m281.19,219.76l-55.49,0a2,2 0 0 1 -2,-2l0,-88.4a2,2 0 0 1 2,-2l55.49,0a2,2 0 0 1 2,2l0,88.42a2,2 0 0 1 -2,2" class="cls-5"/>
        <rect id="svg_32" fill="#342e73" height="74.8" width="52.17" y="131.85" x="227.36" class="cls-12"/>
        <g id="svg_33" opacity="0.08" class="cls-13">
         <g id="svg_34" clip-path="url(#clip-path-5)" class="cls-14">
          <polygon id="svg_35" fill="#fff" points="279.5299987792969,206.64999389648438 227.36000061035156,206.64999389648438 227.36000061035156,131.85000610351562 279.5299987792969,206.64999389648438 " class="cls-15"/>
         </g>
        </g>
        <path id="svg_36" fill="#342e73" d="m258.55,213.1a5.11,5.11 0 1 1 -5.1,-5a5,5 0 0 1 5.1,5" class="cls-12"/>
        <path id="svg_37" fill="#fff" d="m273.09,100.77c-14.79,0 -26.78,8.75 -26.78,19.54c0,5.74 3.4,10.9 8.8,14.48c0.11,1.63 0.36,3.28 0.42,4.06a44,44 0 0 0 1,6.47a0.81,0.81 0 0 0 1.47,0.23a77.62,77.62 0 0 1 5,-7.13a35.35,35.35 0 0 0 10,1.42c14.8,0 26.79,-8.74 26.79,-19.53s-12,-19.54 -26.79,-19.54" class="cls-15"/>
        <path id="svg_38" fill="#c7b6fd" d="m264.62,120a4.47,4.47 0 1 1 -4.46,-4.34a4.4,4.4 0 0 1 4.46,4.34" class="cls-5"/>
        <path id="svg_39" fill="#c7b6fd" d="m278.73,120a4.47,4.47 0 1 1 -4.46,-4.34a4.41,4.41 0 0 1 4.46,4.34" class="cls-5"/>
        <path id="svg_40" fill="#c7b6fd" d="m292.83,120a4.47,4.47 0 1 1 -4.47,-4.34a4.41,4.41 0 0 1 4.47,4.34" class="cls-5"/>
        <path id="svg_41" fill="#8d74eb" d="m252.15,178.31c-0.32,0.64 -0.65,1.28 -1,1.93a7,7 0 0 1 -9.27,2.86l-18.39,-9.3l-0.19,-0.1a6.58,6.58 0 0 1 -2.8,-9.21l0.87,-1.49l1.34,-2.31a5.5,5.5 0 0 0 0.72,-2.07c0.35,-2.7 -0.05,-8.73 -10.43,-9.27l-50.75,0c-9.79,0.51 -10.7,5.9 -10.48,8.79a6.49,6.49 0 0 0 0.87,2.73l1.32,2.27l0.79,1.35a6.58,6.58 0 0 1 -2.8,9.21l-0.08,0l-18.5,9.36a7,7 0 0 1 -9.27,-2.86l-0.92,-1.78c-3.56,-7.14 -5.52,-14 -2.51,-22a19.16,19.16 0 0 1 11.34,-11.12a152.38,152.38 0 0 1 55.61,-9.5a152.38,152.38 0 0 1 55.62,9.51a19.16,19.16 0 0 1 11.38,11.12c3,8 1.08,14.8 -2.44,21.88" class="cls-16"/>
        <path id="svg_42" fill="#c7b6fd" d="m151.95,173.7l-18.58,9.4a7,7 0 0 1 -9.27,-2.86c-0.32,-0.6 -0.62,-1.19 -0.91,-1.79l30.78,-15.31l0.78,1.35a6.57,6.57 0 0 1 -2.8,9.21" class="cls-5"/>
        <path id="svg_43" fill="#c7b6fd" d="m252.15,178.31c-0.32,0.64 -0.65,1.28 -1,1.93a7,7 0 0 1 -9.27,2.86l-18.58,-9.4a6.58,6.58 0 0 1 -2.8,-9.21l0.87,-1.49l30.78,15.31z" class="cls-5"/>
        <path id="svg_44" fill="#3c4689" d="m228.09,160.2c-0.62,2.82 -2.54,5.2 -3.77,7.83a9.25,9.25 0 0 0 -0.82,5.77l-0.19,-0.1a6.58,6.58 0 0 1 -2.8,-9.21l0.87,-1.49l1.34,-2.31a5.5,5.5 0 0 0 0.72,-2.07c0.35,-2.7 -0.05,-8.73 -10.43,-9.27l-50.76,0c-9.79,0.51 -10.7,5.9 -10.48,8.79a6.49,6.49 0 0 0 0.87,2.73l1.32,2.27l0.79,1.35a6.58,6.58 0 0 1 -2.8,9.21l-0.08,0a4.56,4.56 0 0 0 0.48,-1.46c0.34,-2.12 -0.78,-4.17 -1.81,-6.06c-2.32,-4.28 -4.39,-9.37 -2.43,-13.82c1.54,-3.5 5.3,-5.67 9.1,-6.62a47,47 0 0 1 11.06,-1l34.83,-0.25c5.73,0 11.67,0 16.85,2.34s9.34,7.84 8.14,13.29" class="cls-17"/>
        <path id="svg_45" fill="#5f65da" d="m239.49,202.39l0,15.27a2.44,2.44 0 0 1 -2.48,2.4l-99.12,0a2.44,2.44 0 0 1 -2.48,-2.4l0,-15.27a2.41,2.41 0 0 1 1.17,-2c21,-12.67 25.75,-47.71 26.61,-56.3a2.16,2.16 0 0 1 2.17,-1.92l5.08,0a4.6,4.6 0 0 1 4.66,4.53l0,4.3a2.43,2.43 0 0 0 2.47,2.4l19.76,0a2.44,2.44 0 0 0 2.47,-2.4l0,-4.35a4.6,4.6 0 0 1 4.66,-4.53l5.08,0a2.16,2.16 0 0 1 2.17,1.92c0.86,8.59 5.59,43.63 26.61,56.3a2.41,2.41 0 0 1 1.17,2" class="cls-18"/>
        <path id="svg_46" fill="#ff8894" d="m209.02,182.33c0,11.88 -9.9,21.51 -22.11,21.51s-22.12,-9.63 -22.12,-21.51s9.9,-21.51 22.12,-21.51s22.11,9.63 22.11,21.51" class="cls-19"/>
        <path id="svg_47" fill="#e3e3e3" d="m195.62,182.33a8.41,8.41 0 0 1 -4.28,7.29a8.82,8.82 0 0 1 -4.42,1.18a8.59,8.59 0 0 1 -8.71,-8.47a8.43,8.43 0 0 1 5,-7.66a8.73,8.73 0 0 1 3.69,-0.8a8.59,8.59 0 0 1 8.7,8.46" class="cls-20"/>
        <path id="svg_48" fill="#404a8e" d="m176.03,182.16a4.17,4.17 0 1 1 -4.17,-4.06a4.12,4.12 0 0 1 4.17,4.06" class="cls-21"/>
        <path id="svg_49" fill="#404a8e" d="m206.12,182.16a4.17,4.17 0 1 1 -4.17,-4.06a4.11,4.11 0 0 1 4.17,4.06" class="cls-21"/>
        <path id="svg_50" fill="#373f7f" d="m194.62,189.64a4.25,4.25 0 0 1 5.9,0a4,4 0 0 1 0,5.73a4.25,4.25 0 0 1 -5.9,0a4,4 0 0 1 0,-5.73" class="cls-22"/>
        <path id="svg_51" fill="#373f7f" d="m173.32,168.94a4.25,4.25 0 0 1 5.89,0a4,4 0 0 1 0,5.74a4.25,4.25 0 0 1 -5.89,0a4,4 0 0 1 0,-5.74" class="cls-22"/>
        <path id="svg_52" fill="#2a2e64" d="m194.62,174.67a4,4 0 0 1 0,-5.73a4.26,4.26 0 0 1 5.9,0a4,4 0 0 1 0,5.73a4.25,4.25 0 0 1 -5.9,0" class="cls-23"/>
        <path id="svg_53" fill="#2a2e64" d="m173.32,195.37a4,4 0 0 1 0,-5.73a4.23,4.23 0 0 1 5.89,0a4,4 0 0 1 0,5.73a4.25,4.25 0 0 1 -5.89,0" class="cls-23"/>
        <path id="svg_54" fill="#1f214f" d="m186.91,192.73a4.06,4.06 0 1 1 -4.17,4.06a4.12,4.12 0 0 1 4.17,-4.06" class="cls-24"/>
        <path id="svg_55" fill="#1f214f" d="m186.91,163.47a4.06,4.06 0 1 1 -4.17,4.05a4.11,4.11 0 0 1 4.17,-4.05" class="cls-24"/>
        <path id="svg_56" fill="#b38ff6" d="m239.49,210.54l0,7.12a2.44,2.44 0 0 1 -2.48,2.4l-99.12,0a2.44,2.44 0 0 1 -2.48,-2.4l0,-7.12l104.08,0z" class="cls-25"/>
        <g id="svg_57" opacity="0.41" class="cls-26">
         <g id="svg_58" clip-path="url(#clip-path-6)" class="cls-27">
          <path id="svg_59" fill="#ffd1dd" d="m191.33,189.62a8.82,8.82 0 0 1 -4.42,1.18a8.59,8.59 0 0 1 -8.71,-8.47a8.43,8.43 0 0 1 5,-7.66l8.13,14.95z" class="cls-28"/>
         </g>
        </g>
        <path id="svg_60" fill="#fff" d="m101.71,97.71c9.65,0 17.47,5.71 17.47,12.75c0,3.74 -2.21,7.11 -5.74,9.44c-0.07,1.06 -0.23,2.14 -0.27,2.65a28.73,28.73 0 0 1 -0.67,4.22a0.53,0.53 0 0 1 -1,0.15a51.81,51.81 0 0 0 -3.27,-4.65a23.16,23.16 0 0 1 -6.56,0.93c-9.64,0 -17.47,-5.71 -17.47,-12.74s7.83,-12.75 17.47,-12.75" class="cls-15"/>
        <path id="svg_61" fill="#c7b6fd" d="m107.23,110.23a2.91,2.91 0 1 0 2.91,-2.83a2.86,2.86 0 0 0 -2.91,2.83" class="cls-5"/>
        <path id="svg_62" fill="#c7b6fd" d="m98.04,110.23a2.91,2.91 0 1 0 2.91,-2.83a2.86,2.86 0 0 0 -2.91,2.83" class="cls-5"/>
        <path id="svg_63" fill="#c7b6fd" d="m88.84,110.23a2.92,2.92 0 1 0 2.91,-2.83a2.87,2.87 0 0 0 -2.91,2.83" class="cls-5"/>
        <path id="svg_64" fill="#ff839b" d="m36.05,157.68a30.85,30.85 0 0 1 6.09,4.7c1.95,1.73 3.85,3.52 5.71,5.35c3.71,3.66 7.23,7.51 10.59,11.48a285.56,285.56 0 0 1 18.68,25c3.26,4.85 6.43,9.77 9.57,14.7c0.6,0.94 -0.93,1.82 -1.54,0.87c-11,-17.33 -22.48,-34.52 -36.94,-49.35q-3,-3.14 -6.28,-6.11c-2.14,-2 -4.6,-3.73 -6.42,-6a0.45,0.45 0 0 1 0.54,-0.71" class="cls-29"/>
        <path id="svg_65" fill="#ff839b" d="m27.95,153.21c1.07,-1.51 3.69,-1.18 5.31,-0.85c3.83,0.77 7.16,3.29 9.9,6a46.19,46.19 0 0 1 5.38,6.62a24.42,24.42 0 0 1 3.72,7.62a0.4,0.4 0 0 1 -0.48,0.5a0.81,0.81 0 0 1 -0.76,0.16a42.08,42.08 0 0 1 -12.11,-5.18a43.51,43.51 0 0 1 -5.37,-4a23.82,23.82 0 0 1 -4.74,-5.18c-1,-1.57 -2,-4.09 -0.85,-5.74" class="cls-29"/>
        <path id="svg_66" fill="#ff839b" d="m54.81,173.49c-0.78,-2.26 -1.49,-4.54 -2.07,-6.84a60.73,60.73 0 0 1 -1.34,-6.84c-0.26,-2 -0.35,-4.11 0.64,-5.69a3.5,3.5 0 0 1 4.4,-1.37a9.32,9.32 0 0 1 4.41,4.34a22.68,22.68 0 0 1 1.19,18.27a14.54,14.54 0 0 1 -1.39,2.69a8.21,8.21 0 0 1 -1.65,1.81a0.73,0.73 0 0 1 -0.32,0.26l-0.1,0.08a0.25,0.25 0 0 1 -0.35,0a0.89,0.89 0 0 1 -0.46,-0.3c-1.58,-1.71 -2.22,-4.24 -3,-6.36" class="cls-29"/>
        <path id="svg_67" fill="#ff839b" d="m64.78,183.45c0,-2.32 0.11,-4.64 0.32,-6.93a59.1,59.1 0 0 1 1,-6.68c0.4,-1.92 1,-3.89 2.43,-5a3.43,3.43 0 0 1 4.49,0.1a8.86,8.86 0 0 1 2.63,5.34a20.57,20.57 0 0 1 -1.56,11.72a21.17,21.17 0 0 1 -3.28,5.38a13.47,13.47 0 0 1 -2.16,2.05a8.6,8.6 0 0 1 -2.09,1.15a0.8,0.8 0 0 1 -0.39,0.14l-0.11,0a0.25,0.25 0 0 1 -0.31,-0.15a0.86,0.86 0 0 1 -0.32,-0.41c-0.9,-2.07 -0.66,-4.58 -0.65,-6.75" class="cls-29"/>
        <path id="svg_68" fill="#ff839b" d="m73.74,195.16c0.26,-2.31 0.6,-4.6 1,-6.85a61.87,61.87 0 0 1 1.71,-6.56c0.6,-1.86 1.41,-3.76 3,-4.75a3.42,3.42 0 0 1 4.45,0.55a8.69,8.69 0 0 1 2.06,5.57a20.66,20.66 0 0 1 -2.81,11.54a21.52,21.52 0 0 1 -3.83,5a14,14 0 0 1 -2.36,1.82a8.32,8.32 0 0 1 -2.21,0.93a0.8,0.8 0 0 1 -0.4,0.11l-0.11,0a0.23,0.23 0 0 1 -0.29,-0.18a0.84,0.84 0 0 1 -0.28,-0.44c-0.67,-2.14 -0.17,-4.62 0.07,-6.78" class="cls-29"/>
        <path id="svg_69" fill="#ff839b" d="m82.32,206.66c0.4,-2.26 0.87,-4.51 1.47,-6.71a57.53,57.53 0 0 1 2.1,-6.39c0.73,-1.81 1.66,-3.64 3.28,-4.54a3.55,3.55 0 0 1 4.49,0.76a8.45,8.45 0 0 1 1.77,5.61a20.2,20.2 0 0 1 -3.52,11.25a21.27,21.27 0 0 1 -4.18,4.76a14.58,14.58 0 0 1 -2.5,1.68a8.81,8.81 0 0 1 -2.3,0.82a0.84,0.84 0 0 1 -0.41,0.08l-0.12,0a0.25,0.25 0 0 1 -0.28,-0.2a0.83,0.83 0 0 1 -0.26,-0.45c-0.56,-2.15 0.09,-4.57 0.46,-6.69" class="cls-29"/>
        <path id="svg_70" fill="#ff839b" d="m75.62,211.28c-2.35,-0.26 -4.7,-0.44 -7,-0.49a60.71,60.71 0 0 0 -6.89,0.21c-2,0.17 -4.06,0.53 -5.4,1.8a3.31,3.31 0 0 0 -0.48,4.41a8.84,8.84 0 0 0 5.05,3.2a23.3,23.3 0 0 0 18,-2.77a14.88,14.88 0 0 0 2.34,-1.87a8.44,8.44 0 0 0 1.44,-1.93a0.76,0.76 0 0 0 0.2,-0.36a0.47,0.47 0 0 1 0,-0.1a0.23,0.23 0 0 0 -0.11,-0.32a0.9,0.9 0 0 0 -0.38,-0.37c-2,-1.11 -4.54,-1.18 -6.74,-1.41" class="cls-29"/>
        <path id="svg_71" fill="#ff839b" d="m67.43,199.62c-2.38,-0.27 -4.76,-0.47 -7.13,-0.54a60.43,60.43 0 0 0 -7,0.18c-2,0.17 -4.13,0.53 -5.52,1.84a3.52,3.52 0 0 0 -0.59,4.57c1,1.71 3.05,2.74 5,3.36a21.69,21.69 0 0 0 12.27,-0.13a22.63,22.63 0 0 0 6,-2.66a14.83,14.83 0 0 0 2.43,-1.93a8.87,8.87 0 0 0 1.51,-2a0.75,0.75 0 0 0 0.2,-0.37l0.06,-0.11a0.24,0.24 0 0 0 -0.11,-0.33a0.89,0.89 0 0 0 -0.37,-0.38c-2,-1.17 -4.58,-1.25 -6.8,-1.51" class="cls-29"/>
        <path id="svg_72" fill="#ff839b" d="m29.12,178.13a5.08,5.08 0 0 1 2.68,-4.68c3.35,-2 7.95,-1.16 11.57,-0.39a38,38 0 0 1 11.47,4.48c0.86,0.52 1.71,1 2.6,1.45c0.27,0.14 0.57,-0.05 0.8,0.24c1.6,2 -6.37,4.18 -7.75,4.56a27,27 0 0 1 -12.55,0.82c-3.52,-0.74 -8.45,-2.33 -8.82,-6.48" class="cls-29"/>
        <path id="svg_73" fill="#ff839b" d="m38.71,194.09a4.84,4.84 0 0 1 1.57,-5c2.73,-2.62 7.26,-2.73 10.83,-2.75a36.47,36.47 0 0 1 11.74,1.87c0.92,0.3 1.82,0.59 2.75,0.83c0.29,0.07 0.53,-0.16 0.8,0.06c1.92,1.52 -5.14,5.25 -6.36,5.9a26.24,26.24 0 0 1 -11.68,3.35c-3.47,0 -8.45,-0.46 -9.65,-4.3" class="cls-29"/>
        <path id="svg_74" fill="#ffb33c" d="m66.73,117a26.89,26.89 0 0 1 4.1,5.66c1.25,2 2.45,4.06 3.59,6.13c2.28,4.16 4.34,8.42 6.24,12.76a256.33,256.33 0 0 1 9.72,26.69c1.58,5.08 3.05,10.19 4.49,15.31c0.27,1 -1.31,1.37 -1.58,0.38c-5,-18 -10.54,-36 -19.28,-52.64c-1.23,-2.35 -2.53,-4.67 -3.89,-6.94s-3,-4.44 -4.05,-6.86a0.42,0.42 0 0 1 0.66,-0.49" class="cls-30"/>
        <path id="svg_75" fill="#ffb33c" d="m60.82,111.05c1.34,-1.05 3.55,-0.1 4.89,0.59c3.15,1.65 5.41,4.7 7.07,7.81a40.39,40.39 0 0 1 3,7.17a21.88,21.88 0 0 1 1.24,7.63a0.36,0.36 0 0 1 -0.55,0.31a0.75,0.75 0 0 1 -0.71,0a37.73,37.73 0 0 1 -12.9,-12.47a20.88,20.88 0 0 1 -2.78,-5.74c-0.44,-1.63 -0.69,-4.1 0.78,-5.26" class="cls-30"/>
        <path id="svg_76" fill="#ffb33c" d="m79,135.63c-0.09,-2.19 -0.1,-4.37 0,-6.53a55.11,55.11 0 0 1 0.65,-6.34c0.3,-1.82 0.78,-3.7 2.08,-4.84a3.23,3.23 0 0 1 4.22,-0.09a8.32,8.32 0 0 1 2.72,4.92a19.45,19.45 0 0 1 -1,11.14a20,20 0 0 1 -2.86,5.2a12.32,12.32 0 0 1 -1.94,2a7.89,7.89 0 0 1 -1.92,1.18a0.7,0.7 0 0 1 -0.36,0.14l-0.1,0.05a0.23,0.23 0 0 1 -0.3,-0.14a0.79,0.79 0 0 1 -0.32,-0.37c-0.93,-1.91 -0.82,-4.29 -0.9,-6.33" class="cls-30"/>
        <path id="svg_77" fill="#ffb33c" d="m85.1,146.88c0.63,-2 1.32,-4 2.12,-6a54.62,54.62 0 0 1 2.67,-5.62c0.86,-1.58 1.92,-3.16 3.47,-3.8a3.11,3.11 0 0 1 3.91,1.22a8,8 0 0 1 0.9,5.35a19.13,19.13 0 0 1 -4.55,9.97a19.84,19.84 0 0 1 -4.31,3.9a13.39,13.39 0 0 1 -2.44,1.25a7.5,7.5 0 0 1 -2.15,0.48a0.59,0.59 0 0 1 -0.37,0l-0.11,0a0.23,0.23 0 0 1 -0.23,-0.22a0.85,0.85 0 0 1 -0.18,-0.44c-0.23,-2 0.65,-4.19 1.24,-6.09" class="cls-30"/>
        <path id="svg_78" fill="#ffb33c" d="m89.84,159.42c0.84,-2 1.75,-3.88 2.75,-5.75a55.85,55.85 0 0 1 3.24,-5.32c1,-1.48 2.25,-2.95 3.87,-3.43a3.11,3.11 0 0 1 3.76,1.6a8,8 0 0 1 0.32,5.41a19.28,19.28 0 0 1 -5.54,9.42a19.93,19.93 0 0 1 -4.71,3.45a13.76,13.76 0 0 1 -2.55,1a7.9,7.9 0 0 1 -2.19,0.26a0.7,0.7 0 0 1 -0.38,0l-0.11,0c-0.14,0 -0.2,-0.11 -0.21,-0.24a0.83,0.83 0 0 1 -0.12,-0.45c0,-2.05 1.08,-4.1 1.87,-5.94" class="cls-30"/>
        <path id="svg_79" fill="#ffb33c" d="m94.31,171.68c0.95,-1.89 2,-3.74 3.07,-5.52a55,55 0 0 1 3.56,-5.08c1.11,-1.4 2.42,-2.78 4.08,-3.16a3.21,3.21 0 0 1 3.74,1.8a7.68,7.68 0 0 1 0.06,5.37a18.72,18.72 0 0 1 -6.09,9a19.71,19.71 0 0 1 -4.94,3.13a13.28,13.28 0 0 1 -2.64,0.84a8.07,8.07 0 0 1 -2.23,0.14a0.84,0.84 0 0 1 -0.39,0l-0.11,0a0.23,0.23 0 0 1 -0.2,-0.25a0.81,0.81 0 0 1 -0.1,-0.46c0.08,-2 1.3,-4 2.19,-5.76" class="cls-30"/>
        <path id="svg_80" fill="#ffb33c" d="m87.22,174.05c-2,-0.81 -4,-1.56 -6,-2.2a57.43,57.43 0 0 0 -6.1,-1.56c-1.79,-0.34 -3.71,-0.54 -5.22,0.23a3.06,3.06 0 0 0 -1.6,3.75a7.9,7.9 0 0 0 3.58,4.08a19.71,19.71 0 0 0 10.66,2.89a20.49,20.49 0 0 0 5.84,-0.8a13.11,13.11 0 0 0 2.56,-1.05a8,8 0 0 0 1.78,-1.32a0.75,0.75 0 0 0 0.26,-0.27l0.08,-0.08a0.22,0.22 0 0 0 0,-0.31a0.83,0.83 0 0 0 -0.24,-0.42c-1.43,-1.47 -3.68,-2.17 -5.54,-2.94" class="cls-30"/>
        <path id="svg_81" fill="#ffb33c" d="m83.11,161.75c-2,-0.84 -4.05,-1.62 -6.12,-2.27a54,54 0 0 0 -6.18,-1.61c-1.82,-0.36 -3.77,-0.57 -5.34,0.23a3.24,3.24 0 0 0 -1.74,3.86a7.82,7.82 0 0 0 3.53,4.21a19.63,19.63 0 0 0 10.8,3a21.19,21.19 0 0 0 6,-0.82a13.42,13.42 0 0 0 2.65,-1.09a8.27,8.27 0 0 0 1.85,-1.36a0.69,0.69 0 0 0 0.28,-0.28l0.08,-0.08a0.22,0.22 0 0 0 0,-0.32a0.84,0.84 0 0 0 -0.22,-0.43c-1.42,-1.52 -3.69,-2.24 -5.57,-3" class="cls-30"/>
        <path id="svg_82" fill="#ffb33c" d="m55.21,133.22a4.72,4.72 0 0 1 3.6,-3.43c3.48,-0.95 7.29,1 10.26,2.58a34,34 0 0 1 8.87,6.82c0.62,0.67 1.24,1.31 1.9,1.93c0.2,0.19 0.51,0.1 0.64,0.41c0.88,2.12 -6.71,2.07 -8,2.06a24.87,24.87 0 0 1 -11.24,-2.45c-2.89,-1.54 -6.8,-4.18 -6,-7.92" class="cls-30"/>
        <path id="svg_83" fill="#ffb33c" d="m59.37,149.65a4.53,4.53 0 0 1 2.7,-4c3.09,-1.61 7.1,-0.57 10.24,0.32a33.13,33.13 0 0 1 9.81,4.6c0.72,0.5 1.44,1 2.2,1.42c0.23,0.14 0.5,0 0.69,0.25c1.27,1.82 -5.92,3.32 -7.17,3.58a24.1,24.1 0 0 1 -11.14,0c-3.06,-0.85 -7.3,-2.53 -7.33,-6.21" class="cls-30"/>
        <path id="svg_84" fill="#f9be3f" d="m263.62,217.78a9.41,9.41 0 0 1 -3,2.5a46,46 0 0 1 -14.15,5.27c-0.43,0.1 -0.87,0.19 -1.31,0.26c-1.52,0.29 -3.07,0.5 -4.62,0.66c-0.37,0 -0.76,0.08 -1.14,0.11c-0.87,0.08 -1.74,0.15 -2.61,0.19l-1,0c-1.63,0.06 -3.26,0.07 -4.88,0l-0.83,0l-0.2,0c-0.85,0 -1.7,-0.06 -2.58,-0.12c-0.4,0 -0.79,0 -1.2,-0.07c-1.26,-0.09 -2.54,-0.2 -3.84,-0.34c-0.95,-0.11 -1.92,-0.25 -2.88,-0.41s-1.63,-0.27 -2.43,-0.45c-6.66,-1.35 -13,-4 -17.19,-9a6.38,6.38 0 0 1 -1.55,-3.72a1.5,1.5 0 0 1 0.36,-1a2.32,2.32 0 0 1 2.19,-0.48c5.1,0.73 9.89,3.23 14.5,5.34a0.58,0.58 0 0 0 0.67,-0.92c-4.54,-4.46 -8.48,-9.41 -9.68,-15.56a3.94,3.94 0 0 1 -0.07,-1.41a1.68,1.68 0 0 1 0.53,-1l0.18,-0.14a2.29,2.29 0 0 1 1.53,-0.38a5.28,5.28 0 0 1 2.9,1.49c3.83,3.24 6.95,7.71 9.93,11.93a0.68,0.68 0 0 0 1.23,-0.52a117,117 0 0 1 -2.41,-13.81c-0.24,-2.46 -0.25,-5.18 1.34,-7.1a1.84,1.84 0 0 1 0.23,-0.25a0.91,0.91 0 0 1 0.49,-0.26a1,1 0 0 1 0.51,0.06a2.65,2.65 0 0 1 0.57,0.37a15.86,15.86 0 0 1 4.5,7.49c1.21,3.88 2.87,8.38 3.77,12.6a0.26,0.26 0 0 0 0.51,0c0.15,-6.6 1.36,-13.47 4.89,-19a2.72,2.72 0 0 1 2.13,-1.26a1.88,1.88 0 0 1 0.48,0a1.85,1.85 0 0 1 1,0.44c1,0.77 1.26,2.4 1.27,3.74a106.12,106.12 0 0 1 -1.29,17.15a0.51,0.51 0 0 0 0.95,0.32c2.71,-5 6,-10.56 10.61,-13.17c1.29,-0.73 2.89,-1.33 4.23,-0.28a2.44,2.44 0 0 1 0.42,0.43a2.7,2.7 0 0 1 0.52,1l0,0a6.49,6.49 0 0 1 -0.73,4.39a46.42,46.42 0 0 1 -9.12,13.49a0.6,0.6 0 0 0 0.71,1l8,-3.73a11.72,11.72 0 0 1 4.27,-1.39a4.06,4.06 0 0 1 3.73,1.66l0.1,0.17a2.8,2.8 0 0 1 0.25,0.72a3.92,3.92 0 0 1 -0.69,2.95" class="cls-9"/>
        <path id="svg_85" fill="#fc8e22" d="m230.89,226.84l-0.83,0l-0.2,0q-3.62,-19.06 -8.24,-37.93a0.91,0.91 0 0 1 0.49,-0.26a0.89,0.89 0 0 1 0.51,0.06q4.67,19 8.27,38.16" class="cls-31"/>
        <path id="svg_86" fill="#fc8e22" d="m240.43,189.33a140,140 0 0 0 -2.81,21.33c-0.26,5.37 -0.54,10.75 -0.8,16.11l-1,0q0.41,-8.55 0.85,-17.09a138.58,138.58 0 0 1 2.85,-20.83a1.85,1.85 0 0 1 1,0.44" class="cls-31"/>
        <path id="svg_87" fill="#fc8e22" d="m257.14,198.53c-3.59,5.05 -7.25,10.07 -10.53,15.31a71.1,71.1 0 0 0 -6.07,12.63c-0.37,0 -0.76,0.08 -1.14,0.11a72.94,72.94 0 0 1 5.84,-12.44c3.49,-5.72 7.5,-11.14 11.38,-16.62a2.7,2.7 0 0 1 0.52,1" class="cls-31"/>
        <path id="svg_88" fill="#fc8e22" d="m227.28,226.69c-0.4,0 -0.79,0 -1.2,-0.07c-5.66,-9.92 -13.17,-18.71 -19.92,-28a1.68,1.68 0 0 1 0.53,-1c7,9.61 14.8,18.7 20.59,29" class="cls-31"/>
        <path id="svg_89" fill="#fc8e22" d="m219.36,225.87c-0.81,-0.12 -1.63,-0.27 -2.43,-0.45c-6.29,-4.18 -12.74,-8.14 -18.74,-12.76a1.5,1.5 0 0 1 0.36,-1c6.64,5.16 13.85,9.49 20.81,14.2" class="cls-31"/>
        <path id="svg_90" fill="#fc8e22" d="m264.33,214.83c-1.51,0.66 -3.07,1.25 -4.45,2a85.47,85.47 0 0 0 -7.44,4.29a34.06,34.06 0 0 0 -6,4.47c-0.43,0.1 -0.87,0.19 -1.31,0.26a26.22,26.22 0 0 1 5.24,-4.59a88.17,88.17 0 0 1 8.16,-4.86c1.69,-0.89 3.61,-1.59 5.42,-2.42l0.1,0.17a2.8,2.8 0 0 1 0.25,0.72" class="cls-31"/>
        <path id="svg_91" fill="#fcc89e" d="m152.46,199.72a1.17,1.17 0 0 1 -0.61,0.3a35.89,35.89 0 0 1 -7.39,1c-0.9,0 -1.82,0.07 -2.72,0.07l-2.56,0l-14.76,0l-3.56,0a46.58,46.58 0 0 1 -8.68,-0.58c-0.19,0 0.9,-10.85 1,-11.91a96,96 0 0 1 1.94,-12.72a42.55,42.55 0 0 1 3.46,-10a16.32,16.32 0 0 1 8.12,-8l0.43,-0.17a19,19 0 0 1 9.6,-1.11a14.18,14.18 0 0 1 2.8,0.73c6.11,2.28 9,8.41 10.43,14.65c2,8.85 2.36,18 2.68,27a1.11,1.11 0 0 1 -0.18,0.8" class="cls-32"/>
        <path id="svg_92" fill="#342e73" d="m119.48,148.78c-1.26,-1.73 -1.56,-3.86 -1.88,-5.88c-1,-6.52 1.87,-13.73 9.16,-16.23a18.77,18.77 0 0 1 12.55,-0.11c7.59,2.9 9.08,10.16 8.68,16.77a12.8,12.8 0 0 1 -3.53,8.17a11.28,11.28 0 0 1 -6.58,3.61c-6.74,1 -13.71,0.16 -18.4,-6.33" class="cls-12"/>
        <path id="svg_93" fill="#342e73" d="m148.05,161.71l0.06,0l0,-0.31l-0.06,0.31" class="cls-12"/>
        <path id="svg_94" fill="#342e73" d="m148.05,143.58l-30.35,0c4.4,9.4 2.26,14.46 0.52,16.69a0.89,0.89 0 0 0 0.71,1.44l2.89,0.9a38,38 0 0 0 21.88,0.18l3.7,-1.08a0.87,0.87 0 0 0 0.67,-1.46c-1.95,-2.25 -4.4,-7.31 0,-16.67" class="cls-12"/>
        <path id="svg_95" fill="#fcc89e" d="m137.62,146.61l0,12a4.42,4.42 0 0 1 -8.83,0l0,-12l8.83,0z" class="cls-32"/>
        <path id="svg_96" fill="#f8b485" d="m137.62,148.89l0,8.31a18.92,18.92 0 0 1 -5.77,0.92a11.52,11.52 0 0 1 -3.06,-0.46l0,-7.4a11.1,11.1 0 0 1 1.55,-0.57a20.58,20.58 0 0 1 7.28,-0.8" class="cls-33"/>
        <path id="svg_97" fill="#fcc89e" d="m121.31,142.59c0,7.73 4.22,14 10.83,14s12,-6.26 12,-14s-5.36,-14 -12,-14s-10.83,6.26 -10.83,14" class="cls-32"/>
        <path id="svg_98" fill="#fcc89e" d="m141.06,143.9c-0.55,2.23 0.5,4.39 2.33,4.81s3.77,-1 4.32,-3.27s-0.5,-4.38 -2.34,-4.81s-3.76,1 -4.31,3.27" class="cls-32"/>
        <path id="svg_99" fill="#fcc89e" d="m117.99,145.44c-0.55,-2.23 0.5,-4.38 2.33,-4.81s3.77,1 4.32,3.27s-0.5,4.39 -2.34,4.81s-3.76,-1 -4.31,-3.27" class="cls-32"/>
        <path id="svg_100" fill="#5e5e5e" d="m128.25,143.58a0.93,0.93 0 1 1 -0.93,-0.9a0.91,0.91 0 0 1 0.93,0.9" class="cls-34"/>
        <path id="svg_101" fill="#bbb" d="m127.1,142.93s-0.38,0.08 -0.45,0.36s0.11,0.41 0.11,0.41a0.83,0.83 0 0 1 0.34,-0.77" class="cls-35"/>
        <path id="svg_102" fill="#5e5e5e" d="m138.62,143.7a0.93,0.93 0 1 1 -0.93,-0.9a0.92,0.92 0 0 1 0.93,0.9" class="cls-34"/>
        <path id="svg_103" fill="#bbb" d="m137.44,143s-0.38,0.08 -0.45,0.37s0.12,0.41 0.12,0.41a0.83,0.83 0 0 1 0.33,-0.78" class="cls-35"/>
        <path id="svg_104" fill="#5f5ea7" d="m144.46,163.78l0,37.22c-0.9,0 -1.82,0.07 -2.72,0.07l-2.56,0l-14.76,0l-2.17,0l0,-37.29l22.21,0z" class="cls-36"/>
        <g id="svg_105" opacity="0.37" class="cls-37">
         <g id="svg_106" clip-path="url(#clip-path-7)" class="cls-38">
          <path id="svg_107" fill="#e3e3e3" d="m143.76,180.31c-5.8,2.27 -12.24,2.28 -18.49,2.21c0.33,-6.63 0.68,-13.24 1.07,-19.87a10.55,10.55 0 0 1 0.53,0.94a31.78,31.78 0 0 0 5.91,8.12a80.66,80.66 0 0 0 11,8.6" class="cls-20"/>
         </g>
        </g>
        <path id="svg_108" fill="#f7f7f7" d="m126.71,157.84c0,0.87 -0.21,2 -0.25,2.7l-0.12,2.11c-0.39,6.63 -0.74,13.24 -1.07,19.87q-0.16,3.15 -0.31,6.31q-0.29,6.1 -0.54,12.22l-3.56,0a49.28,49.28 0 0 1 -8.68,-0.57c-0.19,0 0.9,-10.86 1,-11.92a95.6,95.6 0 0 1 1.94,-12.71a43,43 0 0 1 3.45,-10a16.37,16.37 0 0 1 8.14,-8" class="cls-39"/>
        <path id="svg_109" fill="#f7f7f7" d="m152.46,199.72a1.17,1.17 0 0 1 -0.61,0.3a42.76,42.76 0 0 1 -10.11,1q-0.25,-6.12 -0.54,-12.23q-0.66,-14.15 -1.5,-28.28a12.78,12.78 0 0 1 -0.17,-3.26c6.11,2.28 9,8.41 10.43,14.65c2,8.85 2.36,18 2.68,27a1.11,1.11 0 0 1 -0.18,0.8" class="cls-39"/>
        <path id="svg_110" fill="#5f5ea7" d="m114.39,141.36l0,28.64a1.27,1.27 0 0 1 -0.18,0.67a1.37,1.37 0 0 1 -1.18,0.65l-42,0a1.34,1.34 0 0 1 -1.41,-1.32l0,-28.64a1.34,1.34 0 0 1 1.4,-1.36l42,0a1.34,1.34 0 0 1 1.36,1.33" class="cls-36"/>
        <g id="svg_111" opacity="0.06" class="cls-40">
         <g id="svg_112" clip-path="url(#clip-path-8)" class="cls-41">
          <path id="svg_113" fill="#fff" d="m114.21,170.68a1.37,1.37 0 0 1 -1.18,0.65l-42,0a1.34,1.34 0 0 1 -1.41,-1.33l0,-28.64a1.34,1.34 0 0 1 1.4,-1.36l2.6,0a14.52,14.52 0 0 0 0.56,1.72a34.16,34.16 0 0 0 7.83,11a68.76,68.76 0 0 0 15,10.44a91.64,91.64 0 0 0 17.23,7.53" class="cls-15"/>
         </g>
        </g>
        <polygon id="svg_114" fill="#514d93" points="99.02999877929688,157.41000366210938 97.97000122070312,157.41000366210938 86.08000183105469,157.41000366210938 85.01000213623047,157.41000366210938 82.3499984741211,176.92999267578125 86.08000183105469,176.92999267578125 97.97000122070312,176.92999267578125 101.69000244140625,176.92999267578125 99.02999877929688,157.41000366210938 " class="cls-42"/>
        <path id="svg_115" fill="#5f5ea7" d="m95.72,165.3a3.69,3.69 0 1 1 -3.69,-3.59a3.65,3.65 0 0 1 3.69,3.59" class="cls-36"/>
        <polygon id="svg_116" fill="#c7b6fd" points="161.69000244140625,181.10000610351562 161.36000061035156,184.41000366210938 161.14999389648438,186.44000244140625 159.10000610351562,206.4199981689453 158.75,209.82000732421875 158.32000732421875,214.13999938964844 157.6300048828125,220.94000244140625 157.13999938964844,225.67001342773438 156.97999572753906,227.26998901367188 79.37000274658203,227.26998901367188 78.72000122070312,220.94000244140625 78.02999877929688,214.13999938964844 77.58000183105469,209.82000732421875 77.2300033569336,206.4199981689453 75.19999694824219,186.44000244140625 74.98999786376953,184.41000366210938 74.6500015258789,181.10000610351562 161.69000244140625,181.10000610351562 " class="cls-5"/>
        <polygon id="svg_117" fill="#ac96fc" points="161.69000244140625,181.10000610351562 161.14999389648438,186.44000244140625 75.19999694824219,186.44000244140625 74.66000366210938,181.10000610351562 161.69000244140625,181.10000610351562 " class="cls-43"/>
        <polygon id="svg_118" fill="#5f5ea7" points="158.32000732421875,214.13999938964844 157.6300048828125,220.94000244140625 78.72000122070312,220.94000244140625 78.02999877929688,214.13999938964844 158.32000732421875,214.13999938964844 " class="cls-36"/>
        <polygon id="svg_119" fill="#fff" points="159.11000061035156,206.4199981689453 158.75999450683594,209.82000732421875 77.58999633789062,209.82000732421875 77.23999786376953,206.4199981689453 159.11000061035156,206.4199981689453 " class="cls-15"/>
        <g id="svg_120" opacity="0.11" class="cls-44">
         <g id="svg_121" clip-path="url(#clip-path-9)" class="cls-45">
          <path id="svg_122" fill="#5f5ea7" d="m157.15,225.67l-0.17,1.6l-77.61,0l-0.65,-6.33l-0.69,-6.8l-0.44,-4.32l-0.35,-3.4l-2,-20l-0.21,-2l-0.41,-3.32l12.13,0a3.69,3.69 0 0 1 0.34,0.25c5.56,4.3 10.09,10.44 15.61,15a156.73,156.73 0 0 0 38.47,23.26q5.78,2.44 11.74,4.42c1,0.33 2.52,1 4.2,1.65" class="cls-36"/>
         </g>
        </g>
        <path id="svg_123" fill="#dfdafb" d="m165.11,184.41l-93.86,0a2.43,2.43 0 0 1 -2.47,-2.4l0,-2.68a2.43,2.43 0 0 1 2.47,-2.4l93.86,0a2.43,2.43 0 0 1 2.46,2.4l0,2.67a2.43,2.43 0 0 1 -2.46,2.4" class="cls-6"/>
        <path id="svg_124" fill="#f88575" d="m134.88,151.62a2.6,2.6 0 0 1 -2.38,1.68a2.8,2.8 0 0 1 -2.38,-1.68l4.76,0z" class="cls-7"/>
        <path id="svg_125" fill="#342e73" d="m132.62,128.61c-7.11,-0.28 -11.32,6 -11.32,11.95c3.84,-0.06 3.58,-2.12 4.13,-3.4a0.31,0.31 0 0 1 0.44,-0.14c1.94,1.08 11.45,6 18.07,3.54c0,-5.91 -5.08,-11.71 -11.32,-11.95" class="cls-12"/>
       </g>
      </g>
     </g>
     <g id="Top">
      <g id="Bottom"/>
     </g>
    </g>
   </g>
  </g>
 </g>
</svg>