<svg id="footer_Home" data-name="footer Home"  xmlns="http://www.w3.org/2000/svg" viewBox="0 0 660 185.53" preserveAspectRatio="none"><defs><style>.cls-1{fill:#e0e0e0;}.cls-2{fill:#f176bb;}.cls-3{fill:#0a0a4a;}.cls-4{fill:#049cfb;}</style></defs><title>Footer</title><g id="Footer"><polygon class="cls-1" points="660 185.53 0.21 185.53 0.21 0 571.03 0 660 0 660 185.53"/><path class="cls-2" d="M0,103.91s31.81-11.54,67.5,22.25c15.36,16.37,19.79,36.25,52,24.25,25.5-12.75,56.75,17.25,55,35.12H0Z"/><path class="cls-3" d="M0,185.53V103.91s29.5-12,64.5,26c22.76,34.5,29.5,36,55,27,27-14.75,56,12.25,55,28.62Z"/><path class="cls-4" d="M554.78,0A3.22,3.22,0,0,0,552,4.85c3.74,6.45,13.27,17.1,35.49,17.41,38.86.55,37.09,19.82,36.75,26s-9.67,16.61,3.45,26,32.3-5,32.3-17.69V0Z"/><path class="cls-3" d="M549.84,0a8.36,8.36,0,0,0,.48,1.51c1.73,4.35,9.36,16.59,40.18,17,37.5.5,35.33,20.3,35,26s-9.33,15.31,3.33,24S660,63.85,660,52.18V0Z"/></g></svg>