<svg id="footer_Home" data-name="footer Home" xmlns="http://www.w3.org/2000/svg" xmlns:xlink="http://www.w3.org/1999/xlink" viewBox="0 0 130 69.71"><defs><style>.cls-1{fill:none;}.cls-2{font-size:18.54px;font-family:Loew-Bold, Loew;font-weight:700;}.cls-2,.cls-6{fill:#006;}.cls-3{clip-path:url(#clip-path);}.cls-4{clip-path:url(#clip-path-2);}.cls-5{fill:#fff;}.cls-7{fill:#09f;}.cls-8{fill:#f6c;}.cls-9{fill:#ed1c24;}</style><clipPath id="clip-path"><path class="cls-1" d="M49.76,31.43A19.72,19.72,0,1,1,30.05,11.71,19.71,19.71,0,0,1,49.76,31.43Z"/></clipPath><clipPath id="clip-path-2"><rect class="cls-1" x="9.29" y="10.67" width="41.52" height="41.52"/></clipPath></defs><title>Footer logo</title><g id="Footer"><g id="LOGO_footer" data-name="LOGO footer"><text class="cls-2" transform="translate(56.47 37.28) scale(0.99 1)">SMOC</text><g id="LOGO"><g class="cls-3"><g id="LOGO-2" data-name="LOGO"><g class="cls-4"><g class="cls-4"><path class="cls-5" d="M50.81,31.43A20.76,20.76,0,1,1,30.05,10.67,20.76,20.76,0,0,1,50.81,31.43"/><path class="cls-6" d="M49.82,31.43A19.77,19.77,0,1,1,30.05,11.66,19.77,19.77,0,0,1,49.82,31.43"/><path class="cls-7" d="M29.14,43.67a11.36,11.36,0,0,0,1.58.66,3.07,3.07,0,0,0,1.32.39,3,3,0,0,0,1.42-.23c.13-.1,0-.27-.16-.37a3.74,3.74,0,0,0-.68-.19c-.14,0-.15-.08-.21-.14s-.09,0-.22-.09-.1-.08-.17-.13-.17-.25-.28-.37-.29-.41-.35-.49-.11-.16.07-.48a9.69,9.69,0,0,1,1.39-1.65,15.93,15.93,0,0,0,1.28-1.44A13.26,13.26,0,0,1,35,38a6.58,6.58,0,0,0,.64-.72,1.83,1.83,0,0,0,.24-.87l1.43-.08a7.77,7.77,0,0,0,1.55-.16,8.85,8.85,0,0,1,.91-.12,2.12,2.12,0,0,0,1-.51,1.12,1.12,0,0,0,.47-.73c.11-.4-.38-1.06-.81-1.64a11.29,11.29,0,0,0-1.38-1.45,3,3,0,0,0-.46-.34c-.08,0,0,0,0-.09s-.13-.11-.2-.21-.11-.07-.21-.08-.09-.11-.11-.17-.09-.11-.2-.12-.07-.07-.1-.11a.61.61,0,0,0-.25-.19c-.14-.05-.24-.32-.28-.42s0-.09.06-.17-.06-.24-.08-.43a4.38,4.38,0,0,1,0-.51,3,3,0,0,1,.19-.65,6.91,6.91,0,0,0,.17-.7l.25.2a.45.45,0,0,0,.61-.11,3.33,3.33,0,0,1,.45-.53A4.33,4.33,0,0,0,39.57,26c.31-.53.49-1.05.7-1.47a3,3,0,0,1,.55-.76,2,2,0,0,0,.28-.42c.06-.15.09-.18.14-.32a.2.2,0,0,0-.09-.28c-.07,0-.06-.07-.07-.09a.46.46,0,0,0-.09-.14.36.36,0,0,0-.14-.13c-.08,0-.06,0-.07-.07a.49.49,0,0,0-.15-.15.2.2,0,0,0-.15,0,.46.46,0,0,0-.06-.16c0-.06-.21,0-.21,0,.06-.23-.1-.27-.14-.26s0,.07-.09.18-.14.08-.21.32a.89.89,0,0,1-.15.33.26.26,0,0,0,0,.24,3.85,3.85,0,0,1,0,.4.67.67,0,0,0,.06.33c.06.11-.07.3-.5,1a3.15,3.15,0,0,1-.81,1c-.07.05-.07.08-.07,0a3.36,3.36,0,0,0-.07-.59,2.62,2.62,0,0,0-.13-.44,2.26,2.26,0,0,1,.08-.51,1.77,1.77,0,0,0,0-.83,2.67,2.67,0,0,0-.37-.82,1.47,1.47,0,0,1-.14-.28.79.79,0,0,0-.28-.31.92.92,0,0,1-.2-.24.39.39,0,0,1,0-.3,1.46,1.46,0,0,1,.22-.43,1.06,1.06,0,0,0,0-.45.22.22,0,0,1,.06-.2,3.9,3.9,0,0,1,.59-.31c.17-.09.09-.27,0-.34a.13.13,0,0,1,0-.18.09.09,0,0,0-.07-.16c-.13,0,.07-.13.14-.18s0-.14-.06-.22,0-.12.05-.16a.47.47,0,0,0,.14-.17c0-.07,0-.16-.22-.29a1,1,0,0,1-.27-.23s0-.08,0-.15,0-.19-.13-.31a3,3,0,0,1-.19-.33,3.06,3.06,0,0,0-.21-.25c.09-.06-.17-.38-.67-.41a3,3,0,0,0-1.49.27,1.72,1.72,0,0,0-.71,1,1.19,1.19,0,0,0,.16,1.07c.18.25.33.49.58.81a.92.92,0,0,1,.24.74.62.62,0,0,1-.3.44c-.07,0-.2.12-.31.19a1.38,1.38,0,0,0-.33.43,2.3,2.3,0,0,1-.34.43,3,3,0,0,0-.51.64c-.1.2,0,.14-.12.29s-.24.38-.24.38c-.1.16-.09.11-.17.15s-.14.18-.24.28a3.23,3.23,0,0,0-.32.38c-.06.09,0,.08,0,.08s-.18.29-.34.58a2.71,2.71,0,0,0-.38,1.13c0,.37.36.4.5.45a8.73,8.73,0,0,0,1,.28,3.26,3.26,0,0,0,.7,0,3,3,0,0,1,0,.47,5.8,5.8,0,0,0-.15.77,4.7,4.7,0,0,1-.22,1c0,.11-.16.52-.33.64a1.06,1.06,0,0,0-.29.52c0,.09.08.09.08.09a7.8,7.8,0,0,0,0,1.33c0,.15,0,.33-.05.59a5.28,5.28,0,0,0,.08.93c0,.2,0,.16-.06.33a3.19,3.19,0,0,0,0,.68c0,.12,0,.12.25.14a2.82,2.82,0,0,1,.34,0,6.85,6.85,0,0,0,.11,1.57.78.78,0,0,1-.17,0c-.09,0-.07,0-.1,0a2.34,2.34,0,0,0-.72-.08c-.3,0-.34.07-.4.11s-.17,0-.21,0a3.71,3.71,0,0,0,.15,1.22,7.15,7.15,0,0,1,.18,1.18s0,0-.31.32a4.84,4.84,0,0,0-.74,1.3,9,9,0,0,1-.7,1.39,10.32,10.32,0,0,1-1.07,1.35c-.07.07,0,0-.09,0s-.06,0-.25.27a1.18,1.18,0,0,0-.29.64c0,.06,0,.07,0,.19s-.07.08.2.29M33.83,25c0,.05-.09,0-.19,0a.41.41,0,0,0,.15-.14c0-.08,0,.1,0,.14m2.5,9.65a4.12,4.12,0,0,1,.09-.42,1.11,1.11,0,0,0,.09-.28l.1-.49a4.6,4.6,0,0,0,.64.35l.88.37a3.07,3.07,0,0,0-.9.05,4,4,0,0,0-.9.42"/><path class="cls-8" d="M36.55,43.58c-.09-.28-.46-.21-.6-.21a6.55,6.55,0,0,1-.79.1c-.16,0-.27,0-.32-.1l-.1-.11s.31.05.21-.1a.49.49,0,0,0-.4-.15.6.6,0,0,1-.32,0,2,2,0,0,0-.33-.1s-.11,0-.13,0-.17-.08-.07-.26a1.23,1.23,0,0,0,.2-.8,6.5,6.5,0,0,1-.34-1.46,10.69,10.69,0,0,1,.19-1.66A12,12,0,0,0,34,37c0-.7.14-.93-.19-1.41A10,10,0,0,1,33,34.38a19.63,19.63,0,0,0-1.31-2.13c-.28-.35-.5-.74-.58-.78s-.12,0-.16-.14-.06-.31-.15-.3-.16.08-.13,0,.05-.15,0-.18,0-.06,0-.12,0-.22,0-.45a4.31,4.31,0,0,1,0-.67,1.45,1.45,0,0,0,.09-.36,1.21,1.21,0,0,1,0-.5c.07-.19.14-.37.17-.48a1.27,1.27,0,0,0,.05-.16s.27,0,.32,0a.17.17,0,0,0,0-.19c0-.06-.12-.1,0-.09s.32,0,.36-.13a.15.15,0,0,0-.06-.18s-.09,0,0-.08.25-.15.16-.29a2.17,2.17,0,0,0,.5-.24c.25-.17.66-.42.8-.49s.11-.08.26-.05a1.2,1.2,0,0,0,.65,0c.17-.08.32-.14.3-.23s-.07-.15-.11-.15-.13,0,0-.08.22-.21.2-.26a.2.2,0,0,0-.15-.13.89.89,0,0,0,0-.24c0-.08-.13-.07-.14-.1s0-.32,0-.4-.26-.08-.36-.06h-.07a.58.58,0,0,0,0-.34c-.08-.11-.18-.05-.23,0s-.11.28-.2.34A.69.69,0,0,0,33,25a1.17,1.17,0,0,0-.1.33c0,.06,0,.08-.07.14a2.09,2.09,0,0,1-.56.2l-.36,0a2.42,2.42,0,0,0,.3-1.19,10,10,0,0,0-.37-1.13,1.7,1.7,0,0,1-.14-.56,1.16,1.16,0,0,0-.28-.8,2.05,2.05,0,0,0-.45-.26l.15-.14c.05-.06.1-.14.2-.12s.48.12.68,0,.11-.3.16-.37.17-.1.1-.25.11-.06.11-.09,0-.15.07-.18.29,0,.3-.14a.25.25,0,0,0-.07-.22c0-.06-.06-.16-.09-.22s-.11-.23-.07-.33a.6.6,0,0,0,.14-.45c0-.33,0-.47,0-.48a1.12,1.12,0,0,0,0-.22s.15,0,.13-.25a1,1,0,0,0-.38-.62.48.48,0,0,1,.07.17,1.85,1.85,0,0,0-.3-.27l.1.17a1.23,1.23,0,0,0-.51-.29,8.07,8.07,0,0,0-1.11-.22,2.12,2.12,0,0,0-.47.12.42.42,0,0,1-.27-.12,1.62,1.62,0,0,0-1.27-.37c-.65.12-.63.6-1,.61a3,3,0,0,0-.69,0,1.92,1.92,0,0,1,.51.09.69.69,0,0,0,.58,0,.88.88,0,0,1-.41.33,2.9,2.9,0,0,0-.86.52c-.12.13-.1.26-.2.43a1.22,1.22,0,0,0,.27-.23.75.75,0,0,1,.45-.25l.39-.1a3.24,3.24,0,0,0-.41.24,1.36,1.36,0,0,0-.43.44c-.12.17-.17.28-.22.34a2.36,2.36,0,0,0,.29-.25,3.53,3.53,0,0,1,.67-.5c.22-.08.32-.17.48-.17s.13.09,0,.17l-.41.18a1.06,1.06,0,0,0-.42.24,2.61,2.61,0,0,1,.65-.19.72.72,0,0,0-.18.18l-.13.24a1.24,1.24,0,0,1-.6.07.34.34,0,0,0,.37.13,1.35,1.35,0,0,1,.29-.07,1.27,1.27,0,0,1-.06.39.81.81,0,0,1-.23.28,1,1,0,0,0,.38-.24,1,1,0,0,1,.27-.25,1.11,1.11,0,0,1,.2-.11s-.33.45-.48.63a3.74,3.74,0,0,0-.39.59,2.27,2.27,0,0,1-.56.69,5.33,5.33,0,0,1-.5.28,1.18,1.18,0,0,0,.64-.21,1.54,1.54,0,0,1,.33-.25s-.29.34-.37.46l.34-.23a1.1,1.1,0,0,1,0,.57.5.5,0,0,1-.28.35.5.5,0,0,0,.44-.44,2.07,2.07,0,0,1,.24-.7c.05,0,.2.5.19.61s-.17.51-.28.55a.73.73,0,0,0,.41-.45.43.43,0,0,1,0,.19,1.71,1.71,0,0,0,.2-.75c0-.37.05-.38.07-.17a1.06,1.06,0,0,0,.22.53s.11.07,0,.11a1.11,1.11,0,0,0-.31.33c-.1.15-.27.36-.32.45a2.41,2.41,0,0,0-.3.48,2.71,2.71,0,0,1-.26.43,3.2,3.2,0,0,1-.08.31l-.63.7a3.87,3.87,0,0,0-.59.92.87.87,0,0,0-.07.39.36.36,0,0,0,.16.36l.43.25c.14.08.55.25.55.25l.38.15a3,3,0,0,0,.11,1,1.64,1.64,0,0,1,0,1,3.6,3.6,0,0,0-.34.52.91.91,0,0,1-.14.33,2.64,2.64,0,0,0-.19.5,1.71,1.71,0,0,1-.13.34.63.63,0,0,0-.07.23,2,2,0,0,0-.14,1,6.38,6.38,0,0,0,.09.78s.06.17,0,.23-.15.14-.14.18,0,.06,0,.07a.09.09,0,0,0-.05.09c0,.05,0,.07,0,.12a1.07,1.07,0,0,0-.09.19l-.08.12a.91.91,0,0,1-.09.23c-.07.1-.11.37-.2.45a.48.48,0,0,0-.13.27,2.06,2.06,0,0,1-.15.46c-.06.07-.06.19-.12.3a1.09,1.09,0,0,1-.24.4,2.25,2.25,0,0,0-.57.43,4.64,4.64,0,0,1-.57.6,5.58,5.58,0,0,0-.72.6,6.42,6.42,0,0,1-.61.59c-.14.11-.67.67-.9.93s-.5.56-.64.71-.46.38-.49.59,0,.24-.07.23-.1,0-.11.06,0,.05,0,.06-.12,0-.16.06,0,.23,0,.22-.1,0-.1,0,0,.08,0,.09-.1,0-.13,0,0,0-.14,0a3,3,0,0,0-.75.09c-.18.07-.28.06-.29.37a13.53,13.53,0,0,0,.24,1.36,7.91,7.91,0,0,0,.45,2c.25.45.46.76.59.71a.3.3,0,0,0,.25-.29c0-.19-.1-.75-.09-1a1,1,0,0,1,.08-.35s.14.18.24.07a1.06,1.06,0,0,0,.16-.59c0-.22,0-.4,0-.44a1.54,1.54,0,0,1,.06-.33c0-.1,0-.18.1-.21a.32.32,0,0,0,.19-.17c0-.08,0-.19.11-.18s.12.2.24.07.33-.29.36-.34a2.05,2.05,0,0,0,.28-.49c0-.17.06-.22.14-.28s.45-.42.53-.46a2.24,2.24,0,0,0,.46-.36,9.24,9.24,0,0,1,1-.72,4.24,4.24,0,0,1,.84-.59,3.38,3.38,0,0,0,.65-.36,2.76,2.76,0,0,1,.5-.28,1.11,1.11,0,0,0,.64-.5c.27-.4.53-.86.85-1.39s.59-.87.84-1.31.37-.65.37-.65a9.11,9.11,0,0,1,.75.72,8.18,8.18,0,0,0,1,1.09,10,10,0,0,0,.94.65.39.39,0,0,1,0,.11c0,.05-.09.12,0,.19a.37.37,0,0,1,.06.25c0,.13-.08.22-.05.32s.06.09,0,.22a.53.53,0,0,0,0,.25,2.93,2.93,0,0,1,0,.42,7.63,7.63,0,0,0,.11,1.73,11.69,11.69,0,0,1,.12,1.64,7.54,7.54,0,0,1,.12.83c0,.13,0,.25,0,.3s.12,0,.11.17,0,.22,0,.24,0,0,0,.08,0,.12,0,.17-.1.19-.09.5,0,.73.36.78a6.13,6.13,0,0,0,1.27-.07,5.09,5.09,0,0,0,1.94-.32c.61-.33,1-.57.95-.85m-15.91.09c-.08,0-.19,0-.11-.15a1.37,1.37,0,0,1,.19-.28s0,.38-.08.43m7.6-24.48a1.81,1.81,0,0,1-.49.31.39.39,0,0,1,.22-.4l.44-.28a.89.89,0,0,1-.17.37m.37-1.45c-.22.09-.51.06-.68.14,0,0,.29-.2.55-.42a.5.5,0,0,1,.57,0,1.58,1.58,0,0,1-.44.32m.89,3.12a1.32,1.32,0,0,1-.33.47s0-.25.06-.45a1.24,1.24,0,0,0-.12-.6c-.1-.23,0-.25,0-.43s.05-.15.16.12a2.27,2.27,0,0,0,.35.5s0,.11-.08.39m5.34,22.35c-.13,0-.21,0-.31-.13s.45.08.31.13"/><path class="cls-5" d="M18.88,45.12a2.71,2.71,0,0,1-.95-.45l.42-.93a2.73,2.73,0,0,0,.82.4,2.92,2.92,0,0,0,.95.16,1.58,1.58,0,0,0,.79-.16.48.48,0,0,0,.25-.42A.41.41,0,0,0,21,43.4a1.24,1.24,0,0,0-.38-.2c-.16-.05-.37-.11-.64-.17s-.74-.2-1-.29a1.67,1.67,0,0,1-.67-.47,1.25,1.25,0,0,1-.28-.86,1.49,1.49,0,0,1,.25-.85,1.73,1.73,0,0,1,.76-.6,3.1,3.1,0,0,1,1.25-.23,3.83,3.83,0,0,1,1,.13,3,3,0,0,1,.86.35l-.39.94a3,3,0,0,0-1.49-.42,1.44,1.44,0,0,0-.77.17.53.53,0,0,0-.25.45.44.44,0,0,0,.29.41,4.15,4.15,0,0,0,.88.26,9.21,9.21,0,0,1,1,.3,1.61,1.61,0,0,1,.67.46,1.21,1.21,0,0,1,.28.85,1.46,1.46,0,0,1-.26.84,1.76,1.76,0,0,1-.77.6,3.1,3.1,0,0,1-1.25.23,4.28,4.28,0,0,1-1.24-.18"/><polygon class="cls-5" points="28.14 45.2 28.14 41.98 26.55 44.63 25.99 44.63 24.42 42.05 24.42 45.2 23.25 45.2 23.25 39.83 24.28 39.83 26.29 43.17 28.28 39.83 29.3 39.83 29.31 45.2 28.14 45.2"/><path class="cls-5" d="M31.68,44.93a2.64,2.64,0,0,1-1.05-1,2.76,2.76,0,0,1,1.05-3.85,3.35,3.35,0,0,1,3,0,2.88,2.88,0,0,1,1,1,2.86,2.86,0,0,1,0,2.85,2.78,2.78,0,0,1-1,1,3.27,3.27,0,0,1-3,0M34.05,44a1.62,1.62,0,0,0,.61-.61,1.9,1.9,0,0,0,.21-.9,1.86,1.86,0,0,0-.21-.89,1.62,1.62,0,0,0-.61-.61,1.74,1.74,0,0,0-.86-.22,1.77,1.77,0,0,0-.86.22,1.6,1.6,0,0,0-.6.61,1.75,1.75,0,0,0-.22.89,1.79,1.79,0,0,0,.22.9,1.6,1.6,0,0,0,.6.61,1.77,1.77,0,0,0,.86.22,1.74,1.74,0,0,0,.86-.22"/><path class="cls-5" d="M38.16,44.94a2.75,2.75,0,0,1,0-4.85,3.07,3.07,0,0,1,1.49-.36,3.23,3.23,0,0,1,1.27.25,2.56,2.56,0,0,1,.95.71l-.8.73a1.74,1.74,0,0,0-1.36-.63,1.89,1.89,0,0,0-.89.22,1.62,1.62,0,0,0-.61.61,1.86,1.86,0,0,0-.22.89,1.9,1.9,0,0,0,.22.9,1.62,1.62,0,0,0,.61.61,1.89,1.89,0,0,0,.89.22,1.75,1.75,0,0,0,1.36-.64l.8.74a2.51,2.51,0,0,1-1,.71,3.22,3.22,0,0,1-1.26.25,3.07,3.07,0,0,1-1.49-.36"/><rect class="cls-9" x="19.93" y="28.55" width="2" height="6.88"/><rect class="cls-9" x="17.5" y="30.99" width="6.88" height="2"/></g></g></g></g></g></g></g></svg>