<svg xmlns="http://www.w3.org/2000/svg" xmlns:xlink="http://www.w3.org/1999/xlink" viewBox="0 0 362.72 251.25" preserveAspectRatio="none"><defs><style>.cls-1{fill:none;}.cls-2{isolation:isolate;}.cls-3{clip-path:url(#clip-path);}.cls-4{opacity:0.19;}.cls-105,.cls-37,.cls-4,.cls-84{mix-blend-mode:multiply;}.cls-5{clip-path:url(#clip-path-4);}.cls-6{fill:#6165d7;}.cls-7{clip-path:url(#clip-path-5);}.cls-8{clip-path:url(#clip-path-6);}.cls-9{clip-path:url(#clip-path-7);}.cls-10{clip-path:url(#clip-path-8);}.cls-11{clip-path:url(#clip-path-9);}.cls-12{clip-path:url(#clip-path-10);}.cls-13{fill:url(#linear-gradient);}.cls-14{clip-path:url(#clip-path-11);}.cls-15{fill:url(#linear-gradient-2);}.cls-16{clip-path:url(#clip-path-12);}.cls-17{fill:url(#linear-gradient-3);}.cls-18{clip-path:url(#clip-path-13);}.cls-19{fill:url(#linear-gradient-4);}.cls-20{clip-path:url(#clip-path-14);}.cls-21{fill:url(#linear-gradient-5);}.cls-22{clip-path:url(#clip-path-15);}.cls-23{fill:url(#linear-gradient-6);}.cls-24{clip-path:url(#clip-path-16);}.cls-25{fill:url(#linear-gradient-7);}.cls-26{clip-path:url(#clip-path-17);}.cls-27{fill:url(#linear-gradient-8);}.cls-28{clip-path:url(#clip-path-18);}.cls-29{fill:url(#linear-gradient-9);}.cls-30{clip-path:url(#clip-path-19);}.cls-31{fill:url(#linear-gradient-10);}.cls-32{clip-path:url(#clip-path-20);}.cls-33{fill:url(#linear-gradient-11);}.cls-34{opacity:0.5;}.cls-252,.cls-34{mix-blend-mode:soft-light;}.cls-35{clip-path:url(#clip-path-22);}.cls-36{fill:#fff;}.cls-252,.cls-37{opacity:0.3;}.cls-38{clip-path:url(#clip-path-23);}.cls-39{clip-path:url(#clip-path-24);}.cls-40{fill:url(#linear-gradient-12);}.cls-41{clip-path:url(#clip-path-25);}.cls-42{fill:url(#linear-gradient-13);}.cls-43{clip-path:url(#clip-path-26);}.cls-44{fill:url(#linear-gradient-14);}.cls-45{opacity:0.16;mix-blend-mode:screen;}.cls-46{clip-path:url(#clip-path-28);}.cls-47{clip-path:url(#clip-path-29);}.cls-48{fill:url(#linear-gradient-15);}.cls-49{clip-path:url(#clip-path-31);}.cls-50{clip-path:url(#clip-path-32);}.cls-51{fill:url(#linear-gradient-16);}.cls-52{fill:#d8dee8;}.cls-53{opacity:0.74;}.cls-54{clip-path:url(#clip-path-34);}.cls-55{clip-path:url(#clip-path-35);}.cls-56{fill:url(#linear-gradient-17);}.cls-57{opacity:0.31;}.cls-58{clip-path:url(#clip-path-37);}.cls-59{clip-path:url(#clip-path-38);}.cls-60{fill:url(#linear-gradient-18);}.cls-61{clip-path:url(#clip-path-39);}.cls-62{clip-path:url(#clip-path-40);}.cls-63{fill:url(#linear-gradient-19);}.cls-64{clip-path:url(#clip-path-41);}.cls-65{fill:url(#linear-gradient-20);}.cls-66{clip-path:url(#clip-path-43);}.cls-67{clip-path:url(#clip-path-44);}.cls-68{fill:url(#linear-gradient-21);}.cls-69{clip-path:url(#clip-path-45);}.cls-70{clip-path:url(#clip-path-46);}.cls-71{fill:url(#linear-gradient-22);}.cls-72{clip-path:url(#clip-path-47);}.cls-73{fill:url(#linear-gradient-23);}.cls-74{clip-path:url(#clip-path-49);}.cls-75{clip-path:url(#clip-path-50);}.cls-76{fill:url(#linear-gradient-24);}.cls-77{clip-path:url(#clip-path-51);}.cls-78{clip-path:url(#clip-path-52);}.cls-79{fill:url(#linear-gradient-25);}.cls-80{clip-path:url(#clip-path-53);}.cls-81{fill:url(#linear-gradient-26);}.cls-82{clip-path:url(#clip-path-54);}.cls-83{fill:url(#linear-gradient-27);}.cls-84{opacity:0.15;}.cls-85{clip-path:url(#clip-path-56);}.cls-86{clip-path:url(#clip-path-57);}.cls-87{fill:url(#linear-gradient-28);}.cls-88{clip-path:url(#clip-path-58);}.cls-89{fill:url(#linear-gradient-29);}.cls-90{clip-path:url(#clip-path-59);}.cls-91{fill:url(#linear-gradient-30);}.cls-92{clip-path:url(#clip-path-60);}.cls-93{fill:url(#linear-gradient-31);}.cls-94{clip-path:url(#clip-path-61);}.cls-95{fill:url(#linear-gradient-32);}.cls-96{clip-path:url(#clip-path-62);}.cls-97{fill:url(#linear-gradient-33);}.cls-98{clip-path:url(#clip-path-63);}.cls-99{fill:url(#linear-gradient-34);}.cls-100{clip-path:url(#clip-path-64);}.cls-101{fill:url(#linear-gradient-35);}.cls-102{clip-path:url(#clip-path-66);}.cls-103{clip-path:url(#clip-path-67);}.cls-104{fill:url(#linear-gradient-36);}.cls-105{opacity:0.64;}.cls-106{clip-path:url(#clip-path-68);}.cls-107{clip-path:url(#clip-path-70);}.cls-108{fill:url(#linear-gradient-37);}.cls-109{clip-path:url(#clip-path-71);}.cls-110{fill:url(#linear-gradient-38);}.cls-111{clip-path:url(#clip-path-72);}.cls-112{fill:url(#linear-gradient-39);}.cls-113{clip-path:url(#clip-path-73);}.cls-114{fill:url(#linear-gradient-40);}.cls-115{clip-path:url(#clip-path-74);}.cls-116{fill:url(#linear-gradient-41);}.cls-117{clip-path:url(#clip-path-75);}.cls-118{fill:url(#linear-gradient-42);}.cls-119{clip-path:url(#clip-path-77);}.cls-120{fill:url(#linear-gradient-43);}.cls-121{clip-path:url(#clip-path-78);}.cls-122{fill:url(#linear-gradient-44);}.cls-123{clip-path:url(#clip-path-80);}.cls-124{clip-path:url(#clip-path-81);}.cls-125{fill:url(#linear-gradient-45);}.cls-126{clip-path:url(#clip-path-82);}.cls-127{clip-path:url(#clip-path-83);}.cls-128{fill:url(#linear-gradient-46);}.cls-129{clip-path:url(#clip-path-84);}.cls-130{fill:url(#linear-gradient-47);}.cls-131{clip-path:url(#clip-path-85);}.cls-132{fill:url(#linear-gradient-48);}.cls-133{clip-path:url(#clip-path-86);}.cls-134{fill:url(#linear-gradient-49);}.cls-135{clip-path:url(#clip-path-88);}.cls-136{fill:url(#linear-gradient-50);}.cls-137{clip-path:url(#clip-path-90);}.cls-138{fill:url(#linear-gradient-51);}.cls-139{clip-path:url(#clip-path-91);}.cls-140{fill:url(#linear-gradient-52);}.cls-141{fill:#a2a7ae;}.cls-142{clip-path:url(#clip-path-93);}.cls-143{fill:url(#linear-gradient-53);}.cls-144{clip-path:url(#clip-path-94);}.cls-145{fill:url(#linear-gradient-54);}.cls-146{clip-path:url(#clip-path-96);}.cls-147{fill:url(#linear-gradient-55);}.cls-148{clip-path:url(#clip-path-97);}.cls-149{fill:url(#linear-gradient-56);}.cls-150{clip-path:url(#clip-path-98);}.cls-151{fill:url(#linear-gradient-57);}.cls-152{clip-path:url(#clip-path-99);}.cls-153{fill:url(#linear-gradient-58);}.cls-154{clip-path:url(#clip-path-100);}.cls-155{fill:url(#linear-gradient-59);}.cls-156{clip-path:url(#clip-path-101);}.cls-157{fill:url(#linear-gradient-60);}.cls-158{clip-path:url(#clip-path-103);}.cls-159{clip-path:url(#clip-path-104);}.cls-160{fill:url(#linear-gradient-61);}.cls-161{clip-path:url(#clip-path-105);}.cls-162{fill:url(#linear-gradient-62);}.cls-163{clip-path:url(#clip-path-107);}.cls-164{fill:url(#linear-gradient-63);}.cls-165{clip-path:url(#clip-path-108);}.cls-166{fill:url(#linear-gradient-64);}.cls-167{clip-path:url(#clip-path-110);}.cls-168{clip-path:url(#clip-path-111);}.cls-169{fill:url(#linear-gradient-65);}.cls-170{clip-path:url(#clip-path-112);}.cls-171{fill:url(#linear-gradient-66);}.cls-172{clip-path:url(#clip-path-113);}.cls-173{fill:url(#linear-gradient-67);}.cls-174{clip-path:url(#clip-path-115);}.cls-175{clip-path:url(#clip-path-116);}.cls-176{fill:url(#linear-gradient-68);}.cls-177{clip-path:url(#clip-path-117);}.cls-178{fill:url(#linear-gradient-69);}.cls-179{fill:#fafbfc;}.cls-180{clip-path:url(#clip-path-119);}.cls-181{fill:url(#linear-gradient-70);}.cls-182{clip-path:url(#clip-path-121);}.cls-183{fill:url(#linear-gradient-71);}.cls-184{clip-path:url(#clip-path-122);}.cls-185{fill:url(#linear-gradient-72);}.cls-186{clip-path:url(#clip-path-123);}.cls-187{fill:url(#linear-gradient-73);}.cls-188{clip-path:url(#clip-path-124);}.cls-189{fill:url(#linear-gradient-74);}.cls-190{clip-path:url(#clip-path-125);}.cls-191{fill:url(#linear-gradient-75);}.cls-192{clip-path:url(#clip-path-127);}.cls-193{clip-path:url(#clip-path-128);}.cls-194{fill:url(#linear-gradient-76);}.cls-195{clip-path:url(#clip-path-129);}.cls-196{fill:url(#linear-gradient-77);}.cls-197{clip-path:url(#clip-path-130);}.cls-198{fill:url(#linear-gradient-78);}.cls-199{clip-path:url(#clip-path-131);}.cls-200{fill:url(#linear-gradient-79);}.cls-201{clip-path:url(#clip-path-132);}.cls-202{fill:url(#linear-gradient-80);}.cls-203{clip-path:url(#clip-path-133);}.cls-204{fill:url(#linear-gradient-81);}.cls-205{clip-path:url(#clip-path-134);}.cls-206{fill:url(#linear-gradient-82);}.cls-207{clip-path:url(#clip-path-136);}.cls-208{clip-path:url(#clip-path-137);}.cls-209{fill:url(#linear-gradient-83);}.cls-210{clip-path:url(#clip-path-138);}.cls-211{fill:url(#linear-gradient-84);}.cls-212{clip-path:url(#clip-path-139);}.cls-213{fill:url(#linear-gradient-85);}.cls-214{clip-path:url(#clip-path-140);}.cls-215{fill:url(#linear-gradient-86);}.cls-216{fill:#c0c6ce;}.cls-217{clip-path:url(#clip-path-142);}.cls-218{fill:url(#linear-gradient-87);}.cls-219{clip-path:url(#clip-path-143);}.cls-220{fill:url(#linear-gradient-88);}.cls-221{clip-path:url(#clip-path-144);}.cls-222{fill:url(#linear-gradient-89);}.cls-223{clip-path:url(#clip-path-145);}.cls-224{fill:url(#linear-gradient-90);}.cls-225{clip-path:url(#clip-path-146);}.cls-226{fill:url(#linear-gradient-91);}.cls-227{clip-path:url(#clip-path-147);}.cls-228{fill:url(#linear-gradient-92);}.cls-229{clip-path:url(#clip-path-149);}.cls-230{clip-path:url(#clip-path-150);}.cls-231{fill:url(#linear-gradient-93);}.cls-232{clip-path:url(#clip-path-151);}.cls-233{fill:url(#linear-gradient-94);}.cls-234{clip-path:url(#clip-path-152);}.cls-235{fill:url(#linear-gradient-95);}.cls-236{clip-path:url(#clip-path-153);}.cls-237{fill:url(#linear-gradient-96);}.cls-238{clip-path:url(#clip-path-154);}.cls-239{fill:url(#linear-gradient-97);}.cls-240{clip-path:url(#clip-path-155);}.cls-241{fill:url(#linear-gradient-98);}.cls-242{clip-path:url(#clip-path-157);}.cls-243{fill:url(#linear-gradient-99);}.cls-244{clip-path:url(#clip-path-159);}.cls-245{fill:url(#linear-gradient-100);}.cls-246{clip-path:url(#clip-path-160);}.cls-247{fill:url(#linear-gradient-101);}.cls-248{clip-path:url(#clip-path-161);}.cls-249{fill:url(#linear-gradient-102);}.cls-250{clip-path:url(#clip-path-162);}.cls-251{fill:url(#linear-gradient-103);}.cls-253{clip-path:url(#clip-path-164);}.cls-254{fill:#f4f7fa;}.cls-255{clip-path:url(#clip-path-165);}.cls-256{clip-path:url(#clip-path-166);}</style><clipPath id="clip-path" transform="translate(-102.01 -47.54)"><rect class="cls-1" width="565.67" height="349.33"/></clipPath><clipPath id="clip-path-4" transform="translate(-102.01 -47.54)"><rect class="cls-1" x="125" y="198.03" width="339.73" height="92.3"/></clipPath><clipPath id="clip-path-5" transform="translate(-102.01 -47.54)"><rect class="cls-1" x="197.23" y="218.09" width="70.56" height="22.13"/></clipPath><clipPath id="clip-path-6" transform="translate(-102.01 -47.54)"><rect class="cls-1" x="351.35" y="202.76" width="101.92" height="19.54"/></clipPath><clipPath id="clip-path-7" transform="translate(-102.01 -47.54)"><rect class="cls-1" x="350.92" y="234.6" width="25.4" height="9.22"/></clipPath><clipPath id="clip-path-8" transform="translate(-102.01 -47.54)"><rect class="cls-1" x="239.89" y="265.57" width="65.52" height="19.11"/></clipPath><clipPath id="clip-path-9" transform="translate(-102.01 -47.54)"><rect class="cls-1" x="162.27" y="210.05" width="56.68" height="30.09"/></clipPath><clipPath id="clip-path-10" transform="translate(-102.01 -47.54)"><path class="cls-1" d="M437.66,187.62l-56.05,1.74,2.3,27.41L438.36,212c6.21-.61,10.46-5.77,10.46-12.56v-.07c0-6.6-4.67-11.77-10.64-11.77l-.52,0"/></clipPath><linearGradient id="linear-gradient" x1="-247.82" y1="-141.41" x2="-247.66" y2="-141.41" gradientTransform="translate(7854.62 -71731.12) rotate(-113.73) scale(253.41)" gradientUnits="userSpaceOnUse"><stop offset="0" stop-color="#aa80f9"/><stop offset="1" stop-color="#6165d7"/><stop offset="1" stop-color="#6165d7"/></linearGradient><clipPath id="clip-path-11" transform="translate(-102.01 -47.54)"><path class="cls-1" d="M286.84,209.13l95.54,6.33a9.65,9.65,0,0,0,10.3-9.86v-3.95a11,11,0,0,0-10.3-11l-95.54-4.38Z"/></clipPath><linearGradient id="linear-gradient-2" x1="-244.51" y1="-133.41" x2="-244.37" y2="-133.41" gradientTransform="translate(-175383.59 -95694.89) rotate(180) scale(718.46)" gradientUnits="userSpaceOnUse"><stop offset="0" stop-color="#ff9085"/><stop offset="1" stop-color="#fb6fbb"/></linearGradient><clipPath id="clip-path-12" transform="translate(-102.01 -47.54)"><path class="cls-1" d="M284.87,186.23a1.23,1.23,0,0,0,1.1,1.27L381.61,192a11.64,11.64,0,0,1,10.84,11.6v.09a10.17,10.17,0,0,1-10.84,10.39L286,207.85a1.08,1.08,0,0,0-1.1,1.15,1.26,1.26,0,0,0,1.1,1.29l95.64,6.44a12.62,12.62,0,0,0,13.48-12.88v-.09a14.44,14.44,0,0,0-13.48-14.4L286,185.06h-.05a1.11,1.11,0,0,0-1.05,1.17"/></clipPath><linearGradient id="linear-gradient-3" x1="-244.61" y1="-133.34" x2="-244.46" y2="-133.34" gradientTransform="translate(-182724.67 -99611.29) rotate(180) scale(748.21)" xlink:href="#linear-gradient"/><clipPath id="clip-path-13" transform="translate(-102.01 -47.54)"><path class="cls-1" d="M383.21,189.28l54.45-1.66c6.21-.31,11.16-8.85,11.16-19v-.11c0-10.19-4.95-18.59-11.16-18.73l-58.26-2.17Z"/></clipPath><linearGradient id="linear-gradient-4" x1="-245.75" y1="-127.43" x2="-245.58" y2="-127.43" gradientTransform="translate(-30052.43 158102.73) rotate(73.47) scale(581.26)" gradientUnits="userSpaceOnUse"><stop offset="0" stop-color="#ffc444"/><stop offset="1" stop-color="#f36f56"/><stop offset="1" stop-color="#f36f56"/></linearGradient><clipPath id="clip-path-14" transform="translate(-102.01 -47.54)"><path class="cls-1" d="M286.84,183.27l90.43,3.91A14.86,14.86,0,0,0,392.68,172v-5.93a15.9,15.9,0,0,0-15.41-16l-90.43-1.15Z"/></clipPath><linearGradient id="linear-gradient-5" x1="-244.51" y1="-133.64" x2="-244.37" y2="-133.64" gradientTransform="translate(-175383.59 -95897.78) rotate(180) scale(718.46)" xlink:href="#linear-gradient-2"/><clipPath id="clip-path-15" transform="translate(-102.01 -47.54)"><path class="cls-1" d="M284.87,149c0,1,.49,1.83,1.1,1.84l95.64,1.39c6,.08,10.84,7.63,10.84,16.82v.12c0,9.19-4.88,16.46-10.84,16.21l-95.64-4c-.61,0-1.1.77-1.1,1.78s.49,1.85,1.1,1.88l95.64,4.3c7.4.33,13.48-8.69,13.48-20.11v-.13c0-11.42-6.08-20.78-13.48-20.87L286,147.18h0c-.6,0-1.09.81-1.09,1.82"/></clipPath><linearGradient id="linear-gradient-6" x1="-244.61" y1="-133.56" x2="-244.46" y2="-133.56" gradientTransform="translate(-182724.67 -99813.11) rotate(180) scale(748.21)" xlink:href="#linear-gradient-4"/><clipPath id="clip-path-16" transform="translate(-102.01 -47.54)"><path class="cls-1" d="M386.48,147.25l51.83,1.28c4.76.12,8.56-4,8.56-9.24v-3.55c0-5.22-3.8-9.72-8.56-10l-51.83-3.56Z"/></clipPath><linearGradient id="linear-gradient-7" x1="-241.63" y1="-135.55" x2="-241.48" y2="-135.55" gradientTransform="translate(-98724.33 -55486.72) rotate(180) scale(410.01)" xlink:href="#linear-gradient-2"/><clipPath id="clip-path-17" transform="translate(-102.01 -47.54)"><path class="cls-1" d="M384.07,122.06c0,.75,8.34,1.31,9.1,1.36L437.66,127c5,.33,9,5.06,9,10.56v.07c0,5.49-4,9.85-9,9.72l-43.89-1.58c-.77,0-9.7.73-9.7,1.47s8.93,1.18,9.7,1.2l43.89,1.35c6.21.14,11.16-5.27,11.16-12.06v-.08c0-6.78-4.95-12.65-11.16-13.09l-43.89-3.77h-.13c-1.33,0-9.57.61-9.57,1.32"/></clipPath><linearGradient id="linear-gradient-8" x1="-234.14" y1="-140.35" x2="-234" y2="-140.35" gradientTransform="matrix(-180.45, 1.97, -1.97, -180.45, -42179.72, -24777.53)" xlink:href="#linear-gradient"/><clipPath id="clip-path-18" transform="translate(-102.01 -47.54)"><polygon class="cls-1" points="286.84 123.08 286.84 145.97 392.68 147.04 392.68 122 286.84 123.08"/></clipPath><linearGradient id="linear-gradient-9" x1="-244.51" y1="-133.89" x2="-244.37" y2="-133.89" gradientTransform="translate(-175383.59 -96105.1) rotate(180) scale(718.46)" xlink:href="#linear-gradient-2"/><clipPath id="clip-path-19" transform="translate(-102.01 -47.54)"><path class="cls-1" d="M393.77,120.74,286,122a1.18,1.18,0,0,0-1.1,1.23,1.16,1.16,0,0,0,1.1,1.21l107.8-1a1.34,1.34,0,0,0,1.32-1.35,1.31,1.31,0,0,0-1.31-1.32h0"/></clipPath><linearGradient id="linear-gradient-10" x1="-244.61" y1="-133.88" x2="-244.46" y2="-133.88" gradientTransform="translate(-182724.67 -100095.74) rotate(180) scale(748.21)" xlink:href="#linear-gradient"/><clipPath id="clip-path-20" transform="translate(-102.01 -47.54)"><path class="cls-1" d="M284.87,146a1.18,1.18,0,0,0,1.1,1.23l107.8,1.21a1.31,1.31,0,0,0,1.32-1.32,1.34,1.34,0,0,0-1.32-1.35l-107.8-1h0a1.15,1.15,0,0,0-1.09,1.21"/></clipPath><linearGradient id="linear-gradient-11" x1="-244.61" y1="-133.71" x2="-244.46" y2="-133.71" gradientTransform="translate(-182724.67 -99947.34) rotate(180) scale(748.21)" xlink:href="#linear-gradient"/><clipPath id="clip-path-22" transform="translate(-102.01 -47.54)"><rect class="cls-1" x="397.8" y="155.45" width="13.59" height="28.19"/></clipPath><clipPath id="clip-path-23" transform="translate(-102.01 -47.54)"><rect class="cls-1" x="421.79" y="133.69" width="19.74" height="27.77"/></clipPath><clipPath id="clip-path-24" transform="translate(-102.01 -47.54)"><path class="cls-1" d="M421.79,149.54l.37-15.85,13.29,16.06s7.18,4.25,5.94,11.71l-8.21-3.59-7.29,2.77s-.19-7.83-4.1-11.1"/></clipPath><linearGradient id="linear-gradient-12" x1="-287.93" y1="-148.21" x2="-287.76" y2="-148.21" gradientTransform="matrix(34.22, -50.66, 50.66, 34.22, 17685.94, -9407.76)" xlink:href="#linear-gradient-4"/><clipPath id="clip-path-25" transform="translate(-102.01 -47.54)"><path class="cls-1" d="M425.89,160.64s6.31-2.2,9.06-6l6.44,6.79s3.94-18.81-4.45-26.78l-14.78-1s6.95,5.8,3.73,26.95"/></clipPath><linearGradient id="linear-gradient-13" x1="-276.23" y1="-143.37" x2="-276.06" y2="-143.37" gradientTransform="matrix(48.32, -71.54, 71.54, 48.32, 23930.04, -12726.76)" xlink:href="#linear-gradient"/><clipPath id="clip-path-26" transform="translate(-102.01 -47.54)"><path class="cls-1" d="M145.38,86.48c-4.23,4.19-9.34,12.35-7.67,20,1.21,5.58,5,6.17,5,11.1s-3.74,5.85-6.62,13.45c-1.15,3-3.46,9.14-1.77,15.08,2.18,7.68,9.07,8.15,9.38,14.25.23,4.41-3.3,5.61-4,10.53-.92,6.48,4.07,12.31,8.28,17.09,5,5.64,18.33,20.85,36.38,18.35,3.34-.46,9-1.23,13.68-5.9,8.59-8.48,8.64-24.32,5.24-35-2.92-9.21-9.91-16.15-23.88-30-13.16-13.08-18-15.22-18.29-21.74-.39-9.3,9.08-14.36,7.14-25.13-.23-1.29-1-5.73-4.25-8a7.53,7.53,0,0,0-4.41-1.3c-5,0-10.88,3.89-14.21,7.2"/></clipPath><linearGradient id="linear-gradient-14" x1="-247.64" y1="-134.67" x2="-247.49" y2="-134.67" gradientTransform="matrix(543.83, 114.89, 114.89, -543.83, 150176.14, -44697.22)" xlink:href="#linear-gradient"/><clipPath id="clip-path-28" transform="translate(-102.01 -47.54)"><rect class="cls-1" x="137.24" y="82.05" width="61.18" height="122.79"/></clipPath><clipPath id="clip-path-29" transform="translate(-102.01 -47.54)"><path class="cls-1" d="M115.33,153c-.43.89-2.79,5.89-1.82,10.24,1.53,6.82,10,6.47,9.67,10.58-.2,2.54-3.49,3.3-4.1,6.93-.42,2.48.72,4.4,2.74,7.81,2.22,3.74,3.33,5.61,5.4,6.41a7.52,7.52,0,0,0,4.84,0c1.63-.43,2.91-.86,3.61.34s-.19,2.51.31,4.74c.87,3.85,4.69,4.89,6.57,5.4a9.33,9.33,0,0,0,5.44,0,7.33,7.33,0,0,1,4.56-.08c4.39,1.35,4.3,4.88,8.52,5.78,3.45.75,6.58-1,8.31-1.92,8.65-4.73,15-16.91,13.74-19.37-.4-.8-1.46-.28-2.89.25a6.69,6.69,0,0,1-5.73,0c-2.28-1.21-2.21-3.05-5-4.4a5.69,5.69,0,0,0-3.46-.57,2.89,2.89,0,0,1-2.36-.47c-2.78-2.1-.81-7-3.58-14.26-.73-1.93-2.15-5.57-5.24-7.59-2.4-1.56-3.76-.82-5.81-1.52-5.93-2-4.52-11.47-9.4-16.2a10.51,10.51,0,0,0-7.45-2.73A19.84,19.84,0,0,0,115.33,153"/></clipPath><linearGradient id="linear-gradient-15" x1="-247.92" y1="-129.08" x2="-247.77" y2="-129.08" gradientTransform="translate(125742.35 95621.48) rotate(9.72) scale(564.77)" gradientUnits="userSpaceOnUse"><stop offset="0" stop-color="#e38ddd"/><stop offset="0" stop-color="#e38ddd"/><stop offset="1" stop-color="#9571f6"/></linearGradient><clipPath id="clip-path-31" transform="translate(-102.01 -47.54)"><rect class="cls-1" x="121.13" y="144.81" width="58.56" height="56.65"/></clipPath><clipPath id="clip-path-32" transform="translate(-102.01 -47.54)"><path class="cls-1" d="M351.57,79.64,177.34,89.86a2.56,2.56,0,0,0-2.21,2.7l1,117.2a2.58,2.58,0,0,0,2.25,2.68l173,9.11c1.61.07,6-1.06,6-3.8L356.24,83.12c0-1.6-2.92-3.48-4.56-3.48h-.11"/></clipPath><linearGradient id="linear-gradient-16" x1="-245.86" y1="-132.89" x2="-245.71" y2="-132.89" gradientTransform="translate(-303956.16 -164323.2) rotate(180) scale(1237.33)" gradientUnits="userSpaceOnUse"><stop offset="0" stop-color="#444b8c"/><stop offset="1" stop-color="#26264f"/><stop offset="1" stop-color="#26264f"/></linearGradient><clipPath id="clip-path-34" transform="translate(-102.01 -47.54)"><rect class="cls-1" x="173.79" y="88.08" width="170.35" height="123.55"/></clipPath><clipPath id="clip-path-35" transform="translate(-102.01 -47.54)"><path class="cls-1" d="M289.63,127.09l5.73,2.89s-3.88,8.74-5.61,10.16a74.4,74.4,0,0,1-.12-13M274,103.24l-.25,2.5L272,108.09l1.25.63.13,4.29c3.81.36,2.53,2.7,2.53,2.7-2.62,2.42-3.25,6.88-3.25,6.88-2,1.81-2.45,6-2.45,6a22.6,22.6,0,0,1-3.69-5.73l1.13-3.35s-1-2.88-2.15-2.51-3.67,3.38-3.66,4.66,1.78,2.7,1.78,2.7c1.33,7.27,4.88,11.21,6.13,12.41a.88.88,0,0,0,1,.15,15.38,15.38,0,0,0,3.5-3.26c0,1.87,1,4,2.4,7.43s1.34,9,1.34,9c-6.79,4.14-14,16.07-15.09,18a1.41,1.41,0,0,0-.18.57c-.25,2.56-2,20.43-3.52,25.26-1.37,4.39-8.41,4.68-10.54,4.66a1,1,0,0,0-.89.59,1.21,1.21,0,0,0,.29,1.38c2.8,2.53,10.52,2.94,14.1,3a1.9,1.9,0,0,0,1.88-1.94c.05-2.2-.48-5.09.42-8.1a78.39,78.39,0,0,1,3.63-9.54,15,15,0,0,0,1.45-6.66l-.05-6.22A37.35,37.35,0,0,0,279,165.7l4.57-3.54c2.28,8,10.15,15,12.44,16.94a1.76,1.76,0,0,0,1.38.4c4-.59,22.8-3.35,28.32-3.27,6.25.1,11.32,3.82,11.61,4s2.12.54,1.66-1.87-3-4.35-3-4.35l-5.58-2.75-3.49-3a2.1,2.1,0,0,0-3,.16l-2.34,2.59L307,169.5,301.65,171a1.83,1.83,0,0,1-2.21-1.27l-1.56-5s-2.59-5.5-3.67-7.59c-.63-1.23-.54-3.7-.36-5.53a7,7,0,0,0-.79-4c-1-1.79-1.95-4.46,0-5.53,2.48-1.36,7.4-9.56,9.21-12.67a2.15,2.15,0,0,0-.15-2.39c-3.31-4.16-10.44-8.34-13.13-10.12-2.94-1.94-3.25-.1-4.77-2.18s-.86-5.84-.86-5.84,6.34-4.87.56-8.79a6.23,6.23,0,0,0-3.5-1.17c-3.85,0-6.4,4.26-6.4,4.26"/></clipPath><linearGradient id="linear-gradient-17" x1="-246.68" y1="-129.85" x2="-246.52" y2="-129.85" gradientTransform="matrix(637.42, 868.52, -822.98, 671.28, 50510.84, 301446.27)" xlink:href="#linear-gradient"/><clipPath id="clip-path-37" transform="translate(-102.01 -47.54)"><rect class="cls-1" x="250.12" y="152.91" width="25.59" height="27.56"/></clipPath><clipPath id="clip-path-38" transform="translate(-102.01 -47.54)"><path class="cls-1" d="M250.12,166.59c.06,7.53,5.76,13.75,12.79,13.88s12.87-6,12.8-13.68-5.93-13.9-13-13.88-12.62,6.14-12.55,13.68"/></clipPath><linearGradient id="linear-gradient-18" x1="-246.65" y1="-130.51" x2="-246.49" y2="-130.51" gradientTransform="matrix(918.56, 1354.51, -1283.56, 967.25, 59129.92, 460330.93)" xlink:href="#linear-gradient-2"/><clipPath id="clip-path-39" transform="translate(-102.01 -47.54)"><rect class="cls-1" x="255.67" y="158.98" width="14.31" height="15.41"/></clipPath><clipPath id="clip-path-40" transform="translate(-102.01 -47.54)"><path class="cls-1" d="M255.67,166.63c0,4.23,3.25,7.71,7.19,7.76a7.3,7.3,0,0,0,7.13-7.65,7.59,7.59,0,0,0-7.27-7.76,7.31,7.31,0,0,0-7.05,7.65"/></clipPath><linearGradient id="linear-gradient-19" x1="-246.47" y1="-129.6" x2="-246.31" y2="-129.6" gradientTransform="matrix(513.68, 757.47, -717.8, 540.91, 33698.99, 256851.26)" xlink:href="#linear-gradient-2"/><clipPath id="clip-path-41" transform="translate(-102.01 -47.54)"><path class="cls-1" d="M260.58,166.67a2.35,2.35,0,0,0,2.23,2.4,2.27,2.27,0,0,0,2.2-2.37,2.35,2.35,0,0,0-2.24-2.39h0a2.25,2.25,0,0,0-2.18,2.36"/></clipPath><linearGradient id="linear-gradient-20" x1="-245.56" y1="-124.98" x2="-245.4" y2="-124.98" gradientTransform="matrix(158.75, 234.09, -221.83, 167.16, 11405.46, 78472.63)" xlink:href="#linear-gradient-2"/><clipPath id="clip-path-43" transform="translate(-102.01 -47.54)"><rect class="cls-1" x="285.71" y="113.25" width="27.02" height="28.33"/></clipPath><clipPath id="clip-path-44" transform="translate(-102.01 -47.54)"><path class="cls-1" d="M285.71,127.7c.06,7.74,6.07,14,13.49,13.87s13.59-6.55,13.53-14.44S306.46,113,299,113.25s-13.32,6.7-13.25,14.45"/></clipPath><linearGradient id="linear-gradient-21" x1="-246.64" y1="-130.36" x2="-246.47" y2="-130.36" gradientTransform="matrix(940.98, 1387.57, -1314.89, 990.86, 60784.57, 471355.87)" xlink:href="#linear-gradient-2"/><clipPath id="clip-path-45" transform="translate(-102.01 -47.54)"><rect class="cls-1" x="291.57" y="119.49" width="15.11" height="15.84"/></clipPath><clipPath id="clip-path-46" transform="translate(-102.01 -47.54)"><path class="cls-1" d="M291.57,127.57a7.63,7.63,0,0,0,7.58,7.76,7.85,7.85,0,0,0,7.53-8.08A7.62,7.62,0,0,0,299,119.5a7.85,7.85,0,0,0-7.44,8.07"/></clipPath><linearGradient id="linear-gradient-22" x1="-246.45" y1="-129.34" x2="-246.28" y2="-129.34" gradientTransform="matrix(526.22, 775.96, -735.31, 554.11, 34732.77, 262908.69)" xlink:href="#linear-gradient-2"/><clipPath id="clip-path-47" transform="translate(-102.01 -47.54)"><path class="cls-1" d="M299.06,125a2.42,2.42,0,0,0-2.31,2.49,2.36,2.36,0,0,0,2.35,2.4,2.43,2.43,0,0,0,2.32-2.5,2.35,2.35,0,0,0-2.31-2.39h-.05"/></clipPath><linearGradient id="linear-gradient-23" x1="-245.47" y1="-124.12" x2="-245.3" y2="-124.12" gradientTransform="matrix(162.62, 239.8, -227.24, 171.24, 11895.15, 80176.69)" xlink:href="#linear-gradient-2"/><clipPath id="clip-path-49" transform="translate(-102.01 -47.54)"><rect class="cls-1" x="263.29" y="117.78" width="16.74" height="18.02"/></clipPath><clipPath id="clip-path-50" transform="translate(-102.01 -47.54)"><path class="cls-1" d="M263.29,126.73c0,4.92,3.77,9,8.36,9.07s8.42-3.92,8.37-8.94-3.88-9.09-8.52-9.08-8.25,4-8.21,9"/></clipPath><linearGradient id="linear-gradient-24" x1="-246.41" y1="-129.75" x2="-246.24" y2="-129.75" gradientTransform="matrix(600.6, 885.64, -839.25, 632.44, 39218.33, 300287.75)" xlink:href="#linear-gradient-2"/><clipPath id="clip-path-51" transform="translate(-102.01 -47.54)"><rect class="cls-1" x="266.92" y="121.75" width="9.36" height="10.08"/></clipPath><clipPath id="clip-path-52" transform="translate(-102.01 -47.54)"><path class="cls-1" d="M266.92,126.76a5,5,0,0,0,4.7,5.07,4.77,4.77,0,0,0,4.66-5,5,5,0,0,0-4.75-5.08,4.79,4.79,0,0,0-4.61,5"/></clipPath><linearGradient id="linear-gradient-25" x1="-246.03" y1="-128.24" x2="-245.87" y2="-128.24" gradientTransform="matrix(335.87, 495.27, -469.33, 353.67, 22590.27, 167242.22)" xlink:href="#linear-gradient-2"/><clipPath id="clip-path-53" transform="translate(-102.01 -47.54)"><path class="cls-1" d="M270.13,126.78a1.54,1.54,0,0,0,1.46,1.57A1.47,1.47,0,0,0,273,126.8a1.52,1.52,0,0,0-1.46-1.56h0a1.47,1.47,0,0,0-1.42,1.54"/></clipPath><linearGradient id="linear-gradient-26" x1="-244.13" y1="-120.56" x2="-243.97" y2="-120.56" gradientTransform="matrix(103.8, 153.06, -145.04, 109.3, 8013.71, 50609.87)" xlink:href="#linear-gradient-2"/><clipPath id="clip-path-54" transform="translate(-102.01 -47.54)"><path class="cls-1" d="M343.27,187.25l.46.35a.48.48,0,0,1,0,.22.69.69,0,0,1-.63.44,4.76,4.76,0,0,1-1.85.23s-.13-.05-.17,0,.06.34.11.43a1.88,1.88,0,0,0,2.28.35c.31-.15.43-.32.65-.27s.58.58.71,1l.51-.9s-.3-1.29-.8-1.63-1.21-.71-1.37-.86a.09.09,0,0,0-.06,0c-.14,0-.22.38.18.67"/></clipPath><linearGradient id="linear-gradient-27" x1="-242.57" y1="-147.53" x2="-242.41" y2="-147.53" gradientTransform="matrix(46.05, 123.33, 123.33, -46.05, 29605.66, 23263.94)" xlink:href="#linear-gradient-4"/><clipPath id="clip-path-56" transform="translate(-102.01 -47.54)"><rect class="cls-1" x="344.35" y="183.01" width="16.19" height="13.27"/></clipPath><clipPath id="clip-path-57" transform="translate(-102.01 -47.54)"><path class="cls-1" d="M358.19,184.28c-3.2,2.77-2.84,8.09-4.81,8.36-.6.08-.56-.42-2-.93-2.1-.75-3.08,0-4.56-.56a4.66,4.66,0,0,1-2.18-1.93l-.3.29c1.54,4.47,5.24,7.17,8.74,6.72,4.32-.55,6.23-5.67,6.57-6.59a15.41,15.41,0,0,0,.82-6.63,6.51,6.51,0,0,0-2.29,1.27"/></clipPath><linearGradient id="linear-gradient-28" x1="-263.22" y1="-143.57" x2="-263.07" y2="-143.57" gradientTransform="matrix(109.92, 0, 0, -109.92, 29175.48, -15639.54)" xlink:href="#linear-gradient"/><clipPath id="clip-path-58" transform="translate(-102.01 -47.54)"><path class="cls-1" d="M367.22,238.67c-.14,0-.57.17-1.22.4a1.16,1.16,0,0,0-.67.4s-.27.38-.17.59.51.11,1.88-.05c.86-.09,1.42-.13,1.51-.44a.92.92,0,0,0,0-.22,1.43,1.43,0,0,0-.24-.86.23.23,0,0,0-.16-.05,4.75,4.75,0,0,0-.92.23"/></clipPath><linearGradient id="linear-gradient-29" x1="-326.61" y1="-179.4" x2="-326.46" y2="-179.4" gradientTransform="matrix(23.14, 0.67, 0.67, -23.14, 7940.87, -3741.13)" xlink:href="#linear-gradient-16"/><clipPath id="clip-path-59" transform="translate(-102.01 -47.54)"><path class="cls-1" d="M367.35,238.83a.78.78,0,0,0,.87.12l.35-1.68-1.08-.15Z"/></clipPath><linearGradient id="linear-gradient-30" x1="-328.77" y1="-88.49" x2="-328.61" y2="-88.49" gradientTransform="matrix(12.65, -19.62, -19.62, -12.65, 2689.55, -7378.08)" xlink:href="#linear-gradient-4"/><clipPath id="clip-path-60" transform="translate(-102.01 -47.54)"><path class="cls-1" d="M355,237.58a9,9,0,0,0-1.23.43c-.72.27-.94.34-.94.47s.41.36.65.43c.59.18.82,0,1.69-.07a4.21,4.21,0,0,1,.65,0c.35,0,.52,0,.65-.11a.92.92,0,0,0-.08-1,.8.8,0,0,0-.65-.26,4,4,0,0,0-.74.1"/></clipPath><linearGradient id="linear-gradient-31" x1="-306.32" y1="-192.57" x2="-306.17" y2="-192.57" gradientTransform="matrix(23.71, 6.52, 6.52, -23.71, 8770.58, -2379.26)" xlink:href="#linear-gradient-16"/><clipPath id="clip-path-61" transform="translate(-102.01 -47.54)"><path class="cls-1" d="M355.34,237.77a.79.79,0,0,0,.86.19l.65-1.55-1.07-.24Z"/></clipPath><linearGradient id="linear-gradient-32" x1="-328.5" y1="-98.05" x2="-328.33" y2="-98.05" gradientTransform="matrix(14.41, -18.99, -18.99, -14.41, 3126.41, -7460.3)" xlink:href="#linear-gradient-4"/><clipPath id="clip-path-62" transform="translate(-102.01 -47.54)"><path class="cls-1" d="M358.47,219.14a162.19,162.19,0,0,1-3.11,17.5l1.67.49a15.73,15.73,0,0,0,4.07-7c.53-2,.36-3,.7-5.49.54-3.92,1.63-6,2.76-9.14A56.21,56.21,0,0,0,367.43,203l-7.76-1.79a166.26,166.26,0,0,1-1.2,18"/></clipPath><linearGradient id="linear-gradient-33" x1="-258.03" y1="-139.1" x2="-257.87" y2="-139.1" gradientTransform="matrix(65.6, -147.88, 147.88, 65.6, 37749.87, -28846.86)" xlink:href="#linear-gradient"/><clipPath id="clip-path-63" transform="translate(-102.01 -47.54)"><path class="cls-1" d="M365.82,201.19q.51,10.25.83,20.87.24,8,.36,15.74l1.71.24a23.74,23.74,0,0,0,1.79-5.06,49.52,49.52,0,0,0,.73-7c.3-3.12.74-3.8,1.51-7.73,1.56-8,2.35-12,.6-14.45-.53-.76-2.13-2.59-6.61-2.59l-.92,0"/></clipPath><linearGradient id="linear-gradient-34" x1="-258.93" y1="-137.94" x2="-258.76" y2="-137.94" gradientTransform="translate(40943.54 -24253.94) rotate(-59.04) scale(161.77)" xlink:href="#linear-gradient"/><clipPath id="clip-path-64" transform="translate(-102.01 -47.54)"><path class="cls-1" d="M360.59,178.17c-2.8,2.07-.63,6.83-1.78,18.65-.48,5-.7,4.7.39,6.48,2.23,3.64,8.5,3.93,11.36.78,1.52-1.66,1.72-1.75,1.75-3.65.15-7.5.25-14.57.31-21.79a24.55,24.55,0,0,0-5.69-1c-1.31-.08-2.37-.15-3.24-.15a5,5,0,0,0-3.1.72"/></clipPath><linearGradient id="linear-gradient-35" x1="-227.54" y1="-145.12" x2="-227.39" y2="-145.12" gradientTransform="translate(-21680.35 -13854.99) rotate(180) scale(96.47)" xlink:href="#linear-gradient"/><clipPath id="clip-path-66" transform="translate(-102.01 -47.54)"><rect class="cls-1" x="356.18" y="177.54" width="8.74" height="36.72"/></clipPath><clipPath id="clip-path-67" transform="translate(-102.01 -47.54)"><path class="cls-1" d="M359.67,201.16c0-3.52-1.74-4-1.56-7s1.94-3.22,1.88-5.85c-.07-3.19-2.72-4.2-2.62-7.1a5.27,5.27,0,0,1,.81-2.57,9.52,9.52,0,0,1,4.06-1.06,44.06,44.06,0,0,1,2.41,10.08c.45,3.91.24,6.49,0,11.86-.16,3.39-.31,8.3-.26,14.36a7.22,7.22,0,0,1-2.23.42c-1.83,0-2.44-.68-4.31-.48-.82.09-1,.26-1.3.06-.66-.49-.31-2.14,0-4.05a14.2,14.2,0,0,0,1.76-3,13.72,13.72,0,0,0,1.32-5.63"/></clipPath><linearGradient id="linear-gradient-36" x1="-239.46" y1="-127.22" x2="-239.3" y2="-127.22" gradientTransform="translate(-55962.05 44324.42) rotate(113.85) scale(263.78)" xlink:href="#linear-gradient"/><clipPath id="clip-path-68" transform="translate(-102.01 -47.54)"><rect class="cls-1" x="365.96" y="178.15" width="9.46" height="37.09"/></clipPath><clipPath id="clip-path-70" transform="translate(-102.01 -47.54)"><path class="cls-1" d="M366.32,188.28a17.37,17.37,0,0,1,1.62-4c.71-1.43,1.7-3.5,2.86-6.15.27,0,.58,0,.91,0,1.75,2.66,1.87,4.15,1.46,5s-1.23,1-1.34,2c-.17,1.45,1.76,1.95,2.23,3.92.41,1.72-.55,3.43-1.46,5.05-1.55,2.75-3,3.09-2.91,4.56s1.6,1.55,2.23,3.43c1,2.93-2.08,5.05-1.16,7.64.71,2,2.87,1.63,4.19,4.22a6.28,6.28,0,0,1,.47,1.24c-2-.3-2.13-.76-4.11-1-2.23-.31-3.14.12-3.77-.68s-.37-1.58-.31-2.64c.13-2-.24-1.68-.76-6.56-.11-1-.23-4.56-.48-11.62a15.42,15.42,0,0,1,.33-4.42"/></clipPath><linearGradient id="linear-gradient-37" x1="-217.35" y1="-151.47" x2="-217.2" y2="-151.47" gradientTransform="translate(-13686.9 -9579.9) rotate(180) scale(64.23)" xlink:href="#linear-gradient"/><clipPath id="clip-path-71" transform="translate(-102.01 -47.54)"><path class="cls-1" d="M364.61,175.13a2.41,2.41,0,0,1,.41,2c-.41.82-1.77.58-1.84,1s1.16,1.3,2.52,1.51c2.23.35,4.39-1.08,4.3-1.5,0-.09-.12-.08-.91-.3-1.45-.4-1.71-.58-1.88-.8a2.1,2.1,0,0,1-.32-1,13.94,13.94,0,0,1-.21-2.6c-.37.74-1.71.89-2.07,1.63"/></clipPath><linearGradient id="linear-gradient-38" x1="-253.13" y1="-164.82" x2="-252.96" y2="-164.82" gradientTransform="matrix(-29.79, -62.04, 62.04, -29.79, 2949.71, -20479.23)" xlink:href="#linear-gradient-4"/><clipPath id="clip-path-72" transform="translate(-102.01 -47.54)"><path class="cls-1" d="M365.3,171.58a1.48,1.48,0,0,0-1.12.55,1.67,1.67,0,0,0,0,1.81c.3.44.67.27,1.12.87a3.67,3.67,0,0,1,.42.77,4.49,4.49,0,0,1,.19.65c.52-.62.84-1,1-1.22s.3-.24.39-.46.57-1.28.34-1.8a2.24,2.24,0,0,0-2.06-1.19l-.29,0"/></clipPath><linearGradient id="linear-gradient-39" x1="-259.62" y1="-84.61" x2="-259.46" y2="-84.61" gradientTransform="matrix(-17.34, -44.53, -44.53, 17.34, -8003.56, -9961.24)" gradientUnits="userSpaceOnUse"><stop offset="0" stop-color="#311944"/><stop offset="1" stop-color="#6b3976"/></linearGradient><clipPath id="clip-path-73" transform="translate(-102.01 -47.54)"><path class="cls-1" d="M364.39,173.54c-.65.53-.5,3.05.52,3.12a1.92,1.92,0,0,0,1.71-.95c.54-.21.78-.58.64-.87a.3.3,0,0,0-.14-.14c-.16-.09-.39,0-.59.21.2-.73.11-1,0-1.11s-.18-.05-.5-.14-.41-.2-.62-.26a1.12,1.12,0,0,0-.36-.05,1.09,1.09,0,0,0-.65.19"/></clipPath><linearGradient id="linear-gradient-40" x1="-224.42" y1="-104.01" x2="-224.26" y2="-104.01" gradientTransform="translate(-7238.4 14309.67) rotate(93.01) scale(64.87)" xlink:href="#linear-gradient-4"/><clipPath id="clip-path-74" transform="translate(-102.01 -47.54)"><path class="cls-1" d="M366.57,173.65c-.05,0,.1.24.11.52a1.34,1.34,0,0,1-1,1.28c-.31,0-.39-.17-.9-.23a2.31,2.31,0,0,0-.74,0,1.44,1.44,0,0,0,.36,1.5,1.17,1.17,0,0,0,1.12,0,1.42,1.42,0,0,0,.83-.67c.25-.48,0-.77.29-1.09.15-.17.34-.24.52-.55a1.29,1.29,0,0,0,.1-.22c-.24-.28-.56-.63-.66-.63s0,0,0,0"/></clipPath><linearGradient id="linear-gradient-41" x1="-259.61" y1="-84.76" x2="-259.44" y2="-84.76" gradientTransform="matrix(-17.36, -44.57, -44.57, 17.36, -8019.18, -9967.96)" xlink:href="#linear-gradient-39"/><clipPath id="clip-path-75" transform="translate(-102.01 -47.54)"><path class="cls-1" d="M364.32,175.5s.1.21.26.26a.44.44,0,0,0,.46-.15s0,0,0,0a1.09,1.09,0,0,1-.6-.1h0l0,0"/></clipPath><linearGradient id="linear-gradient-42" x1="-103.63" y1="-376.5" x2="-103.46" y2="-376.5" gradientTransform="matrix(0.88, 8.13, 8.13, -0.88, 3414.16, 638.08)" gradientUnits="userSpaceOnUse"><stop offset="0" stop-color="#ffc444"/><stop offset="1" stop-color="#f36f56"/></linearGradient><clipPath id="clip-path-77" transform="translate(-102.01 -47.54)"><path class="cls-1" d="M360,182.31l2.58,10.17a.38.38,0,0,0,.32.29l7.14.69a.4.4,0,0,0,.38-.51l-2.65-10.13a.35.35,0,0,0-.31-.28l-7.08-.73h0a.38.38,0,0,0-.34.5"/></clipPath><linearGradient id="linear-gradient-43" x1="-270.5" y1="-103.69" x2="-270.34" y2="-103.69" gradientTransform="matrix(6.9, -60.56, -60.56, -6.9, -4152.32, -16935.67)" xlink:href="#linear-gradient-2"/><clipPath id="clip-path-78" transform="translate(-102.01 -47.54)"><path class="cls-1" d="M368.33,189.17a2.56,2.56,0,0,0,1.26.62l.45.07.6.34s.76-.1.65-.78c0,0-2.44-2.74-3.43-3.14a.38.38,0,0,0-.17,0c-.71,0,.09,2.55.64,2.93"/></clipPath><linearGradient id="linear-gradient-44" x1="-240.73" y1="-145.41" x2="-240.56" y2="-145.41" gradientTransform="matrix(24.4, 149.2, 149.2, -24.4, 27836.39, 32509.08)" xlink:href="#linear-gradient-4"/><clipPath id="clip-path-80" transform="translate(-102.01 -47.54)"><rect class="cls-1" x="359.99" y="181.81" width="6.54" height="11.31"/></clipPath><clipPath id="clip-path-81" transform="translate(-102.01 -47.54)"><path class="cls-1" d="M365.1,190.57c-.27-1.6.56-2.84-.23-4.34s-2.24-1.29-3.26-2.56a3.77,3.77,0,0,1-.76-1.81l-.46-.05a.38.38,0,0,0-.38.5l2.58,10.17a.38.38,0,0,0,.32.29l3.62.35a4.67,4.67,0,0,1-1.43-2.55"/></clipPath><linearGradient id="linear-gradient-45" x1="-270.5" y1="-103.87" x2="-270.34" y2="-103.87" gradientTransform="matrix(6.9, -60.56, -60.56, -6.9, -4165.41, -16937.17)" xlink:href="#linear-gradient-2"/><clipPath id="clip-path-82" transform="translate(-102.01 -47.54)"><rect class="cls-1" x="169.55" y="90.47" width="77.68" height="124.34"/></clipPath><clipPath id="clip-path-83" transform="translate(-102.01 -47.54)"><path class="cls-1" d="M176.92,91.93l2.66-.18c2.28-.06,7.45,1.86,7.41,4.29v.87c.34,3.73-4.8,4.45-7.07,4.49l-3.13.12A3.88,3.88,0,0,1,173.1,99a12.3,12.3,0,0,0-3.52,1.19l0-3.77a15,15,0,0,1,3.38-1,4.37,4.37,0,0,1,4-3.48"/></clipPath><linearGradient id="linear-gradient-46" x1="-240.28" y1="-146.79" x2="-240.13" y2="-146.79" gradientTransform="translate(-28368.14 -17333.12) rotate(180) scale(118.42)" xlink:href="#linear-gradient"/><clipPath id="clip-path-84" transform="translate(-102.01 -47.54)"><path class="cls-1" d="M170.3,182.87a39,39,0,0,0,6,6.66l11,9.58a4.15,4.15,0,0,1,3.2,1.22l4.15,4a8.17,8.17,0,0,0,2.18,1.52,3.77,3.77,0,0,1,2.38-.56,4.4,4.4,0,0,1,2.49,1.08,6.86,6.86,0,0,0,2.56-1.25l4.27-3.33a4,4,0,0,1,3.4-.72l12.1-8.13a38.41,38.41,0,0,0,16.58-31.39,3.25,3.25,0,0,1,1.43-2.65l.72-47a13.94,13.94,0,0,0-12.16-14.21,4.71,4.71,0,0,1-4.19,2.88l-1.75.12c-2.44,0-9.19-1.94-9.15-4.45v-.9c0-2.5,5.67-4.59,8.11-4.67l2.94-.19a4.29,4.29,0,0,1,4.33,3.44,17.56,17.56,0,0,1,15.65,18l-.72,47.23a3.39,3.39,0,0,1,1.37,2.77,46.34,46.34,0,0,1-5.39,21.06,43.14,43.14,0,0,1-14.1,15.59l-12.19,8.1A4.17,4.17,0,0,1,214,209.2l-4.32,3.32a14.87,14.87,0,0,1-4.32,2.29l-10.64-.49a17.33,17.33,0,0,1-5.45-3.63l-4.11-4.05a4.83,4.83,0,0,1-1.39-2.78l-10.91-9.6c-.86-.76-1.69-1.56-2.5-2.38Z"/></clipPath><linearGradient id="linear-gradient-47" x1="-245.07" y1="-134.54" x2="-244.92" y2="-134.54" gradientTransform="translate(-127841.36 -70158.59) rotate(180) scale(522.25)" xlink:href="#linear-gradient"/><clipPath id="clip-path-85" transform="translate(-102.01 -47.54)"><path class="cls-1" d="M170.11,234.37a55.91,55.91,0,0,0-15.58,2.52c-4.21,1.51-6.31,3.56-6.25,6.08.07,2.85,2.91,5.05,8.46,6.54,5.38,1.45,13.07,2.16,22.24,2.06,29.5-.32,110.35,1.56,135.4,8.06,4.16,1.07,5.74,2.58,5.83,3.54s-1.41,3.05-4.95,4.86c-11.47,5.84-34.59,6.14-50.09-11.48l-2.42,2.56a46.72,46.72,0,0,0,29.13,15.73,48.68,48.68,0,0,0,6.6.45,41,41,0,0,0,18.2-3.92c4.72-2.4,7.16-5.45,6.87-8.57s-3.11-5.39-8.4-6.77c-25.33-6.57-106.58-8.47-136.2-8.15-11.08.12-17.64-1-21.2-1.9-4.94-1.29-6.08-2.77-6.11-3.1s.8-1.4,4.17-2.57a53.62,53.62,0,0,1,14.44-2.25c4.79-.22,8.93-3.1,12-8.34a30.46,30.46,0,0,0,3.13-7.68l-3.25-.91c0,.13-3.1,12.84-12,13.24"/></clipPath><linearGradient id="linear-gradient-48" x1="-246.1" y1="-130.32" x2="-245.93" y2="-130.32" gradientTransform="translate(-106102.92 209544.99) rotate(89) scale(843.06)" xlink:href="#linear-gradient-16"/><clipPath id="clip-path-86" transform="translate(-102.01 -47.54)"><path class="cls-1" d="M226.6,90.47l-3,.19c-2.44.08-8.32,2.17-8.66,4.67l-.12.9c-.34,2.51,6.17,4.5,8.62,4.45l1.76-.12a5.53,5.53,0,0,0,5.14-4.7l.13-.91a3.77,3.77,0,0,0-3.77-4.48h-.13"/></clipPath><linearGradient id="linear-gradient-49" x1="-239.53" y1="-148.77" x2="-239.38" y2="-148.77" gradientTransform="matrix(-105.06, 0, 15.58, -105.06, -22717.83, -15580.68)" xlink:href="#linear-gradient-16"/><clipPath id="clip-path-88" transform="translate(-102.01 -47.54)"><path class="cls-1" d="M232.11,161.59A44.49,44.49,0,0,1,211.77,193L187.57,208a3.4,3.4,0,0,0-1.25,4.38,2.83,2.83,0,0,0,2.25,1.53,3,3,0,0,0,1.86-.45l24.36-15a51.63,51.63,0,0,0,23.88-36.65,3,3,0,0,0-2.84-3.45h-.13a3.71,3.71,0,0,0-3.59,3.18"/></clipPath><linearGradient id="linear-gradient-50" x1="-244.16" y1="-135.37" x2="-244.02" y2="-135.37" gradientTransform="translate(-87267.58 -48321.11) rotate(180) scale(357.97)" xlink:href="#linear-gradient-16"/><clipPath id="clip-path-90" transform="translate(-102.01 -47.54)"><path class="cls-1" d="M149,158.21A45.79,45.79,0,0,0,150.55,178a39.65,39.65,0,0,0,9.88,16.29l18.42,18.13a2.67,2.67,0,0,0,1.66.77,3,3,0,0,0,2.57-1.06,3.3,3.3,0,0,0,0-4.48l-18.58-18.09c-7.89-7.68-11.57-19.26-10-31.1a2.61,2.61,0,0,0-2.36-3.15H152a3.29,3.29,0,0,0-3.07,2.93"/></clipPath><linearGradient id="linear-gradient-51" x1="-243.93" y1="-137.23" x2="-243.79" y2="-137.23" gradientTransform="translate(-58552.74 -32849.1) rotate(180) scale(240.37)" xlink:href="#linear-gradient-16"/><clipPath id="clip-path-91" transform="translate(-102.01 -47.54)"><path class="cls-1" d="M179.43,91.75l-2.68.18a5.17,5.17,0,0,0-4.65,4.47l-.11.85a3.51,3.51,0,0,0,3.46,4.27l3.15-.12c2.28,0,7.5-.76,7.61-4.49l.11-.87c.33-2.39-4.44-4.29-6.77-4.29h-.12"/></clipPath><linearGradient id="linear-gradient-52" x1="-247.65" y1="-145.66" x2="-247.5" y2="-145.66" gradientTransform="translate(-21970.83 -33406.81) rotate(-153.85) scale(139.47)" xlink:href="#linear-gradient-16"/><clipPath id="clip-path-93" transform="translate(-102.01 -47.54)"><path class="cls-1" d="M182.14,96.41c-.26,1.38.26,2.66,1.15,2.86s1.83-.76,2.08-2.14-.26-2.65-1.15-2.85a1,1,0,0,0-.24,0c-.82,0-1.61.9-1.84,2.16"/></clipPath><linearGradient id="linear-gradient-53" x1="-227.23" y1="-217.21" x2="-227.07" y2="-217.21" gradientTransform="translate(-3931.49 -5740.67) rotate(-168.45) scale(22.42)" xlink:href="#linear-gradient-16"/><clipPath id="clip-path-94" transform="translate(-102.01 -47.54)"><path class="cls-1" d="M386.42,90.49a4.29,4.29,0,0,0-3.64,2c-.58,1.16.14,1.71.1,4.67,0,2.41-.52,3.54,0,3.92s2,0,2.77-.65a1.24,1.24,0,0,1,.88-.34,1.18,1.18,0,0,1,.75.48,17.3,17.3,0,0,0,3.37,3.67,15.1,15.1,0,0,0,6.16,3.07c2.59.54,6.45,1.36,8.6-1.37,1.89-2.4,1.85-6.8.05-8.52-.91-.88-2-.79-3.24-.71a5.21,5.21,0,0,1-4.11-.94c-1.64-1.35-.9-2.61-2.59-3.76a3.85,3.85,0,0,0-2.56-.58,12.92,12.92,0,0,1-4.07-.52,9.34,9.34,0,0,0-2.2-.48l-.29,0"/></clipPath><linearGradient id="linear-gradient-54" x1="-249.85" y1="-142.7" x2="-249.69" y2="-142.7" gradientTransform="matrix(195.93, 133.08, 133.08, -195.93, 68220.99, 5333.92)" xlink:href="#linear-gradient-39"/><clipPath id="clip-path-96" transform="translate(-102.01 -47.54)"><path class="cls-1" d="M371.53,137.74l-.39.29a1.5,1.5,0,0,0-.51.65l-.8,1.85c-.13.53-.29,1.28-.07,1.42s.35-.07.51-.2c.92-.73,2.38-2.57,2.35-3.39-.14-.6-.95-.62-1.07-.62h0"/></clipPath><linearGradient id="linear-gradient-55" x1="-332.03" y1="-140.21" x2="-331.87" y2="-140.21" gradientTransform="matrix(23.93, -16.02, -16.02, -23.93, 5966.22, -8578.82)" xlink:href="#linear-gradient-39"/><clipPath id="clip-path-97" transform="translate(-102.01 -47.54)"><path class="cls-1" d="M371.12,138.17c-.12.17-1.09,1.93-.69,2.21.18.13,1.42-1.56,1.54-1.81a1.18,1.18,0,0,0,.18-.82,4,4,0,0,1,.14-1l-1-.05a1.85,1.85,0,0,1-.21,1.44"/></clipPath><linearGradient id="linear-gradient-56" x1="-261.3" y1="-122.87" x2="-261.14" y2="-122.87" gradientTransform="matrix(46.99, -140.96, -140.96, -46.99, -4773.75, -42511.39)" xlink:href="#linear-gradient-4"/><clipPath id="clip-path-98" transform="translate(-102.01 -47.54)"><path class="cls-1" d="M369.92,130.44a3.82,3.82,0,0,0-.74,2.41c.15,1.26,1.69-.58,1.9-1.21s.47-1.51.47-1.51a1.6,1.6,0,0,0-.79-.25.92.92,0,0,0-.84.56"/></clipPath><linearGradient id="linear-gradient-57" x1="-364.43" y1="-231.44" x2="-364.28" y2="-231.44" gradientTransform="matrix(16.14, 0, 0, -16.14, 6148.01, -3650.35)" xlink:href="#linear-gradient-39"/><clipPath id="clip-path-99" transform="translate(-102.01 -47.54)"><path class="cls-1" d="M370,130.69c-.23.35-.53.65-.44.93a.47.47,0,0,0,.48.31c.37,0,.58-.66.72-1.1a13,13,0,0,0,.33-2l-.87-.15a3.61,3.61,0,0,1-.22,2.05"/></clipPath><linearGradient id="linear-gradient-58" x1="-272.38" y1="-116.21" x2="-272.22" y2="-116.21" gradientTransform="matrix(26.35, -79.05, -79.05, -26.35, -1743.7, -24502.75)" xlink:href="#linear-gradient-4"/><clipPath id="clip-path-100" transform="translate(-102.01 -47.54)"><path class="cls-1" d="M369.38,124.54a10.91,10.91,0,0,0,.76,4.9l.82.33a15,15,0,0,1,2.87-6.39c1.78-2.24,3.68-3,3.63-4.58,0-1.22-1.31-2.19-2.56-2.87-.51.31-5.08,3.18-5.52,8.61"/></clipPath><linearGradient id="linear-gradient-59" x1="-235.76" y1="-150.47" x2="-235.6" y2="-150.47" gradientTransform="matrix(19.65, 113.63, 113.63, -19.65, 22001.65, 23901.08)" xlink:href="#linear-gradient"/><clipPath id="clip-path-101" transform="translate(-102.01 -47.54)"><path class="cls-1" d="M380.61,113.25a11.59,11.59,0,0,1-2.16,2.92,12.62,12.62,0,0,1-3.06,2.11c-3.37,2.06-4.16,7.6-4.55,10.32a23.49,23.49,0,0,0,.41,8.75l1-.08a4.86,4.86,0,0,0,1.26-1.59,5.66,5.66,0,0,0,.53-2.38,14.54,14.54,0,0,1,1.79-5.53,20.56,20.56,0,0,1,2.67-4.27c1.19-1.47,1.78-2.2,2.48-2.5,1.3-.55,2.37,0,3.5.65a4.66,4.66,0,0,0,3.45.77,5.66,5.66,0,0,0,4-5.43,4,4,0,0,0-.84-1.95c-1.19-1.71-3.33-2.56-5.92-2.56a15.2,15.2,0,0,0-4.57.77"/></clipPath><linearGradient id="linear-gradient-60" x1="-269.77" y1="-116.9" x2="-269.6" y2="-116.9" gradientTransform="matrix(27.95, -88.44, -88.44, -27.95, -2525.56, -27034.48)" xlink:href="#linear-gradient"/><clipPath id="clip-path-103" transform="translate(-102.01 -47.54)"><rect class="cls-1" x="371.61" y="112.48" width="20.35" height="12.03"/></clipPath><clipPath id="clip-path-104" transform="translate(-102.01 -47.54)"><path class="cls-1" d="M391.94,117a4,4,0,0,0-.84-1.95c-1.84-2.65-6-3.24-10.49-1.79a11.59,11.59,0,0,1-2.16,2.92,12.62,12.62,0,0,1-3.06,2.11c-2.06,1.26-3.15,3.81-3.78,6.23.93-1.59,1.73-2,2.35-2,.89,0,1.28.82,2.34.71s1.39-1.15,2.31-1.27a1.62,1.62,0,0,1,1,.25A4.08,4.08,0,0,1,381,121c2.5-1.06,4.13,2.12,7,1.42a5.66,5.66,0,0,0,4-5.43"/></clipPath><linearGradient id="linear-gradient-61" x1="-269.77" y1="-116.89" x2="-269.61" y2="-116.89" gradientTransform="matrix(27.95, -88.44, -88.44, -27.95, -2525.57, -27034.53)" xlink:href="#linear-gradient"/><clipPath id="clip-path-105" transform="translate(-102.01 -47.54)"><path class="cls-1" d="M386.72,115.34l-4.07,0c-1.49,0-2.67,0-3.61,0-2.7,0-3.51-.08-4.28.69-.49.49-1.2,1.53-1.18,3.93a13.87,13.87,0,0,1,2.24.06c4.49.49,5.73,2.93,9.44,3.52.88.14,4.79.77,6.48-1.71,1.22-1.78,1-4.85-.3-6.06-.43-.4-.86-.48-2.7-.48l-2,0"/></clipPath><linearGradient id="linear-gradient-62" x1="-235.74" y1="-151.02" x2="-235.58" y2="-151.02" gradientTransform="matrix(19.61, 113.36, 113.36, -19.61, 22023.05, 23830.8)" xlink:href="#linear-gradient"/><clipPath id="clip-path-107" transform="translate(-102.01 -47.54)"><path class="cls-1" d="M385.94,98.05c0,.33-.09.65-.14,1a8.61,8.61,0,0,0-.92.25,10.4,10.4,0,0,0-1.42.78,4.8,4.8,0,0,0,.68.67,5.85,5.85,0,0,0,1.87.62,2.77,2.77,0,0,0,2.75-.82,2.45,2.45,0,0,0,.42-1.16c-.21,0-.49-.07-.84-.15a3,3,0,0,1-.92-.25c-.63-.44-.32-2.13-.26-2.44-.4.51-.81,1-1.22,1.52"/></clipPath><linearGradient id="linear-gradient-63" x1="-271.42" y1="-175.2" x2="-271.26" y2="-175.2" gradientTransform="translate(6300.88 -16105.6) rotate(-102.43) scale(53.38)" xlink:href="#linear-gradient-4"/><clipPath id="clip-path-108" transform="translate(-102.01 -47.54)"><path class="cls-1" d="M384.76,95.74c-.5.68.24,3.28,1.22,3.09a1.66,1.66,0,0,0,1.21-1.46.89.89,0,0,0,.27-.45c0-.07.08-.37,0-.47s-.31,0-.48.17a1.5,1.5,0,0,0-1.23-1.3h0a1.31,1.31,0,0,0-.92.42"/></clipPath><linearGradient id="linear-gradient-64" x1="-227.31" y1="-98.48" x2="-227.14" y2="-98.48" gradientTransform="translate(-3401.15 16756.73) rotate(79.01) scale(69.07)" xlink:href="#linear-gradient-4"/><clipPath id="clip-path-110" transform="translate(-102.01 -47.54)"><rect class="cls-1" x="379.02" y="107.2" width="15.61" height="15.12"/></clipPath><clipPath id="clip-path-111" transform="translate(-102.01 -47.54)"><path class="cls-1" d="M379.15,113.59c.21-.28.4-.56.57-.83a8.43,8.43,0,0,1,2.44-.52c1.5-.08,2.32.31,3.34-.37s.95-1.82,2.07-2.42,2,.08,3.14-.14a3.76,3.76,0,0,0,2.37-2.11c-.65,3.53-2.54,6-1.36,8.34.63,1.24,1.75,1.61,2.55,3.83.13.38.62,1.73.17,2.16s-1-.42-2.19-.26-1.5,1.19-2.32,1c-.54-.1-.77-.6-1.56-1.85a16.59,16.59,0,0,0-2.11-3c-1.62-1.25-2.86.38-4.7-.86a20.08,20.08,0,0,1-2.41-3"/></clipPath><linearGradient id="linear-gradient-65" x1="-228.11" y1="-147.68" x2="-227.96" y2="-147.68" gradientTransform="translate(-23881.48 -15582.93) rotate(180) scale(105.97)" xlink:href="#linear-gradient"/><clipPath id="clip-path-112" transform="translate(-102.01 -47.54)"><path class="cls-1" d="M377.51,115.57l10.87.46a.37.37,0,0,0,.29-.56l-.28-.5a.41.41,0,0,0-.35-.22l-10.26-.55Z"/></clipPath><linearGradient id="linear-gradient-66" x1="-272.79" y1="-153.93" x2="-272.64" y2="-153.93" gradientTransform="matrix(76.13, 0, 0, -76.13, 21042.38, -11650.97)" gradientUnits="userSpaceOnUse"><stop offset="0" stop-color="#40447e"/><stop offset="1" stop-color="#3c3b6b"/><stop offset="1" stop-color="#3c3b6b"/></linearGradient><clipPath id="clip-path-113" transform="translate(-102.01 -47.54)"><path class="cls-1" d="M366.8,108.52l3.4,6.24a.89.89,0,0,0,.74.48l11.2.49-3.67-7.09a.89.89,0,0,0-.76-.49l-10.6-.22h0a.39.39,0,0,0-.31.59"/></clipPath><linearGradient id="linear-gradient-67" x1="-249.1" y1="-168.19" x2="-248.94" y2="-168.19" gradientTransform="matrix(49.91, 49.51, 49.51, -49.91, 21028.62, 3998.9)" xlink:href="#linear-gradient-66"/><clipPath id="clip-path-115" transform="translate(-102.01 -47.54)"><rect class="cls-1" x="369.97" y="108.15" width="12.16" height="7.59"/></clipPath><clipPath id="clip-path-116" transform="translate(-102.01 -47.54)"><path class="cls-1" d="M378.47,108.64a.89.89,0,0,0-.76-.49h-.23a1.85,1.85,0,0,1-.35,1c-.65.87-1.74.33-2.55,1.25s-.07,2.21-.86,3.14-2.19.19-3.75.82l.23.41a.89.89,0,0,0,.74.48l11.2.49Z"/></clipPath><linearGradient id="linear-gradient-68" x1="-249.11" y1="-168.18" x2="-248.94" y2="-168.18" gradientTransform="matrix(49.91, 49.51, 49.51, -49.91, 21028.63, 3998.9)" xlink:href="#linear-gradient-66"/><clipPath id="clip-path-117" transform="translate(-102.01 -47.54)"><path class="cls-1" d="M384.7,112.71a2.86,2.86,0,0,0-.8.63s-.44.66-.29.86.57,0,1.12-.35a3.77,3.77,0,0,1,1,0c.75.07,1.09.33,1.36.11a.8.8,0,0,0,.2-.77.9.9,0,0,0-.46-.51,1.76,1.76,0,0,0-.92-.24,2.91,2.91,0,0,0-1.19.29"/></clipPath><linearGradient id="linear-gradient-69" x1="-255.06" y1="-56.91" x2="-254.9" y2="-56.91" gradientTransform="translate(5380.16 7587.96) rotate(43.3) scale(34.77)" xlink:href="#linear-gradient-4"/><clipPath id="clip-path-119" transform="translate(-102.01 -47.54)"><polygon class="cls-1" points="224.18 165.21 248.66 165.78 248.66 164.52 224.18 163.94 224.18 165.21"/></clipPath><linearGradient id="linear-gradient-70" x1="-254.06" y1="-122.56" x2="-253.91" y2="-122.56" gradientTransform="matrix(0.05, 158.2, -158.2, 0.05, -19139.59, 40355.77)" gradientUnits="userSpaceOnUse"><stop offset="0" stop-color="#ebeff2"/><stop offset="0.49" stop-color="#ebeff2"/><stop offset="1" stop-color="#fff"/></linearGradient><clipPath id="clip-path-121" transform="translate(-102.01 -47.54)"><path class="cls-1" d="M242.19,162.94c-.06.31.48.52,1.15.5a8.5,8.5,0,0,1,1.06.05c.63,0,1.23.1,1.2,0a19.24,19.24,0,0,0-2.52-1.43l-.6-.19s-.23.78-.29,1.09"/></clipPath><linearGradient id="linear-gradient-71" x1="-218.09" y1="-112.04" x2="-217.93" y2="-112.04" gradientTransform="translate(-6732.04 11247.84) rotate(94.49) scale(53.38)" gradientUnits="userSpaceOnUse"><stop offset="0" stop-color="#26264f"/><stop offset="0" stop-color="#26264f"/><stop offset="1" stop-color="#444b8c"/></linearGradient><clipPath id="clip-path-122" transform="translate(-102.01 -47.54)"><path class="cls-1" d="M242.37,162.23a.8.8,0,0,0,.65,0l.16-1.23-.92-.14Z"/></clipPath><linearGradient id="linear-gradient-72" x1="-273.91" y1="-152.3" x2="-273.75" y2="-152.3" gradientTransform="matrix(0.76, -55.12, 55.12, 0.76, 8743.16, -14866.17)" gradientUnits="userSpaceOnUse"><stop offset="0" stop-color="#893976"/><stop offset="1" stop-color="#311944"/></linearGradient><clipPath id="clip-path-123" transform="translate(-102.01 -47.54)"><path class="cls-1" d="M231.21,161.57a.72.72,0,0,0-.07.48c.1.42.31,1.24.39,1.46s1.73.46,1.73.46.14-.22-.19-.48-.55-.31-.67-.71a12.19,12.19,0,0,1-.19-1.5l-.71-.22Z"/></clipPath><linearGradient id="linear-gradient-73" x1="-218.09" y1="-113.31" x2="-217.93" y2="-113.31" gradientTransform="translate(-6810.98 11241.52) rotate(94.49) scale(53.38)" xlink:href="#linear-gradient-71"/><clipPath id="clip-path-124" transform="translate(-102.01 -47.54)"><path class="cls-1" d="M231.45,161.32h0l0-.05,0,.06m0,0,.14.16c.32.35.49.11.49.11a16.27,16.27,0,0,1,.62-1.81l-1.19-.14Z"/></clipPath><linearGradient id="linear-gradient-74" x1="-273.91" y1="-151.18" x2="-273.75" y2="-151.18" gradientTransform="matrix(0.76, -55.12, 55.12, 0.76, 8670.91, -14867.46)" xlink:href="#linear-gradient-72"/><clipPath id="clip-path-125" transform="translate(-102.01 -47.54)"><path class="cls-1" d="M239,135.16c-.23.23-.69.86-.07,5,.57,3.86,1.06,4,1.41,6.68.38,3.07-.18,3.44.3,7.58a36.29,36.29,0,0,0,.64,3.77,33.15,33.15,0,0,0,.92,3.23l.44,0c.22,0,.44,0,.64,0,.54-4,1-8.42,1.19-13.2.2-4.24.19-8.21.06-11.87a8.59,8.59,0,0,0-4.25-1.7,1.71,1.71,0,0,0-1.28.45"/></clipPath><linearGradient id="linear-gradient-75" x1="-218.65" y1="-169.07" x2="-218.51" y2="-169.07" gradientTransform="translate(-8767.92 -6789.14) rotate(180) scale(40.75)" xlink:href="#linear-gradient-39"/><clipPath id="clip-path-127" transform="translate(-102.01 -47.54)"><rect class="cls-1" x="238.63" y="134.71" width="5.59" height="26.78"/></clipPath><clipPath id="clip-path-128" transform="translate(-102.01 -47.54)"><path class="cls-1" d="M239,135.16c.91-.92,3-.36,5.21,1-2.54,3-2.82,5-2.51,6.24.34,1.43,1.39,1.84,1.38,3.41,0,1.92-1.58,2.43-1.55,4.47,0,1.35.72,1.33.88,3,.19,2-.71,2.64-.42,4.1a4,4,0,0,0,1.52,2.29c-.08.6-.15,1.19-.23,1.77-.2,0-.42,0-.64,0l-.44,0a33.15,33.15,0,0,1-.92-3.23,36.29,36.29,0,0,1-.64-3.77c-.48-4.14.08-4.51-.3-7.58-.35-2.71-.84-2.82-1.41-6.68-.62-4.18-.16-4.81.07-5"/></clipPath><linearGradient id="linear-gradient-76" x1="-216.59" y1="-171.84" x2="-216.44" y2="-171.84" gradientTransform="translate(-8073.75 -6418.09) rotate(180) scale(37.93)" xlink:href="#linear-gradient-71"/><clipPath id="clip-path-129" transform="translate(-102.01 -47.54)"><path class="cls-1" d="M234.92,139.47c-.78,2.94-.59,3.52-1.4,5.87s-1.2,2.38-1.81,4.52a22.2,22.2,0,0,0-.75,4.38,26.71,26.71,0,0,0,.19,5.83,1.39,1.39,0,0,0,.83.49,1.26,1.26,0,0,0,.74-.12,86.9,86.9,0,0,1,3.59-11A84.43,84.43,0,0,1,243,136.35l-6.3-2a40.7,40.7,0,0,0-1.75,5.15"/></clipPath><linearGradient id="linear-gradient-77" x1="-233.2" y1="-150.29" x2="-233.06" y2="-150.29" gradientTransform="translate(-18990.63 -12229.14) rotate(180) scale(82.04)" xlink:href="#linear-gradient-39"/><clipPath id="clip-path-130" transform="translate(-102.01 -47.54)"><path class="cls-1" d="M243.62,114.53c-1.78.22-1.91,2.43-3.92,3.45-1.69.86-3.55.25-4.8-.16-3-1-3.46-2.85-5-2.55-2,.37-2.13,3.47-4.08,3.66-1.31.12-1.62-1.22-3.33-1.59-2-.43-4.23.85-5.47,2.42-2.27,2.85-1.67,7.12-.25,9.72,1.16,2.14,3.67,4.6,5.78,4.08,1.67-.42,2.21-2.49,3.65-2.28,1,.14,1.05,1.23,2.26,1.79,2,.92,4.42-.83,5.09-1.31,1.9-1.36,1.6-2.23,4-5a21.28,21.28,0,0,1,4.5-4c2.41-1.55,3.45-1.37,4.15-2.76a4.38,4.38,0,0,0-.46-4.71,2.81,2.81,0,0,0-1.86-.81,1.37,1.37,0,0,0-.28,0"/></clipPath><linearGradient id="linear-gradient-78" x1="-228.34" y1="-136.52" x2="-228.18" y2="-136.52" gradientTransform="matrix(-75.52, 69.12, -69.12, -75.52, -26546.64, 5546.36)" xlink:href="#linear-gradient-71"/><clipPath id="clip-path-131" transform="translate(-102.01 -47.54)"><path class="cls-1" d="M261.84,115.07c-.3.47-.76,1.12-.76,1.12l.14,1s.26-.41.52-.79.77,0,1.06-.52-.11-.68-.25-.93.48-.83.78-1.17.19-.55.19-.55a18.92,18.92,0,0,0-1.68,1.82"/></clipPath><linearGradient id="linear-gradient-79" x1="-170.85" y1="-233.06" x2="-170.7" y2="-233.06" gradientTransform="translate(-2693.58 -3827.05) rotate(180) scale(16.71)" xlink:href="#linear-gradient-72"/><clipPath id="clip-path-132" transform="translate(-102.01 -47.54)"><path class="cls-1" d="M255,120.83a10.31,10.31,0,0,1-4,.46,11.22,11.22,0,0,1-4.25-1.22c-.44.83-2.84,5.42-1.36,7.5,1.67,2.32,7.36.28,10.48-1.9a15.78,15.78,0,0,0,4.09-4.28,16.77,16.77,0,0,0,1.88-4l-.95-1.57a11.29,11.29,0,0,1-5.85,5.06"/></clipPath><linearGradient id="linear-gradient-80" x1="-243.32" y1="-132.13" x2="-243.16" y2="-132.13" gradientTransform="matrix(-345.83, 374.06, -374.06, -345.83, -133420.76, 45397.22)" xlink:href="#linear-gradient-4"/><clipPath id="clip-path-133" transform="translate(-102.01 -47.54)"><path class="cls-1" d="M237.55,121.7c-.38.83-.12,1.28-.13,2.83a16.51,16.51,0,0,1-2.48,8.18c-1.25,2.25-2.38,4.28-4.56,4.86a5.17,5.17,0,0,1-3.23-.24c-1.81,0-3,1.31-2.89,2.35A2.07,2.07,0,0,0,226,141.4c.83.08,1.06-.63,1.95-.83,1.41-.31,2,1.22,3.83,1.8a3.3,3.3,0,0,0,2.55-.27,5.62,5.62,0,0,1,2.6-.42c2.43.14,2.7,1.3,4.94,1.2.65,0,3.07-.13,4.08-1.82.78-1.3-.13-2.11-.12-6.14,0-2.84,0-4.25.69-5.7a6.12,6.12,0,0,0,1.05-3c0-1.12-.53-1.54-.29-2.2.44-1.23,2.59-.86,2.73-1.54s-2.68-2.76-6-3.08c-.1,0-.49,0-1,0-1.6,0-4.53.29-5.46,2.29"/></clipPath><linearGradient id="linear-gradient-81" x1="-243.32" y1="-132.15" x2="-243.16" y2="-132.15" gradientTransform="matrix(-345.83, 374.06, -374.06, -345.83, -133430.68, 45387.87)" xlink:href="#linear-gradient-4"/><clipPath id="clip-path-134" transform="translate(-102.01 -47.54)"><path class="cls-1" d="M229,133.78a2.4,2.4,0,0,0-.78,1.25c-.07.56.09,1.18.2.94s.65-.65.9-1a3.91,3.91,0,0,0,.42-1.35,3.36,3.36,0,0,1,.46-.71l-.58-.44a6.19,6.19,0,0,1-.62,1.29"/></clipPath><linearGradient id="linear-gradient-82" x1="-323.41" y1="-97.96" x2="-323.25" y2="-97.96" gradientTransform="matrix(4.11, -22.67, -22.67, -4.11, -763.79, -7646.68)" xlink:href="#linear-gradient-72"/><clipPath id="clip-path-136" transform="translate(-102.01 -47.54)"><rect class="cls-1" x="224.25" y="121.33" width="22.03" height="21.56"/></clipPath><clipPath id="clip-path-137" transform="translate(-102.01 -47.54)"><path class="cls-1" d="M227.15,137.33a5.17,5.17,0,0,0,3.23.24c2.18-.58,3.31-2.61,4.56-4.86a16.51,16.51,0,0,0,2.48-8.18c0-1.55-.25-2,.13-2.83a2.71,2.71,0,0,1,.21-.37,3.18,3.18,0,0,1,1.42,2c.27,1.5-1,2.74-.33,4s2.14.9,2.46,2-1.35,1.85-1.42,3.62c-.09,2.14,2.25,3.18,1.84,4.61-.36,1.24-2.31,1.15-2.31,1.81s2.77,2.06,5.14,1.09a5,5,0,0,0,1.68-1.18,2.43,2.43,0,0,1-.27,1.75c-1,1.69-3.43,1.8-4.08,1.82-2.24.1-2.51-1.06-4.94-1.2-2.77-.16-3.17,1.32-5.15.69-1.81-.58-2.42-2.11-3.83-1.8-.89.2-1.12.91-1.95.83a2.07,2.07,0,0,1-1.76-1.72c-.08-1,1.08-2.35,2.89-2.35"/></clipPath><linearGradient id="linear-gradient-83" x1="-237.73" y1="-130.37" x2="-237.56" y2="-130.37" gradientTransform="matrix(-96.85, 187.3, -187.3, -96.85, -47300.98, 31970.02)" xlink:href="#linear-gradient-4"/><clipPath id="clip-path-138" transform="translate(-102.01 -47.54)"><path class="cls-1" d="M243.31,119c-.68.27-1.76.58-1.89.7s3.62,1.46,5.72.84c-.6-.28-.76-.38-.76-.38a3.53,3.53,0,0,1-.74-.53,3,3,0,0,1-.71-1.11l.2-1-.59-.55s-.55,1.74-1.23,2"/></clipPath><linearGradient id="linear-gradient-84" x1="-270.1" y1="-167.69" x2="-269.93" y2="-167.69" gradientTransform="translate(2550.23 -14917.47) rotate(-112.71) scale(47.76)" xlink:href="#linear-gradient-72"/><clipPath id="clip-path-139" transform="translate(-102.01 -47.54)"><path class="cls-1" d="M244.82,116.11a1,1,0,0,0-.47,1c-.13-.07-.26-.06-.31,0s0,.24.06.28a.49.49,0,0,0,.23.2.93.93,0,0,0,.94.58c.6-.1.56-1.74.16-2a.73.73,0,0,0-.36-.09.56.56,0,0,0-.25,0"/></clipPath><linearGradient id="linear-gradient-85" x1="-253.06" y1="-172.31" x2="-252.9" y2="-172.31" gradientTransform="matrix(-36.61, -34.03, 34.03, -36.61, -3259.31, -14849.98)" xlink:href="#linear-gradient-72"/><clipPath id="clip-path-140" transform="translate(-102.01 -47.54)"><path class="cls-1" d="M235.64,121.25a12.61,12.61,0,0,0-3.11,2.73,16.09,16.09,0,0,0-3.36,8.94l.88.51a9.34,9.34,0,0,1,2.59-4.2,7.94,7.94,0,0,1,2.4-1.5,6.63,6.63,0,0,1,3.1-.45A2.64,2.64,0,0,0,240,127c.9-.63,1.76-2.35,1.09-7.41a11.38,11.38,0,0,0-5.4,1.68"/></clipPath><linearGradient id="linear-gradient-86" x1="-243.32" y1="-132.24" x2="-243.16" y2="-132.24" gradientTransform="matrix(-345.83, 374.06, -374.06, -345.83, -133468.99, 45352.76)" xlink:href="#linear-gradient-4"/><clipPath id="clip-path-142" transform="translate(-102.01 -47.54)"><path class="cls-1" d="M319.59,236.59c-.18.4,1.29,2.22,1.84,2.62s.74-.2.37-1a17.84,17.84,0,0,0-1.66-2.42,3.88,3.88,0,0,0-.55.81"/></clipPath><linearGradient id="linear-gradient-87" x1="-148.74" y1="-196.35" x2="-148.59" y2="-196.35" gradientTransform="translate(-2218.67 -3029.07) rotate(180) scale(16.4)" xlink:href="#linear-gradient-16"/><clipPath id="clip-path-143" transform="translate(-102.01 -47.54)"><path class="cls-1" d="M312.05,240.63c.37.4,3.49,1.41,3.31.8s-2.94-2-2.94-2-.74.81-.37,1.22"/></clipPath><linearGradient id="linear-gradient-88" x1="-179.41" y1="-176.65" x2="-179.27" y2="-176.65" gradientTransform="translate(-3955.33 -3911.34) rotate(180) scale(23.24)" xlink:href="#linear-gradient-16"/><clipPath id="clip-path-144" transform="translate(-102.01 -47.54)"><path class="cls-1" d="M311.86,207.5c8.48,9.25,9.48,14.06,8.65,16.76a20.63,20.63,0,0,0-1.29,5.66,18.61,18.61,0,0,0,.56,5.86l.73.81a41.36,41.36,0,0,0,3.13-5.05c1.46-2.8,2.76-5.27,3.13-8.49a19.23,19.23,0,0,0-.92-7.67,36.12,36.12,0,0,0-6.07-12.33l-7.92,4.45"/></clipPath><linearGradient id="linear-gradient-89" x1="-241.19" y1="-112.33" x2="-241.02" y2="-112.33" gradientTransform="translate(-2381.96 26204.82) rotate(70.72) scale(98.36)" xlink:href="#linear-gradient-39"/><clipPath id="clip-path-145" transform="translate(-102.01 -47.54)"><path class="cls-1" d="M308.37,207.5c-1.29,2.59-.76,5.75,0,10.3.73,4.38,1.66,5.22,1.65,8.89,0,2.94-.61,3.26-.36,6.06.28,3.17,1.43,7,2.76,7.07a1,1,0,0,0,.55-.2,100.47,100.47,0,0,0,2.94-20.2c0-.9,0-3,.37-5.86a62.16,62.16,0,0,1,2.21-10.91c-1.44,0-7.89.35-10.12,4.85"/></clipPath><linearGradient id="linear-gradient-90" x1="-267.5" y1="-110.94" x2="-267.34" y2="-110.94" gradientTransform="translate(16580.7 10097.16) rotate(8.69) scale(66.13)" xlink:href="#linear-gradient-39"/><clipPath id="clip-path-146" transform="translate(-102.01 -47.54)"><path class="cls-1" d="M324.63,185.06c-2.1.35-3.75,3.89-3,5.8.46,1.12,1.44,1,3.14,2.18,2.48,1.77,2.71,3.76,4.29,5.62,1.29,1.5,3.6,3.08,8.1,3.26l.82-.54a16.53,16.53,0,0,1-4.29-4.17c-2.38-3.36-2.09-5.68-4.79-9.07-1.2-1.5-2.48-3.11-4-3.11l-.34,0"/></clipPath><linearGradient id="linear-gradient-91" x1="-228.32" y1="-119.52" x2="-228.16" y2="-119.52" gradientTransform="matrix(-31.39, 88.19, -88.19, -31.39, -17480.33, 16529.03)" xlink:href="#linear-gradient-2"/><clipPath id="clip-path-147" transform="translate(-102.01 -47.54)"><path class="cls-1" d="M317.2,184.7c-2.66,1.09-4,3.31-5.12,5.08-.94,1.53-1.68,3.95-3.16,8.8-2.13,7-.86,4.39-2,7.79a8.28,8.28,0,0,0-.62,5c.08.31.53,2,1.49,2.18.76.16,1.31-.73,2.81-2.18,2.14-2.06,3.21-3.09,4.46-3.08,1.84,0,2.47,2.19,4.12,1.81.94-.21,1-1,2.15-1.27a2.71,2.71,0,0,1,1.67.11c.44.15.79.3,1.14.07.93-.58.19-2.68.49-6.16.07-.71.08-.46,1.16-5.44a45.5,45.5,0,0,0,1.16-6.71c.24-3.23-.19-4.09-.5-4.53-.71-1-1.77-1.3-3.14-1.63a11.78,11.78,0,0,0-3-.42,8.29,8.29,0,0,0-3.14.6"/></clipPath><linearGradient id="linear-gradient-92" x1="-228.33" y1="-120.12" x2="-228.17" y2="-120.12" gradientTransform="translate(-17542.95 16507.07) rotate(109.59) scale(93.61)" xlink:href="#linear-gradient-2"/><clipPath id="clip-path-149" transform="translate(-102.01 -47.54)"><rect class="cls-1" x="306.7" y="189.95" width="27.73" height="23.59"/></clipPath><clipPath id="clip-path-150" transform="translate(-102.01 -47.54)"><path class="cls-1" d="M308.78,204.82c1-1.66,2.16-1.33,2.81-2.9s-.29-2.46-.17-4.35c.24-3.56,4.07-7.27,6.94-6.89,1.83.25,2.49,2.06,4,1.63s1.55-2.27,2.81-2.35,2.25,1.62,2.48,2c1.1,1.85.29,2.8,1.15,4.72.64,1.42,1.75,2.21,4,3.8.6.43,1.17.81,1.7,1.12a9.12,9.12,0,0,1-5.34-2.93c-1.15-1.35-1.59-2.78-2.7-4.14-.15.79-.35,1.72-.6,2.87-1.08,5-1.09,4.73-1.16,5.44-.3,3.48.44,5.58-.49,6.16-.69.44-1.35-.55-2.81-.18-1.17.3-1.21,1.06-2.15,1.27-1.65.38-2.28-1.79-4.12-1.81-1.25,0-2.32,1-4.46,3.08-1.5,1.45-2.05,2.34-2.81,2.18a1.83,1.83,0,0,1-1.09-1.12,7.89,7.89,0,0,0,1.09-2.15c.77-2.37-.07-3.64,1-5.44"/></clipPath><linearGradient id="linear-gradient-93" x1="-228.4" y1="-119.89" x2="-228.23" y2="-119.89" gradientTransform="matrix(-31.51, 88.53, -88.53, -31.51, -17587.09, 16583.28)" xlink:href="#linear-gradient-2"/><clipPath id="clip-path-151" transform="translate(-102.01 -47.54)"><path class="cls-1" d="M314.84,187.44c-2.33,3.81.09,10.42,3.22,14.12A15.42,15.42,0,0,0,330,206.75l.76-.83c-2.32-1.35-6.8-4.45-8.52-9.55a24.59,24.59,0,0,1-1.51-8.31c.09-1.67.4-2.78-.19-3.32a1.41,1.41,0,0,0-1-.31,6.46,6.46,0,0,0-4.71,3"/></clipPath><linearGradient id="linear-gradient-94" x1="-230.37" y1="-138.46" x2="-230.22" y2="-138.46" gradientTransform="matrix(-108.73, 31.68, -31.68, -108.73, -29213.51, -7610.58)" xlink:href="#linear-gradient-2"/><clipPath id="clip-path-152" transform="translate(-102.01 -47.54)"><path class="cls-1" d="M323.66,185.12s.17.23.37.21.27-.14.26-.18,0,0-.07,0a1,1,0,0,1-.53,0h0"/></clipPath><linearGradient id="linear-gradient-95" x1="-1.45" y1="33.67" x2="-1.28" y2="33.67" gradientTransform="matrix(-2.05, 6.8, -6.8, -2.05, 448.14, 216.08)" xlink:href="#linear-gradient-42"/><clipPath id="clip-path-153" transform="translate(-102.01 -47.54)"><path class="cls-1" d="M318.77,184.65c-1,0-1.07.14-1.09.23-.14.45,2.3,2.16,4.94,2,1.62-.1,3.14-.91,3.08-1.39s-1.1-.06-1.51-1c-.29-.63.69-1.87,1.18-2.55-.37-.83-1.88-.74-2.25-1.57-.07,1.19-.75,4.37-4.35,4.26"/></clipPath><linearGradient id="linear-gradient-96" x1="-271.29" y1="-122.69" x2="-271.12" y2="-122.69" gradientTransform="matrix(40.69, -69.89, -69.89, -40.69, 2681.9, -23810.59)" xlink:href="#linear-gradient-4"/><clipPath id="clip-path-154" transform="translate(-102.01 -47.54)"><path class="cls-1" d="M322.73,179.28c-.39.48-.12,1.74-.08,2s.2.37.32.58.44.77.87,1.55a3.84,3.84,0,0,1,.39-.62,3.6,3.6,0,0,1,.67-.68c.68-.51,1.05-.23,1.51-.61a1.69,1.69,0,0,0,.44-1.89,1.77,1.77,0,0,0-1.13-.87,3.12,3.12,0,0,0-1.11-.19,2.41,2.41,0,0,0-1.88.76"/></clipPath><linearGradient id="linear-gradient-97" x1="-285.45" y1="-141.97" x2="-285.28" y2="-141.97" gradientTransform="translate(15076.97 -7823.07) rotate(-54.63) scale(52.88)" xlink:href="#linear-gradient-39"/><clipPath id="clip-path-155" transform="translate(-102.01 -47.54)"><path class="cls-1" d="M325.13,180.57a6.81,6.81,0,0,1-.78.09,1.47,1.47,0,0,1-.31,0,.57.57,0,0,0-.3,0c-.16.09-.33.34-.3,1.16a.64.64,0,0,0-.62-.38.43.43,0,0,0-.19.11c-.24.26-.06.71.5,1.08a2.23,2.23,0,0,0,1.71,1.45c1.18.2,2-2.37,1.4-3.1a1.5,1.5,0,0,0-1.06-.42h-.05"/></clipPath><linearGradient id="linear-gradient-98" x1="-223.82" y1="-150.87" x2="-223.66" y2="-150.87" gradientTransform="matrix(-13.42, 68.52, 68.52, 13.42, 7556.98, 17494.57)" xlink:href="#linear-gradient-4"/><clipPath id="clip-path-157" transform="translate(-102.01 -47.54)"><path class="cls-1" d="M338,201.38l-.82.54c1.74,1.07,4.28-.57,4.28-.57a4.44,4.44,0,0,0-1.88-.47,2.39,2.39,0,0,0-1.58.5"/></clipPath><linearGradient id="linear-gradient-99" x1="-238.05" y1="-96.79" x2="-237.89" y2="-96.79" gradientTransform="translate(71.16 15286.17) rotate(68.5) scale(58.9)" xlink:href="#linear-gradient-4"/><clipPath id="clip-path-159" transform="translate(-102.01 -47.54)"><path class="cls-1" d="M330,206.75c1.25,2.14,4.8,1.27,2.41-.3a3.07,3.07,0,0,0-1.55-.63c-.85,0-.86.93-.86.93"/></clipPath><linearGradient id="linear-gradient-100" x1="-242.33" y1="-113.49" x2="-242.17" y2="-113.49" gradientTransform="translate(-1618.41 29560.16) rotate(68.5) scale(110.11)" xlink:href="#linear-gradient-4"/><clipPath id="clip-path-160" transform="translate(-102.01 -47.54)"><path class="cls-1" d="M236.38,248.91c-2.76,16.32,7.1,31.1,22.32,33,15.58,2,30.79-10.13,33.66-27.13s-7.78-31.87-23.47-33.18c-.74-.06-1.48-.09-2.21-.09-14.49,0-27.68,11.82-30.3,27.35"/></clipPath><linearGradient id="linear-gradient-101" x1="-244.01" y1="-135.22" x2="-243.86" y2="-135.22" gradientTransform="matrix(-343.24, -79.3, 79.3, -343.24, -72843.71, -65550.16)" xlink:href="#linear-gradient-71"/><clipPath id="clip-path-161" transform="translate(-102.01 -47.54)"><path class="cls-1" d="M236.13,249.23c-2.69,16.18,7,30.84,21.83,32.77,15.23,2,30.1-10,32.91-26.9s-7.61-31.6-22.95-32.9q-1.08-.09-2.16-.09c-14.17,0-27.06,11.72-29.63,27.12"/></clipPath><linearGradient id="linear-gradient-102" x1="-243.96" y1="-135.29" x2="-243.8" y2="-135.29" gradientTransform="translate(-71228.2 -64134.72) rotate(-166.99) scale(344.59)" xlink:href="#linear-gradient-16"/><clipPath id="clip-path-162" transform="translate(-102.01 -47.54)"><path class="cls-1" d="M238.5,249.48c-2.46,14.76,6.34,28.1,19.91,29.84,13.85,1.77,27.35-9.18,29.9-24.5s-6.9-28.72-20.84-29.93q-1-.09-2-.09c-12.89,0-24.63,10.65-27,24.68"/></clipPath><linearGradient id="linear-gradient-103" x1="-243.19" y1="-134.53" x2="-243.04" y2="-134.53" gradientTransform="translate(-83420.9 -46046.23) rotate(180) scale(343.79)" xlink:href="#linear-gradient-2"/><clipPath id="clip-path-164" transform="translate(-102.01 -47.54)"><rect class="cls-1" x="244.13" y="231.53" width="38.14" height="41.21"/></clipPath><clipPath id="clip-path-165" transform="translate(-102.01 -47.54)"><rect class="cls-1" x="254.34" y="242.75" width="17.32" height="18.71"/></clipPath><clipPath id="clip-path-166" transform="translate(-102.01 -47.54)"><rect class="cls-1" x="246.85" y="232.79" width="41.88" height="46.71"/></clipPath></defs><title>Asset 5</title><g class="cls-2"><g id="Layer_2" data-name="Layer 2"><g id="bg_Home" data-name="bg Home"><g class="cls-3"><g class="cls-3"><g class="cls-3"><g class="cls-4"><g class="cls-5"><path class="cls-6" d="M412.87,198.74c10.18.14,51.42.81,51.85,6.54.37,4.95-29.35,19.67-60.8,21-5.87.25-18.93.32-20.05,5.14-.93,4,7.38,7.57,6.7,11.43-1.6,8.95-48.57,2.56-51.31,13.87-1.06,4.38,5.56,7,5.21,12.25-.78,11.38-33.24,22.85-66.18,21.22C241.66,288.36,244,272.3,201,265.68c-33.52-5.16-57.14,1.18-69.89-17.14-2.68-3.85-6.84-9.82-5.95-16.33,5.06-37.24,167.35-35.07,287.75-33.47" transform="translate(-102.01 -47.54)"/></g></g><g class="cls-4"><g class="cls-7"><path class="cls-6" d="M226.88,218.09c2.77,0,9.18,1.12,22,3.42,16,2.87,18.87,3.93,18.9,5.14,0,1.46-4.11,2.33-14.61,5.95-10.26,3.54-12.27,4.78-15.73,5.85-17.2,5.36-40-2.66-40.22-8.75-.14-5.17,16-11.44,29.65-11.61" transform="translate(-102.01 -47.54)"/></g></g><g class="cls-4"><g class="cls-8"><path class="cls-6" d="M432.48,203.11c3.33.24,20.56,1.46,20.79,4.92.25,3.84-20.57,8.38-25.28,9.4-7,1.53-18.7,3.63-50.14,4.48-17.52.47-26.28.71-26.48-.36-.85-4.4,39.28-21.42,81.11-18.44" transform="translate(-102.01 -47.54)"/></g></g><g class="cls-4"><g class="cls-9"><path class="cls-6" d="M363.06,235.92c9.87,1.84,13.08,1.12,13.25,2.32.26,1.81-6.78,5-13.64,5.49-1.84.12-10.09.65-11.53-3.38a4.94,4.94,0,0,1,1-4.64c1.81-2,4.87-.92,11,.21" transform="translate(-102.01 -47.54)"/></g></g><g class="cls-4"><g class="cls-10"><path class="cls-6" d="M291.2,267.35c3.79.74,14.12,2.73,14.21,5.91.12,3.74-14,7-20.17,8.44-11.34,2.62-19.95,4.5-30.55,1.26-2.85-.87-15-4.57-14.79-8.86.27-6.36,27.62-11.33,51.3-6.75" transform="translate(-102.01 -47.54)"/></g></g><g class="cls-4"><g class="cls-11"><path class="cls-6" d="M219,212.93c0,.84-6.77.12-15.56,4.64a25.24,25.24,0,0,0-7.71,5.47c-4.47,4.84-4,8.65-6.51,12-6.84,9.2-26.94,3.28-26.9,2.11,0-.94,12.73,3.33,22.36-4.62,7.85-6.5,5.71-14.57,13.38-19.64,8.89-5.88,21-1.12,20.94,0" transform="translate(-102.01 -47.54)"/></g></g></g><g class="cls-12"><polygon class="cls-13" points="356.6 164.5 335.92 112.88 269.82 144.79 290.49 196.41 356.6 164.5"/></g><g class="cls-14"><rect class="cls-15" x="184.84" y="138.7" width="105.84" height="29.59"/></g><g class="cls-16"><rect class="cls-17" x="182.86" y="137.52" width="110.22" height="32.17"/></g><g class="cls-18"><polygon class="cls-19" points="267.03 103.41 283.01 162.54 357.18 138.36 341.19 79.24 267.03 103.41"/></g><g class="cls-20"><rect class="cls-21" x="184.84" y="101.37" width="105.84" height="38.64"/></g><g class="cls-22"><rect class="cls-23" x="182.86" y="99.64" width="110.22" height="42.51"/></g><g class="cls-24"><rect class="cls-25" x="284.47" y="74.6" width="60.4" height="26.51"/></g><g class="cls-26"><polygon class="cls-27" points="346.8 72.42 281.77 73.2 282.07 103.11 347.1 102.33 346.8 72.42"/></g><g class="cls-28"><rect class="cls-29" x="184.84" y="74.46" width="105.84" height="25.04"/></g><g class="cls-30"><rect class="cls-31" x="182.86" y="73.2" width="110.22" height="3.65"/></g><g class="cls-32"><rect class="cls-33" x="182.86" y="97.2" width="110.22" height="3.66"/></g><g class="cls-3"><g class="cls-34"><g class="cls-35"><path class="cls-36" d="M397.8,183.64l11.58-.73c2.79-8.75,2.58-17.19,0-27.46l-11.58,0a62.19,62.19,0,0,1,0,28.15" transform="translate(-102.01 -47.54)"/></g></g><g class="cls-37"><g class="cls-38"><g class="cls-39"><polygon class="cls-40" points="334.09 124.53 352.35 94.85 326.31 75.54 308.06 105.22 334.09 124.53"/></g></g></g></g><g class="cls-41"><polygon class="cls-42" points="336.06 125.71 355.05 94.85 327.41 74.35 308.43 105.22 336.06 125.71"/></g><g class="cls-43"><polygon class="cls-44" points="33.79 15.3 128.55 37.28 101.51 177.78 6.75 155.8 33.79 15.3"/></g><g class="cls-3"><g class="cls-45"><g class="cls-46"><path class="cls-36" d="M161.3,82.89c2.75,3.16-8.53,12-8.58,27,0,16.1,12.95,29.48,18.95,35.67,10.24,10.55,15.54,10,21.42,20.6,2.33,4.21,7.18,13,4.59,23.06-.24.93-3.06,11.33-11.43,14.69-9.49,3.8-18.89-4.35-27-11.37-4.9-4.25-14.69-12.73-12.67-19.2,1.24-4,6.6-6.25,10.67-6.35,5.82-.14,9.83,4.16,10.53,3.21s-2-5.17-6.06-8.83c-8.09-7.33-13.5-4.55-19.32-11-.71-.78-6.22-7-5-14.47.72-4.27,3.7-9,7-9.21,3.73-.2,6.26,5.58,7.24,4.92s-.81-6.28-3.27-11.59c-3.62-7.81-5.79-8.38-6.8-13-1.55-7.11,1.83-13.42,2.33-14.32,4.67-8.43,15-12.45,17.39-9.75" transform="translate(-102.01 -47.54)"/></g></g></g><g class="cls-47"><polygon class="cls-48" points="0 162.31 80.31 177.42 92.9 96.76 12.58 81.66 0 162.31"/></g><g class="cls-3"><g class="cls-45"><g class="cls-49"><path class="cls-36" d="M122.34,148.22c2.1-3.21,7-3.88,10.18-3.14,4.61,1.06,8.64,5.64,9.63,10.7,1.55,7.87-5,13.25-2.35,17.46,1.38,2.22,4.72,3.18,6.79,2.11,3.65-1.88,2.28-9.46,4.94-10.27,1.89-.58,5.1,2.54,6.27,6.26,2.34,7.44-4.16,15-2,17.14.52.51,2.75.19,7.22-.46,3.37-.49,3.77-.72,4.68-.36,2.76,1.09,2.33,4.5,4.93,5.88,3,1.6,6.5-1.38,7-.56s-2.75,5.16-6.67,7.14c-9.28,4.69-21.37-4.21-25.63-7.34-17.17-12.64-30.36-36.38-25-44.56" transform="translate(-102.01 -47.54)"/></g></g></g><g class="cls-50"><rect class="cls-51" x="73.11" y="32.1" width="182.28" height="141.99"/></g><g class="cls-3"><path class="cls-52" d="M171.75,89l178.39-9.67a2.83,2.83,0,0,1,3,2.83l1.17,136.5a2.8,2.8,0,0,1-2.94,2.87L172.82,213.3a2.61,2.61,0,0,1-2.28-2.71l-1-118.83A2.6,2.6,0,0,1,171.75,89" transform="translate(-102.01 -47.54)"/><g class="cls-53"><g class="cls-54"><path class="cls-36" d="M175.82,205.05l166.93,6.58a1.35,1.35,0,0,0,1.4-1.38l-1-120.8a1.36,1.36,0,0,0-1.43-1.36l-166.8,8.06a1.25,1.25,0,0,0-1.09,1.32l.92,106.27a1.26,1.26,0,0,0,1.11,1.31" transform="translate(-102.01 -47.54)"/></g></g></g><g class="cls-55"><polygon class="cls-56" points="101.88 90.58 179.98 207.41 281.13 116.83 203.03 0 101.88 90.58"/></g><g class="cls-3"><g class="cls-57"><g class="cls-58"><g class="cls-59"><polygon class="cls-60" points="136.72 114.72 156.75 147.14 185.1 123.69 165.07 91.26 136.72 114.72"/></g></g></g><g class="cls-57"><g class="cls-61"><g class="cls-62"><polygon class="cls-63" points="147.3 116.67 158.5 134.78 174.34 121.67 163.15 103.56 147.3 116.67"/></g></g></g></g><g class="cls-64"><polygon class="cls-65" points="156.61 118.38 160.07 123.97 164.96 119.92 161.51 114.33 156.61 118.38"/></g><g class="cls-3"><g class="cls-57"><g class="cls-66"><g class="cls-67"><polygon class="cls-68" points="171.93 75.16 192.82 108.98 222.49 84.43 201.6 50.61 171.93 75.16"/></g></g></g><g class="cls-57"><g class="cls-69"><g class="cls-70"><polygon class="cls-71" points="182.98 77.26 194.66 96.17 211.26 82.44 199.57 63.53 182.98 77.26"/></g></g></g></g><g class="cls-72"><polygon class="cls-73" points="192.72 79.09 196.32 84.92 201.44 80.68 197.84 74.86 192.72 79.09"/></g><g class="cls-3"><polygon class="cls-52" points="83.67 60.71 133.78 58.79 133.75 55.89 83.65 57.92 83.67 60.71"/><polygon class="cls-52" points="109.98 68.45 133.85 67.7 133.83 64.79 109.96 65.6 109.98 68.45"/><polygon class="cls-52" points="110.02 73.18 133.89 72.52 133.87 69.61 110 70.33 110.02 73.18"/><polygon class="cls-52" points="110.06 77.91 133.94 77.34 133.91 74.43 110.04 75.06 110.06 77.91"/><polygon class="cls-52" points="110.1 82.64 133.98 82.16 133.95 79.25 110.08 79.79 110.1 82.64"/><polygon class="cls-52" points="83.75 69.27 106.64 68.55 106.62 65.71 83.72 66.48 83.75 69.27"/><polygon class="cls-52" points="83.79 73.91 106.68 73.27 106.66 70.43 83.76 71.11 83.79 73.91"/><polygon class="cls-52" points="83.83 78.54 106.72 77.99 106.7 75.15 83.8 75.75 83.83 78.54"/><polygon class="cls-52" points="83.87 83.17 106.76 82.71 106.74 79.87 83.84 80.38 83.87 83.17"/><polygon class="cls-52" points="83.95 92.97 134.06 92.35 134.04 89.45 83.93 90.18 83.95 92.97"/><path class="cls-52" d="M236.59,200.82a.14.14,0,0,0,.12-.06.19.19,0,0,0,0-.13l-.27-31.38a.17.17,0,0,0-.16-.18l-50.13-.5h0a.18.18,0,0,0-.12.05.21.21,0,0,0-.05.13l.26,30.17a.18.18,0,0,0,.17.18l50.13,1.72Zm-.43-31.38.26,31-49.79-1.7-.26-29.8Zm-49.7,29.48Z" transform="translate(-102.01 -47.54)"/><polygon class="cls-52" points="110.26 101.39 134.14 101.25 134.12 98.35 110.24 98.54 110.26 101.39"/><polygon class="cls-52" points="110.31 106.12 134.18 106.08 134.16 103.17 110.28 103.27 110.31 106.12"/><polygon class="cls-52" points="110.35 110.85 134.22 110.89 134.2 107.99 110.32 108 110.35 110.85"/><polygon class="cls-52" points="110.39 115.58 134.27 115.71 134.24 112.81 110.36 112.73 110.39 115.58"/><polygon class="cls-52" points="84.03 101.54 106.92 101.41 106.9 98.57 84 98.75 84.03 101.54"/><polygon class="cls-52" points="84.07 106.17 106.97 106.13 106.94 103.28 84.04 103.38 84.07 106.17"/><polygon class="cls-52" points="84.11 110.81 107.01 110.85 106.98 108 84.08 108.01 84.11 110.81"/><polygon class="cls-52" points="84.15 115.44 107.05 115.56 107.02 112.72 84.12 112.65 84.15 115.44"/><path class="cls-52" d="M236.39,177.32a.18.18,0,0,0,.17-.18.17.17,0,0,0-.17-.19l-50.12-.81a.17.17,0,0,0-.17.18.18.18,0,0,0,.16.19l50.13.81Z" transform="translate(-102.01 -47.54)"/><path class="cls-52" d="M227.51,200.51h0a.18.18,0,0,0,.17-.19l-.2-23.33a.18.18,0,0,0-.17-.19h0a.19.19,0,0,0-.17.19l.21,23.33a.17.17,0,0,0,.16.19" transform="translate(-102.01 -47.54)"/><path class="cls-52" d="M215.73,200.1h0a.16.16,0,0,0,.16-.18l-.19-23.12a.18.18,0,0,0-.17-.19h0a.18.18,0,0,0-.17.19l.2,23.12a.17.17,0,0,0,.17.18" transform="translate(-102.01 -47.54)"/><path class="cls-52" d="M212.71,200h0a.18.18,0,0,0,.17-.19l-.2-23.06a.19.19,0,0,0-.17-.19h0a.19.19,0,0,0-.17.19l.2,23.07a.18.18,0,0,0,.17.18" transform="translate(-102.01 -47.54)"/><path class="cls-52" d="M209.7,199.9h0a.18.18,0,0,0,.16-.19l-.2-23a.17.17,0,0,0-.16-.18h0a.17.17,0,0,0-.16.18l.2,23a.17.17,0,0,0,.16.18" transform="translate(-102.01 -47.54)"/><path class="cls-52" d="M197.81,199.49h0a.17.17,0,0,0,.17-.18l-.2-22.8a.17.17,0,0,0-.17-.19h0a.18.18,0,0,0-.16.19l.19,22.8a.18.18,0,0,0,.17.18" transform="translate(-102.01 -47.54)"/><g class="cls-57"><g class="cls-74"><g class="cls-75"><polygon class="cls-76" points="153.84 76.36 166.93 97.56 185.47 82.22 172.37 61.02 153.84 76.36"/></g></g></g><g class="cls-57"><g class="cls-77"><g class="cls-78"><polygon class="cls-79" points="160.75 77.63 168.07 89.48 178.43 80.9 171.12 69.06 160.75 77.63"/></g></g></g></g><g class="cls-80"><polygon class="cls-81" points="166.84 78.75 169.1 82.41 172.3 79.76 170.04 76.1 166.84 78.75"/></g><g class="cls-82"><polygon class="cls-83" points="242.78 137.49 244.33 142.04 239.51 144.02 237.96 139.46 242.78 137.49"/></g><g class="cls-3"><path class="cls-36" d="M344.35,189.51l1-1a4.91,4.91,0,0,0,4.48,1.5c1.75-.41,2.76-2,3.41-3,1.94-3,.78-5.24,2.87-7.29a3.18,3.18,0,0,1,2.46-1c1.77.5,2.79,6.35,1.07,11-.34.92-2.25,6-6.57,6.59-3.5.45-7.2-2.25-8.74-6.72" transform="translate(-102.01 -47.54)"/><g class="cls-84"><g class="cls-85"><g class="cls-86"><rect class="cls-87" x="242.35" y="135.47" width="16.32" height="13.67"/></g></g></g></g><g class="cls-88"><polygon class="cls-89" points="263.05 190.78 266.6 190.9 266.55 192.86 263 192.74 263.05 190.78"/></g><g class="cls-90"><polygon class="cls-91" points="264.5 191.02 265.7 188.97 267.41 190.18 266.21 192.23 264.5 191.02"/></g><g class="cls-92"><polygon class="cls-93" points="251.03 188.87 254.98 190.06 254.34 192.63 250.39 191.44 251.03 188.87"/></g><g class="cls-94"><polygon class="cls-95" points="252.47 189.88 253.89 187.83 255.71 189.35 254.29 191.4 252.47 189.88"/></g><g class="cls-96"><polygon class="cls-97" points="263.44 194.5 277.56 159.54 255.34 148.71 241.21 183.68 263.44 194.5"/></g><g class="cls-98"><polygon class="cls-99" points="270.63 194.99 287.9 163.38 266.27 149.13 249 180.74 270.63 194.99"/></g><g class="cls-100"><rect class="cls-101" x="255.79" y="129.91" width="14.83" height="29.78"/></g><g class="cls-3"><path class="cls-36" d="M357.88,178.75a9.42,9.42,0,0,1,4.36-1.21,44.06,44.06,0,0,1,2.41,10.08c.45,3.91.24,6.5,0,11.86-.16,3.39-.31,8.3-.26,14.36a7.22,7.22,0,0,1-2.23.42c-1.83,0-2.44-.68-4.31-.48-.82.09-1,.26-1.3.06-.76-.56-.19-2.64.2-4.89.59-3.49-.06-2.77.52-8.42.48-4.68,1.15-7.3.53-7.57-.33-.14-.64-13.8.08-14.21" transform="translate(-102.01 -47.54)"/><g class="cls-84"><g class="cls-102"><g class="cls-103"><polygon class="cls-104" points="255.39 126.26 241.5 160.75 261.59 170.5 275.48 136.01 255.39 126.26"/></g></g></g><path class="cls-36" d="M366.32,188.28a15.42,15.42,0,0,0-.33,4.42c.25,7.06.37,10.61.48,11.62.52,4.88.89,4.58.76,6.56-.06,1.06-.22,2,.31,2.64s1.54.37,3.77.68c2.05.29,2.11.77,4.33,1.07.9.12,3.36.44,3.62-.33.13-.41-.37-1.08-.87-1.42-.79-.54-1.48-.13-1.75-.57s.53-1.13.56-2.32-.78-1.58-1.28-3a7.33,7.33,0,0,1-.21-3.33c.32-3.66-1.14-6.56-1.43-11.4-.46-7.55,2.48-10.87.49-13.29a4.87,4.87,0,0,0-4-1.42c-1.16,2.65-2.15,4.72-2.86,6.15a17.37,17.37,0,0,0-1.62,4" transform="translate(-102.01 -47.54)"/><path class="cls-36" d="M361.85,186.33c.16-.62.68-1.21.48-1.94a1.66,1.66,0,0,0-.68-.88,3.49,3.49,0,0,1-2.51-3.75,3.58,3.58,0,0,1,.71-1.84,9.51,9.51,0,0,1,2.39-.38,44.06,44.06,0,0,1,2.41,10.08,39,39,0,0,1,.26,5.08,6.68,6.68,0,0,0-1.07-2.24c-.7-.93-2.39-2.61-2-4.13" transform="translate(-102.01 -47.54)"/><g class="cls-105"><g class="cls-106"><g class="cls-37"><g class="cls-106"><g class="cls-107"><rect class="cls-108" x="263.9" y="130.61" width="9.52" height="37.09"/></g></g></g></g></g><path class="cls-36" d="M371,184.21c-.91.88-1.56,1.18-1.68,2s.58,1.24.46,2.15c-.15,1.13-1.32,1.14-1.92,2.58-.39.95-.05,1.33-.29,2.55a6.4,6.4,0,0,1-1.47,3c0-1.12-.08-2.37-.13-3.76a15.42,15.42,0,0,1,.33-4.42,17.37,17.37,0,0,1,1.62-4c.71-1.43,1.7-3.5,2.86-6.15a6.73,6.73,0,0,1,2.36.33,3.12,3.12,0,0,1,.35,1.28c.06,2-1.89,3.85-2.49,4.45" transform="translate(-102.01 -47.54)"/></g><g class="cls-109"><polygon class="cls-110" points="270.41 131.29 266.77 122.96 258.76 127.19 262.4 135.51 270.41 131.29"/></g><g class="cls-111"><polygon class="cls-112" points="262.33 130.2 260.36 124.64 265.33 122.51 267.31 128.07 262.33 130.2"/></g><g class="cls-113"><polygon class="cls-114" points="261.74 125.59 261.57 129.19 265.39 129.41 265.56 125.81 261.74 125.59"/></g><g class="cls-115"><polygon class="cls-116" points="262.31 130.78 260.81 126.55 264.8 124.84 266.3 129.07 262.31 130.78"/></g><g class="cls-117"><polygon class="cls-118" points="263.04 127.86 263.08 128.28 262.3 128.37 262.26 127.95 263.04 127.86"/></g><g class="cls-3"><path class="cls-36" d="M370.28,189.74c-.58,1.35,2.09,4.51,5.06,6,.61.31,5,2.5,6.9.39,1.6-1.74.56-5.35.2-6.63a18.67,18.67,0,0,0-9.28-11c-1.74,4.78-1.15,7.23-.74,7.9a24.49,24.49,0,0,0,2.84,3.43c.88.91,1.43,1.35,1.35,1.49s-1.12-.16-5.12-2.29a1.51,1.51,0,0,0-1.21.73" transform="translate(-102.01 -47.54)"/></g><g class="cls-119"><polygon class="cls-120" points="256.74 145.79 258.07 132.96 269.69 134.41 268.35 147.24 256.74 145.79"/></g><g class="cls-121"><polygon class="cls-122" points="269.28 137.92 269.97 142.56 265.09 143.44 264.4 138.8 269.28 137.92"/></g><g class="cls-3"><g class="cls-37"><g class="cls-123"><g class="cls-124"><polygon class="cls-125" points="256.77 145.43 258.02 133.43 265.69 134.39 264.44 146.39 256.77 145.43"/></g></g></g><g class="cls-37"><g class="cls-126"><g class="cls-127"><rect class="cls-128" x="67.54" y="44.15" width="17.77" height="9.86"/></g><g class="cls-129"><rect class="cls-130" x="68.29" y="42.87" width="76.95" height="124.4"/></g></g></g></g><g class="cls-131"><polygon class="cls-132" points="45.36 173.61 46.27 231.1 222.69 227.73 221.78 170.23 45.36 173.61"/></g><g class="cls-133"><polygon class="cls-134" points="130.22 42.93 112.5 42.93 111.12 53.19 128.83 53.19 130.22 42.93"/></g><g class="cls-3"><path class="cls-36" d="M189.82,212.33l24.32-15a50.13,50.13,0,0,0,23.13-35.53L244,111.86c1.32-9.75-5.13-17.57-14.38-18a1.5,1.5,0,0,0-1.49,1.36l-.08.62a1.55,1.55,0,0,0,1.32,1.81c7,.65,11.85,6.74,10.84,14.26l-6.72,49.76a46,46,0,0,1-21.09,32.5l-24.24,15Z" transform="translate(-102.01 -47.54)"/></g><g class="cls-135"><rect class="cls-136" x="83.53" y="110.87" width="53.38" height="55.59"/></g><g class="cls-3"><path class="cls-36" d="M179.74,211.38l2.4-2.75L163.6,190.54c-8.15-7.95-11.95-19.92-10.3-32.15l6.2-45.85c1-7.43,7.4-13.61,14.35-13.76l.48-3.55c-8.75.23-16.77,8-18,17.34l-6.17,45.69a44.28,44.28,0,0,0,1.55,19.19,38.54,38.54,0,0,0,9.6,15.81Z" transform="translate(-102.01 -47.54)"/></g><g class="cls-137"><rect class="cls-138" x="46.04" y="107.74" width="36.19" height="57.97"/></g><g class="cls-139"><polygon class="cls-140" points="88.17 46.12 72.57 37.7 66.12 52.12 81.73 60.53 88.17 46.12"/></g><g class="cls-3"><path class="cls-141" d="M184.29,215.47a16,16,0,0,0,10.77-2.95l4.71-3.32a4.75,4.75,0,0,0,1.39-6.3,4.1,4.1,0,0,0-6-1.07l-4.67,3.33a7.1,7.1,0,0,1-9.51-.79l-3.67-4a3.93,3.93,0,0,0-5.82.11,4.62,4.62,0,0,0-.29,6.2l3.62,4.05a14.5,14.5,0,0,0,9.43,4.78" transform="translate(-102.01 -47.54)"/><path class="cls-141" d="M182.56,226.8a4.49,4.49,0,0,0,4.79-4l1.71-12.65a4.13,4.13,0,0,0-3.6-4.83,4.55,4.55,0,0,0-4.75,4L179,221.92a4.2,4.2,0,0,0,3.55,4.88" transform="translate(-102.01 -47.54)"/></g><g class="cls-142"><polygon class="cls-143" points="84.56 46.92 80.02 45.9 78.94 51.72 83.47 52.73 84.56 46.92"/></g><g class="cls-144"><polygon class="cls-145" points="288.12 30.11 313.03 48.69 297.38 73.98 272.47 55.41 288.12 30.11"/></g><g class="cls-3"><path class="cls-36" d="M385.08,99.5c-.7-.7-3.19.65-4.84,2.44-1.94,2.09-1.79,3.8-3.48,6.4a14.5,14.5,0,0,1-4.84,4.57l.54,1.49a9.07,9.07,0,0,0,5.93-1.59c1.57-1.13,2.38-2.62,3.93-5.56s3.63-6.88,2.76-7.75" transform="translate(-102.01 -47.54)"/></g><g class="cls-146"><polygon class="cls-147" points="265.72 91.53 269.68 88.62 272.45 93.17 268.5 96.07 265.72 91.53"/></g><g class="cls-148"><polygon class="cls-149" points="266.99 92.59 268.25 88.44 271.32 89.57 270.06 93.72 266.99 92.59"/></g><g class="cls-150"><rect class="cls-151" x="267.04" y="82.34" width="2.5" height="4.23"/></g><g class="cls-152"><polygon class="cls-153" points="266.59 84.08 267.66 80.56 270.03 81.43 268.96 84.95 266.59 84.08"/></g><g class="cls-154"><polygon class="cls-155" points="275.27 66.86 277.62 81.82 267.44 83.76 265.08 68.79 275.27 66.86"/></g><g class="cls-156"><polygon class="cls-157" points="261.84 87.56 270.33 58.06 296.67 67.2 288.18 96.69 261.84 87.56"/></g><g class="cls-3"><g class="cls-37"><g class="cls-158"><g class="cls-159"><polygon class="cls-160" points="266.27 75.82 271.47 57.78 293.49 65.42 288.3 83.46 266.27 75.82"/></g></g></g></g><g class="cls-161"><polygon class="cls-162" points="290.38 64.17 292.33 76.53 272.12 80.37 270.17 68.01 290.38 64.17"/></g><g class="cls-3"><path class="cls-36" d="M385.71,99.76s4.53-1.45,6.53,1a4.72,4.72,0,0,1,.87,2.21c1.07,5.89-3,9.43-1.39,12.54.63,1.24,1.75,1.61,2.55,3.83.13.38.62,1.73.17,2.16s-1-.42-2.19-.26-1.5,1.19-2.32,1c-.54-.1-.77-.6-1.56-1.85a16.59,16.59,0,0,0-2.11-3c-1.62-1.25-2.86.38-4.7-.86a20.08,20.08,0,0,1-2.41-3,10,10,0,0,0,2.17-5.67c.05-1.49-.35-2.17,0-3.93a9.2,9.2,0,0,1,1.78-3.64c.2-.25.43-.5,2.61-.59" transform="translate(-102.01 -47.54)"/></g><g class="cls-163"><polygon class="cls-164" points="288.16 53.93 286.91 47.67 280.46 49.23 281.71 55.49 288.16 53.93"/></g><g class="cls-165"><polygon class="cls-166" points="281.62 47.91 282.37 52.16 286.17 51.35 285.42 47.1 281.62 47.91"/></g><g class="cls-3"><g class="cls-84"><g class="cls-167"><g class="cls-168"><rect class="cls-169" x="276.42" y="59.66" width="16.47" height="15.26"/></g></g></g></g><g class="cls-170"><rect class="cls-171" x="275.5" y="66.66" width="11.3" height="1.84"/></g><g class="cls-172"><polygon class="cls-173" points="272.33 51.88 283.69 64.26 272.45 76.69 261.09 64.32 272.33 51.88"/></g><g class="cls-3"><g class="cls-37"><g class="cls-174"><g class="cls-175"><polygon class="cls-176" points="274 53.93 283.59 64.37 274.1 74.87 264.51 64.43 274 53.93"/></g></g></g><path class="cls-36" d="M387.21,113.82c-.14-.39-.27-.77-.4-1.16,1.47-.44,3.51-1.1,5.61-1.92.33-.13.72-.29.84-.67.36-1.06-1.91-2.16-2.8-4.48-.82-2.15-.37-5.13.58-5.48,2-.73,9,8.85,6.48,12.88-1.41,2.29-5.77,2.65-10.31.83" transform="translate(-102.01 -47.54)"/></g><g class="cls-177"><polygon class="cls-178" points="280.58 65.91 283.51 68.94 286.21 65.79 283.28 62.76 280.58 65.91"/></g><g class="cls-3"><path class="cls-141" d="M256.07,229.07a.28.28,0,0,0,.26-.29V164.57a.26.26,0,1,0-.52,0v64.21a.28.28,0,0,0,.26.29" transform="translate(-102.01 -47.54)"/><path class="cls-141" d="M230.52,227.75a.28.28,0,0,0,.26-.29V164.57a.26.26,0,1,0-.52,0v62.89a.28.28,0,0,0,.26.29" transform="translate(-102.01 -47.54)"/><path class="cls-179" d="M233.1,236.59a.26.26,0,0,0,.25-.22l15.35-71.15a.3.3,0,0,0-.2-.35.25.25,0,0,0-.31.21l-15.34,71.16a.27.27,0,0,0,.19.34h.06" transform="translate(-102.01 -47.54)"/><path class="cls-179" d="M209.37,233.09a.26.26,0,0,0,.25-.21l15.72-67.66a.3.3,0,0,0-.19-.35.27.27,0,0,0-.32.21l-15.72,67.66a.28.28,0,0,0,.19.34h.07" transform="translate(-102.01 -47.54)"/><polygon class="cls-52" points="122.18 117.67 146.65 118.24 154.49 117.67 154.49 116.4 136.26 115.99 122.18 116.4 122.18 117.67"/></g><g class="cls-180"><rect class="cls-181" x="235.45" y="152.62" width="1.93" height="24.48" transform="translate(-31.32 353.13) rotate(-89.79)"/></g><g class="cls-3"><path class="cls-179" d="M245.13,180.8a.29.29,0,0,0,0-.57l-23-1.41a.26.26,0,0,0-.27.27.27.27,0,0,0,.24.3l23.06,1.41h0" transform="translate(-102.01 -47.54)"/><path class="cls-179" d="M242.08,195a.27.27,0,0,0,.26-.27.29.29,0,0,0-.24-.31l-23.45-1.71a.27.27,0,0,0-.27.26.28.28,0,0,0,.24.31L242.06,195h0" transform="translate(-102.01 -47.54)"/><path class="cls-179" d="M239.05,209a.27.27,0,0,0,.26-.26.28.28,0,0,0-.24-.31l-23.62-2a.28.28,0,0,0-.28.27.29.29,0,0,0,.24.31L239,209h0" transform="translate(-102.01 -47.54)"/><path class="cls-179" d="M236,223a.26.26,0,0,0,.26-.26.29.29,0,0,0-.23-.31L212.3,220.1a.28.28,0,0,0-.29.26.3.3,0,0,0,.24.31L236,223h0" transform="translate(-102.01 -47.54)"/></g><g class="cls-182"><polygon class="cls-183" points="140.14 114 140 116.04 143.6 116.35 143.75 114.32 140.14 114"/></g><g class="cls-184"><polygon class="cls-185" points="141.17 114.89 141.19 113.35 140.25 113.33 140.23 114.87 141.17 114.89"/></g><g class="cls-186"><polygon class="cls-187" points="129.11 113.33 128.89 116.42 131.38 116.63 131.6 113.54 129.11 113.33"/></g><g class="cls-188"><polygon class="cls-189" points="130.69 114.3 130.72 112.09 129.4 112.07 129.37 114.28 130.69 114.3"/></g><g class="cls-190"><rect class="cls-191" x="136.31" y="87.17" width="6.36" height="26.78"/></g><g class="cls-3"><g class="cls-37"><g class="cls-192"><g class="cls-193"><rect class="cls-194" x="136.31" y="86.7" width="5.9" height="27.25"/></g></g></g></g><g class="cls-195"><rect class="cls-196" x="128.8" y="86.78" width="12.16" height="26.29"/></g><g class="cls-197"><polygon class="cls-198" points="130.23 49.37 103.84 75.89 127.39 104.14 153.78 77.62 130.23 49.37"/></g><g class="cls-199"><rect class="cls-200" x="159.07" y="65.71" width="2.55" height="3.96"/></g><g class="cls-201"><polygon class="cls-202" points="150.17 58.41 135.49 75.84 151.57 92.16 166.25 74.73 150.17 58.41"/></g><g class="cls-203"><polygon class="cls-204" points="134.16 57.64 111.47 84.58 136.2 109.68 158.89 82.73 134.16 57.64"/></g><g class="cls-205"><polygon class="cls-206" points="125.51 88.56 126.18 84.55 128.76 85.06 128.1 89.07 125.51 88.56"/></g><g class="cls-3"><g class="cls-37"><g class="cls-207"><g class="cls-208"><polygon class="cls-209" points="126.85 63.87 114.13 90.89 139.65 105.38 152.37 78.36 126.85 63.87"/></g></g></g></g><g class="cls-210"><polygon class="cls-211" points="146.5 73 144.26 67.14 137.92 70.06 140.15 75.91 146.5 73"/></g><g class="cls-212"><polygon class="cls-213" points="144.86 69.55 142.85 67.49 140.97 69.71 142.99 71.76 144.86 69.55"/></g><g class="cls-214"><polygon class="cls-215" points="132.95 65.16 120.87 79.5 133.93 92.75 146 78.41 132.95 65.16"/></g><g class="cls-3"><path class="cls-216" d="M347.79,239.47a.79.79,0,0,0,.75-.83V203.5a.76.76,0,1,0-1.51,0v35.14a.8.8,0,0,0,.76.83" transform="translate(-102.01 -47.54)"/><path class="cls-216" d="M287.76,232.83a.8.8,0,0,0,.75-.83V200.14a.76.76,0,1,0-1.51,0V232a.8.8,0,0,0,.76.83" transform="translate(-102.01 -47.54)"/><path class="cls-216" d="M347.92,239.88l-20,7.15a3.86,3.86,0,0,1-1.65.21l-62.35-6.15a.65.65,0,0,1-.09-1.25l23.72-6.7a.46.46,0,0,1,.2,0l60,5.52a.65.65,0,0,1,.13,1.24" transform="translate(-102.01 -47.54)"/><path class="cls-52" d="M347.92,238.53l-20,7.16a3.7,3.7,0,0,1-1.65.2l-62.35-6.15a.64.64,0,0,1-.09-1.24l23.72-6.71a.68.68,0,0,1,.2,0l60,5.53a.64.64,0,0,1,.13,1.23" transform="translate(-102.01 -47.54)"/><path class="cls-216" d="M356.54,204.7a1.14,1.14,0,0,0,1.09-1.14,1.17,1.17,0,0,0-1-1.26L283.11,198a1.14,1.14,0,0,0-1.15,1.13,1.17,1.17,0,0,0,1,1.27l73.49,4.3h.06" transform="translate(-102.01 -47.54)"/></g><g class="cls-217"><rect class="cls-218" x="217.4" y="188.24" width="2.76" height="3.84"/></g><g class="cls-219"><rect class="cls-220" x="209.67" y="191.87" width="3.86" height="2.63"/></g><g class="cls-221"><polygon class="cls-222" points="200.34 159.17 211.52 194.26 234.62 185.39 223.44 150.3 200.34 159.17"/></g><g class="cls-223"><polygon class="cls-224" points="200.02 191.44 216.22 194.15 221.54 155.96 205.34 153.24 200.02 191.44"/></g><g class="cls-225"><polygon class="cls-226" points="220.8 131.55 214.01 152.48 234.08 160.32 240.87 139.39 220.8 131.55"/></g><g class="cls-227"><polygon class="cls-228" points="206.2 129.14 195.28 162.82 222.78 173.57 233.7 139.89 206.2 129.14"/></g><g class="cls-3"><g class="cls-37"><g class="cls-229"><g class="cls-230"><polygon class="cls-231" points="207.81 132.72 197.84 163.47 229.3 175.77 239.27 145.01 207.81 132.72"/></g></g></g></g><g class="cls-232"><polygon class="cls-233" points="227.3 131.51 205.03 138.64 211.93 164.61 234.19 157.49 227.3 131.51"/></g><g class="cls-234"><polygon class="cls-235" points="221.69 137.37 221.58 137.79 222.24 138.01 222.36 137.59 221.69 137.37"/></g><g class="cls-236"><polygon class="cls-237" points="212.9 137.82 217.62 128.93 226.39 134.53 221.67 143.42 212.9 137.82"/></g><g class="cls-238"><polygon class="cls-239" points="223.52 138.33 227.22 132.61 221.94 128.49 218.24 134.21 223.52 138.33"/></g><g class="cls-240"><polygon class="cls-241" points="225.48 133.16 224.67 137.68 219.74 136.62 220.55 132.1 225.48 133.16"/></g><g class="cls-3"><path class="cls-216" d="M326.28,246.72a.8.8,0,0,0,.76-.83v-38.4a.76.76,0,1,0-1.51,0v38.4a.79.79,0,0,0,.75.83" transform="translate(-102.01 -47.54)"/><path class="cls-216" d="M263.5,240.57a.8.8,0,0,0,.76-.83v-35a.76.76,0,1,0-1.51,0v35a.79.79,0,0,0,.75.83" transform="translate(-102.01 -47.54)"/></g><g class="cls-242"><polygon class="cls-243" points="234.52 153.62 235.75 157.05 240.12 155.17 238.89 151.74 234.52 153.62"/></g><g class="cls-3"><path class="cls-52" d="M337.27,209.12a1.14,1.14,0,0,0,1.09-1.14,1.16,1.16,0,0,0-1-1.26l-80.5-4.42a1.14,1.14,0,0,0-1.15,1.14,1.16,1.16,0,0,0,1,1.26l80.5,4.42h0" transform="translate(-102.01 -47.54)"/></g><g class="cls-244"><polygon class="cls-245" points="227.02 158.69 228.62 163.15 233.73 160.94 232.13 156.48 227.02 158.69"/></g><g class="cls-246"><polygon class="cls-247" points="205.69 177.18 134.74 159.19 119.15 233.25 190.1 251.25 205.69 177.18"/></g><g class="cls-248"><polygon class="cls-249" points="204.03 177.71 134.48 160.07 119.07 233.31 188.62 250.95 204.03 177.71"/></g><g class="cls-250"><rect class="cls-251" x="134.03" y="177.26" width="54.82" height="56.29"/></g><g class="cls-3"><g class="cls-252"><g class="cls-253"><path class="cls-254" d="M244.44,250.12c-1.85,11.17,4.83,21.23,15.09,22.48,10.41,1.28,20.52-7,22.44-18.46s-5.15-21.58-15.61-22.54S246.3,239,244.44,250.12" transform="translate(-102.01 -47.54)"/></g></g><g class="cls-252"><g class="cls-255"><path class="cls-254" d="M254.48,251.2c-.85,5.11,2.23,9.68,6.91,10.21s9.26-3.21,10.12-8.39-2.29-9.75-7-10.23-9.16,3.3-10,8.41" transform="translate(-102.01 -47.54)"/></g></g><g class="cls-252"><g class="cls-256"><path class="cls-254" d="M249.18,271.83c6-7.63,1.9-15,7.67-22.35,7.34-9.35,19.28-4.09,24.35-12.63a12.48,12.48,0,0,0,1.51-4.06,27,27,0,0,1,5.6,22c-2.55,15.32-16.05,26.27-29.9,24.5a22.22,22.22,0,0,1-11.56-5.07,18.47,18.47,0,0,0,2.33-2.42" transform="translate(-102.01 -47.54)"/></g></g></g></g></g></g></g></g></svg>