<svg xmlns="http://www.w3.org/2000/svg" xmlns:xlink="http://www.w3.org/1999/xlink" viewBox="0 0 441.16 490.93" preserveAspectRatio="none"><defs><style>.cls-1{fill:none;}.cls-2{fill:url(#linear-gradient);}.cls-3{fill:#e7e5e6;}.cls-4{clip-path:url(#clip-path);}.cls-5{fill:#999;}.cls-6{opacity:0.5;}.cls-7{clip-path:url(#clip-path-4);}.cls-8{clip-path:url(#clip-path-5);}.cls-9{fill:url(#linear-gradient-2);}.cls-10{clip-path:url(#clip-path-6);}.cls-11{clip-path:url(#clip-path-7);}.cls-12{fill:url(#linear-gradient-3);}.cls-13{clip-path:url(#clip-path-8);}.cls-14{fill:url(#linear-gradient-4);}.cls-15{opacity:0.57;}.cls-16{clip-path:url(#clip-path-10);}.cls-17{fill:#fff;}.cls-18{clip-path:url(#clip-path-11);}.cls-19{fill:url(#linear-gradient-5);}.cls-20{clip-path:url(#clip-path-13);}.cls-21{clip-path:url(#clip-path-14);}.cls-22{opacity:0.41;}.cls-23{opacity:0.31;}.cls-24{opacity:0.47;}.cls-25{opacity:0.32;}.cls-26{opacity:0.83;}.cls-27{clip-path:url(#clip-path-15);}.cls-28{clip-path:url(#clip-path-16);}.cls-29{opacity:0.81;}.cls-30{opacity:0.58;}.cls-31{clip-path:url(#clip-path-18);}.cls-32{clip-path:url(#clip-path-19);}.cls-33{opacity:0.66;}.cls-34{clip-path:url(#clip-path-22);}.cls-35{clip-path:url(#clip-path-23);}.cls-36{fill:#3e479b;}.cls-37{fill:#4484fb;}.cls-38{opacity:0.12;}.cls-39{clip-path:url(#clip-path-26);}.cls-40{clip-path:url(#clip-path-27);}.cls-41{fill:#ec487e;}.cls-42{clip-path:url(#clip-path-28);}.cls-43{clip-path:url(#clip-path-29);}.cls-44{clip-path:url(#clip-path-30);}.cls-45{clip-path:url(#clip-path-31);}.cls-46{opacity:0.36;}.cls-47{clip-path:url(#clip-path-32);}.cls-48{clip-path:url(#clip-path-33);}.cls-49{fill:#4c65ba;}.cls-50{fill:#5f246d;}.cls-51{clip-path:url(#clip-path-34);}.cls-52{clip-path:url(#clip-path-35);}.cls-53{clip-path:url(#clip-path-36);}.cls-54{clip-path:url(#clip-path-37);}.cls-55{clip-path:url(#clip-path-38);}.cls-56{clip-path:url(#clip-path-39);}.cls-57{fill:#9934e0;}.cls-58{clip-path:url(#clip-path-40);}.cls-59{clip-path:url(#clip-path-41);}.cls-60{clip-path:url(#clip-path-42);}.cls-61{clip-path:url(#clip-path-43);}.cls-62{clip-path:url(#clip-path-44);}.cls-63{clip-path:url(#clip-path-45);}.cls-64{fill:#08a013;}.cls-65{clip-path:url(#clip-path-46);}.cls-66{clip-path:url(#clip-path-47);}.cls-67{clip-path:url(#clip-path-48);}.cls-68{clip-path:url(#clip-path-49);}.cls-69{clip-path:url(#clip-path-50);}.cls-70{fill:url(#linear-gradient-6);}.cls-71{clip-path:url(#clip-path-51);}.cls-72{fill:url(#linear-gradient-7);}.cls-73{clip-path:url(#clip-path-52);}.cls-74{fill:url(#linear-gradient-8);}.cls-75{clip-path:url(#clip-path-53);}.cls-76{fill:url(#linear-gradient-9);}.cls-77{clip-path:url(#clip-path-54);}.cls-78{fill:url(#linear-gradient-10);}.cls-79{clip-path:url(#clip-path-56);}.cls-80{clip-path:url(#clip-path-57);}.cls-81{clip-path:url(#clip-path-58);}.cls-82{fill:url(#linear-gradient-11);}.cls-83{clip-path:url(#clip-path-59);}.cls-84{fill:url(#linear-gradient-12);}.cls-85{clip-path:url(#clip-path-60);}.cls-86{fill:url(#linear-gradient-13);}.cls-87{opacity:0.65;}.cls-88{clip-path:url(#clip-path-62);}.cls-89{clip-path:url(#clip-path-63);}.cls-90{fill:url(#linear-gradient-14);}.cls-91{clip-path:url(#clip-path-65);}.cls-92{fill:url(#linear-gradient-15);}.cls-93{clip-path:url(#clip-path-66);}.cls-94{fill:url(#linear-gradient-16);}.cls-95{clip-path:url(#clip-path-68);}.cls-96{fill:url(#linear-gradient-17);}.cls-97{clip-path:url(#clip-path-69);}.cls-98{fill:url(#linear-gradient-18);}.cls-99{opacity:0.69;}.cls-100{clip-path:url(#clip-path-71);}.cls-101{clip-path:url(#clip-path-72);}.cls-102{fill:url(#linear-gradient-19);}.cls-103{clip-path:url(#clip-path-74);}.cls-104{clip-path:url(#clip-path-75);}.cls-105{clip-path:url(#clip-path-76);}.cls-106{clip-path:url(#clip-path-77);}.cls-107{clip-path:url(#clip-path-78);}.cls-108{clip-path:url(#clip-path-79);}.cls-109{clip-path:url(#clip-path-80);}.cls-110{clip-path:url(#clip-path-81);}.cls-111{clip-path:url(#clip-path-82);}.cls-112{fill:url(#linear-gradient-20);}.cls-113{clip-path:url(#clip-path-84);}.cls-114{clip-path:url(#clip-path-85);}.cls-115{fill:url(#linear-gradient-21);}.cls-116{clip-path:url(#clip-path-87);}.cls-117{clip-path:url(#clip-path-88);}.cls-118{clip-path:url(#clip-path-89);}.cls-119{clip-path:url(#clip-path-90);}.cls-120{clip-path:url(#clip-path-91);}.cls-121{clip-path:url(#clip-path-92);}.cls-122{clip-path:url(#clip-path-93);}.cls-123{fill:url(#linear-gradient-22);}.cls-124{clip-path:url(#clip-path-95);}.cls-125{clip-path:url(#clip-path-96);}.cls-126{clip-path:url(#clip-path-97);}.cls-127{clip-path:url(#clip-path-98);}.cls-128{clip-path:url(#clip-path-99);}.cls-129{clip-path:url(#clip-path-100);}.cls-130{clip-path:url(#clip-path-101);}.cls-131{clip-path:url(#clip-path-102);}.cls-132{clip-path:url(#clip-path-103);}.cls-133{clip-path:url(#clip-path-104);}.cls-134{fill:url(#linear-gradient-23);}.cls-135{clip-path:url(#clip-path-105);}.cls-136{fill:url(#linear-gradient-24);}.cls-137{clip-path:url(#clip-path-106);}.cls-138{fill:url(#linear-gradient-25);}.cls-139{clip-path:url(#clip-path-107);}.cls-140{fill:url(#linear-gradient-26);}.cls-141{fill:#e992ec;}.cls-142{fill:#09f;}.cls-143{fill:#0a0a4a;}.cls-144{fill:#f176bb;}</style><linearGradient id="linear-gradient" x1="245.72" y1="214.5" x2="245.72" y2="143.36" gradientUnits="userSpaceOnUse"><stop offset="0" stop-color="#007eff"/><stop offset="0.31" stop-color="#008fff"/><stop offset="0.43" stop-color="#00aef4"/><stop offset="0.59" stop-color="#00d1e7"/><stop offset="0.75" stop-color="#00eade"/><stop offset="0.89" stop-color="#00fad8"/><stop offset="1" stop-color="#00ffd6"/></linearGradient><clipPath id="clip-path" transform="translate(35.48)"><rect class="cls-1" y="51.65" width="387.74" height="258.49"/></clipPath><clipPath id="clip-path-4" transform="translate(35.48)"><rect class="cls-1" x="22.51" y="87.72" width="339.93" height="193.38"/></clipPath><clipPath id="clip-path-5" transform="translate(35.48)"><path class="cls-1" d="M347.66,171.52c-5.84-3.26-13-5.6-20.66-7.38-4.53-1.06-19.77-1.85-22.64-5.14-6.4-7.34-1.22-16.21,1-24,5.19-18.26-12.21-32.86-26.22-41.08-13.65-8-29.72-6.59-44.8-4.65C218.22,91.32,202.88,95,188.18,102c-13.41,6.44-27,18.51-42.56,19-15.07.48-26.53-11.09-38-19.05C72.09,77.38,29.29,113.31,33,152.53c1.92,20.35,15.34,41-2,58.72a30.48,30.48,0,0,0-2.14,2.42c-5.76,7.37-6.71,12.26-6.25,22.1,1.18,25.63,24.1,37,46.69,39.8,19.42,2.42,35-12,52.53-17.44,16.88-5.23,35.07,3,51.14,7.76,32.29,9.66,77.18,31.65,99.73-6,10.81-18,25.08-15.46,43.44-16.21,21.4-.87,37.47-17.68,44.06-37.25,5.94-17.63-.53-28.22-12.54-34.92"/></clipPath><linearGradient id="linear-gradient-2" x1="-1867.21" y1="-116.21" x2="-1866.89" y2="-116.21" gradientTransform="matrix(1052.03, 0, 0, -1052.03, 1964424.63, -122066.81)" gradientUnits="userSpaceOnUse"><stop offset="0" stop-color="#b37cff"/><stop offset="1" stop-color="#f895e7"/></linearGradient><clipPath id="clip-path-6" transform="translate(35.48)"><rect class="cls-1" x="22.92" y="87.8" width="339.29" height="193.05"/></clipPath><clipPath id="clip-path-7" transform="translate(35.48)"><path class="cls-1" d="M37.89,196.2a54.09,54.09,0,0,0,11.85,5.06c8.23,2.48,17.51,1.8,25.42,5.46,12.43,5.76,7.45,16.46,4.42,27.14-2.92,10.26,5,25.28,12.18,31.85,29.84,27.23,73.75,11.56,106.69.5,21.44-7.2,45.49-7.9,67.54-3.07,19.42,4.25,38,16.2,57.62,5.8,18.22-9.67,30.31-31.88,28.36-52.64-1.08-11.53-6.7-22.47-6.39-34.14.29-11.26,6.33-20.63,11.89-30,11.28-19.07,1.21-44.07-17.66-52.66-16.44-7.49-37-6.62-54.41-4.17-9.7,1.36-19.36,3.27-29,5.1-19,3.62-38.51,3.83-57.33-.92-17.95-4.52-35-12.72-54-11.57-13.82.83-25.75,9.11-32.88,21-10.81,18-25.07,15.46-43.44,16.21-21.39.87-37.46,17.68-44.06,37.26-5.26,15.63,1.39,26.9,13.15,33.81"/></clipPath><linearGradient id="linear-gradient-3" x1="-1870" y1="-114.89" x2="-1869.68" y2="-114.89" gradientTransform="matrix(-1050.05, 0, 0, 1050.05, -1963190.66, 120827.76)" xlink:href="#linear-gradient-2"/><clipPath id="clip-path-8" transform="translate(35.48)"><path class="cls-1" d="M64.9,77.24c-16.46,4.39-25.1,25.6-19.3,47.38a52.29,52.29,0,0,0,5,12.3,53.48,53.48,0,0,1,5.57,39,78.35,78.35,0,0,0,.7,38.85c5.39,20.25,17.61,36.31,32.23,44.8A52.73,52.73,0,0,1,103.54,272c6.66,8.28,16.4,12.49,25.64,10,10-2.65,16.57-12.34,17.56-24A56,56,0,0,1,152,239.11c6.62-14.13,8.29-32.23,3.42-50.54-4.83-18.11-15.11-32.86-27.68-41.86a53.19,53.19,0,0,1-21.52-33.66c-.25-1.43-.57-2.87-1-4.31C100.13,89.64,85.62,76.45,71,76.45a24.19,24.19,0,0,0-6.12.79"/></clipPath><linearGradient id="linear-gradient-4" x1="-1866.3" y1="-112.63" x2="-1865.97" y2="-112.63" gradientTransform="matrix(0, 491.7, 491.7, 0, 55479.46, 917731.27)" gradientUnits="userSpaceOnUse"><stop offset="0" stop-color="#c32b78"/><stop offset="1" stop-color="#593092"/></linearGradient><clipPath id="clip-path-10" transform="translate(35.48)"><rect class="cls-1" x="76.24" y="98.88" width="57" height="171.54"/></clipPath><clipPath id="clip-path-11" transform="translate(35.48)"><path class="cls-1" d="M33.21,179.38c-9,4.76-11.22,18.32-4.91,30.28a31.52,31.52,0,0,0,4.56,6.53,32.15,32.15,0,0,1,8.5,22.08A47.09,47.09,0,0,0,47,260.9c5.87,11.13,15.16,18.88,24.84,21.91a31.36,31.36,0,0,1,10.1,5.31c5,3.95,11.25,5.12,16.32,2.45,5.46-2.89,8-9.43,7-16.36a33.29,33.29,0,0,1,.5-11.77c2-9.15.51-20-4.8-30s-13.23-17.2-21.78-20.78a32,32,0,0,1-17.08-16.83c-.35-.8-.73-1.59-1.14-2.38-4.82-9.14-13.21-14.7-20.92-14.7a14.45,14.45,0,0,0-6.84,1.65"/></clipPath><linearGradient id="linear-gradient-5" x1="-1872.93" y1="-118.02" x2="-1872.61" y2="-118.02" gradientTransform="matrix(0, -363.41, -363.41, 0, -42823.56, -680327.62)" gradientUnits="userSpaceOnUse"><stop offset="0" stop-color="#a737d5"/><stop offset="1" stop-color="#ef497a"/></linearGradient><clipPath id="clip-path-13" transform="translate(35.48)"><rect class="cls-1" x="42.76" y="190.44" width="56.27" height="92.88"/></clipPath><clipPath id="clip-path-14" transform="translate(35.48)"><polygon class="cls-1" points="115.72 51.66 97.9 55.45 129.81 205.25 279.61 173.34 253.69 51.66 115.72 51.66"/></clipPath><clipPath id="clip-path-15" transform="translate(35.48)"><rect class="cls-1" x="120.7" y="41.49" width="142.98" height="142.73"/></clipPath><clipPath id="clip-path-16" transform="translate(35.48)"><rect class="cls-1" x="131.9" y="52.73" width="120.58" height="120.25" transform="translate(-19.29 42.51) rotate(-12.02)"/></clipPath><clipPath id="clip-path-18" transform="translate(35.48)"><rect class="cls-1" x="218.25" y="109.73" width="29.95" height="26.88"/></clipPath><clipPath id="clip-path-19" transform="translate(35.48)"><rect class="cls-1" x="220.25" y="112.19" width="25.94" height="21.96" transform="translate(-20.54 51.29) rotate(-12.02)"/></clipPath><clipPath id="clip-path-22" transform="translate(35.48)"><rect class="cls-1" x="132.16" y="91.98" width="33.88" height="30.4"/></clipPath><clipPath id="clip-path-23" transform="translate(35.48)"><rect class="cls-1" x="134.43" y="94.77" width="29.35" height="24.83" transform="translate(-19.06 33.41) rotate(-12.02)"/></clipPath><clipPath id="clip-path-26" transform="translate(35.48)"><rect class="cls-1" x="200.36" y="78.44" width="42.33" height="34.9"/></clipPath><clipPath id="clip-path-27" transform="translate(35.48)"><rect class="cls-1" x="202.84" y="82.03" width="37.38" height="27.72" transform="translate(-15.12 48.25) rotate(-12.02)"/></clipPath><clipPath id="clip-path-28" transform="translate(35.48)"><rect class="cls-1" x="133.23" y="116.61" width="45.93" height="40.67"/></clipPath><clipPath id="clip-path-29" transform="translate(35.48)"><rect class="cls-1" x="136.24" y="120.4" width="39.91" height="33.08" transform="translate(-25.1 35.54) rotate(-12.02)"/></clipPath><clipPath id="clip-path-30" transform="translate(35.48)"><rect class="cls-1" x="133.63" y="118.94" width="43.29" height="38.33"/></clipPath><clipPath id="clip-path-31" transform="translate(35.48)"><rect class="cls-1" x="136.46" y="122.52" width="37.62" height="31.18" transform="translate(-25.36 35.37) rotate(-12.02)"/></clipPath><clipPath id="clip-path-32" transform="translate(35.48)"><rect class="cls-1" x="150.61" y="86.71" width="70.53" height="70.53"/></clipPath><clipPath id="clip-path-33" transform="translate(35.48)"><rect class="cls-1" x="156.15" y="92.25" width="59.45" height="59.45" transform="translate(-21.33 41.4) rotate(-12.02)"/></clipPath><clipPath id="clip-path-34" transform="translate(35.48)"><rect class="cls-1" x="165.87" y="109.98" width="47.03" height="39.27"/></clipPath><clipPath id="clip-path-35" transform="translate(35.48)"><rect class="cls-1" x="168.68" y="113.95" width="41.41" height="31.34" transform="translate(-22.85 42.3) rotate(-12.02)"/></clipPath><clipPath id="clip-path-36" transform="translate(35.48)"><rect class="cls-1" x="174.53" y="106.7" width="11.6" height="11.6"/></clipPath><clipPath id="clip-path-37" transform="translate(35.48)"><rect class="cls-1" x="175.44" y="107.61" width="9.78" height="9.78" transform="translate(-19.48 40.04) rotate(-12.03)"/></clipPath><clipPath id="clip-path-38" transform="translate(35.48)"><rect class="cls-1" x="189.41" y="100.18" width="43.3" height="43.3"/></clipPath><clipPath id="clip-path-39" transform="translate(35.48)"><rect class="cls-1" x="192.81" y="103.58" width="36.49" height="36.49" transform="translate(-20.75 46.64) rotate(-12.02)"/></clipPath><clipPath id="clip-path-40" transform="translate(35.48)"><rect class="cls-1" x="193.24" y="115.35" width="34.11" height="23.36"/></clipPath><clipPath id="clip-path-41" transform="translate(35.48)"><rect class="cls-1" x="194.69" y="118.41" width="31.2" height="17.24" transform="translate(-21.85 46.59) rotate(-12.02)"/></clipPath><clipPath id="clip-path-42" transform="translate(35.48)"><rect class="cls-1" x="204.76" y="109.09" width="9.1" height="9.1"/></clipPath><clipPath id="clip-path-43" transform="translate(35.48)"><rect class="cls-1" x="205.47" y="109.81" width="7.67" height="7.67" transform="translate(-19.08 46.1) rotate(-12.03)"/></clipPath><clipPath id="clip-path-44" transform="translate(35.48)"><rect class="cls-1" x="176.71" y="122.21" width="34.68" height="34.68"/></clipPath><clipPath id="clip-path-45" transform="translate(35.48)"><rect class="cls-1" x="179.44" y="124.94" width="29.23" height="29.23" transform="translate(-24.81 43.49) rotate(-12.02)"/></clipPath><clipPath id="clip-path-46" transform="translate(35.48)"><rect class="cls-1" x="184.17" y="133.15" width="23.81" height="20.41"/></clipPath><clipPath id="clip-path-47" transform="translate(35.48)"><rect class="cls-1" x="185.66" y="135.14" width="20.84" height="16.43" transform="translate(-25.56 43.99) rotate(-12.02)"/></clipPath><clipPath id="clip-path-48" transform="translate(35.48)"><rect class="cls-1" x="188" y="131.86" width="6.27" height="6.26"/></clipPath><clipPath id="clip-path-49" transform="translate(35.48)"><rect class="cls-1" x="188.5" y="132.35" width="5.28" height="5.28" transform="translate(-23.92 42.77) rotate(-12.02)"/></clipPath><clipPath id="clip-path-50" transform="translate(35.48)"><path class="cls-1" d="M309.68,153.67c-3.22,13.53,1.62,31.54-7.62,43.16-12.92,16.27-20.49,11.42-23.61,40.84-1.33,12.58,4.9,20.25,12.47,24.91a33.56,33.56,0,0,0,38.28-2.12c9.77-7.64,16.34-19.41,15.87-32s-9.27-23.21-13.4-34.8a32.45,32.45,0,0,1-2.08-12.08c.38-10.65,7.56-19.74,13-28.36,5-7.93,9.44-20.07-4.68-20.44h-.51c-11.17,0-25.07,9.61-27.76,20.87"/></clipPath><linearGradient id="linear-gradient-6" x1="-1867.85" y1="-112.59" x2="-1867.53" y2="-112.59" gradientTransform="matrix(-445.02, 0, 0, 445.02, -830838.02, 50304)" gradientUnits="userSpaceOnUse"><stop offset="0" stop-color="#fdf53f"/><stop offset="1" stop-color="#d93c65"/></linearGradient><clipPath id="clip-path-51" transform="translate(35.48)"><path class="cls-1" d="M338.17,138.06c-.39.3-9.56,7.48-16.68,30.06-4.17,13.21-6.75,29-7.67,46.88-1.15,22.36.29,48.11,4.3,76.55a.49.49,0,0,0,.48.42h.07a.49.49,0,0,0,.41-.55c-4-28.32-5.44-54-4.3-76.24.91-17.8,3.47-33.49,7.59-46.63,3.67-11.68,7.93-19.13,10.86-23.33a31.25,31.25,0,0,1,5.52-6.38.47.47,0,0,0,.1-.67.49.49,0,0,0-.39-.2.51.51,0,0,0-.29.1"/></clipPath><linearGradient id="linear-gradient-7" x1="-1845.19" y1="-124.84" x2="-1844.87" y2="-124.84" gradientTransform="matrix(0, 53.53, 53.53, 0, 7008.11, 98967)" gradientUnits="userSpaceOnUse"><stop offset="0" stop-color="#2b3582"/><stop offset="1" stop-color="#150e42"/></linearGradient><clipPath id="clip-path-52" transform="translate(35.48)"><path class="cls-1" d="M344.33,163.55c-3.54,0-5.36,3.56-6.69,6.32-1.14,2.38-2.49,5.26-2.25,8,.25,3,3.07,5.63,5.6,2.93,2.88-3.06,7.22-7.77,7.71-12.19a4.36,4.36,0,0,0-2.62-4.74,4.69,4.69,0,0,0-1.71-.3h0"/></clipPath><linearGradient id="linear-gradient-8" x1="-1865.73" y1="-110.41" x2="-1865.41" y2="-110.41" gradientTransform="matrix(-227.46, 0, 0, 227.46, -424019.19, 25288.73)" xlink:href="#linear-gradient-6"/><clipPath id="clip-path-53" transform="translate(35.48)"><path class="cls-1" d="M347.44,184.57c-8.25,8.47-11.83,23.35-15.82,34.67-2.41,6.83-5.68,13.75-7.31,20.8-2.71,11.67-.9,20.16,4.17,26.31a17.19,17.19,0,0,0,20,4.87c6.35-2.7,13.59-9.15,17.5-24.08,2.43-9.25.15-20.41-.5-30.53a48.16,48.16,0,0,1,1.2-15.83c1.4-5.17,4.47-10.61,2.75-16.1-1.58-5-4.79-7-8.49-7-4.46,0-9.65,2.9-13.53,6.89"/></clipPath><linearGradient id="linear-gradient-9" x1="-1868.53" y1="-113.05" x2="-1868.21" y2="-113.05" gradientTransform="matrix(-508.67, 0, 0, 508.67, -950076.27, 57730.12)" gradientUnits="userSpaceOnUse"><stop offset="0" stop-color="#53d8ff"/><stop offset="1" stop-color="#3840f7"/></linearGradient><clipPath id="clip-path-54" transform="translate(35.48)"><path class="cls-1" d="M356,185.48c-12.2,22.87-17,50.48-18.88,69.62a261.55,261.55,0,0,0-1.17,36.41.48.48,0,0,0,.48.46h0a.48.48,0,0,0,.46-.51,259.55,259.55,0,0,1,1.17-36.27c1.87-19.05,6.64-46.52,18.76-69.24a.49.49,0,0,0-.19-.66.53.53,0,0,0-.23-.06.49.49,0,0,0-.43.26"/></clipPath><linearGradient id="linear-gradient-10" x1="-1846.45" y1="-118.44" x2="-1846.12" y2="-118.44" gradientTransform="matrix(0, 57.34, 57.34, 0, 7137.87, 106109.44)" xlink:href="#linear-gradient-7"/><clipPath id="clip-path-56" transform="translate(35.48)"><rect class="cls-1" x="257.92" y="101.01" width="90.13" height="42.03"/></clipPath><clipPath id="clip-path-57" transform="translate(35.48)"><rect class="cls-1" x="182.63" y="103.22" width="57.55" height="26.84"/></clipPath><clipPath id="clip-path-58" transform="translate(35.48)"><polygon class="cls-1" points="164.31 235.87 159.25 281.31 218.02 281.31 210.37 235.87 164.31 235.87"/></clipPath><linearGradient id="linear-gradient-11" x1="-1871.68" y1="-123.29" x2="-1871.35" y2="-123.29" gradientTransform="matrix(0, -187.14, -187.14, 0, -22884.42, -349969.07)" xlink:href="#linear-gradient-7"/><clipPath id="clip-path-59" transform="translate(35.48)"><path class="cls-1" d="M76.8,132.26a11.47,11.47,0,0,0-11.22,11.47V247.79A15.78,15.78,0,0,0,81,263.57c38,1,170.93,3.35,207.11,2.82a11.62,11.62,0,0,0,11.44-11.28c.7-24.18,1.83-82.31-2.36-109.29a12,12,0,0,0-11.43-10.12c-28.35-.91-143.17-3.57-193.53-3.57-6.21,0-11.43,0-15.39.13"/></clipPath><linearGradient id="linear-gradient-12" x1="-1866.56" y1="-116.46" x2="-1866.24" y2="-116.46" gradientTransform="matrix(726.08, 0, 0, -726.08, 1355375.28, -84357.24)" xlink:href="#linear-gradient-7"/><clipPath id="clip-path-60" transform="translate(35.48)"><path class="cls-1" d="M72.11,143.22v98.86a9.15,9.15,0,0,0,9,9.15l201.75,2.49a8.9,8.9,0,0,0,9-8.87l.34-98a6.51,6.51,0,0,0-6.35-6.53L79.34,136.17h-.18a7.05,7.05,0,0,0-7,7.05"/></clipPath><linearGradient id="linear-gradient-13" x1="-1867.96" y1="-117.24" x2="-1867.64" y2="-117.24" gradientTransform="matrix(867.42, 0, 0, -867.42, 1620415.97, -101501.26)" xlink:href="#linear-gradient-6"/><clipPath id="clip-path-62" transform="translate(35.48)"><rect class="cls-1" x="71.79" y="253.4" width="221.96" height="4.42"/></clipPath><clipPath id="clip-path-63" transform="translate(35.48)"><path class="cls-1" d="M228.54,277.87l-82.92,2.59a3.56,3.56,0,0,0-3.5,2.33l-1.1,4.36c-.45,1.79,1.3,3.45,3.64,3.45h86c2.37,0,4.14-1.71,3.62-3.52l-2-6.95a3.61,3.61,0,0,0-3.62-2.26h-.15"/></clipPath><linearGradient id="linear-gradient-14" x1="-1869.75" y1="-108.21" x2="-1869.42" y2="-108.21" gradientTransform="matrix(-209.53, 0, 0, 209.53, -391572.69, 22956.34)" xlink:href="#linear-gradient-7"/><clipPath id="clip-path-65" transform="translate(35.48)"><path class="cls-1" d="M88.85,145.17a4.47,4.47,0,0,0-4.47,4.47v69.91A4.47,4.47,0,0,0,88.74,224l141.12,3.44a4.47,4.47,0,0,0,4.57-4.59l-2-73.36a4.46,4.46,0,0,0-4.47-4.34Z"/></clipPath><linearGradient id="linear-gradient-15" x1="-1867.54" y1="-118.08" x2="-1867.22" y2="-118.08" gradientTransform="matrix(595.98, 0, 0, -595.98, 1113123.61, -70187.58)" xlink:href="#linear-gradient-9"/><clipPath id="clip-path-66" transform="translate(35.48)"><path class="cls-1" d="M138.88,177.43a19.72,19.72,0,1,0,19.72-19.72,19.72,19.72,0,0,0-19.72,19.72"/></clipPath><linearGradient id="linear-gradient-16" x1="-1869.79" y1="-110.29" x2="-1869.47" y2="-110.29" gradientTransform="matrix(-314.81, 0, 0, 314.81, -588444, 34897.98)" gradientUnits="userSpaceOnUse"><stop offset="0" stop-color="#cb236d"/><stop offset="1" stop-color="#4c246d"/></linearGradient><clipPath id="clip-path-68" transform="translate(35.48)"><path class="cls-1" d="M84.38,208.9v10.65A4.47,4.47,0,0,0,88.74,224l141.12,3.44a4.47,4.47,0,0,0,4.57-4.59l-.38-14Z"/></clipPath><linearGradient id="linear-gradient-17" x1="-1859.86" y1="-95.41" x2="-1859.54" y2="-95.41" gradientTransform="matrix(0, 75.93, 75.93, 0, 7404.36, 141415.43)" xlink:href="#linear-gradient-16"/><clipPath id="clip-path-69" transform="translate(35.48)"><path class="cls-1" d="M84.38,208.9h0Z"/></clipPath><linearGradient id="linear-gradient-18" x1="-1859.86" y1="-95.41" x2="-1859.54" y2="-95.41" gradientTransform="matrix(0, 75.94, 75.94, 0, 7403.43, 141425.13)" xlink:href="#linear-gradient-9"/><clipPath id="clip-path-71" transform="translate(35.48)"><rect class="cls-1" x="88.57" y="214.19" width="129.37" height="5.9"/></clipPath><clipPath id="clip-path-72" transform="translate(35.48)"><path class="cls-1" d="M88.58,216.73l.13,1.28A2.31,2.31,0,0,0,91,220.09h77.56c-.09-.52-.16-1-.22-1.48-.14-1.19-.32-2.41-.5-3.63l-76.94-.79h0a2.31,2.31,0,0,0-2.29,2.54"/></clipPath><linearGradient id="linear-gradient-19" x1="-1872.45" y1="-111.86" x2="-1872.13" y2="-111.86" gradientTransform="matrix(-325.07, 0, 0, 325.07, -608516.19, 36580.71)" xlink:href="#linear-gradient-9"/><clipPath id="clip-path-74" transform="translate(35.48)"><rect class="cls-1" x="220.81" y="214.37" width="2.49" height="5.66"/></clipPath><clipPath id="clip-path-75" transform="translate(35.48)"><rect class="cls-1" x="227.6" y="212.79" width="2.49" height="7.24"/></clipPath><clipPath id="clip-path-76" transform="translate(35.48)"><rect class="cls-1" x="224.43" y="211.43" width="2.26" height="8.6"/></clipPath><clipPath id="clip-path-77" transform="translate(35.48)"><rect class="cls-1" x="84.33" y="229.78" width="148.6" height="18.17"/></clipPath><clipPath id="clip-path-78" transform="translate(35.48)"><rect class="cls-1" x="88.71" y="234.26" width="108.28" height="2.78"/></clipPath><clipPath id="clip-path-79" transform="translate(35.48)"><rect class="cls-1" x="88.71" y="238.29" width="76.41" height="2.17"/></clipPath><clipPath id="clip-path-80" transform="translate(35.48)"><rect class="cls-1" x="88.71" y="242.31" width="41.45" height="1.55"/></clipPath><clipPath id="clip-path-81" transform="translate(35.48)"><rect class="cls-1" x="243.08" y="147.02" width="42.07" height="30.5"/></clipPath><clipPath id="clip-path-82" transform="translate(35.48)"><path class="cls-1" d="M256.53,162a7.35,7.35,0,1,0,7.35-7.35,7.35,7.35,0,0,0-7.35,7.35"/></clipPath><linearGradient id="linear-gradient-20" x1="-1870.26" y1="-102.79" x2="-1869.94" y2="-102.79" gradientTransform="matrix(-117.36, 0, 0, 117.36, -219214.88, 12225.74)" xlink:href="#linear-gradient-6"/><clipPath id="clip-path-84" transform="translate(35.48)"><rect class="cls-1" x="243.08" y="181.05" width="42.07" height="30.5"/></clipPath><clipPath id="clip-path-85" transform="translate(35.48)"><path class="cls-1" d="M256.53,196a7.35,7.35,0,1,0,7.35-7.35,7.35,7.35,0,0,0-7.35,7.35"/></clipPath><linearGradient id="linear-gradient-21" x1="-1870.75" y1="-103.15" x2="-1870.43" y2="-103.15" gradientTransform="matrix(-117.36, 0, 0, 117.36, -219272.48, 12301.62)" xlink:href="#linear-gradient-9"/><clipPath id="clip-path-87" transform="translate(35.48)"><rect class="cls-1" x="243.08" y="217.25" width="42.07" height="2.78"/></clipPath><clipPath id="clip-path-88" transform="translate(35.48)"><rect class="cls-1" x="243.08" y="221.89" width="42.07" height="2.78"/></clipPath><clipPath id="clip-path-89" transform="translate(35.48)"><rect class="cls-1" x="243.08" y="226.53" width="42.07" height="2.78"/></clipPath><clipPath id="clip-path-90" transform="translate(35.48)"><rect class="cls-1" x="243.08" y="231.17" width="30.32" height="2.78"/></clipPath><clipPath id="clip-path-91" transform="translate(35.48)"><rect class="cls-1" x="243.08" y="238.59" width="42.07" height="2.78"/></clipPath><clipPath id="clip-path-92" transform="translate(35.48)"><rect class="cls-1" x="243.08" y="243.24" width="30.32" height="2.78"/></clipPath><clipPath id="clip-path-93" transform="translate(35.48)"><path class="cls-1" d="M228.51,235a56.62,56.62,0,1,0,56.62-56.62A56.62,56.62,0,0,0,228.51,235"/></clipPath><linearGradient id="linear-gradient-22" x1="-1864.98" y1="-117.21" x2="-1864.65" y2="-117.21" gradientTransform="matrix(350.47, 0, 0, -350.47, 653880.21, -40844.67)" xlink:href="#linear-gradient-16"/><clipPath id="clip-path-95" transform="translate(35.48)"><rect class="cls-1" x="269.57" y="190.77" width="31.13" height="31.12"/></clipPath><clipPath id="clip-path-96" transform="translate(35.48)"><rect class="cls-1" x="273.54" y="194.74" width="23.18" height="23.18"/></clipPath><clipPath id="clip-path-97" transform="translate(35.48)"><rect class="cls-1" x="269.57" y="248.6" width="31.13" height="31.13"/></clipPath><clipPath id="clip-path-98" transform="translate(35.48)"><rect class="cls-1" x="240.65" y="219.69" width="31.12" height="31.13"/></clipPath><clipPath id="clip-path-99" transform="translate(35.48)"><rect class="cls-1" x="273.54" y="252.57" width="23.18" height="23.18"/></clipPath><clipPath id="clip-path-100" transform="translate(35.48)"><rect class="cls-1" x="244.63" y="223.66" width="23.18" height="23.18"/></clipPath><clipPath id="clip-path-101" transform="translate(35.48)"><rect class="cls-1" x="298.48" y="219.69" width="31.13" height="31.13"/></clipPath><clipPath id="clip-path-102" transform="translate(35.48)"><rect class="cls-1" x="302.45" y="223.66" width="23.18" height="23.18"/></clipPath><clipPath id="clip-path-103" transform="translate(35.48)"><rect class="cls-1" x="281.13" y="231.05" width="10.6" height="10.6"/></clipPath><clipPath id="clip-path-104" transform="translate(35.48)"><polygon class="cls-1" points="266.96 109.54 270.14 114.38 273.11 107.79 266.96 109.54"/></clipPath><linearGradient id="linear-gradient-23" x1="-1882.43" y1="-118.68" x2="-1882.1" y2="-118.68" gradientTransform="matrix(-71.07, -75.51, -98.24, 66.94, -145129.46, -134063.13)" xlink:href="#linear-gradient-9"/><clipPath id="clip-path-105" transform="translate(35.48)"><path class="cls-1" d="M256,114.28a1.83,1.83,0,0,0,2.48.87l23.31-11.68a.74.74,0,0,0,.4-.71.75.75,0,0,0-.51-.64L245.21,90.66Z"/></clipPath><linearGradient id="linear-gradient-24" x1="-1877.71" y1="-120.27" x2="-1877.38" y2="-120.27" gradientTransform="matrix(-60.5, -128.97, -161.76, 63.4, -132741.6, -234431.39)" xlink:href="#linear-gradient-9"/><clipPath id="clip-path-106" transform="translate(35.48)"><polygon class="cls-1" points="269.36 109.69 268.61 111.55 273.11 107.79 245.21 90.66 269.36 109.69"/></clipPath><linearGradient id="linear-gradient-25" x1="-1883.42" y1="-118.92" x2="-1883.1" y2="-118.92" gradientTransform="matrix(-66.39, -70.53, -91.77, 62.53, -135640.52, -125281.71)" xlink:href="#linear-gradient-9"/><clipPath id="clip-path-107" transform="translate(35.48)"><polygon class="cls-1" points="267.12 110.8 270.14 114.38 269.36 109.69 267.12 110.8"/></clipPath><linearGradient id="linear-gradient-26" x1="-1903.94" y1="-116.6" x2="-1903.62" y2="-116.6" gradientTransform="matrix(0, -43.95, 43.95, 0, 5392.52, -83550.08)" xlink:href="#linear-gradient-9"/></defs><title>Mdia gallery Image</title><g id="Layer_2" data-name="Layer 2"><g id="bg_Media_gallery" data-name="bg Media gallery"><g id="colour_design" data-name="colour design"><path class="cls-2" d="M124.4,352.93c-16.62-18-33-48.28-8.51-85.78a171.56,171.56,0,0,1,50-52.33c93.83-71.68,161-51.23,195.59-29.42A57.62,57.62,0,0,1,388,234.24l-.07,79.29c0,31.79-25.39,57.54-56.66,57.54H165.67A56.13,56.13,0,0,1,124.4,352.93Z" transform="translate(35.48)"/><path class="cls-3" d="M294.06,254.12l-2.59,59.34a29.47,29.47,0,0,1-29.43,28H206a46.83,46.83,0,0,1-44.79-33.16c-6.34-20.78-13.43-45.78-14.72-57.51Z" transform="translate(35.48)"/><g class="cls-4"><g class="cls-4"><g class="cls-4"><path class="cls-5" d="M388.31,301.9a.94.94,0,0,1-.74-.69,1.06,1.06,0,0,1,0-.61l-3,.72L386,298l.3.13-1.17,2.7,3.39-.82-.48.43a.62.62,0,0,0-.15.65.64.64,0,0,0,.47.47Z" transform="translate(35.48)"/><g class="cls-6"><g class="cls-7"><g class="cls-8"><rect class="cls-9" x="57.63" y="77.38" width="343.99" height="220.16"/></g></g></g><g class="cls-6"><g class="cls-10"><g class="cls-11"><rect class="cls-12" x="54.95" y="86.76" width="349.27" height="206.18"/></g></g></g></g><g class="cls-13"><rect class="cls-14" x="16.2" y="64.88" width="167.64" height="231.17" transform="translate(-5.6 29.93) rotate(-14.15)"/></g><g class="cls-4"><g class="cls-15"><g class="cls-16"><path class="cls-17" d="M76.84,98.88c6,13.82,11.52,27.82,16.91,41.88,1.34,3.52,2.64,7.06,3.94,10.59l2,5.29,1.91,5.32c1.26,3.55,2.57,7.08,3.79,10.64L109,183.28c2.35,7.16,4.76,14.29,7,21.49,1.11,3.6,2.3,7.17,3.34,10.79l3.16,10.85c4.08,14.5,7.8,29.11,10.77,43.88l-.64.13-2.64-11-.65-2.74-.73-2.72-1.45-5.45-1.45-5.45c-.48-1.82-1-3.62-1.53-5.43-1-3.61-2.06-7.23-3.12-10.83-4.36-14.39-8.9-28.73-13.74-43-2.48-7.1-4.89-14.22-7.42-21.3L98,157.24l-1.92-5.3c-1.28-3.54-2.56-7.07-3.87-10.6q-3.87-10.59-7.88-21.14c-2.64-7-5.35-14.06-8.08-21.07Z" transform="translate(35.48)"/></g></g></g><g class="cls-18"><rect class="cls-19" x="-5.68" y="163.89" width="141.08" height="143.18" transform="translate(-105.74 104.36) rotate(-42.13)"/></g><g class="cls-4"><g class="cls-15"><g class="cls-20"><path class="cls-17" d="M43.08,190.44c5.35,7.29,10.46,14.74,15.5,22.24,1.26,1.88,2.48,3.77,3.72,5.67l1.85,2.83L66,224c1.21,1.9,2.45,3.79,3.64,5.71l3.57,5.76c2.34,3.88,4.7,7.73,7,11.64,1.13,2,2.3,3.89,3.4,5.87l3.3,5.92c4.33,7.93,8.46,16,12.18,24.22l-.35.17-3-6.07-.75-1.51-.79-1.5-1.58-3-1.57-3c-.53-1-1.09-2-1.63-3-1.09-2-2.17-4-3.27-5.92q-6.72-11.76-13.8-23.3c-2.4-3.82-4.76-7.66-7.19-11.47l-1.81-2.86-1.83-2.84c-1.23-1.9-2.45-3.8-3.69-5.68q-3.68-5.68-7.44-11.32t-7.55-11.24Z" transform="translate(35.48)"/></g></g></g><g class="cls-21"><g class="cls-29"><g class="cls-31"><g class="cls-32"><path class="cls-17" d="M241.87,119l-3.91.83a.3.3,0,0,1-.36-.23.31.31,0,0,1,.23-.37l3.91-.83a.31.31,0,0,1,.13.6" transform="translate(35.48)"/><path class="cls-17" d="M243.24,125.47l-3.91.83a.31.31,0,1,1-.12-.6l3.9-.83a.3.3,0,0,1,.36.23.31.31,0,0,1-.23.37" transform="translate(35.48)"/><path class="cls-17" d="M247.38,131.38l-23.74,5.06a.84.84,0,0,1-1-.64l-4.23-19.86a.83.83,0,0,1,.64-1l23.75-5.06a.84.84,0,0,1,1,.64L248,130.39a.83.83,0,0,1-.64,1m-28.19-15.82a.22.22,0,0,0-.17.26l4.23,19.85a.22.22,0,0,0,.26.17l23.75-5.06a.22.22,0,0,0,.16-.26l-4.22-19.85a.22.22,0,0,0-.26-.17Z" transform="translate(35.48)"/><g class="cls-33"><g class="cls-31"><g class="cls-32"><path class="cls-17" d="M247.38,131.38l-23.74,5.06a.84.84,0,0,1-1-.64l-4.23-19.86a.83.83,0,0,1,.64-1l23.75-5.06a.84.84,0,0,1,1,.64L248,130.39a.83.83,0,0,1-.64,1m-28.19-15.82a.22.22,0,0,0-.17.26l4.23,19.85a.22.22,0,0,0,.26.17l23.75-5.06a.22.22,0,0,0,.16-.26l-4.22-19.85a.22.22,0,0,0-.26-.17Z" transform="translate(35.48)"/></g></g></g><path class="cls-17" d="M241.2,115.91l-18.61,4a.3.3,0,0,1-.36-.23.31.31,0,0,1,.23-.37l18.61-4a.31.31,0,0,1,.37.23.32.32,0,0,1-.24.37" transform="translate(35.48)"/><path class="cls-17" d="M242.53,122.15l-18.61,4a.31.31,0,0,1-.36-.24.3.3,0,0,1,.23-.36l18.62-4a.3.3,0,0,1,.36.23.3.3,0,0,1-.24.36" transform="translate(35.48)"/><path class="cls-17" d="M233.29,120.86l-10,2.14a.32.32,0,0,1-.37-.24.3.3,0,0,1,.24-.36l10-2.14a.31.31,0,0,1,.37.23.32.32,0,0,1-.24.37" transform="translate(35.48)"/><path class="cls-17" d="M234.66,127.29l-10,2.14a.31.31,0,0,1-.37-.23.32.32,0,0,1,.24-.37l10-2.13a.31.31,0,0,1,.37.23.3.3,0,0,1-.24.36" transform="translate(35.48)"/><path class="cls-17" d="M232,131l-6.77,1.44a.3.3,0,0,1-.36-.23.31.31,0,0,1,.23-.37l6.77-1.44a.31.31,0,1,1,.13.6" transform="translate(35.48)"/></g></g></g><g class="cls-29"><g class="cls-34"><g class="cls-35"><path class="cls-17" d="M158.9,102.45l-4.43,1a.31.31,0,0,1-.36-.24.3.3,0,0,1,.23-.36l4.43-1a.32.32,0,0,1,.37.24.31.31,0,0,1-.24.36" transform="translate(35.48)"/><path class="cls-17" d="M160.46,109.75l-4.43,1a.32.32,0,0,1-.37-.24.31.31,0,0,1,.24-.36l4.43-.95a.31.31,0,0,1,.36.24.3.3,0,0,1-.23.36" transform="translate(35.48)"/><path class="cls-17" d="M165.23,116.45l-27.08,5.76a.83.83,0,0,1-1-.64l-4.82-22.66a.82.82,0,0,1,.64-1l27.08-5.77a.82.82,0,0,1,1,.64l4.83,22.66a.84.84,0,0,1-.64,1M133.1,98.52a.22.22,0,0,0-.16.26l4.82,22.67a.22.22,0,0,0,.26.16l27.08-5.76a.22.22,0,0,0,.17-.26l-4.83-22.67a.21.21,0,0,0-.26-.16Z" transform="translate(35.48)"/><g class="cls-33"><g class="cls-34"><g class="cls-35"><path class="cls-17" d="M165.23,116.45l-27.08,5.76a.83.83,0,0,1-1-.64l-4.82-22.66a.82.82,0,0,1,.64-1l27.08-5.77a.82.82,0,0,1,1,.64l4.83,22.66a.84.84,0,0,1-.64,1M133.1,98.52a.22.22,0,0,0-.16.26l4.82,22.67a.22.22,0,0,0,.26.16l27.08-5.76a.22.22,0,0,0,.17-.26l-4.83-22.67a.21.21,0,0,0-.26-.16Z" transform="translate(35.48)"/></g></g></g><path class="cls-17" d="M158.15,98.91,137,103.4a.3.3,0,0,1-.36-.23.3.3,0,0,1,.23-.36L158,98.31a.3.3,0,0,1,.36.23.31.31,0,0,1-.23.37" transform="translate(35.48)"/><path class="cls-17" d="M159.66,106l-21.12,4.5a.3.3,0,0,1-.36-.23.31.31,0,0,1,.23-.37l21.12-4.49a.3.3,0,0,1,.36.23.3.3,0,0,1-.23.36" transform="translate(35.48)"/><path class="cls-17" d="M149.17,104.52,137.79,107a.32.32,0,0,1-.37-.24.31.31,0,0,1,.24-.36L149,103.92a.32.32,0,0,1,.37.24.3.3,0,0,1-.24.36" transform="translate(35.48)"/><path class="cls-17" d="M150.73,111.83l-11.39,2.42A.3.3,0,0,1,139,114a.3.3,0,0,1,.23-.36l11.39-2.42a.3.3,0,0,1,.36.23.31.31,0,0,1-.23.37" transform="translate(35.48)"/><path class="cls-17" d="M147.74,116l-7.68,1.63a.3.3,0,0,1-.36-.23.31.31,0,0,1,.23-.37l7.68-1.63a.31.31,0,0,1,.37.23.32.32,0,0,1-.24.37" transform="translate(35.48)"/></g></g></g><path class="cls-36" d="M234.77,75.79l-2.36.5-9.49,2-1.61.34a1.48,1.48,0,0,0-1.1,1.39l-.13,1.57A1.48,1.48,0,0,1,219,83L199.7,87.1A1.56,1.56,0,0,0,198.63,89l4.65,21.83a1.57,1.57,0,0,0,1.76,1.33l.09,0,33.41-7.12,2.36-.5a1.6,1.6,0,0,0,1.16-2l-4.28-20.1-.71-3.36-.44-2a1.61,1.61,0,0,0-1.86-1.31" transform="translate(35.48)"/><path class="cls-37" d="M221.85,82.62,222,81a1.55,1.55,0,0,1,1.19-1.4l11.86-2.53a1.6,1.6,0,0,1,1.85,1.31l.44,2,.72,3.37,4.28,20.09a1.62,1.62,0,0,1-1.17,2l-35.76,7.61a1.61,1.61,0,0,1-1.86-1.31l-4.65-21.82a1.62,1.62,0,0,1,1.16-2L220.66,84a1.56,1.56,0,0,0,1.19-1.4" transform="translate(35.48)"/><g class="cls-38"><g class="cls-39"><g class="cls-40"><path class="cls-17" d="M223.05,83.94l.15-1.49a1.45,1.45,0,0,1,1.12-1.32l11.18-2.38A1.51,1.51,0,0,1,237.25,80l.41,1.92.67,3.18,4,18.93a1.53,1.53,0,0,1-1.1,1.85L207.56,113a1.52,1.52,0,0,1-1.75-1.24l-4.38-20.57a1.51,1.51,0,0,1,1.09-1.84l19.4-4.13a1.47,1.47,0,0,0,1.13-1.32" transform="translate(35.48)"/></g></g></g><path class="cls-17" d="M238.22,104.58l-8.85,1.89a.31.31,0,0,1-.13-.6l8.85-1.89a1.05,1.05,0,0,0,.81-1.25l-1.49-7a.3.3,0,0,1,.23-.36.31.31,0,0,1,.37.23l1.49,7a1.67,1.67,0,0,1-1.28,2" transform="translate(35.48)"/><path class="cls-41" d="M134.43,123.11l2.38-.51,9.56-2,1.62-.35a1.54,1.54,0,0,1,1.61,1l.8,1.57a1.53,1.53,0,0,0,1.61.94l19.4-4.13a1.7,1.7,0,0,1,1.81,1.53l5.23,24.56a1.69,1.69,0,0,1-1,2.13l-.1,0L143.7,155l-2.37.5a1.73,1.73,0,0,1-1.91-1.51l-4.82-22.6-.81-3.79-.48-2.29a1.74,1.74,0,0,1,1.12-2.16" transform="translate(35.48)"/><g class="cls-38"><g class="cls-42"><g class="cls-43"><path class="cls-17" d="M149.22,124.55l-.84-1.56a1.6,1.6,0,0,0-1.7-.93l-11.93,2.54a1.74,1.74,0,0,0-1.13,2.16l.49,2.29.81,3.79,4.81,22.6a1.73,1.73,0,0,0,1.91,1.51l36-7.66a1.74,1.74,0,0,0,1.13-2.16l-5.23-24.56a1.74,1.74,0,0,0-1.91-1.51l-20.72,4.41a1.59,1.59,0,0,1-1.69-.92" transform="translate(35.48)"/></g></g></g><g class="cls-38"><g class="cls-44"><g class="cls-45"><path class="cls-17" d="M148.69,126.43l-.78-1.48a1.51,1.51,0,0,0-1.6-.87l-11.25,2.4a1.62,1.62,0,0,0-1.06,2l.46,2.16.76,3.57,4.54,21.31a1.64,1.64,0,0,0,1.8,1.42l33.93-7.22a1.64,1.64,0,0,0,1.06-2l-4.93-23.14a1.64,1.64,0,0,0-1.8-1.43l-19.53,4.16a1.51,1.51,0,0,1-1.6-.87" transform="translate(35.48)"/></g></g></g><path class="cls-17" d="M137.93,133.38a.29.29,0,0,1-.33-.24l-.89-4.16a1,1,0,0,1,.7-1.22l5.58-1.19a.3.3,0,0,1,.34.25.29.29,0,0,1-.21.35l-5.58,1.19a.42.42,0,0,0-.29.51l.88,4.15a.28.28,0,0,1-.2.36" transform="translate(35.48)"/><g class="cls-46"><g class="cls-47"><g class="cls-48"><path class="cls-49" d="M216.94,131.55l-38,22.19a1.94,1.94,0,0,1-2.66-.7l-22.2-38a2,2,0,0,1,.7-2.66l38-22.19a1.93,1.93,0,0,1,2.66.7l22.2,38a2,2,0,0,1-.7,2.67" transform="translate(35.48)"/></g></g></g><path class="cls-17" d="M213.62,130.68l-38,22.19a2,2,0,0,1-2.67-.7l-22.19-38a1.94,1.94,0,0,1,.7-2.66l38-22.19a1.94,1.94,0,0,1,2.66.69l22.19,38a2,2,0,0,1-.69,2.67" transform="translate(35.48)"/><rect class="cls-50" x="162.67" y="101.26" width="39.72" height="39.72" transform="translate(-0.7 108.66) rotate(-30.31)"/><g class="cls-24"><g class="cls-51"><g class="cls-52"><path class="cls-17" d="M175.16,148.67l-4.54-7.77,2-10.58a2.87,2.87,0,0,1,3.09-2.34l8,.73a1,1,0,0,0,1.06-.68l4-11.68a5.28,5.28,0,0,1,6-3.45l7.48,1.49.11.17,7.94,13.6-.39.23Zm-3.57-7.93,3.9,6.67L209,127.83l-7.37-12.62-7.08-1.41a4.37,4.37,0,0,0-5,2.85l-4,11.68a1.94,1.94,0,0,1-2,1.3l-8-.73a1.94,1.94,0,0,0-2.09,1.58Z" transform="translate(35.48)"/></g></g></g><g class="cls-24"><g class="cls-53"><g class="cls-54"><path class="cls-17" d="M181.35,117.28a4.9,4.9,0,1,1,1.44-.56,4.73,4.73,0,0,1-1.44.56m-1.85-8.66a4.35,4.35,0,0,0-1.18.45,4,4,0,1,0,1.18-.45" transform="translate(35.48)"/></g></g></g><g class="cls-46"><g class="cls-55"><g class="cls-56"><path class="cls-49" d="M230.8,136.28l-31.88,6.79a1.93,1.93,0,0,1-2.31-1.5l-6.8-31.88a2,2,0,0,1,1.5-2.31l31.89-6.79a2,2,0,0,1,2.31,1.5L232.3,134a2,2,0,0,1-1.5,2.31" transform="translate(35.48)"/></g></g></g><path class="cls-17" d="M228.6,134.86l-31.88,6.79a2,2,0,0,1-2.31-1.5l-6.79-31.89a1.94,1.94,0,0,1,1.5-2.31L221,99.16a2,2,0,0,1,2.31,1.5l6.79,31.89a2,2,0,0,1-1.5,2.31" transform="translate(35.48)"/><rect class="cls-57" x="193.7" y="105.27" width="30.28" height="30.28" transform="translate(14.98 46.15) rotate(-12.02)"/><g class="cls-24"><g class="cls-58"><g class="cls-59"><path class="cls-17" d="M227.35,132.22l-30.52,6.5-1.46-6.86,4-7.23a2.27,2.27,0,0,1,2.92-1l5.59,2.43a.68.68,0,0,0,.81-.21l5.69-7.49a4.13,4.13,0,0,1,5.32-1.09l5.1,2.89Zm-29.81,5.41,28.72-6.12L224,120.76l-4.74-2.68a3.21,3.21,0,0,0-4.13.84l-5.7,7.5a1.6,1.6,0,0,1-1.9.49l-5.59-2.43a1.37,1.37,0,0,0-1.76.6L196.34,132Z" transform="translate(35.48)"/></g></g></g><g class="cls-24"><g class="cls-60"><g class="cls-61"><path class="cls-17" d="M210.1,117.39a3.83,3.83,0,1,1,3-4.55,3.85,3.85,0,0,1-3,4.55m-1.4-6.6a2.92,2.92,0,1,0,3.46,2.25,2.93,2.93,0,0,0-3.46-2.25" transform="translate(35.48)"/></g></g></g><g class="cls-46"><g class="cls-62"><g class="cls-63"><path class="cls-49" d="M208.69,144.19,192.1,154.78a2,2,0,0,1-2.69-.59L178.82,137.6a2,2,0,0,1,.59-2.69L196,124.32a2,2,0,0,1,2.69.59l10.59,16.59a1.94,1.94,0,0,1-.59,2.69" transform="translate(35.48)"/></g></g></g><path class="cls-17" d="M207,143.82l-16.59,10.6a2,2,0,0,1-2.69-.6l-10.59-16.58a2,2,0,0,1,.59-2.69L194.35,124a1.94,1.94,0,0,1,2.69.59l10.59,16.59a1.94,1.94,0,0,1-.59,2.68" transform="translate(35.48)"/><rect class="cls-64" x="182.61" y="129.41" width="19.56" height="19.56" transform="translate(-9.2 125.43) rotate(-32.56)"/><g class="cls-24"><g class="cls-65"><g class="cls-66"><path class="cls-17" d="M189.23,153.21l-2.56-4,.77-5.33a1.65,1.65,0,0,1,1.72-1.41l3.93.21a.28.28,0,0,0,.27-.2l1.75-5.82a2.84,2.84,0,0,1,3.15-2l3.81.6,4.41,6.91Zm-1.6-4.21,1.88,2.94,15.7-10-3.69-5.78-3.4-.54a1.92,1.92,0,0,0-2.13,1.33l-1.75,5.83a1.18,1.18,0,0,1-1.2.84l-3.93-.2a.73.73,0,0,0-.76.62Z" transform="translate(35.48)"/></g></g></g><g class="cls-24"><g class="cls-67"><g class="cls-68"><path class="cls-17" d="M191.69,137.58a2.65,2.65,0,1,1,.87-.36,3,3,0,0,1-.87.36m-.91-4.27a1.75,1.75,0,0,0-.57.23,1.73,1.73,0,1,0,.57-.23" transform="translate(35.48)"/></g></g></g></g><g class="cls-69"><rect class="cls-70" x="238.75" y="147.71" width="151.69" height="107.33" transform="translate(75.41 454.51) rotate(-75.29)"/></g><g class="cls-71"><rect class="cls-72" x="247.88" y="193.75" width="155.92" height="42.43" transform="translate(113.2 516.33) rotate(-83.95)"/></g><g class="cls-73"><rect class="cls-74" x="331.93" y="166.39" width="20.24" height="14.24" transform="translate(196.23 511.49) rotate(-88.69)"/></g><g class="cls-75"><rect class="cls-76" x="292.29" y="184.39" width="108.21" height="83.12" transform="translate(39.31 457.67) rotate(-67.19)"/></g><g class="cls-77"><rect class="cls-78" x="292.03" y="210.63" width="107.99" height="55.92" transform="translate(42.02 486.41) rotate(-70.72)"/></g><g class="cls-4"><g class="cls-6"><g class="cls-79"><path class="cls-17" d="M336.85,114.54c0-8.89-9.94-20.44-24.42-7.93-.86-4.12-21.8-15.13-28.05,13-2.24-6.46-16.11-1.73-17.52,9.7-5.63-2.22-17.05,12.9.21,13.61,22.05.89,71.74-4.94,79.1-20.95s-9.32-7.46-9.32-7.46" transform="translate(35.48)"/></g></g><g class="cls-6"><g class="cls-80"><path class="cls-17" d="M233,111.86c0-5.68-6.34-13-15.59-5.06-.55-2.63-13.92-9.67-17.91,8.32-1.43-4.12-10.29-1.11-11.19,6.19-3.6-1.42-10.89,8.24.13,8.69,14.08.57,45.81-3.15,50.52-13.38s-6-4.76-6-4.76" transform="translate(35.48)"/></g></g></g><g class="cls-81"><rect class="cls-82" x="158.14" y="234.42" width="60.99" height="48.34" transform="translate(22.67 9.84) rotate(-2.89)"/></g><g class="cls-83"><rect class="cls-84" x="101.06" y="132.13" width="235.76" height="134.8"/></g><g class="cls-85"><rect class="cls-86" x="59.97" y="79.34" width="244.42" height="231.29" transform="translate(-47.12 161.82) rotate(-39.81)"/></g><g class="cls-4"><g class="cls-87"><g class="cls-88"><path class="cls-17" d="M293.42,257.82h0l-221.3-3.77a.33.33,0,1,1,0-.65l221.31,3.77a.33.33,0,0,1,0,.65" transform="translate(35.48)"/></g></g></g><g class="cls-89"><rect class="cls-90" x="162.37" y="238.71" width="50.66" height="91.05" transform="translate(-113.29 337.24) rotate(-65.51)"/></g><g class="cls-4"><path class="cls-17" d="M191,281.68a.33.33,0,0,1,0-.65l3.55,0h0a.33.33,0,0,1,0,.65l-3.55.05Z" transform="translate(35.48)"/><path class="cls-17" d="M144.2,288.24h0a.32.32,0,0,1-.26-.37l.5-3.17a3.6,3.6,0,0,1,3.5-3l37.69-.55h0a.33.33,0,0,1,0,.65l-37.7.55a2.94,2.94,0,0,0-2.86,2.48l-.51,3.18a.32.32,0,0,1-.32.27" transform="translate(35.48)"/></g><g class="cls-91"><rect class="cls-92" x="75.42" y="106.66" width="168.05" height="159.37" transform="translate(-46.86 145.26) rotate(-39.81)"/></g><g class="cls-93"><rect class="cls-94" x="131.05" y="149.88" width="55.09" height="55.09" transform="translate(-42.73 200.97) rotate(-53.89)"/></g><g class="cls-4"><path class="cls-17" d="M173.54,187.35a.41.41,0,0,1-.18,0,.32.32,0,0,1-.09-.45,17.24,17.24,0,0,0,2.22-5.09.33.33,0,0,1,.63.16,17.9,17.9,0,0,1-2.31,5.28.31.31,0,0,1-.27.15" transform="translate(35.48)"/><path class="cls-17" d="M176.36,177.75a.33.33,0,0,1-.33-.32A17.45,17.45,0,0,0,158.6,160a.32.32,0,0,1,0-.64,18.1,18.1,0,0,1,18.08,18.08.33.33,0,0,1-.32.32" transform="translate(35.48)"/><path class="cls-17" d="M152.24,187.73a1,1,0,0,1-1-1l-.47-17.49a1.67,1.67,0,0,1,.75-1.43,1.65,1.65,0,0,1,1.61-.11l17.27,8.08a1.62,1.62,0,0,1,.95,1.45,1.65,1.65,0,0,1-.87,1.5l-15.25,8.13a1,1,0,0,1-1-1.81l14.55-7.75-16-7.47.45,16.84a1,1,0,0,1-1,1.05h0" transform="translate(35.48)"/></g><g class="cls-95"><rect class="cls-96" x="84.3" y="208.18" width="150.29" height="20.05" transform="matrix(1, -0.01, 0.01, 1, 33.41, 1.53)"/></g><g class="cls-97"><rect class="cls-98" x="84.38" y="208.18" width="149.67" height="1.43" transform="translate(33.49 1.53) rotate(-0.55)"/></g><g class="cls-4"><g class="cls-99"><g class="cls-100"><path class="cls-17" d="M88.58,216.73l.13,1.28A2.31,2.31,0,0,0,91,220.09H215.64a2.31,2.31,0,0,0,0-4.61L90.9,214.19a2.31,2.31,0,0,0-2.32,2.54" transform="translate(35.48)"/></g></g></g><g class="cls-101"><rect class="cls-102" x="90.52" y="198.67" width="75.97" height="36.94" transform="translate(-39.59 68.07) rotate(-23.17)"/></g><g class="cls-4"><path class="cls-17" d="M173.13,217.42a4.17,4.17,0,1,1-4.17-4.17,4.17,4.17,0,0,1,4.17,4.17" transform="translate(35.48)"/><g class="cls-99"><g class="cls-103"><rect class="cls-17" x="256.29" y="214.37" width="2.49" height="5.66"/></g></g><g class="cls-99"><g class="cls-104"><rect class="cls-17" x="263.08" y="212.79" width="2.49" height="7.24"/></g></g><g class="cls-99"><g class="cls-105"><rect class="cls-17" x="259.91" y="211.43" width="2.26" height="8.6"/></g></g><g class="cls-99"><g class="cls-106"><path class="cls-17" d="M84.33,232.91l.11,12A3.11,3.11,0,0,0,87.57,248l142.29-1.38a3.1,3.1,0,0,0,3.07-3.13l-.08-8.12a3.11,3.11,0,0,0-3-3.07L87.48,229.78a3.1,3.1,0,0,0-3.15,3.13" transform="translate(35.48)"/></g></g><g class="cls-99"><g class="cls-107"><path class="cls-17" d="M196.18,237.05H89.52a.81.81,0,0,1-.81-.81v-1.17a.81.81,0,0,1,.81-.81H196.18a.81.81,0,0,1,.81.81v1.17a.81.81,0,0,1-.81.81" transform="translate(35.48)"/></g></g><g class="cls-99"><g class="cls-108"><path class="cls-17" d="M164.32,240.45H89.52a.81.81,0,0,1-.81-.81v-.55a.8.8,0,0,1,.81-.8h74.8a.8.8,0,0,1,.8.8v.55a.8.8,0,0,1-.8.81" transform="translate(35.48)"/></g></g><g class="cls-99"><g class="cls-109"><path class="cls-17" d="M129.42,243.85h-40a.75.75,0,0,1-.75-.74v-.06a.75.75,0,0,1,.75-.74h40a.75.75,0,0,1,.75.74v.06a.75.75,0,0,1-.75.74" transform="translate(35.48)"/></g></g><g class="cls-99"><g class="cls-110"><path class="cls-17" d="M283.45,177.53l-38.75-1.28a1.65,1.65,0,0,1-1.62-1.65V148.68a1.66,1.66,0,0,1,1.66-1.66h38a1.67,1.67,0,0,1,1.66,1.61l.74,27.19a1.66,1.66,0,0,1-1.7,1.71" transform="translate(35.48)"/></g></g></g><g class="cls-111"><rect class="cls-112" x="253.61" y="151.71" width="20.54" height="20.54" transform="translate(12.97 279.68) rotate(-53.88)"/></g><g class="cls-4"><path class="cls-17" d="M269.45,165.72a.11.11,0,0,1-.08,0,.14.14,0,0,1-.05-.21,6.49,6.49,0,0,0,.82-1.89.16.16,0,1,1,.3.08,6.84,6.84,0,0,1-.86,2,.17.17,0,0,1-.13.07" transform="translate(35.48)"/><path class="cls-17" d="M270.5,162.14a.15.15,0,0,1-.15-.16,6.48,6.48,0,0,0-6.47-6.46.15.15,0,0,1-.15-.16.15.15,0,0,1,.15-.15,6.78,6.78,0,0,1,6.77,6.77.15.15,0,0,1-.15.16" transform="translate(35.48)"/><path class="cls-17" d="M261.51,165.82a.37.37,0,0,1-.38-.37l-.18-6.52a.63.63,0,0,1,.28-.53.61.61,0,0,1,.6,0l6.44,3a.61.61,0,0,1,.35.54.62.62,0,0,1-.32.56l-5.69,3a.37.37,0,0,1-.51-.16.38.38,0,0,1,.15-.51l5.42-2.89-5.95-2.79.17,6.28a.37.37,0,0,1-.37.39h0" transform="translate(35.48)"/><g class="cls-99"><g class="cls-113"><path class="cls-17" d="M283.45,211.56l-38.75-1.28a1.65,1.65,0,0,1-1.62-1.65V182.71a1.66,1.66,0,0,1,1.66-1.66h38a1.67,1.67,0,0,1,1.66,1.61l.74,27.19a1.66,1.66,0,0,1-1.7,1.71" transform="translate(35.48)"/></g></g></g><g class="cls-114"><rect class="cls-115" x="253.61" y="185.74" width="20.54" height="20.54" transform="translate(-14.52 293.65) rotate(-53.89)"/></g><g class="cls-4"><path class="cls-17" d="M269.45,199.75a.11.11,0,0,1-.08,0,.14.14,0,0,1-.05-.21,6.49,6.49,0,0,0,.82-1.89.16.16,0,1,1,.3.08,6.84,6.84,0,0,1-.86,2,.17.17,0,0,1-.13.07" transform="translate(35.48)"/><path class="cls-17" d="M270.5,196.17a.15.15,0,0,1-.15-.16,6.48,6.48,0,0,0-6.47-6.46.15.15,0,0,1-.15-.16.15.15,0,0,1,.15-.15,6.78,6.78,0,0,1,6.77,6.77.15.15,0,0,1-.15.16" transform="translate(35.48)"/><path class="cls-17" d="M261.51,199.85a.37.37,0,0,1-.38-.37L261,193a.63.63,0,0,1,.28-.53.61.61,0,0,1,.6,0l6.44,3a.61.61,0,0,1,.35.54.62.62,0,0,1-.32.56l-5.69,3a.37.37,0,0,1-.51-.16.38.38,0,0,1,.15-.51l5.42-2.89-5.95-2.79.17,6.28a.37.37,0,0,1-.37.39Z" transform="translate(35.48)"/><g class="cls-99"><g class="cls-116"><path class="cls-17" d="M283.81,220H244.43a1.34,1.34,0,0,1-1.35-1.34v-.1a1.34,1.34,0,0,1,1.35-1.34h39.38a1.35,1.35,0,0,1,1.35,1.34v.1a1.35,1.35,0,0,1-1.35,1.34" transform="translate(35.48)"/></g></g><g class="cls-99"><g class="cls-117"><path class="cls-17" d="M283.81,224.67H244.43a1.34,1.34,0,0,1-1.35-1.34v-.1a1.34,1.34,0,0,1,1.35-1.34h39.38a1.35,1.35,0,0,1,1.35,1.34v.1a1.35,1.35,0,0,1-1.35,1.34" transform="translate(35.48)"/></g></g><g class="cls-99"><g class="cls-118"><path class="cls-17" d="M283.81,229.31H244.43a1.34,1.34,0,0,1-1.35-1.34v-.1a1.34,1.34,0,0,1,1.35-1.34h39.38a1.35,1.35,0,0,1,1.35,1.34v.1a1.35,1.35,0,0,1-1.35,1.34" transform="translate(35.48)"/></g></g><g class="cls-99"><g class="cls-119"><path class="cls-17" d="M272.06,234H244.43a1.34,1.34,0,0,1-1.35-1.34v-.1a1.34,1.34,0,0,1,1.35-1.34h27.63a1.34,1.34,0,0,1,1.34,1.34v.1a1.34,1.34,0,0,1-1.34,1.34" transform="translate(35.48)"/></g></g><g class="cls-99"><g class="cls-120"><path class="cls-17" d="M283.81,241.38H244.43a1.34,1.34,0,0,1-1.35-1.34v-.1a1.35,1.35,0,0,1,1.35-1.35h39.38a1.36,1.36,0,0,1,1.35,1.35v.1a1.35,1.35,0,0,1-1.35,1.34" transform="translate(35.48)"/></g></g><g class="cls-99"><g class="cls-121"><path class="cls-17" d="M272.06,246H244.43a1.34,1.34,0,0,1-1.35-1.34v-.1a1.34,1.34,0,0,1,1.35-1.34h27.63a1.34,1.34,0,0,1,1.34,1.34v.1a1.34,1.34,0,0,1-1.34,1.34" transform="translate(35.48)"/></g></g></g><g class="cls-122"><rect class="cls-123" x="263.98" y="178.4" width="113.24" height="113.24"/></g><g class="cls-4"><path class="cls-17" d="M336.52,248.92h-.08a.32.32,0,0,1-.23-.39A53.18,53.18,0,0,0,338,235a.32.32,0,0,1,.32-.32.33.33,0,0,1,.33.32,54,54,0,0,1-1.76,13.66.32.32,0,0,1-.32.24" transform="translate(35.48)"/><path class="cls-17" d="M337.79,227.85h0a.32.32,0,0,1-.32-.28,52.86,52.86,0,0,0-68-43,.32.32,0,0,1-.4-.22.31.31,0,0,1,.21-.4,53.49,53.49,0,0,1,68.84,43.52.33.33,0,0,1-.28.37" transform="translate(35.48)"/><g class="cls-99"><g class="cls-124"><path class="cls-17" d="M300.69,206.33a15.56,15.56,0,1,1-15.56-15.56,15.57,15.57,0,0,1,15.56,15.56" transform="translate(35.48)"/></g></g><g class="cls-99"><g class="cls-125"><path class="cls-17" d="M296.72,206.33a11.59,11.59,0,1,1-11.59-11.59,11.59,11.59,0,0,1,11.59,11.59" transform="translate(35.48)"/></g></g><g class="cls-99"><g class="cls-126"><path class="cls-17" d="M300.69,264.16a15.56,15.56,0,1,1-15.56-15.56,15.56,15.56,0,0,1,15.56,15.56" transform="translate(35.48)"/></g></g><g class="cls-99"><g class="cls-127"><path class="cls-17" d="M256.21,219.69a15.56,15.56,0,1,1-15.56,15.56,15.56,15.56,0,0,1,15.56-15.56" transform="translate(35.48)"/></g></g><g class="cls-99"><g class="cls-128"><path class="cls-17" d="M296.72,264.16a11.59,11.59,0,1,1-11.59-11.59,11.59,11.59,0,0,1,11.59,11.59" transform="translate(35.48)"/></g></g><g class="cls-99"><g class="cls-129"><path class="cls-17" d="M256.21,223.66a11.59,11.59,0,1,1-11.58,11.59,11.58,11.58,0,0,1,11.58-11.59" transform="translate(35.48)"/></g></g><g class="cls-99"><g class="cls-130"><path class="cls-17" d="M314,219.69a15.56,15.56,0,1,1-15.56,15.56A15.56,15.56,0,0,1,314,219.69" transform="translate(35.48)"/></g></g><g class="cls-99"><g class="cls-131"><path class="cls-17" d="M314,223.66a11.59,11.59,0,1,1-11.59,11.59A11.59,11.59,0,0,1,314,223.66" transform="translate(35.48)"/></g></g><g class="cls-99"><g class="cls-132"><path class="cls-17" d="M291.72,236.35a5.3,5.3,0,1,1-5.29-5.3,5.3,5.3,0,0,1,5.29,5.3" transform="translate(35.48)"/></g></g></g><g class="cls-133"><polygon class="cls-134" points="304.84 116.93 298.66 110.37 306.19 105.24 312.37 111.81 304.84 116.93"/></g><g class="cls-135"><polygon class="cls-136" points="286.43 127.64 270.88 94.5 311.91 78.42 327.45 111.56 286.43 127.64"/></g><g class="cls-137"><polygon class="cls-138" points="291.59 123.13 268.71 98.82 297.69 79.08 320.57 103.39 291.59 123.13"/></g><g class="cls-139"><rect class="cls-140" x="265.84" y="109.53" width="5.58" height="5.01" transform="translate(69.33 284.07) rotate(-58.87)"/></g><g class="cls-4"><path class="cls-141" d="M229.91,204.49l-.79-.22a.17.17,0,0,1-.12-.21.18.18,0,0,1,.21-.12h0l.76.23h0a.18.18,0,0,1,.11.2.17.17,0,0,1-.2.11" transform="translate(35.48)"/><path class="cls-141" d="M227.58,203.72l-1.48-.7a.2.2,0,0,1-.1-.28.2.2,0,0,1,.27-.1h0l1.43.72h0a.18.18,0,0,1,.09.25.2.2,0,0,1-.25.09" transform="translate(35.48)"/><path class="cls-141" d="M224.68,202.18l-1.32-1a.25.25,0,0,1-.06-.34.24.24,0,0,1,.34,0h0l1.28,1h0a.22.22,0,0,1,.05.31.24.24,0,0,1-.32.05" transform="translate(35.48)"/><path class="cls-141" d="M222.12,200.14,221,199a.26.26,0,0,1,0-.37.26.26,0,0,1,.38,0h0l0,0,1.1,1.16v0a.25.25,0,0,1,0,.36.25.25,0,0,1-.35,0" transform="translate(35.48)"/><path class="cls-141" d="M219.92,197.7l-1-1.33A.31.31,0,0,1,219,196a.3.3,0,0,1,.41.07h0l0,0,.9,1.32,0,0a.29.29,0,0,1-.08.39.26.26,0,0,1-.38-.07" transform="translate(35.48)"/><path class="cls-141" d="M218.11,195l-.76-1.46a.33.33,0,1,1,.58-.3h0v0l.71,1.43v0a.32.32,0,0,1-.14.42.31.31,0,0,1-.41-.14" transform="translate(35.48)"/><path class="cls-141" d="M216.7,192l-.54-1.56a.34.34,0,0,1,.22-.44.34.34,0,0,1,.44.21h0v0l.5,1.52v0a.34.34,0,0,1-.21.43.35.35,0,0,1-.43-.21" transform="translate(35.48)"/><path class="cls-141" d="M215.73,188.84l-.32-1.61a.37.37,0,1,1,.73-.14h0v0l.29,1.57v0a.36.36,0,0,1-.71.13" transform="translate(35.48)"/><path class="cls-141" d="M215.21,185.59l-.08-1.65a.39.39,0,0,1,.78,0h0v0l.06,1.59v0a.38.38,0,0,1-.76,0" transform="translate(35.48)"/><path class="cls-141" d="M215.17,182.29l.15-1.64a.41.41,0,0,1,.81.08h0v0l-.17,1.59v0a.38.38,0,0,1-.43.35.39.39,0,0,1-.36-.43" transform="translate(35.48)"/><path class="cls-141" d="M215.57,179l.35-1.61a.44.44,0,0,1,.51-.33.43.43,0,0,1,.32.51h0v0l-.35,1.55v0a.41.41,0,0,1-.49.31.42.42,0,0,1-.32-.49" transform="translate(35.48)"/><path class="cls-141" d="M216.37,175.83l.53-1.56a.44.44,0,0,1,.83.29h0v0l-.53,1.5v0a.43.43,0,1,1-.81-.28" transform="translate(35.48)"/><path class="cls-141" d="M217.51,172.75l.69-1.49a.47.47,0,0,1,.61-.23.46.46,0,0,1,.22.61h0v0l-.69,1.45v0a.45.45,0,0,1-.81-.38" transform="translate(35.48)"/><path class="cls-141" d="M219,169.8l.83-1.42a.48.48,0,0,1,.65-.17.47.47,0,0,1,.16.65h0v0l-.82,1.37v0a.47.47,0,0,1-.8-.48" transform="translate(35.48)"/><path class="cls-141" d="M220.69,167l1-1.34a.49.49,0,1,1,.79.57h0v0l-.94,1.29,0,0a.48.48,0,0,1-.78-.56" transform="translate(35.48)"/><path class="cls-141" d="M222.66,164.38l1.07-1.25a.49.49,0,0,1,.7-.06.5.5,0,0,1,0,.7h0v0L223.42,165v0a.49.49,0,0,1-.69,0,.48.48,0,0,1-.06-.69" transform="translate(35.48)"/><path class="cls-141" d="M224.84,161.92l1.16-1.16a.51.51,0,0,1,.71,0,.5.5,0,0,1,0,.71h0l-1.14,1.13,0,0a.5.5,0,0,1-.7,0,.51.51,0,0,1,0-.71" transform="translate(35.48)"/><path class="cls-141" d="M227.21,159.65c.41-.37.83-.72,1.24-1.07a.51.51,0,1,1,.66.77h0l-1.22,1a.51.51,0,0,1-.71,0,.5.5,0,0,1,0-.71" transform="translate(35.48)"/><path class="cls-141" d="M229.74,157.56l1.32-1a.51.51,0,0,1,.72.11.53.53,0,0,1-.11.72h0l-1.29,1h0a.52.52,0,0,1-.71-.11.5.5,0,0,1,.11-.71" transform="translate(35.48)"/><path class="cls-141" d="M232.41,155.66l1.39-.88a.52.52,0,0,1,.71.16.53.53,0,0,1-.16.72h0l-1.35.85h0a.51.51,0,1,1-.55-.87" transform="translate(35.48)"/><path class="cls-141" d="M235.21,154l1.44-.77a.52.52,0,0,1,.71.21.53.53,0,0,1-.21.71h0l-1.41.75h0a.51.51,0,0,1-.7-.21.52.52,0,0,1,.21-.71" transform="translate(35.48)"/><path class="cls-141" d="M238.12,152.45l1.49-.68a.53.53,0,0,1,.7.26.52.52,0,0,1-.26.7h0l-1.46.66h0a.53.53,0,0,1-.43-1" transform="translate(35.48)"/><path class="cls-141" d="M241.13,151.14l1.53-.57a.52.52,0,0,1,.69.31.54.54,0,0,1-.31.69h0l-1.5.56h0a.53.53,0,0,1-.37-1" transform="translate(35.48)"/><path class="cls-141" d="M244.21,150l1.57-.47a.54.54,0,1,1,.32,1h0l-1.54.46h0a.54.54,0,0,1-.31-1" transform="translate(35.48)"/><path class="cls-141" d="M247.37,149.14l1.6-.37a.55.55,0,0,1,.25,1.07h0l-1.57.36h0a.54.54,0,0,1-.65-.41.55.55,0,0,1,.41-.65" transform="translate(35.48)"/><path class="cls-141" d="M250.58,148.46l1.62-.27a.55.55,0,1,1,.17,1.09h0l-1.58.26h0a.55.55,0,0,1-.63-.45.55.55,0,0,1,.46-.63Z" transform="translate(35.48)"/><path class="cls-141" d="M253.82,148l1.64-.16a.55.55,0,0,1,.1,1.09h0l-1.59.15h0a.56.56,0,0,1-.6-.5.53.53,0,0,1,.49-.59Z" transform="translate(35.48)"/><path class="cls-141" d="M257.09,147.73l1.64,0a.55.55,0,0,1,0,1.09h0l-1.61,0h0a.55.55,0,0,1,0-1.09Z" transform="translate(35.48)"/><path class="cls-141" d="M260.37,147.69l1.64.06a.54.54,0,1,1,0,1.08h0l-1.61-.06h0a.54.54,0,0,1-.52-.56.54.54,0,0,1,.56-.52Z" transform="translate(35.48)"/><path class="cls-141" d="M263.65,147.87l1.63.17a.54.54,0,0,1-.11,1.07h0l-1.59-.16h0a.54.54,0,0,1-.48-.59.53.53,0,0,1,.59-.48Z" transform="translate(35.48)"/><path class="cls-141" d="M266.9,148.27l1.62.28a.53.53,0,0,1-.19,1h0l-1.58-.28h0a.53.53,0,0,1,.18-1Z" transform="translate(35.48)"/><path class="cls-141" d="M270.12,148.89l1.59.4a.53.53,0,0,1,.39.64.54.54,0,0,1-.64.39h0l-1.56-.38h0a.53.53,0,0,1-.39-.64.54.54,0,0,1,.64-.39Z" transform="translate(35.48)"/><path class="cls-141" d="M273.29,149.74l1.56.51a.53.53,0,0,1,.33.67.52.52,0,0,1-.66.33h0l-1.52-.5h0a.52.52,0,0,1-.34-.66.53.53,0,0,1,.67-.34Z" transform="translate(35.48)"/><path class="cls-141" d="M276.39,150.82l1.51.61a.52.52,0,1,1-.39,1h0l-1.49-.6h0a.52.52,0,1,1,.39-1Z" transform="translate(35.48)"/><path class="cls-141" d="M279.4,152.08l1.49.66a.52.52,0,0,1-.42.95h0L279,153h0a.54.54,0,0,1-.27-.69.52.52,0,0,1,.69-.26Z" transform="translate(35.48)"/><path class="cls-141" d="M282.37,153.41l1.47.67h0a.51.51,0,0,1-.42.94l-1.48-.67a.51.51,0,1,1,.42-.94h0Z" transform="translate(35.48)"/><path class="cls-141" d="M285.32,154.73l1.48.63h0a.51.51,0,1,1-.4.94l-1.5-.63a.52.52,0,0,1-.27-.68.51.51,0,0,1,.67-.27h0Z" transform="translate(35.48)"/><path class="cls-141" d="M288.3,156l1.5.54h0a.51.51,0,0,1,.31.65.52.52,0,0,1-.65.31l-1.55-.56a.51.51,0,0,1,.35-1h0Z" transform="translate(35.48)"/><path class="cls-141" d="M291.33,157l1.54.41h0a.5.5,0,0,1,.36.61.51.51,0,0,1-.62.36l-1.59-.41a.51.51,0,0,1-.37-.62.51.51,0,0,1,.62-.36h0Z" transform="translate(35.48)"/><path class="cls-141" d="M294.43,157.7l1.57.2h0a.5.5,0,0,1-.13,1l-1.64-.21a.5.5,0,0,1-.44-.56.51.51,0,0,1,.56-.44h0Z" transform="translate(35.48)"/><path class="cls-141" d="M297.58,158l1.58-.06h0a.5.5,0,1,1,0,1l-1.67.06a.5.5,0,1,1,0-1h0Z" transform="translate(35.48)"/><path class="cls-141" d="M300.72,157.72l1.53-.35h.05a.49.49,0,1,1,.22,1l-1.63.38a.48.48,0,0,1-.59-.37.49.49,0,0,1,.37-.59h0Z" transform="translate(35.48)"/><path class="cls-141" d="M303.74,156.86l1.43-.65h.05a.48.48,0,0,1,.65.24.49.49,0,0,1-.25.65l-1.52.69a.49.49,0,0,1-.65-.25.5.5,0,0,1,.24-.65h0Z" transform="translate(35.48)"/><path class="cls-141" d="M306.55,155.44l1.3-.9,0,0a.49.49,0,0,1,.56.8l-1.37,1a.49.49,0,0,1-.56-.81h0Z" transform="translate(35.48)"/><path class="cls-141" d="M309.07,153.54l1.14-1.1,0,0a.48.48,0,0,1,.66.69l-1.18,1.16a.49.49,0,0,1-.68,0,.48.48,0,0,1,0-.68h0Z" transform="translate(35.48)"/><path class="cls-141" d="M311.25,151.25l.95-1.27,0,0a.45.45,0,0,1,.65-.09.46.46,0,0,1,.09.65l-1,1.33a.47.47,0,0,1-.66.1.48.48,0,0,1-.1-.66h0Z" transform="translate(35.48)"/><path class="cls-141" d="M313.05,148.64l.73-1.41v0a.46.46,0,0,1,.82.42l-.76,1.48a.47.47,0,0,1-.62.2.46.46,0,0,1-.2-.62h0Z" transform="translate(35.48)"/><path class="cls-141" d="M314.39,145.77l.49-1.5v0a.46.46,0,0,1,.56-.29.45.45,0,0,1,.29.56l-.5,1.58a.46.46,0,0,1-.57.3.45.45,0,0,1-.29-.57h0Z" transform="translate(35.48)"/><path class="cls-141" d="M315.23,142.72l.12-.78c0-.26.08-.52.1-.78a.45.45,0,0,1,.47-.41.44.44,0,0,1,.4.47h0c0,.28-.07.55-.1.83l-.12.82a.44.44,0,1,1-.87-.12h0Z" transform="translate(35.48)"/><path class="cls-141" d="M315.53,139.57l-.06-1.58v0a.43.43,0,0,1,.41-.44.44.44,0,0,1,.44.41l.07,1.66a.43.43,0,1,1-.86,0h0Z" transform="translate(35.48)"/><path class="cls-141" d="M315.29,136.41l-.31-1.56v0a.43.43,0,0,1,.33-.49.42.42,0,0,1,.49.33l.33,1.62a.42.42,0,0,1-.33.5.43.43,0,0,1-.5-.33h0Z" transform="translate(35.48)"/><path class="cls-141" d="M314.55,133.32l-.54-1.49v0a.4.4,0,1,1,.76-.28l.57,1.55a.41.41,0,1,1-.77.29h0Z" transform="translate(35.48)"/><path class="cls-141" d="M313.35,130.38l-.77-1.39,0,0a.41.41,0,0,1,.16-.54.39.39,0,0,1,.53.16l.81,1.44a.4.4,0,0,1-.15.54.41.41,0,0,1-.55-.15h0Z" transform="translate(35.48)"/><path class="cls-141" d="M311.7,127.66l-1-1.25,0,0a.39.39,0,0,1,.61-.47l1,1.29a.39.39,0,0,1-.06.55.4.4,0,0,1-.55-.06h0Z" transform="translate(35.48)"/><path class="cls-141" d="M309.65,125.24l-.59-.54c-.19-.18-.38-.37-.59-.54a.38.38,0,0,1,.48-.58h0c.21.17.41.36.61.55l.61.56a.36.36,0,0,1,0,.53.37.37,0,0,1-.53,0h0Z" transform="translate(35.48)"/><path class="cls-141" d="M307.22,123.19l-1.34-.86,0,0a.37.37,0,0,1,.39-.62l1.39.89a.37.37,0,0,1,.11.51.36.36,0,0,1-.51.12h0Z" transform="translate(35.48)"/><path class="cls-141" d="M304.48,121.57l-1.46-.64h0a.36.36,0,0,1-.18-.47.36.36,0,0,1,.47-.18l1.51.65a.36.36,0,0,1,.19.48.36.36,0,0,1-.47.18h0Z" transform="translate(35.48)"/><path class="cls-141" d="M301.52,120.4,300,120h0a.34.34,0,0,1-.24-.41.33.33,0,0,1,.41-.24l1.6.41a.35.35,0,0,1,.25.42.36.36,0,0,1-.42.25h0Z" transform="translate(35.48)"/><path class="cls-141" d="M298.4,119.69l-1.58-.17h0a.32.32,0,0,1,.07-.64l1.64.16a.33.33,0,1,1-.07.65h0Z" transform="translate(35.48)"/><path class="cls-141" d="M295.22,119.47l-1.59.09h0a.3.3,0,0,1,0-.6l1.64-.11a.31.31,0,0,1,.33.29.31.31,0,0,1-.29.33h0Z" transform="translate(35.48)"/><path class="cls-141" d="M292,119.77l-.78.16-.39.09-.39.09h0a.28.28,0,0,1-.34-.21.28.28,0,0,1,.21-.34l.39-.1.4-.09.81-.18a.3.3,0,0,1,.35.22.3.3,0,0,1-.22.35h0Z" transform="translate(35.48)"/><path class="cls-141" d="M288.94,120.57l-1.53.51h0a.26.26,0,0,1-.34-.16.27.27,0,0,1,.16-.34l1.54-.53a.27.27,0,1,1,.18.51h0Z" transform="translate(35.48)"/><path class="cls-141" d="M285.87,121.61l-1.56.48a.25.25,0,0,1-.15-.47h0l1.53-.5h0a.26.26,0,0,1,.32.17.26.26,0,0,1-.16.32h0" transform="translate(35.48)"/><path class="cls-141" d="M282.72,122.48a15,15,0,0,1-1.64.22.23.23,0,0,1-.24-.22.22.22,0,0,1,.21-.24,12.13,12.13,0,0,0,1.57-.23.23.23,0,0,1,.28.18.24.24,0,0,1-.18.29h0" transform="translate(35.48)"/><path class="cls-141" d="M279.42,122.68a7.33,7.33,0,0,1-1.62-.37.21.21,0,0,1-.13-.27.2.2,0,0,1,.26-.13,6.85,6.85,0,0,0,1.54.34.21.21,0,0,1,.19.24.22.22,0,0,1-.24.2h0" transform="translate(35.48)"/><path class="cls-141" d="M276.3,121.59a7.64,7.64,0,0,1-1.33-1,.19.19,0,0,1,.27-.28,7.3,7.3,0,0,0,1.26,1,.2.2,0,0,1-.2.34h0" transform="translate(35.48)"/><path class="cls-141" d="M273.91,119.3a5,5,0,0,1-.64-1.55.16.16,0,0,1,.13-.2.17.17,0,0,1,.21.13,4.48,4.48,0,0,0,.62,1.42.19.19,0,0,1-.06.26.18.18,0,0,1-.25-.06h0" transform="translate(35.48)"/><path class="cls-141" d="M273.24,116.06a4.67,4.67,0,0,1,.26-.8.16.16,0,1,1,.29.13,3.92,3.92,0,0,0-.22.74.17.17,0,0,1-.2.13.18.18,0,0,1-.13-.2h0" transform="translate(35.48)"/></g></g></g><g id="Top"><g id="Bottom"><path class="cls-142" d="M345.43,489.45c-24.9,7-49.81-11.64-63.73-41-1-2-12.89-20.14-21-24.35a76.58,76.58,0,0,0-36-8.4c-28.93.23-108.08-3.14-149.15-44.64-80.19-80.14,18.28-166.32,84.49-123.24a76.92,76.92,0,0,1,18.32,17.09c21.46,27.29,32.3,57.67,57.28,61.83,23.35,3.89,39.39-7.55,44.25-29.12a35.83,35.83,0,0,1,13-20.62c4.86-3.74,10.79-6.31,18.6-7.56a56.76,56.76,0,0,1,15-.18c43.76,4.64,61.29-64.57,61.29-64.57V371.07S389.18,484.81,345.43,489.45Z" transform="translate(35.48)"/></g><path class="cls-143" d="M171.71,0S212.93,61.26,293,89.56a70.92,70.92,0,0,0,94.73-67.12V0Z" transform="translate(35.48)"/><path class="cls-144" d="M38.23,0S12,82,106.14,101.47C192.71,119.41,233.56,0,387.75,0H38.23Z" transform="translate(35.48)"/></g></g></g></g></svg>