<svg xmlns="http://www.w3.org/2000/svg" viewBox="0 0 660.16 1113.21"><defs><style>.cls-1{isolation:isolate;}.cls-2{fill:#9083ad;opacity:0.11;}.cls-2,.cls-3{mix-blend-mode:multiply;}.cls-3{fill:#d8d8d8;}</style></defs><title>Sction aboutus  bg layer overlay </title><g class="cls-1"><g id="Layer_2" data-name="Layer 2"><g id="bg_About_us_Dr." data-name="bg About us Dr."><path class="cls-2" d="M481.41,742.14c-64.49,0-128.85,64.64-112.86,127.12,78.91,308.3-194.71,180.52-239.43,102.65C89.71,903.28,31.74,908.22,0,955.24c0,42.73.16,158,.16,158h660V742.14C660.16,740.47,481.41,742.14,481.41,742.14Z"/><path class="cls-3" d="M481.41,742.14c-62.79,0-108.76,59.33-92.88,120.07,81.69,312.5-195,189.57-238.62,105.79C97.53,867.35-4.64,924.3.16,1032.45c2.05,46,0,80.76,0,80.76h660V742.14Z"/><path class="cls-3" d="M472.35,742.56s146.49-17.18,187.81-82.18v81.76Z"/><path class="cls-3" d="M485.7,371.15c-123.86,22.23-143.61,207.94-13.35,254.23,98.49,35,187.81-29,187.81-29V371.07S485.81,371.13,485.7,371.15Z"/></g><g id="bg_About_us_SMOC" data-name="bg About us SMOC"><path class="cls-3" d="M481.41,371.07H660.16V0H385.09c-9.22,87.05,58.25,48.17,61.45,105.43-22.62,42.43-6.84,77.18,45.27,113.26,30.38,21,61.36-8.64,89.36,31C646.63,357.63,481.41,371.07,481.41,371.07Z"/></g></g></g></svg>