<svg id="bg_Home" data-name="bg Home" xmlns="http://www.w3.org/2000/svg" xmlns:xlink="http://www.w3.org/1999/xlink" viewBox="0 0 660 522.13" preserveAspectRatio="none"><defs><style>.cls-1{fill:#f4f0f2;}.cls-2{fill:#246ccc;}.cls-3{fill:url(#linear-gradient);}.cls-4{fill:#09f;}.cls-5{fill:#0a0a4a;}.cls-6{fill:#f176bb;}.cls-7{fill:#d7d6d8;}</style><linearGradient id="linear-gradient" x1="669.32" y1="357.93" x2="352.32" y2="227.93" gradientUnits="userSpaceOnUse"><stop offset="0.31" stop-color="#0a0a4a"/><stop offset="0.44" stop-color="#452069"/><stop offset="0.66" stop-color="#a8459e"/><stop offset="0.82" stop-color="#e75dbf"/><stop offset="0.9" stop-color="#f6c"/></linearGradient></defs><title>Home welcome section</title><rect class="cls-1" x="0.2" width="660" height="371.07"/><g id="colour_design" data-name="colour design"><path class="cls-2" d="M395.61,352.93c-16.67-18-33.09-48.28-8.53-85.78a171.49,171.49,0,0,1,50.15-52.33c94.19-71.69,161.66-51.23,196.34-29.42a57.55,57.55,0,0,1,26.65,48.84l-.07,79.29c0,31.78-25.48,57.54-56.87,57.54H437.05A56.48,56.48,0,0,1,395.61,352.93Z"/><g id="Bottom"><path class="cls-3" d="M660.21,371.07V204.7S642.05,270,596.74,265.18a58.84,58.84,0,0,0-15.63.2c-8,1.31-14.15,4-19.17,7.84a37.39,37.39,0,0,0-13.44,21.45c-5,22.45-21.65,34.35-45.85,30.3-25.87-4.33-37.1-35.93-59.33-64.31a79.57,79.57,0,0,0-19-17.78c-68.58-44.82-170.6,44.83-87.52,128.19"/><path class="cls-4" d="M660.21,204.7,660,521.05.21,523.22V371.07H347c-80.46-80.14,18.34-166.32,84.76-123.23a77,77,0,0,1,18.38,17.09c21.52,27.28,32.4,57.66,57.46,61.82,23.43,3.89,39.52-7.55,44.39-29.12a35.86,35.86,0,0,1,13-20.62c4.87-3.74,10.82-6.31,18.65-7.56a57.14,57.14,0,0,1,15-.18C642.62,273.92,660.21,204.7,660.21,204.7Z"/></g><g id="Top"><path class="cls-5" d="M443.07,0s41.38,61.26,121.77,89.56c46.56,16.4,95.38-18,95.37-67.38V0Z"/><path class="cls-6" d="M309.07,0s-26.33,82,68.17,101.47C464.15,119.41,505.43,0,660.2,0H309.07Z"/></g></g><g id="bottom_light_design" data-name="bottom light design"><path class="cls-7" d="M336.82,371.07S281.66,386.59,236.33,448c-4.4,6-9.21,11.95-14.46,17.85C142,555.72.2,495.05.2,371.07Z"/><path class="cls-1" d="M.2,371.07H336.82s-55.16,14.53-100.49,72c-4.4,5.59-9.21,11.2-14.46,16.72C142,543.91.2,487.12.2,371.07Z"/></g></svg>