<svg xmlns="http://www.w3.org/2000/svg" xmlns:xlink="http://www.w3.org/1999/xlink" viewBox="0 0 336.11 93.89" preserveAspectRatio="none"><defs><style>.cls-1{isolation:isolate;}.cls-2{fill:#606060;opacity:0.3;}.cls-3{fill:#0a0a4a;}.cls-4{fill:#fff;}.cls-5{fill:#e8e8e8;}.cls-6{opacity:0.5;mix-blend-mode:screen;}.cls-7,.cls-8,.cls-9{mix-blend-mode:overlay;}.cls-7{fill:url(#linear-gradient);}.cls-8{fill:url(#linear-gradient-2);}.cls-9{fill:url(#linear-gradient-3);}</style><linearGradient id="linear-gradient" y1="44.05" x2="88.1" y2="44.05" gradientUnits="userSpaceOnUse"><stop offset="0" stop-color="#ffa6df"/><stop offset="0.17" stop-color="#f092d4"/><stop offset="0.53" stop-color="#c95eb9"/><stop offset="1" stop-color="#8f108f"/></linearGradient><linearGradient id="linear-gradient-2" x1="121.3" y1="44.05" x2="209.41" y2="44.05" xlink:href="#linear-gradient"/><linearGradient id="linear-gradient-3" x1="242.29" y1="44.05" x2="330.4" y2="44.05" xlink:href="#linear-gradient"/></defs><title>Wheelchai assist</title><g class="cls-1"><g id="Layer_2" data-name="Layer 2"><g id="home_openig_time" data-name="home openig time"><rect class="cls-2" x="5.71" y="5.78" width="88.1" height="88.1" rx="12" ry="12"/><rect class="cls-2" x="127.01" y="5.78" width="88.11" height="88.11" rx="12" ry="12"/><rect class="cls-2" x="248" y="5.78" width="88.11" height="88.11" rx="12" ry="12"/><rect class="cls-3" x="2.2" y="2.35" width="88.1" height="88.1" rx="12" ry="12"/><rect class="cls-3" x="123.51" y="2.35" width="88.11" height="88.11" rx="12" ry="12"/><rect class="cls-3" x="244.5" y="2.35" width="88.11" height="88.11" rx="12" ry="12"/><g id="WA_toilet" data-name="WA toilet"><g id="Wheel_chair" data-name="Wheel chair"><circle class="cls-4" cx="269.36" cy="30" r="3.61"/><path class="cls-4" d="M282.7,55.86A11.08,11.08,0,1,1,266,42.46l-.43-3.09a13.91,13.91,0,1,0,18.79,19.41Z"/><path class="cls-4" d="M294,57.62A1.34,1.34,0,0,1,293,58.9l-1.52.49-2.7.88a1.35,1.35,0,0,1-1.57-.6v0l-4.47-7.73H272.59a3.69,3.69,0,0,1-3.55-3.1l-.22-1.4-1.43-9a3.69,3.69,0,0,1,3.06-4.21,3.64,3.64,0,0,1,.57,0,3.68,3.68,0,0,1,3.63,3.1l1.46,9.18h7.19a1.87,1.87,0,0,1,1.63.93L286,49.24l4.44,7.68,1.76-.57a1.35,1.35,0,0,1,1.69.86A1.51,1.51,0,0,1,294,57.62Z"/><rect class="cls-4" x="275.85" y="40.86" width="9.62" height="2.9" rx="0.96" ry="0.96"/></g><g id="toilet"><path class="cls-4" d="M319.15,30.2l-.06.06V38.8a2,2,0,0,1-1.95,2h-1.92a2,2,0,0,1-2-2V30.57h-.93a1.25,1.25,0,1,1,0-2.5h5.94a1.25,1.25,0,0,1,1.25,1.25A1.22,1.22,0,0,1,319.15,30.2Z"/><path class="cls-4" d="M319.09,50.51a1.49,1.49,0,0,1,0,.21h0V64.54l-8.18.06-1.7-7.6c-8-1.33-7.67-6.28-7.67-6.28h0a.76.76,0,0,1,0-.21V48.68a.78.78,0,0,1,.77-.77h16a.77.77,0,0,1,.76.77Z"/><path class="cls-5" d="M317.75,45.13H298a5.68,5.68,0,0,1,0-11.35h19.72a1.34,1.34,0,0,1,1.34,1.35v8.65A1.35,1.35,0,0,1,317.75,45.13ZM298,34.16a5.29,5.29,0,1,0,0,10.58h19.72a1,1,0,0,0,1-1V35.13a1,1,0,0,0-1-1ZM316.5,44H298.1a4.52,4.52,0,0,1,0-9h18.4a1.45,1.45,0,0,1,1.44,1.45v6.15A1.44,1.44,0,0,1,316.5,44Zm-18.4-8.65a4.14,4.14,0,1,0,0,8.27h18.4a1.06,1.06,0,0,0,1.05-1.06V36.38a1.05,1.05,0,0,0-1.05-1.06Z"/></g></g><g id="WA_lift" data-name="WA lift"><g id="Lift"><g id="Wheel_chair-2" data-name="Wheel chair"><circle class="cls-4" cx="156.06" cy="30" r="3.61"/><path class="cls-4" d="M169.41,55.86a11.09,11.09,0,1,1-16.73-13.4l-.43-3.09a13.91,13.91,0,1,0,18.8,19.41Z"/><path class="cls-4" d="M180.67,57.62a1.34,1.34,0,0,1-.93,1.28l-1.51.49-2.71.88a1.35,1.35,0,0,1-1.56-.6l0,0-4.46-7.73H159.3a3.7,3.7,0,0,1-3.56-3.1l-.22-1.4-1.42-9a3.68,3.68,0,0,1,3.05-4.21,3.86,3.86,0,0,1,.58,0,3.7,3.7,0,0,1,3.63,3.1l1.45,9.18H170a1.88,1.88,0,0,1,1.63.93l1.08,1.88,4.44,7.68,1.76-.57a1.34,1.34,0,0,1,1.68.86A1.22,1.22,0,0,1,180.67,57.62Z"/><rect class="cls-4" x="162.55" y="40.86" width="9.62" height="2.9" rx="0.96" ry="0.96"/></g><path class="cls-4" d="M185.41,17.39H137.77a2.08,2.08,0,0,0-2,2.13V70a2.08,2.08,0,0,0,2,2.13h47.64a2.08,2.08,0,0,0,2-2.13V19.52A2.08,2.08,0,0,0,185.41,17.39Zm-1.18,49.2a2.08,2.08,0,0,1-2,2.13H141a2.08,2.08,0,0,1-2-2.13V22.9a2.08,2.08,0,0,1,2-2.13h41.26a2.08,2.08,0,0,1,2,2.13Z"/><polygon class="cls-4" points="200.45 59.48 197.94 63.81 195.44 68.15 192.94 63.81 190.43 59.48 195.44 61.59 200.45 59.48"/><polygon class="cls-4" points="200.45 30.78 197.94 26.44 195.44 22.11 192.94 26.44 190.43 30.78 195.44 28.66 200.45 30.78"/></g></g><g id="WA_enterance" data-name="WA enterance"><path class="cls-4" d="M78.17,64.13a1.09,1.09,0,1,0,0-2.18H67.37L20,77.77a1.68,1.68,0,0,0-.72,2.42L67.37,64.13Z"/><path class="cls-4" d="M14.34,59.06a1.66,1.66,0,0,1-1.49-2.42,1.64,1.64,0,0,1,1-.83L65.28,38.67a1.67,1.67,0,0,1,.49-.08l.1,0H77.36a1.67,1.67,0,0,1,0,3.34H66.1L14.86,59A1.54,1.54,0,0,1,14.34,59.06Zm51.37-20a1.31,1.31,0,0,0-.27.06L14,56.28a1.17,1.17,0,0,0-.68.59,1.15,1.15,0,0,0-.06.89,1.16,1.16,0,0,0,1.11.8,1.19,1.19,0,0,0,.37-.06L66,41.42H77.36a1.17,1.17,0,0,0,1.17-1.17,1.19,1.19,0,0,0-.34-.83,1.16,1.16,0,0,0-.83-.34H65.71Z"/><path class="cls-4" d="M71.87,44.31a1.41,1.41,0,1,1,1.41-1.4A1.4,1.4,0,0,1,71.87,44.31Zm0-2.55A1.15,1.15,0,1,0,73,42.91,1.15,1.15,0,0,0,71.87,41.76Z"/><path class="cls-4" d="M17.9,60.7a1.41,1.41,0,1,1,1.4-1.41A1.41,1.41,0,0,1,17.9,60.7Zm0-2.55A1.15,1.15,0,1,0,19,59.29,1.14,1.14,0,0,0,17.9,58.15Z"/><g id="Wheel_chair-3" data-name="Wheel chair"><circle class="cls-4" cx="39.5" cy="29.97" r="3.61"/><path class="cls-4" d="M52.85,55.84a11.09,11.09,0,1,1-16.73-13.4l-.43-3.1a13.91,13.91,0,1,0,18.8,19.41Z"/><path class="cls-4" d="M64.11,57.6a1.34,1.34,0,0,1-.93,1.28l-1.51.49L59,60.24a1.33,1.33,0,0,1-1.56-.59l0,0-4.46-7.73H42.74a3.71,3.71,0,0,1-3.56-3.1L39,47.39l-1.42-9a3.69,3.69,0,0,1,3.05-4.21,3.86,3.86,0,0,1,.58,0,3.69,3.69,0,0,1,3.63,3.1l1.45,9.17h7.2a1.89,1.89,0,0,1,1.63.94l1.08,1.88L60.6,56.9l1.76-.57a1.33,1.33,0,0,1,1.68.86A1.22,1.22,0,0,1,64.11,57.6Z"/><rect class="cls-4" x="45.99" y="40.83" width="9.62" height="2.9" rx="0.96" ry="0.96"/></g></g><g class="cls-6"><rect class="cls-7" width="88.1" height="88.1" rx="12" ry="12"/><rect class="cls-8" x="121.3" width="88.11" height="88.11" rx="12" ry="12"/><rect class="cls-9" x="242.29" width="88.11" height="88.11" rx="12" ry="12"/></g></g></g></g></svg>